G75*
%MOIN*%
%OFA0B0*%
%FSLAX25Y25*%
%IPPOS*%
%LPD*%
%AMOC8*
5,1,8,0,0,1.08239X$1,22.5*
%
%ADD10C,0.00000*%
%ADD11C,0.02400*%
D10*
X0002579Y0005050D02*
X0002581Y0005163D01*
X0002587Y0005277D01*
X0002597Y0005390D01*
X0002611Y0005502D01*
X0002628Y0005614D01*
X0002650Y0005726D01*
X0002676Y0005836D01*
X0002705Y0005946D01*
X0002738Y0006054D01*
X0002775Y0006162D01*
X0002816Y0006267D01*
X0002860Y0006372D01*
X0002908Y0006475D01*
X0002959Y0006576D01*
X0003014Y0006675D01*
X0003073Y0006772D01*
X0003135Y0006867D01*
X0003200Y0006960D01*
X0003268Y0007051D01*
X0003339Y0007139D01*
X0003414Y0007225D01*
X0003491Y0007308D01*
X0003571Y0007388D01*
X0003654Y0007465D01*
X0003740Y0007540D01*
X0003828Y0007611D01*
X0003919Y0007679D01*
X0004012Y0007744D01*
X0004107Y0007806D01*
X0004204Y0007865D01*
X0004303Y0007920D01*
X0004404Y0007971D01*
X0004507Y0008019D01*
X0004612Y0008063D01*
X0004717Y0008104D01*
X0004825Y0008141D01*
X0004933Y0008174D01*
X0005043Y0008203D01*
X0005153Y0008229D01*
X0005265Y0008251D01*
X0005377Y0008268D01*
X0005489Y0008282D01*
X0005602Y0008292D01*
X0005716Y0008298D01*
X0005829Y0008300D01*
X0005942Y0008298D01*
X0006056Y0008292D01*
X0006169Y0008282D01*
X0006281Y0008268D01*
X0006393Y0008251D01*
X0006505Y0008229D01*
X0006615Y0008203D01*
X0006725Y0008174D01*
X0006833Y0008141D01*
X0006941Y0008104D01*
X0007046Y0008063D01*
X0007151Y0008019D01*
X0007254Y0007971D01*
X0007355Y0007920D01*
X0007454Y0007865D01*
X0007551Y0007806D01*
X0007646Y0007744D01*
X0007739Y0007679D01*
X0007830Y0007611D01*
X0007918Y0007540D01*
X0008004Y0007465D01*
X0008087Y0007388D01*
X0008167Y0007308D01*
X0008244Y0007225D01*
X0008319Y0007139D01*
X0008390Y0007051D01*
X0008458Y0006960D01*
X0008523Y0006867D01*
X0008585Y0006772D01*
X0008644Y0006675D01*
X0008699Y0006576D01*
X0008750Y0006475D01*
X0008798Y0006372D01*
X0008842Y0006267D01*
X0008883Y0006162D01*
X0008920Y0006054D01*
X0008953Y0005946D01*
X0008982Y0005836D01*
X0009008Y0005726D01*
X0009030Y0005614D01*
X0009047Y0005502D01*
X0009061Y0005390D01*
X0009071Y0005277D01*
X0009077Y0005163D01*
X0009079Y0005050D01*
X0009077Y0004937D01*
X0009071Y0004823D01*
X0009061Y0004710D01*
X0009047Y0004598D01*
X0009030Y0004486D01*
X0009008Y0004374D01*
X0008982Y0004264D01*
X0008953Y0004154D01*
X0008920Y0004046D01*
X0008883Y0003938D01*
X0008842Y0003833D01*
X0008798Y0003728D01*
X0008750Y0003625D01*
X0008699Y0003524D01*
X0008644Y0003425D01*
X0008585Y0003328D01*
X0008523Y0003233D01*
X0008458Y0003140D01*
X0008390Y0003049D01*
X0008319Y0002961D01*
X0008244Y0002875D01*
X0008167Y0002792D01*
X0008087Y0002712D01*
X0008004Y0002635D01*
X0007918Y0002560D01*
X0007830Y0002489D01*
X0007739Y0002421D01*
X0007646Y0002356D01*
X0007551Y0002294D01*
X0007454Y0002235D01*
X0007355Y0002180D01*
X0007254Y0002129D01*
X0007151Y0002081D01*
X0007046Y0002037D01*
X0006941Y0001996D01*
X0006833Y0001959D01*
X0006725Y0001926D01*
X0006615Y0001897D01*
X0006505Y0001871D01*
X0006393Y0001849D01*
X0006281Y0001832D01*
X0006169Y0001818D01*
X0006056Y0001808D01*
X0005942Y0001802D01*
X0005829Y0001800D01*
X0005716Y0001802D01*
X0005602Y0001808D01*
X0005489Y0001818D01*
X0005377Y0001832D01*
X0005265Y0001849D01*
X0005153Y0001871D01*
X0005043Y0001897D01*
X0004933Y0001926D01*
X0004825Y0001959D01*
X0004717Y0001996D01*
X0004612Y0002037D01*
X0004507Y0002081D01*
X0004404Y0002129D01*
X0004303Y0002180D01*
X0004204Y0002235D01*
X0004107Y0002294D01*
X0004012Y0002356D01*
X0003919Y0002421D01*
X0003828Y0002489D01*
X0003740Y0002560D01*
X0003654Y0002635D01*
X0003571Y0002712D01*
X0003491Y0002792D01*
X0003414Y0002875D01*
X0003339Y0002961D01*
X0003268Y0003049D01*
X0003200Y0003140D01*
X0003135Y0003233D01*
X0003073Y0003328D01*
X0003014Y0003425D01*
X0002959Y0003524D01*
X0002908Y0003625D01*
X0002860Y0003728D01*
X0002816Y0003833D01*
X0002775Y0003938D01*
X0002738Y0004046D01*
X0002705Y0004154D01*
X0002676Y0004264D01*
X0002650Y0004374D01*
X0002628Y0004486D01*
X0002611Y0004598D01*
X0002597Y0004710D01*
X0002587Y0004823D01*
X0002581Y0004937D01*
X0002579Y0005050D01*
X0062579Y0005050D02*
X0062581Y0005163D01*
X0062587Y0005277D01*
X0062597Y0005390D01*
X0062611Y0005502D01*
X0062628Y0005614D01*
X0062650Y0005726D01*
X0062676Y0005836D01*
X0062705Y0005946D01*
X0062738Y0006054D01*
X0062775Y0006162D01*
X0062816Y0006267D01*
X0062860Y0006372D01*
X0062908Y0006475D01*
X0062959Y0006576D01*
X0063014Y0006675D01*
X0063073Y0006772D01*
X0063135Y0006867D01*
X0063200Y0006960D01*
X0063268Y0007051D01*
X0063339Y0007139D01*
X0063414Y0007225D01*
X0063491Y0007308D01*
X0063571Y0007388D01*
X0063654Y0007465D01*
X0063740Y0007540D01*
X0063828Y0007611D01*
X0063919Y0007679D01*
X0064012Y0007744D01*
X0064107Y0007806D01*
X0064204Y0007865D01*
X0064303Y0007920D01*
X0064404Y0007971D01*
X0064507Y0008019D01*
X0064612Y0008063D01*
X0064717Y0008104D01*
X0064825Y0008141D01*
X0064933Y0008174D01*
X0065043Y0008203D01*
X0065153Y0008229D01*
X0065265Y0008251D01*
X0065377Y0008268D01*
X0065489Y0008282D01*
X0065602Y0008292D01*
X0065716Y0008298D01*
X0065829Y0008300D01*
X0065942Y0008298D01*
X0066056Y0008292D01*
X0066169Y0008282D01*
X0066281Y0008268D01*
X0066393Y0008251D01*
X0066505Y0008229D01*
X0066615Y0008203D01*
X0066725Y0008174D01*
X0066833Y0008141D01*
X0066941Y0008104D01*
X0067046Y0008063D01*
X0067151Y0008019D01*
X0067254Y0007971D01*
X0067355Y0007920D01*
X0067454Y0007865D01*
X0067551Y0007806D01*
X0067646Y0007744D01*
X0067739Y0007679D01*
X0067830Y0007611D01*
X0067918Y0007540D01*
X0068004Y0007465D01*
X0068087Y0007388D01*
X0068167Y0007308D01*
X0068244Y0007225D01*
X0068319Y0007139D01*
X0068390Y0007051D01*
X0068458Y0006960D01*
X0068523Y0006867D01*
X0068585Y0006772D01*
X0068644Y0006675D01*
X0068699Y0006576D01*
X0068750Y0006475D01*
X0068798Y0006372D01*
X0068842Y0006267D01*
X0068883Y0006162D01*
X0068920Y0006054D01*
X0068953Y0005946D01*
X0068982Y0005836D01*
X0069008Y0005726D01*
X0069030Y0005614D01*
X0069047Y0005502D01*
X0069061Y0005390D01*
X0069071Y0005277D01*
X0069077Y0005163D01*
X0069079Y0005050D01*
X0069077Y0004937D01*
X0069071Y0004823D01*
X0069061Y0004710D01*
X0069047Y0004598D01*
X0069030Y0004486D01*
X0069008Y0004374D01*
X0068982Y0004264D01*
X0068953Y0004154D01*
X0068920Y0004046D01*
X0068883Y0003938D01*
X0068842Y0003833D01*
X0068798Y0003728D01*
X0068750Y0003625D01*
X0068699Y0003524D01*
X0068644Y0003425D01*
X0068585Y0003328D01*
X0068523Y0003233D01*
X0068458Y0003140D01*
X0068390Y0003049D01*
X0068319Y0002961D01*
X0068244Y0002875D01*
X0068167Y0002792D01*
X0068087Y0002712D01*
X0068004Y0002635D01*
X0067918Y0002560D01*
X0067830Y0002489D01*
X0067739Y0002421D01*
X0067646Y0002356D01*
X0067551Y0002294D01*
X0067454Y0002235D01*
X0067355Y0002180D01*
X0067254Y0002129D01*
X0067151Y0002081D01*
X0067046Y0002037D01*
X0066941Y0001996D01*
X0066833Y0001959D01*
X0066725Y0001926D01*
X0066615Y0001897D01*
X0066505Y0001871D01*
X0066393Y0001849D01*
X0066281Y0001832D01*
X0066169Y0001818D01*
X0066056Y0001808D01*
X0065942Y0001802D01*
X0065829Y0001800D01*
X0065716Y0001802D01*
X0065602Y0001808D01*
X0065489Y0001818D01*
X0065377Y0001832D01*
X0065265Y0001849D01*
X0065153Y0001871D01*
X0065043Y0001897D01*
X0064933Y0001926D01*
X0064825Y0001959D01*
X0064717Y0001996D01*
X0064612Y0002037D01*
X0064507Y0002081D01*
X0064404Y0002129D01*
X0064303Y0002180D01*
X0064204Y0002235D01*
X0064107Y0002294D01*
X0064012Y0002356D01*
X0063919Y0002421D01*
X0063828Y0002489D01*
X0063740Y0002560D01*
X0063654Y0002635D01*
X0063571Y0002712D01*
X0063491Y0002792D01*
X0063414Y0002875D01*
X0063339Y0002961D01*
X0063268Y0003049D01*
X0063200Y0003140D01*
X0063135Y0003233D01*
X0063073Y0003328D01*
X0063014Y0003425D01*
X0062959Y0003524D01*
X0062908Y0003625D01*
X0062860Y0003728D01*
X0062816Y0003833D01*
X0062775Y0003938D01*
X0062738Y0004046D01*
X0062705Y0004154D01*
X0062676Y0004264D01*
X0062650Y0004374D01*
X0062628Y0004486D01*
X0062611Y0004598D01*
X0062597Y0004710D01*
X0062587Y0004823D01*
X0062581Y0004937D01*
X0062579Y0005050D01*
X0062579Y0165050D02*
X0062581Y0165163D01*
X0062587Y0165277D01*
X0062597Y0165390D01*
X0062611Y0165502D01*
X0062628Y0165614D01*
X0062650Y0165726D01*
X0062676Y0165836D01*
X0062705Y0165946D01*
X0062738Y0166054D01*
X0062775Y0166162D01*
X0062816Y0166267D01*
X0062860Y0166372D01*
X0062908Y0166475D01*
X0062959Y0166576D01*
X0063014Y0166675D01*
X0063073Y0166772D01*
X0063135Y0166867D01*
X0063200Y0166960D01*
X0063268Y0167051D01*
X0063339Y0167139D01*
X0063414Y0167225D01*
X0063491Y0167308D01*
X0063571Y0167388D01*
X0063654Y0167465D01*
X0063740Y0167540D01*
X0063828Y0167611D01*
X0063919Y0167679D01*
X0064012Y0167744D01*
X0064107Y0167806D01*
X0064204Y0167865D01*
X0064303Y0167920D01*
X0064404Y0167971D01*
X0064507Y0168019D01*
X0064612Y0168063D01*
X0064717Y0168104D01*
X0064825Y0168141D01*
X0064933Y0168174D01*
X0065043Y0168203D01*
X0065153Y0168229D01*
X0065265Y0168251D01*
X0065377Y0168268D01*
X0065489Y0168282D01*
X0065602Y0168292D01*
X0065716Y0168298D01*
X0065829Y0168300D01*
X0065942Y0168298D01*
X0066056Y0168292D01*
X0066169Y0168282D01*
X0066281Y0168268D01*
X0066393Y0168251D01*
X0066505Y0168229D01*
X0066615Y0168203D01*
X0066725Y0168174D01*
X0066833Y0168141D01*
X0066941Y0168104D01*
X0067046Y0168063D01*
X0067151Y0168019D01*
X0067254Y0167971D01*
X0067355Y0167920D01*
X0067454Y0167865D01*
X0067551Y0167806D01*
X0067646Y0167744D01*
X0067739Y0167679D01*
X0067830Y0167611D01*
X0067918Y0167540D01*
X0068004Y0167465D01*
X0068087Y0167388D01*
X0068167Y0167308D01*
X0068244Y0167225D01*
X0068319Y0167139D01*
X0068390Y0167051D01*
X0068458Y0166960D01*
X0068523Y0166867D01*
X0068585Y0166772D01*
X0068644Y0166675D01*
X0068699Y0166576D01*
X0068750Y0166475D01*
X0068798Y0166372D01*
X0068842Y0166267D01*
X0068883Y0166162D01*
X0068920Y0166054D01*
X0068953Y0165946D01*
X0068982Y0165836D01*
X0069008Y0165726D01*
X0069030Y0165614D01*
X0069047Y0165502D01*
X0069061Y0165390D01*
X0069071Y0165277D01*
X0069077Y0165163D01*
X0069079Y0165050D01*
X0069077Y0164937D01*
X0069071Y0164823D01*
X0069061Y0164710D01*
X0069047Y0164598D01*
X0069030Y0164486D01*
X0069008Y0164374D01*
X0068982Y0164264D01*
X0068953Y0164154D01*
X0068920Y0164046D01*
X0068883Y0163938D01*
X0068842Y0163833D01*
X0068798Y0163728D01*
X0068750Y0163625D01*
X0068699Y0163524D01*
X0068644Y0163425D01*
X0068585Y0163328D01*
X0068523Y0163233D01*
X0068458Y0163140D01*
X0068390Y0163049D01*
X0068319Y0162961D01*
X0068244Y0162875D01*
X0068167Y0162792D01*
X0068087Y0162712D01*
X0068004Y0162635D01*
X0067918Y0162560D01*
X0067830Y0162489D01*
X0067739Y0162421D01*
X0067646Y0162356D01*
X0067551Y0162294D01*
X0067454Y0162235D01*
X0067355Y0162180D01*
X0067254Y0162129D01*
X0067151Y0162081D01*
X0067046Y0162037D01*
X0066941Y0161996D01*
X0066833Y0161959D01*
X0066725Y0161926D01*
X0066615Y0161897D01*
X0066505Y0161871D01*
X0066393Y0161849D01*
X0066281Y0161832D01*
X0066169Y0161818D01*
X0066056Y0161808D01*
X0065942Y0161802D01*
X0065829Y0161800D01*
X0065716Y0161802D01*
X0065602Y0161808D01*
X0065489Y0161818D01*
X0065377Y0161832D01*
X0065265Y0161849D01*
X0065153Y0161871D01*
X0065043Y0161897D01*
X0064933Y0161926D01*
X0064825Y0161959D01*
X0064717Y0161996D01*
X0064612Y0162037D01*
X0064507Y0162081D01*
X0064404Y0162129D01*
X0064303Y0162180D01*
X0064204Y0162235D01*
X0064107Y0162294D01*
X0064012Y0162356D01*
X0063919Y0162421D01*
X0063828Y0162489D01*
X0063740Y0162560D01*
X0063654Y0162635D01*
X0063571Y0162712D01*
X0063491Y0162792D01*
X0063414Y0162875D01*
X0063339Y0162961D01*
X0063268Y0163049D01*
X0063200Y0163140D01*
X0063135Y0163233D01*
X0063073Y0163328D01*
X0063014Y0163425D01*
X0062959Y0163524D01*
X0062908Y0163625D01*
X0062860Y0163728D01*
X0062816Y0163833D01*
X0062775Y0163938D01*
X0062738Y0164046D01*
X0062705Y0164154D01*
X0062676Y0164264D01*
X0062650Y0164374D01*
X0062628Y0164486D01*
X0062611Y0164598D01*
X0062597Y0164710D01*
X0062587Y0164823D01*
X0062581Y0164937D01*
X0062579Y0165050D01*
X0002579Y0165050D02*
X0002581Y0165163D01*
X0002587Y0165277D01*
X0002597Y0165390D01*
X0002611Y0165502D01*
X0002628Y0165614D01*
X0002650Y0165726D01*
X0002676Y0165836D01*
X0002705Y0165946D01*
X0002738Y0166054D01*
X0002775Y0166162D01*
X0002816Y0166267D01*
X0002860Y0166372D01*
X0002908Y0166475D01*
X0002959Y0166576D01*
X0003014Y0166675D01*
X0003073Y0166772D01*
X0003135Y0166867D01*
X0003200Y0166960D01*
X0003268Y0167051D01*
X0003339Y0167139D01*
X0003414Y0167225D01*
X0003491Y0167308D01*
X0003571Y0167388D01*
X0003654Y0167465D01*
X0003740Y0167540D01*
X0003828Y0167611D01*
X0003919Y0167679D01*
X0004012Y0167744D01*
X0004107Y0167806D01*
X0004204Y0167865D01*
X0004303Y0167920D01*
X0004404Y0167971D01*
X0004507Y0168019D01*
X0004612Y0168063D01*
X0004717Y0168104D01*
X0004825Y0168141D01*
X0004933Y0168174D01*
X0005043Y0168203D01*
X0005153Y0168229D01*
X0005265Y0168251D01*
X0005377Y0168268D01*
X0005489Y0168282D01*
X0005602Y0168292D01*
X0005716Y0168298D01*
X0005829Y0168300D01*
X0005942Y0168298D01*
X0006056Y0168292D01*
X0006169Y0168282D01*
X0006281Y0168268D01*
X0006393Y0168251D01*
X0006505Y0168229D01*
X0006615Y0168203D01*
X0006725Y0168174D01*
X0006833Y0168141D01*
X0006941Y0168104D01*
X0007046Y0168063D01*
X0007151Y0168019D01*
X0007254Y0167971D01*
X0007355Y0167920D01*
X0007454Y0167865D01*
X0007551Y0167806D01*
X0007646Y0167744D01*
X0007739Y0167679D01*
X0007830Y0167611D01*
X0007918Y0167540D01*
X0008004Y0167465D01*
X0008087Y0167388D01*
X0008167Y0167308D01*
X0008244Y0167225D01*
X0008319Y0167139D01*
X0008390Y0167051D01*
X0008458Y0166960D01*
X0008523Y0166867D01*
X0008585Y0166772D01*
X0008644Y0166675D01*
X0008699Y0166576D01*
X0008750Y0166475D01*
X0008798Y0166372D01*
X0008842Y0166267D01*
X0008883Y0166162D01*
X0008920Y0166054D01*
X0008953Y0165946D01*
X0008982Y0165836D01*
X0009008Y0165726D01*
X0009030Y0165614D01*
X0009047Y0165502D01*
X0009061Y0165390D01*
X0009071Y0165277D01*
X0009077Y0165163D01*
X0009079Y0165050D01*
X0009077Y0164937D01*
X0009071Y0164823D01*
X0009061Y0164710D01*
X0009047Y0164598D01*
X0009030Y0164486D01*
X0009008Y0164374D01*
X0008982Y0164264D01*
X0008953Y0164154D01*
X0008920Y0164046D01*
X0008883Y0163938D01*
X0008842Y0163833D01*
X0008798Y0163728D01*
X0008750Y0163625D01*
X0008699Y0163524D01*
X0008644Y0163425D01*
X0008585Y0163328D01*
X0008523Y0163233D01*
X0008458Y0163140D01*
X0008390Y0163049D01*
X0008319Y0162961D01*
X0008244Y0162875D01*
X0008167Y0162792D01*
X0008087Y0162712D01*
X0008004Y0162635D01*
X0007918Y0162560D01*
X0007830Y0162489D01*
X0007739Y0162421D01*
X0007646Y0162356D01*
X0007551Y0162294D01*
X0007454Y0162235D01*
X0007355Y0162180D01*
X0007254Y0162129D01*
X0007151Y0162081D01*
X0007046Y0162037D01*
X0006941Y0161996D01*
X0006833Y0161959D01*
X0006725Y0161926D01*
X0006615Y0161897D01*
X0006505Y0161871D01*
X0006393Y0161849D01*
X0006281Y0161832D01*
X0006169Y0161818D01*
X0006056Y0161808D01*
X0005942Y0161802D01*
X0005829Y0161800D01*
X0005716Y0161802D01*
X0005602Y0161808D01*
X0005489Y0161818D01*
X0005377Y0161832D01*
X0005265Y0161849D01*
X0005153Y0161871D01*
X0005043Y0161897D01*
X0004933Y0161926D01*
X0004825Y0161959D01*
X0004717Y0161996D01*
X0004612Y0162037D01*
X0004507Y0162081D01*
X0004404Y0162129D01*
X0004303Y0162180D01*
X0004204Y0162235D01*
X0004107Y0162294D01*
X0004012Y0162356D01*
X0003919Y0162421D01*
X0003828Y0162489D01*
X0003740Y0162560D01*
X0003654Y0162635D01*
X0003571Y0162712D01*
X0003491Y0162792D01*
X0003414Y0162875D01*
X0003339Y0162961D01*
X0003268Y0163049D01*
X0003200Y0163140D01*
X0003135Y0163233D01*
X0003073Y0163328D01*
X0003014Y0163425D01*
X0002959Y0163524D01*
X0002908Y0163625D01*
X0002860Y0163728D01*
X0002816Y0163833D01*
X0002775Y0163938D01*
X0002738Y0164046D01*
X0002705Y0164154D01*
X0002676Y0164264D01*
X0002650Y0164374D01*
X0002628Y0164486D01*
X0002611Y0164598D01*
X0002597Y0164710D01*
X0002587Y0164823D01*
X0002581Y0164937D01*
X0002579Y0165050D01*
X0165829Y0765050D02*
X0515751Y0765050D01*
X0515751Y1058751D01*
X0165829Y1058751D01*
X0170829Y1046550D02*
X0170829Y0780050D01*
X0170832Y0779808D01*
X0170841Y0779567D01*
X0170855Y0779326D01*
X0170876Y0779085D01*
X0170902Y0778845D01*
X0170934Y0778605D01*
X0170972Y0778366D01*
X0171015Y0778129D01*
X0171065Y0777892D01*
X0171120Y0777657D01*
X0171180Y0777423D01*
X0171247Y0777191D01*
X0171318Y0776960D01*
X0171396Y0776731D01*
X0171479Y0776504D01*
X0171567Y0776279D01*
X0171661Y0776056D01*
X0171760Y0775836D01*
X0171865Y0775618D01*
X0171974Y0775403D01*
X0172089Y0775190D01*
X0172209Y0774980D01*
X0172334Y0774774D01*
X0172464Y0774570D01*
X0172599Y0774369D01*
X0172739Y0774172D01*
X0172883Y0773978D01*
X0173032Y0773788D01*
X0173186Y0773602D01*
X0173344Y0773419D01*
X0173506Y0773240D01*
X0173673Y0773065D01*
X0173844Y0772894D01*
X0174019Y0772727D01*
X0174198Y0772565D01*
X0174381Y0772407D01*
X0174567Y0772253D01*
X0174757Y0772104D01*
X0174951Y0771960D01*
X0175148Y0771820D01*
X0175349Y0771685D01*
X0175553Y0771555D01*
X0175759Y0771430D01*
X0175969Y0771310D01*
X0176182Y0771195D01*
X0176397Y0771086D01*
X0176615Y0770981D01*
X0176835Y0770882D01*
X0177058Y0770788D01*
X0177283Y0770700D01*
X0177510Y0770617D01*
X0177739Y0770539D01*
X0177970Y0770468D01*
X0178202Y0770401D01*
X0178436Y0770341D01*
X0178671Y0770286D01*
X0178908Y0770236D01*
X0179145Y0770193D01*
X0179384Y0770155D01*
X0179624Y0770123D01*
X0179864Y0770097D01*
X0180105Y0770076D01*
X0180346Y0770062D01*
X0180587Y0770053D01*
X0180829Y0770050D01*
X0385829Y0770050D01*
X0386071Y0770053D01*
X0386312Y0770062D01*
X0386553Y0770076D01*
X0386794Y0770097D01*
X0387034Y0770123D01*
X0387274Y0770155D01*
X0387513Y0770193D01*
X0387750Y0770236D01*
X0387987Y0770286D01*
X0388222Y0770341D01*
X0388456Y0770401D01*
X0388688Y0770468D01*
X0388919Y0770539D01*
X0389148Y0770617D01*
X0389375Y0770700D01*
X0389600Y0770788D01*
X0389823Y0770882D01*
X0390043Y0770981D01*
X0390261Y0771086D01*
X0390476Y0771195D01*
X0390689Y0771310D01*
X0390899Y0771430D01*
X0391105Y0771555D01*
X0391309Y0771685D01*
X0391510Y0771820D01*
X0391707Y0771960D01*
X0391901Y0772104D01*
X0392091Y0772253D01*
X0392277Y0772407D01*
X0392460Y0772565D01*
X0392639Y0772727D01*
X0392814Y0772894D01*
X0392985Y0773065D01*
X0393152Y0773240D01*
X0393314Y0773419D01*
X0393472Y0773602D01*
X0393626Y0773788D01*
X0393775Y0773978D01*
X0393919Y0774172D01*
X0394059Y0774369D01*
X0394194Y0774570D01*
X0394324Y0774774D01*
X0394449Y0774980D01*
X0394569Y0775190D01*
X0394684Y0775403D01*
X0394793Y0775618D01*
X0394898Y0775836D01*
X0394997Y0776056D01*
X0395091Y0776279D01*
X0395179Y0776504D01*
X0395262Y0776731D01*
X0395340Y0776960D01*
X0395411Y0777191D01*
X0395478Y0777423D01*
X0395538Y0777657D01*
X0395593Y0777892D01*
X0395643Y0778129D01*
X0395686Y0778366D01*
X0395724Y0778605D01*
X0395756Y0778845D01*
X0395782Y0779085D01*
X0395803Y0779326D01*
X0395817Y0779567D01*
X0395826Y0779808D01*
X0395829Y0780050D01*
X0395829Y0876550D01*
X0395850Y0876773D01*
X0395876Y0876996D01*
X0395908Y0877218D01*
X0395945Y0877439D01*
X0395987Y0877659D01*
X0396035Y0877879D01*
X0396088Y0878097D01*
X0396146Y0878313D01*
X0396209Y0878528D01*
X0396278Y0878742D01*
X0396351Y0878954D01*
X0396430Y0879164D01*
X0396514Y0879372D01*
X0396603Y0879577D01*
X0396696Y0879781D01*
X0396795Y0879983D01*
X0396899Y0880182D01*
X0397007Y0880378D01*
X0397120Y0880572D01*
X0397237Y0880763D01*
X0397360Y0880951D01*
X0397486Y0881136D01*
X0397617Y0881318D01*
X0397753Y0881496D01*
X0397893Y0881672D01*
X0398037Y0881844D01*
X0398185Y0882012D01*
X0398337Y0882177D01*
X0398493Y0882338D01*
X0398653Y0882495D01*
X0398817Y0882648D01*
X0398984Y0882798D01*
X0399155Y0882943D01*
X0399329Y0883084D01*
X0399507Y0883221D01*
X0399688Y0883353D01*
X0399872Y0883481D01*
X0400059Y0883605D01*
X0400249Y0883724D01*
X0400442Y0883838D01*
X0400637Y0883948D01*
X0400836Y0884053D01*
X0401036Y0884153D01*
X0401239Y0884248D01*
X0401445Y0884339D01*
X0401652Y0884424D01*
X0401861Y0884504D01*
X0402073Y0884580D01*
X0402286Y0884650D01*
X0402500Y0884715D01*
X0402716Y0884774D01*
X0402934Y0884829D01*
X0403153Y0884878D01*
X0403373Y0884922D01*
X0403594Y0884960D01*
X0403815Y0884994D01*
X0404038Y0885021D01*
X0404261Y0885044D01*
X0404485Y0885061D01*
X0404709Y0885073D01*
X0404933Y0885079D01*
X0405157Y0885080D01*
X0405381Y0885075D01*
X0405605Y0885065D01*
X0405829Y0885050D01*
X0500829Y0885050D01*
X0501071Y0885053D01*
X0501312Y0885062D01*
X0501553Y0885076D01*
X0501794Y0885097D01*
X0502034Y0885123D01*
X0502274Y0885155D01*
X0502513Y0885193D01*
X0502750Y0885236D01*
X0502987Y0885286D01*
X0503222Y0885341D01*
X0503456Y0885401D01*
X0503688Y0885468D01*
X0503919Y0885539D01*
X0504148Y0885617D01*
X0504375Y0885700D01*
X0504600Y0885788D01*
X0504823Y0885882D01*
X0505043Y0885981D01*
X0505261Y0886086D01*
X0505476Y0886195D01*
X0505689Y0886310D01*
X0505899Y0886430D01*
X0506105Y0886555D01*
X0506309Y0886685D01*
X0506510Y0886820D01*
X0506707Y0886960D01*
X0506901Y0887104D01*
X0507091Y0887253D01*
X0507277Y0887407D01*
X0507460Y0887565D01*
X0507639Y0887727D01*
X0507814Y0887894D01*
X0507985Y0888065D01*
X0508152Y0888240D01*
X0508314Y0888419D01*
X0508472Y0888602D01*
X0508626Y0888788D01*
X0508775Y0888978D01*
X0508919Y0889172D01*
X0509059Y0889369D01*
X0509194Y0889570D01*
X0509324Y0889774D01*
X0509449Y0889980D01*
X0509569Y0890190D01*
X0509684Y0890403D01*
X0509793Y0890618D01*
X0509898Y0890836D01*
X0509997Y0891056D01*
X0510091Y0891279D01*
X0510179Y0891504D01*
X0510262Y0891731D01*
X0510340Y0891960D01*
X0510411Y0892191D01*
X0510478Y0892423D01*
X0510538Y0892657D01*
X0510593Y0892892D01*
X0510643Y0893129D01*
X0510686Y0893366D01*
X0510724Y0893605D01*
X0510756Y0893845D01*
X0510782Y0894085D01*
X0510803Y0894326D01*
X0510817Y0894567D01*
X0510826Y0894808D01*
X0510829Y0895050D01*
X0510829Y1045050D01*
X0510826Y1045292D01*
X0510817Y1045533D01*
X0510803Y1045774D01*
X0510782Y1046015D01*
X0510756Y1046255D01*
X0510724Y1046495D01*
X0510686Y1046734D01*
X0510643Y1046971D01*
X0510593Y1047208D01*
X0510538Y1047443D01*
X0510478Y1047677D01*
X0510411Y1047909D01*
X0510340Y1048140D01*
X0510262Y1048369D01*
X0510179Y1048596D01*
X0510091Y1048821D01*
X0509997Y1049044D01*
X0509898Y1049264D01*
X0509793Y1049482D01*
X0509684Y1049697D01*
X0509569Y1049910D01*
X0509449Y1050120D01*
X0509324Y1050326D01*
X0509194Y1050530D01*
X0509059Y1050731D01*
X0508919Y1050928D01*
X0508775Y1051122D01*
X0508626Y1051312D01*
X0508472Y1051498D01*
X0508314Y1051681D01*
X0508152Y1051860D01*
X0507985Y1052035D01*
X0507814Y1052206D01*
X0507639Y1052373D01*
X0507460Y1052535D01*
X0507277Y1052693D01*
X0507091Y1052847D01*
X0506901Y1052996D01*
X0506707Y1053140D01*
X0506510Y1053280D01*
X0506309Y1053415D01*
X0506105Y1053545D01*
X0505899Y1053670D01*
X0505689Y1053790D01*
X0505476Y1053905D01*
X0505261Y1054014D01*
X0505043Y1054119D01*
X0504823Y1054218D01*
X0504600Y1054312D01*
X0504375Y1054400D01*
X0504148Y1054483D01*
X0503919Y1054561D01*
X0503688Y1054632D01*
X0503456Y1054699D01*
X0503222Y1054759D01*
X0502987Y1054814D01*
X0502750Y1054864D01*
X0502513Y1054907D01*
X0502274Y1054945D01*
X0502034Y1054977D01*
X0501794Y1055003D01*
X0501553Y1055024D01*
X0501312Y1055038D01*
X0501071Y1055047D01*
X0500829Y1055050D01*
X0180829Y1055050D01*
X0180605Y1055065D01*
X0180381Y1055075D01*
X0180157Y1055080D01*
X0179933Y1055079D01*
X0179709Y1055073D01*
X0179485Y1055061D01*
X0179261Y1055044D01*
X0179038Y1055021D01*
X0178815Y1054994D01*
X0178594Y1054960D01*
X0178373Y1054922D01*
X0178153Y1054878D01*
X0177934Y1054829D01*
X0177716Y1054774D01*
X0177500Y1054715D01*
X0177286Y1054650D01*
X0177073Y1054580D01*
X0176861Y1054504D01*
X0176652Y1054424D01*
X0176445Y1054339D01*
X0176239Y1054248D01*
X0176036Y1054153D01*
X0175836Y1054053D01*
X0175637Y1053948D01*
X0175442Y1053838D01*
X0175249Y1053724D01*
X0175059Y1053605D01*
X0174872Y1053481D01*
X0174688Y1053353D01*
X0174507Y1053221D01*
X0174329Y1053084D01*
X0174155Y1052943D01*
X0173984Y1052798D01*
X0173817Y1052648D01*
X0173653Y1052495D01*
X0173493Y1052338D01*
X0173337Y1052177D01*
X0173185Y1052012D01*
X0173037Y1051844D01*
X0172893Y1051672D01*
X0172753Y1051496D01*
X0172617Y1051318D01*
X0172486Y1051136D01*
X0172360Y1050951D01*
X0172237Y1050763D01*
X0172120Y1050572D01*
X0172007Y1050378D01*
X0171899Y1050182D01*
X0171795Y1049983D01*
X0171696Y1049781D01*
X0171603Y1049577D01*
X0171514Y1049372D01*
X0171430Y1049164D01*
X0171351Y1048954D01*
X0171278Y1048742D01*
X0171209Y1048528D01*
X0171146Y1048313D01*
X0171088Y1048097D01*
X0171035Y1047879D01*
X0170987Y1047659D01*
X0170945Y1047439D01*
X0170908Y1047218D01*
X0170876Y1046996D01*
X0170850Y1046773D01*
X0170829Y1046550D01*
X0395829Y1025050D02*
X0395829Y0930050D01*
X0395914Y0929968D01*
X0396001Y0929888D01*
X0396091Y0929812D01*
X0396184Y0929739D01*
X0396279Y0929669D01*
X0396377Y0929602D01*
X0396476Y0929538D01*
X0396578Y0929478D01*
X0396682Y0929421D01*
X0396787Y0929368D01*
X0396894Y0929318D01*
X0397003Y0929272D01*
X0397113Y0929229D01*
X0397225Y0929191D01*
X0397338Y0929156D01*
X0397452Y0929125D01*
X0397567Y0929097D01*
X0397683Y0929074D01*
X0397799Y0929054D01*
X0397916Y0929038D01*
X0398034Y0929026D01*
X0398152Y0929018D01*
X0398270Y0929014D01*
X0398388Y0929014D01*
X0398506Y0929018D01*
X0398624Y0929026D01*
X0398742Y0929038D01*
X0398859Y0929054D01*
X0398975Y0929074D01*
X0399091Y0929097D01*
X0399206Y0929125D01*
X0399320Y0929156D01*
X0399433Y0929191D01*
X0399545Y0929229D01*
X0399655Y0929272D01*
X0399764Y0929318D01*
X0399871Y0929368D01*
X0399976Y0929421D01*
X0400080Y0929478D01*
X0400182Y0929538D01*
X0400281Y0929602D01*
X0400379Y0929669D01*
X0400474Y0929739D01*
X0400567Y0929812D01*
X0400657Y0929888D01*
X0400744Y0929968D01*
X0400829Y0930050D01*
X0400829Y1025050D01*
X0400744Y1025132D01*
X0400657Y1025212D01*
X0400567Y1025288D01*
X0400474Y1025361D01*
X0400379Y1025431D01*
X0400281Y1025498D01*
X0400182Y1025562D01*
X0400080Y1025622D01*
X0399976Y1025679D01*
X0399871Y1025732D01*
X0399764Y1025782D01*
X0399655Y1025828D01*
X0399545Y1025871D01*
X0399433Y1025909D01*
X0399320Y1025944D01*
X0399206Y1025975D01*
X0399091Y1026003D01*
X0398975Y1026026D01*
X0398859Y1026046D01*
X0398742Y1026062D01*
X0398624Y1026074D01*
X0398506Y1026082D01*
X0398388Y1026086D01*
X0398270Y1026086D01*
X0398152Y1026082D01*
X0398034Y1026074D01*
X0397916Y1026062D01*
X0397799Y1026046D01*
X0397683Y1026026D01*
X0397567Y1026003D01*
X0397452Y1025975D01*
X0397338Y1025944D01*
X0397225Y1025909D01*
X0397113Y1025871D01*
X0397003Y1025828D01*
X0396894Y1025782D01*
X0396787Y1025732D01*
X0396682Y1025679D01*
X0396578Y1025622D01*
X0396476Y1025562D01*
X0396377Y1025498D01*
X0396279Y1025431D01*
X0396184Y1025361D01*
X0396091Y1025288D01*
X0396001Y1025212D01*
X0395914Y1025132D01*
X0395829Y1025050D01*
X0500829Y1055050D02*
X0501071Y1055047D01*
X0501312Y1055038D01*
X0501553Y1055024D01*
X0501794Y1055003D01*
X0502034Y1054977D01*
X0502274Y1054945D01*
X0502513Y1054907D01*
X0502750Y1054864D01*
X0502987Y1054814D01*
X0503222Y1054759D01*
X0503456Y1054699D01*
X0503688Y1054632D01*
X0503919Y1054561D01*
X0504148Y1054483D01*
X0504375Y1054400D01*
X0504600Y1054312D01*
X0504823Y1054218D01*
X0505043Y1054119D01*
X0505261Y1054014D01*
X0505476Y1053905D01*
X0505689Y1053790D01*
X0505899Y1053670D01*
X0506105Y1053545D01*
X0506309Y1053415D01*
X0506510Y1053280D01*
X0506707Y1053140D01*
X0506901Y1052996D01*
X0507091Y1052847D01*
X0507277Y1052693D01*
X0507460Y1052535D01*
X0507639Y1052373D01*
X0507814Y1052206D01*
X0507985Y1052035D01*
X0508152Y1051860D01*
X0508314Y1051681D01*
X0508472Y1051498D01*
X0508626Y1051312D01*
X0508775Y1051122D01*
X0508919Y1050928D01*
X0509059Y1050731D01*
X0509194Y1050530D01*
X0509324Y1050326D01*
X0509449Y1050120D01*
X0509569Y1049910D01*
X0509684Y1049697D01*
X0509793Y1049482D01*
X0509898Y1049264D01*
X0509997Y1049044D01*
X0510091Y1048821D01*
X0510179Y1048596D01*
X0510262Y1048369D01*
X0510340Y1048140D01*
X0510411Y1047909D01*
X0510478Y1047677D01*
X0510538Y1047443D01*
X0510593Y1047208D01*
X0510643Y1046971D01*
X0510686Y1046734D01*
X0510724Y1046495D01*
X0510756Y1046255D01*
X0510782Y1046015D01*
X0510803Y1045774D01*
X0510817Y1045533D01*
X0510826Y1045292D01*
X0510829Y1045050D01*
D11*
X0490829Y1040050D02*
X0490831Y1040191D01*
X0490837Y1040332D01*
X0490847Y1040472D01*
X0490861Y1040612D01*
X0490879Y1040752D01*
X0490900Y1040891D01*
X0490926Y1041030D01*
X0490955Y1041168D01*
X0490989Y1041304D01*
X0491026Y1041440D01*
X0491067Y1041575D01*
X0491112Y1041709D01*
X0491161Y1041841D01*
X0491213Y1041972D01*
X0491269Y1042101D01*
X0491329Y1042228D01*
X0491392Y1042354D01*
X0491458Y1042478D01*
X0491529Y1042601D01*
X0491602Y1042721D01*
X0491679Y1042839D01*
X0491759Y1042955D01*
X0491843Y1043068D01*
X0491929Y1043179D01*
X0492019Y1043288D01*
X0492112Y1043394D01*
X0492207Y1043497D01*
X0492306Y1043598D01*
X0492407Y1043696D01*
X0492511Y1043791D01*
X0492618Y1043883D01*
X0492727Y1043972D01*
X0492839Y1044057D01*
X0492953Y1044140D01*
X0493069Y1044220D01*
X0493188Y1044296D01*
X0493309Y1044368D01*
X0493431Y1044438D01*
X0493556Y1044503D01*
X0493682Y1044566D01*
X0493810Y1044624D01*
X0493940Y1044679D01*
X0494071Y1044731D01*
X0494204Y1044778D01*
X0494338Y1044822D01*
X0494473Y1044863D01*
X0494609Y1044899D01*
X0494746Y1044931D01*
X0494884Y1044960D01*
X0495022Y1044985D01*
X0495162Y1045005D01*
X0495302Y1045022D01*
X0495442Y1045035D01*
X0495583Y1045044D01*
X0495723Y1045049D01*
X0495864Y1045050D01*
X0496005Y1045047D01*
X0496146Y1045040D01*
X0496286Y1045029D01*
X0496426Y1045014D01*
X0496566Y1044995D01*
X0496705Y1044973D01*
X0496843Y1044946D01*
X0496981Y1044916D01*
X0497117Y1044881D01*
X0497253Y1044843D01*
X0497387Y1044801D01*
X0497521Y1044755D01*
X0497653Y1044706D01*
X0497783Y1044652D01*
X0497912Y1044595D01*
X0498039Y1044535D01*
X0498165Y1044471D01*
X0498288Y1044403D01*
X0498410Y1044332D01*
X0498530Y1044258D01*
X0498647Y1044180D01*
X0498762Y1044099D01*
X0498875Y1044015D01*
X0498986Y1043928D01*
X0499094Y1043837D01*
X0499199Y1043744D01*
X0499302Y1043647D01*
X0499402Y1043548D01*
X0499499Y1043446D01*
X0499593Y1043341D01*
X0499684Y1043234D01*
X0499772Y1043124D01*
X0499857Y1043012D01*
X0499939Y1042897D01*
X0500018Y1042780D01*
X0500093Y1042661D01*
X0500165Y1042540D01*
X0500233Y1042417D01*
X0500298Y1042292D01*
X0500360Y1042165D01*
X0500417Y1042036D01*
X0500472Y1041906D01*
X0500522Y1041775D01*
X0500569Y1041642D01*
X0500612Y1041508D01*
X0500651Y1041372D01*
X0500686Y1041236D01*
X0500718Y1041099D01*
X0500745Y1040961D01*
X0500769Y1040822D01*
X0500789Y1040682D01*
X0500805Y1040542D01*
X0500817Y1040402D01*
X0500825Y1040261D01*
X0500829Y1040120D01*
X0500829Y1039980D01*
X0500825Y1039839D01*
X0500817Y1039698D01*
X0500805Y1039558D01*
X0500789Y1039418D01*
X0500769Y1039278D01*
X0500745Y1039139D01*
X0500718Y1039001D01*
X0500686Y1038864D01*
X0500651Y1038728D01*
X0500612Y1038592D01*
X0500569Y1038458D01*
X0500522Y1038325D01*
X0500472Y1038194D01*
X0500417Y1038064D01*
X0500360Y1037935D01*
X0500298Y1037808D01*
X0500233Y1037683D01*
X0500165Y1037560D01*
X0500093Y1037439D01*
X0500018Y1037320D01*
X0499939Y1037203D01*
X0499857Y1037088D01*
X0499772Y1036976D01*
X0499684Y1036866D01*
X0499593Y1036759D01*
X0499499Y1036654D01*
X0499402Y1036552D01*
X0499302Y1036453D01*
X0499199Y1036356D01*
X0499094Y1036263D01*
X0498986Y1036172D01*
X0498875Y1036085D01*
X0498762Y1036001D01*
X0498647Y1035920D01*
X0498530Y1035842D01*
X0498410Y1035768D01*
X0498288Y1035697D01*
X0498165Y1035629D01*
X0498039Y1035565D01*
X0497912Y1035505D01*
X0497783Y1035448D01*
X0497653Y1035394D01*
X0497521Y1035345D01*
X0497387Y1035299D01*
X0497253Y1035257D01*
X0497117Y1035219D01*
X0496981Y1035184D01*
X0496843Y1035154D01*
X0496705Y1035127D01*
X0496566Y1035105D01*
X0496426Y1035086D01*
X0496286Y1035071D01*
X0496146Y1035060D01*
X0496005Y1035053D01*
X0495864Y1035050D01*
X0495723Y1035051D01*
X0495583Y1035056D01*
X0495442Y1035065D01*
X0495302Y1035078D01*
X0495162Y1035095D01*
X0495022Y1035115D01*
X0494884Y1035140D01*
X0494746Y1035169D01*
X0494609Y1035201D01*
X0494473Y1035237D01*
X0494338Y1035278D01*
X0494204Y1035322D01*
X0494071Y1035369D01*
X0493940Y1035421D01*
X0493810Y1035476D01*
X0493682Y1035534D01*
X0493556Y1035597D01*
X0493431Y1035662D01*
X0493309Y1035732D01*
X0493188Y1035804D01*
X0493069Y1035880D01*
X0492953Y1035960D01*
X0492839Y1036043D01*
X0492727Y1036128D01*
X0492618Y1036217D01*
X0492511Y1036309D01*
X0492407Y1036404D01*
X0492306Y1036502D01*
X0492207Y1036603D01*
X0492112Y1036706D01*
X0492019Y1036812D01*
X0491929Y1036921D01*
X0491843Y1037032D01*
X0491759Y1037145D01*
X0491679Y1037261D01*
X0491602Y1037379D01*
X0491529Y1037499D01*
X0491458Y1037622D01*
X0491392Y1037746D01*
X0491329Y1037872D01*
X0491269Y1037999D01*
X0491213Y1038128D01*
X0491161Y1038259D01*
X0491112Y1038391D01*
X0491067Y1038525D01*
X0491026Y1038660D01*
X0490989Y1038796D01*
X0490955Y1038932D01*
X0490926Y1039070D01*
X0490900Y1039209D01*
X0490879Y1039348D01*
X0490861Y1039488D01*
X0490847Y1039628D01*
X0490837Y1039768D01*
X0490831Y1039909D01*
X0490829Y1040050D01*
X0480829Y0950050D02*
X0480831Y0950191D01*
X0480837Y0950332D01*
X0480847Y0950472D01*
X0480861Y0950612D01*
X0480879Y0950752D01*
X0480900Y0950891D01*
X0480926Y0951030D01*
X0480955Y0951168D01*
X0480989Y0951304D01*
X0481026Y0951440D01*
X0481067Y0951575D01*
X0481112Y0951709D01*
X0481161Y0951841D01*
X0481213Y0951972D01*
X0481269Y0952101D01*
X0481329Y0952228D01*
X0481392Y0952354D01*
X0481458Y0952478D01*
X0481529Y0952601D01*
X0481602Y0952721D01*
X0481679Y0952839D01*
X0481759Y0952955D01*
X0481843Y0953068D01*
X0481929Y0953179D01*
X0482019Y0953288D01*
X0482112Y0953394D01*
X0482207Y0953497D01*
X0482306Y0953598D01*
X0482407Y0953696D01*
X0482511Y0953791D01*
X0482618Y0953883D01*
X0482727Y0953972D01*
X0482839Y0954057D01*
X0482953Y0954140D01*
X0483069Y0954220D01*
X0483188Y0954296D01*
X0483309Y0954368D01*
X0483431Y0954438D01*
X0483556Y0954503D01*
X0483682Y0954566D01*
X0483810Y0954624D01*
X0483940Y0954679D01*
X0484071Y0954731D01*
X0484204Y0954778D01*
X0484338Y0954822D01*
X0484473Y0954863D01*
X0484609Y0954899D01*
X0484746Y0954931D01*
X0484884Y0954960D01*
X0485022Y0954985D01*
X0485162Y0955005D01*
X0485302Y0955022D01*
X0485442Y0955035D01*
X0485583Y0955044D01*
X0485723Y0955049D01*
X0485864Y0955050D01*
X0486005Y0955047D01*
X0486146Y0955040D01*
X0486286Y0955029D01*
X0486426Y0955014D01*
X0486566Y0954995D01*
X0486705Y0954973D01*
X0486843Y0954946D01*
X0486981Y0954916D01*
X0487117Y0954881D01*
X0487253Y0954843D01*
X0487387Y0954801D01*
X0487521Y0954755D01*
X0487653Y0954706D01*
X0487783Y0954652D01*
X0487912Y0954595D01*
X0488039Y0954535D01*
X0488165Y0954471D01*
X0488288Y0954403D01*
X0488410Y0954332D01*
X0488530Y0954258D01*
X0488647Y0954180D01*
X0488762Y0954099D01*
X0488875Y0954015D01*
X0488986Y0953928D01*
X0489094Y0953837D01*
X0489199Y0953744D01*
X0489302Y0953647D01*
X0489402Y0953548D01*
X0489499Y0953446D01*
X0489593Y0953341D01*
X0489684Y0953234D01*
X0489772Y0953124D01*
X0489857Y0953012D01*
X0489939Y0952897D01*
X0490018Y0952780D01*
X0490093Y0952661D01*
X0490165Y0952540D01*
X0490233Y0952417D01*
X0490298Y0952292D01*
X0490360Y0952165D01*
X0490417Y0952036D01*
X0490472Y0951906D01*
X0490522Y0951775D01*
X0490569Y0951642D01*
X0490612Y0951508D01*
X0490651Y0951372D01*
X0490686Y0951236D01*
X0490718Y0951099D01*
X0490745Y0950961D01*
X0490769Y0950822D01*
X0490789Y0950682D01*
X0490805Y0950542D01*
X0490817Y0950402D01*
X0490825Y0950261D01*
X0490829Y0950120D01*
X0490829Y0949980D01*
X0490825Y0949839D01*
X0490817Y0949698D01*
X0490805Y0949558D01*
X0490789Y0949418D01*
X0490769Y0949278D01*
X0490745Y0949139D01*
X0490718Y0949001D01*
X0490686Y0948864D01*
X0490651Y0948728D01*
X0490612Y0948592D01*
X0490569Y0948458D01*
X0490522Y0948325D01*
X0490472Y0948194D01*
X0490417Y0948064D01*
X0490360Y0947935D01*
X0490298Y0947808D01*
X0490233Y0947683D01*
X0490165Y0947560D01*
X0490093Y0947439D01*
X0490018Y0947320D01*
X0489939Y0947203D01*
X0489857Y0947088D01*
X0489772Y0946976D01*
X0489684Y0946866D01*
X0489593Y0946759D01*
X0489499Y0946654D01*
X0489402Y0946552D01*
X0489302Y0946453D01*
X0489199Y0946356D01*
X0489094Y0946263D01*
X0488986Y0946172D01*
X0488875Y0946085D01*
X0488762Y0946001D01*
X0488647Y0945920D01*
X0488530Y0945842D01*
X0488410Y0945768D01*
X0488288Y0945697D01*
X0488165Y0945629D01*
X0488039Y0945565D01*
X0487912Y0945505D01*
X0487783Y0945448D01*
X0487653Y0945394D01*
X0487521Y0945345D01*
X0487387Y0945299D01*
X0487253Y0945257D01*
X0487117Y0945219D01*
X0486981Y0945184D01*
X0486843Y0945154D01*
X0486705Y0945127D01*
X0486566Y0945105D01*
X0486426Y0945086D01*
X0486286Y0945071D01*
X0486146Y0945060D01*
X0486005Y0945053D01*
X0485864Y0945050D01*
X0485723Y0945051D01*
X0485583Y0945056D01*
X0485442Y0945065D01*
X0485302Y0945078D01*
X0485162Y0945095D01*
X0485022Y0945115D01*
X0484884Y0945140D01*
X0484746Y0945169D01*
X0484609Y0945201D01*
X0484473Y0945237D01*
X0484338Y0945278D01*
X0484204Y0945322D01*
X0484071Y0945369D01*
X0483940Y0945421D01*
X0483810Y0945476D01*
X0483682Y0945534D01*
X0483556Y0945597D01*
X0483431Y0945662D01*
X0483309Y0945732D01*
X0483188Y0945804D01*
X0483069Y0945880D01*
X0482953Y0945960D01*
X0482839Y0946043D01*
X0482727Y0946128D01*
X0482618Y0946217D01*
X0482511Y0946309D01*
X0482407Y0946404D01*
X0482306Y0946502D01*
X0482207Y0946603D01*
X0482112Y0946706D01*
X0482019Y0946812D01*
X0481929Y0946921D01*
X0481843Y0947032D01*
X0481759Y0947145D01*
X0481679Y0947261D01*
X0481602Y0947379D01*
X0481529Y0947499D01*
X0481458Y0947622D01*
X0481392Y0947746D01*
X0481329Y0947872D01*
X0481269Y0947999D01*
X0481213Y0948128D01*
X0481161Y0948259D01*
X0481112Y0948391D01*
X0481067Y0948525D01*
X0481026Y0948660D01*
X0480989Y0948796D01*
X0480955Y0948932D01*
X0480926Y0949070D01*
X0480900Y0949209D01*
X0480879Y0949348D01*
X0480861Y0949488D01*
X0480847Y0949628D01*
X0480837Y0949768D01*
X0480831Y0949909D01*
X0480829Y0950050D01*
X0415829Y0950050D02*
X0415831Y0950191D01*
X0415837Y0950332D01*
X0415847Y0950472D01*
X0415861Y0950612D01*
X0415879Y0950752D01*
X0415900Y0950891D01*
X0415926Y0951030D01*
X0415955Y0951168D01*
X0415989Y0951304D01*
X0416026Y0951440D01*
X0416067Y0951575D01*
X0416112Y0951709D01*
X0416161Y0951841D01*
X0416213Y0951972D01*
X0416269Y0952101D01*
X0416329Y0952228D01*
X0416392Y0952354D01*
X0416458Y0952478D01*
X0416529Y0952601D01*
X0416602Y0952721D01*
X0416679Y0952839D01*
X0416759Y0952955D01*
X0416843Y0953068D01*
X0416929Y0953179D01*
X0417019Y0953288D01*
X0417112Y0953394D01*
X0417207Y0953497D01*
X0417306Y0953598D01*
X0417407Y0953696D01*
X0417511Y0953791D01*
X0417618Y0953883D01*
X0417727Y0953972D01*
X0417839Y0954057D01*
X0417953Y0954140D01*
X0418069Y0954220D01*
X0418188Y0954296D01*
X0418309Y0954368D01*
X0418431Y0954438D01*
X0418556Y0954503D01*
X0418682Y0954566D01*
X0418810Y0954624D01*
X0418940Y0954679D01*
X0419071Y0954731D01*
X0419204Y0954778D01*
X0419338Y0954822D01*
X0419473Y0954863D01*
X0419609Y0954899D01*
X0419746Y0954931D01*
X0419884Y0954960D01*
X0420022Y0954985D01*
X0420162Y0955005D01*
X0420302Y0955022D01*
X0420442Y0955035D01*
X0420583Y0955044D01*
X0420723Y0955049D01*
X0420864Y0955050D01*
X0421005Y0955047D01*
X0421146Y0955040D01*
X0421286Y0955029D01*
X0421426Y0955014D01*
X0421566Y0954995D01*
X0421705Y0954973D01*
X0421843Y0954946D01*
X0421981Y0954916D01*
X0422117Y0954881D01*
X0422253Y0954843D01*
X0422387Y0954801D01*
X0422521Y0954755D01*
X0422653Y0954706D01*
X0422783Y0954652D01*
X0422912Y0954595D01*
X0423039Y0954535D01*
X0423165Y0954471D01*
X0423288Y0954403D01*
X0423410Y0954332D01*
X0423530Y0954258D01*
X0423647Y0954180D01*
X0423762Y0954099D01*
X0423875Y0954015D01*
X0423986Y0953928D01*
X0424094Y0953837D01*
X0424199Y0953744D01*
X0424302Y0953647D01*
X0424402Y0953548D01*
X0424499Y0953446D01*
X0424593Y0953341D01*
X0424684Y0953234D01*
X0424772Y0953124D01*
X0424857Y0953012D01*
X0424939Y0952897D01*
X0425018Y0952780D01*
X0425093Y0952661D01*
X0425165Y0952540D01*
X0425233Y0952417D01*
X0425298Y0952292D01*
X0425360Y0952165D01*
X0425417Y0952036D01*
X0425472Y0951906D01*
X0425522Y0951775D01*
X0425569Y0951642D01*
X0425612Y0951508D01*
X0425651Y0951372D01*
X0425686Y0951236D01*
X0425718Y0951099D01*
X0425745Y0950961D01*
X0425769Y0950822D01*
X0425789Y0950682D01*
X0425805Y0950542D01*
X0425817Y0950402D01*
X0425825Y0950261D01*
X0425829Y0950120D01*
X0425829Y0949980D01*
X0425825Y0949839D01*
X0425817Y0949698D01*
X0425805Y0949558D01*
X0425789Y0949418D01*
X0425769Y0949278D01*
X0425745Y0949139D01*
X0425718Y0949001D01*
X0425686Y0948864D01*
X0425651Y0948728D01*
X0425612Y0948592D01*
X0425569Y0948458D01*
X0425522Y0948325D01*
X0425472Y0948194D01*
X0425417Y0948064D01*
X0425360Y0947935D01*
X0425298Y0947808D01*
X0425233Y0947683D01*
X0425165Y0947560D01*
X0425093Y0947439D01*
X0425018Y0947320D01*
X0424939Y0947203D01*
X0424857Y0947088D01*
X0424772Y0946976D01*
X0424684Y0946866D01*
X0424593Y0946759D01*
X0424499Y0946654D01*
X0424402Y0946552D01*
X0424302Y0946453D01*
X0424199Y0946356D01*
X0424094Y0946263D01*
X0423986Y0946172D01*
X0423875Y0946085D01*
X0423762Y0946001D01*
X0423647Y0945920D01*
X0423530Y0945842D01*
X0423410Y0945768D01*
X0423288Y0945697D01*
X0423165Y0945629D01*
X0423039Y0945565D01*
X0422912Y0945505D01*
X0422783Y0945448D01*
X0422653Y0945394D01*
X0422521Y0945345D01*
X0422387Y0945299D01*
X0422253Y0945257D01*
X0422117Y0945219D01*
X0421981Y0945184D01*
X0421843Y0945154D01*
X0421705Y0945127D01*
X0421566Y0945105D01*
X0421426Y0945086D01*
X0421286Y0945071D01*
X0421146Y0945060D01*
X0421005Y0945053D01*
X0420864Y0945050D01*
X0420723Y0945051D01*
X0420583Y0945056D01*
X0420442Y0945065D01*
X0420302Y0945078D01*
X0420162Y0945095D01*
X0420022Y0945115D01*
X0419884Y0945140D01*
X0419746Y0945169D01*
X0419609Y0945201D01*
X0419473Y0945237D01*
X0419338Y0945278D01*
X0419204Y0945322D01*
X0419071Y0945369D01*
X0418940Y0945421D01*
X0418810Y0945476D01*
X0418682Y0945534D01*
X0418556Y0945597D01*
X0418431Y0945662D01*
X0418309Y0945732D01*
X0418188Y0945804D01*
X0418069Y0945880D01*
X0417953Y0945960D01*
X0417839Y0946043D01*
X0417727Y0946128D01*
X0417618Y0946217D01*
X0417511Y0946309D01*
X0417407Y0946404D01*
X0417306Y0946502D01*
X0417207Y0946603D01*
X0417112Y0946706D01*
X0417019Y0946812D01*
X0416929Y0946921D01*
X0416843Y0947032D01*
X0416759Y0947145D01*
X0416679Y0947261D01*
X0416602Y0947379D01*
X0416529Y0947499D01*
X0416458Y0947622D01*
X0416392Y0947746D01*
X0416329Y0947872D01*
X0416269Y0947999D01*
X0416213Y0948128D01*
X0416161Y0948259D01*
X0416112Y0948391D01*
X0416067Y0948525D01*
X0416026Y0948660D01*
X0415989Y0948796D01*
X0415955Y0948932D01*
X0415926Y0949070D01*
X0415900Y0949209D01*
X0415879Y0949348D01*
X0415861Y0949488D01*
X0415847Y0949628D01*
X0415837Y0949768D01*
X0415831Y0949909D01*
X0415829Y0950050D01*
X0375829Y0785050D02*
X0375831Y0785191D01*
X0375837Y0785332D01*
X0375847Y0785472D01*
X0375861Y0785612D01*
X0375879Y0785752D01*
X0375900Y0785891D01*
X0375926Y0786030D01*
X0375955Y0786168D01*
X0375989Y0786304D01*
X0376026Y0786440D01*
X0376067Y0786575D01*
X0376112Y0786709D01*
X0376161Y0786841D01*
X0376213Y0786972D01*
X0376269Y0787101D01*
X0376329Y0787228D01*
X0376392Y0787354D01*
X0376458Y0787478D01*
X0376529Y0787601D01*
X0376602Y0787721D01*
X0376679Y0787839D01*
X0376759Y0787955D01*
X0376843Y0788068D01*
X0376929Y0788179D01*
X0377019Y0788288D01*
X0377112Y0788394D01*
X0377207Y0788497D01*
X0377306Y0788598D01*
X0377407Y0788696D01*
X0377511Y0788791D01*
X0377618Y0788883D01*
X0377727Y0788972D01*
X0377839Y0789057D01*
X0377953Y0789140D01*
X0378069Y0789220D01*
X0378188Y0789296D01*
X0378309Y0789368D01*
X0378431Y0789438D01*
X0378556Y0789503D01*
X0378682Y0789566D01*
X0378810Y0789624D01*
X0378940Y0789679D01*
X0379071Y0789731D01*
X0379204Y0789778D01*
X0379338Y0789822D01*
X0379473Y0789863D01*
X0379609Y0789899D01*
X0379746Y0789931D01*
X0379884Y0789960D01*
X0380022Y0789985D01*
X0380162Y0790005D01*
X0380302Y0790022D01*
X0380442Y0790035D01*
X0380583Y0790044D01*
X0380723Y0790049D01*
X0380864Y0790050D01*
X0381005Y0790047D01*
X0381146Y0790040D01*
X0381286Y0790029D01*
X0381426Y0790014D01*
X0381566Y0789995D01*
X0381705Y0789973D01*
X0381843Y0789946D01*
X0381981Y0789916D01*
X0382117Y0789881D01*
X0382253Y0789843D01*
X0382387Y0789801D01*
X0382521Y0789755D01*
X0382653Y0789706D01*
X0382783Y0789652D01*
X0382912Y0789595D01*
X0383039Y0789535D01*
X0383165Y0789471D01*
X0383288Y0789403D01*
X0383410Y0789332D01*
X0383530Y0789258D01*
X0383647Y0789180D01*
X0383762Y0789099D01*
X0383875Y0789015D01*
X0383986Y0788928D01*
X0384094Y0788837D01*
X0384199Y0788744D01*
X0384302Y0788647D01*
X0384402Y0788548D01*
X0384499Y0788446D01*
X0384593Y0788341D01*
X0384684Y0788234D01*
X0384772Y0788124D01*
X0384857Y0788012D01*
X0384939Y0787897D01*
X0385018Y0787780D01*
X0385093Y0787661D01*
X0385165Y0787540D01*
X0385233Y0787417D01*
X0385298Y0787292D01*
X0385360Y0787165D01*
X0385417Y0787036D01*
X0385472Y0786906D01*
X0385522Y0786775D01*
X0385569Y0786642D01*
X0385612Y0786508D01*
X0385651Y0786372D01*
X0385686Y0786236D01*
X0385718Y0786099D01*
X0385745Y0785961D01*
X0385769Y0785822D01*
X0385789Y0785682D01*
X0385805Y0785542D01*
X0385817Y0785402D01*
X0385825Y0785261D01*
X0385829Y0785120D01*
X0385829Y0784980D01*
X0385825Y0784839D01*
X0385817Y0784698D01*
X0385805Y0784558D01*
X0385789Y0784418D01*
X0385769Y0784278D01*
X0385745Y0784139D01*
X0385718Y0784001D01*
X0385686Y0783864D01*
X0385651Y0783728D01*
X0385612Y0783592D01*
X0385569Y0783458D01*
X0385522Y0783325D01*
X0385472Y0783194D01*
X0385417Y0783064D01*
X0385360Y0782935D01*
X0385298Y0782808D01*
X0385233Y0782683D01*
X0385165Y0782560D01*
X0385093Y0782439D01*
X0385018Y0782320D01*
X0384939Y0782203D01*
X0384857Y0782088D01*
X0384772Y0781976D01*
X0384684Y0781866D01*
X0384593Y0781759D01*
X0384499Y0781654D01*
X0384402Y0781552D01*
X0384302Y0781453D01*
X0384199Y0781356D01*
X0384094Y0781263D01*
X0383986Y0781172D01*
X0383875Y0781085D01*
X0383762Y0781001D01*
X0383647Y0780920D01*
X0383530Y0780842D01*
X0383410Y0780768D01*
X0383288Y0780697D01*
X0383165Y0780629D01*
X0383039Y0780565D01*
X0382912Y0780505D01*
X0382783Y0780448D01*
X0382653Y0780394D01*
X0382521Y0780345D01*
X0382387Y0780299D01*
X0382253Y0780257D01*
X0382117Y0780219D01*
X0381981Y0780184D01*
X0381843Y0780154D01*
X0381705Y0780127D01*
X0381566Y0780105D01*
X0381426Y0780086D01*
X0381286Y0780071D01*
X0381146Y0780060D01*
X0381005Y0780053D01*
X0380864Y0780050D01*
X0380723Y0780051D01*
X0380583Y0780056D01*
X0380442Y0780065D01*
X0380302Y0780078D01*
X0380162Y0780095D01*
X0380022Y0780115D01*
X0379884Y0780140D01*
X0379746Y0780169D01*
X0379609Y0780201D01*
X0379473Y0780237D01*
X0379338Y0780278D01*
X0379204Y0780322D01*
X0379071Y0780369D01*
X0378940Y0780421D01*
X0378810Y0780476D01*
X0378682Y0780534D01*
X0378556Y0780597D01*
X0378431Y0780662D01*
X0378309Y0780732D01*
X0378188Y0780804D01*
X0378069Y0780880D01*
X0377953Y0780960D01*
X0377839Y0781043D01*
X0377727Y0781128D01*
X0377618Y0781217D01*
X0377511Y0781309D01*
X0377407Y0781404D01*
X0377306Y0781502D01*
X0377207Y0781603D01*
X0377112Y0781706D01*
X0377019Y0781812D01*
X0376929Y0781921D01*
X0376843Y0782032D01*
X0376759Y0782145D01*
X0376679Y0782261D01*
X0376602Y0782379D01*
X0376529Y0782499D01*
X0376458Y0782622D01*
X0376392Y0782746D01*
X0376329Y0782872D01*
X0376269Y0782999D01*
X0376213Y0783128D01*
X0376161Y0783259D01*
X0376112Y0783391D01*
X0376067Y0783525D01*
X0376026Y0783660D01*
X0375989Y0783796D01*
X0375955Y0783932D01*
X0375926Y0784070D01*
X0375900Y0784209D01*
X0375879Y0784348D01*
X0375861Y0784488D01*
X0375847Y0784628D01*
X0375837Y0784768D01*
X0375831Y0784909D01*
X0375829Y0785050D01*
X0180829Y0785050D02*
X0180831Y0785191D01*
X0180837Y0785332D01*
X0180847Y0785472D01*
X0180861Y0785612D01*
X0180879Y0785752D01*
X0180900Y0785891D01*
X0180926Y0786030D01*
X0180955Y0786168D01*
X0180989Y0786304D01*
X0181026Y0786440D01*
X0181067Y0786575D01*
X0181112Y0786709D01*
X0181161Y0786841D01*
X0181213Y0786972D01*
X0181269Y0787101D01*
X0181329Y0787228D01*
X0181392Y0787354D01*
X0181458Y0787478D01*
X0181529Y0787601D01*
X0181602Y0787721D01*
X0181679Y0787839D01*
X0181759Y0787955D01*
X0181843Y0788068D01*
X0181929Y0788179D01*
X0182019Y0788288D01*
X0182112Y0788394D01*
X0182207Y0788497D01*
X0182306Y0788598D01*
X0182407Y0788696D01*
X0182511Y0788791D01*
X0182618Y0788883D01*
X0182727Y0788972D01*
X0182839Y0789057D01*
X0182953Y0789140D01*
X0183069Y0789220D01*
X0183188Y0789296D01*
X0183309Y0789368D01*
X0183431Y0789438D01*
X0183556Y0789503D01*
X0183682Y0789566D01*
X0183810Y0789624D01*
X0183940Y0789679D01*
X0184071Y0789731D01*
X0184204Y0789778D01*
X0184338Y0789822D01*
X0184473Y0789863D01*
X0184609Y0789899D01*
X0184746Y0789931D01*
X0184884Y0789960D01*
X0185022Y0789985D01*
X0185162Y0790005D01*
X0185302Y0790022D01*
X0185442Y0790035D01*
X0185583Y0790044D01*
X0185723Y0790049D01*
X0185864Y0790050D01*
X0186005Y0790047D01*
X0186146Y0790040D01*
X0186286Y0790029D01*
X0186426Y0790014D01*
X0186566Y0789995D01*
X0186705Y0789973D01*
X0186843Y0789946D01*
X0186981Y0789916D01*
X0187117Y0789881D01*
X0187253Y0789843D01*
X0187387Y0789801D01*
X0187521Y0789755D01*
X0187653Y0789706D01*
X0187783Y0789652D01*
X0187912Y0789595D01*
X0188039Y0789535D01*
X0188165Y0789471D01*
X0188288Y0789403D01*
X0188410Y0789332D01*
X0188530Y0789258D01*
X0188647Y0789180D01*
X0188762Y0789099D01*
X0188875Y0789015D01*
X0188986Y0788928D01*
X0189094Y0788837D01*
X0189199Y0788744D01*
X0189302Y0788647D01*
X0189402Y0788548D01*
X0189499Y0788446D01*
X0189593Y0788341D01*
X0189684Y0788234D01*
X0189772Y0788124D01*
X0189857Y0788012D01*
X0189939Y0787897D01*
X0190018Y0787780D01*
X0190093Y0787661D01*
X0190165Y0787540D01*
X0190233Y0787417D01*
X0190298Y0787292D01*
X0190360Y0787165D01*
X0190417Y0787036D01*
X0190472Y0786906D01*
X0190522Y0786775D01*
X0190569Y0786642D01*
X0190612Y0786508D01*
X0190651Y0786372D01*
X0190686Y0786236D01*
X0190718Y0786099D01*
X0190745Y0785961D01*
X0190769Y0785822D01*
X0190789Y0785682D01*
X0190805Y0785542D01*
X0190817Y0785402D01*
X0190825Y0785261D01*
X0190829Y0785120D01*
X0190829Y0784980D01*
X0190825Y0784839D01*
X0190817Y0784698D01*
X0190805Y0784558D01*
X0190789Y0784418D01*
X0190769Y0784278D01*
X0190745Y0784139D01*
X0190718Y0784001D01*
X0190686Y0783864D01*
X0190651Y0783728D01*
X0190612Y0783592D01*
X0190569Y0783458D01*
X0190522Y0783325D01*
X0190472Y0783194D01*
X0190417Y0783064D01*
X0190360Y0782935D01*
X0190298Y0782808D01*
X0190233Y0782683D01*
X0190165Y0782560D01*
X0190093Y0782439D01*
X0190018Y0782320D01*
X0189939Y0782203D01*
X0189857Y0782088D01*
X0189772Y0781976D01*
X0189684Y0781866D01*
X0189593Y0781759D01*
X0189499Y0781654D01*
X0189402Y0781552D01*
X0189302Y0781453D01*
X0189199Y0781356D01*
X0189094Y0781263D01*
X0188986Y0781172D01*
X0188875Y0781085D01*
X0188762Y0781001D01*
X0188647Y0780920D01*
X0188530Y0780842D01*
X0188410Y0780768D01*
X0188288Y0780697D01*
X0188165Y0780629D01*
X0188039Y0780565D01*
X0187912Y0780505D01*
X0187783Y0780448D01*
X0187653Y0780394D01*
X0187521Y0780345D01*
X0187387Y0780299D01*
X0187253Y0780257D01*
X0187117Y0780219D01*
X0186981Y0780184D01*
X0186843Y0780154D01*
X0186705Y0780127D01*
X0186566Y0780105D01*
X0186426Y0780086D01*
X0186286Y0780071D01*
X0186146Y0780060D01*
X0186005Y0780053D01*
X0185864Y0780050D01*
X0185723Y0780051D01*
X0185583Y0780056D01*
X0185442Y0780065D01*
X0185302Y0780078D01*
X0185162Y0780095D01*
X0185022Y0780115D01*
X0184884Y0780140D01*
X0184746Y0780169D01*
X0184609Y0780201D01*
X0184473Y0780237D01*
X0184338Y0780278D01*
X0184204Y0780322D01*
X0184071Y0780369D01*
X0183940Y0780421D01*
X0183810Y0780476D01*
X0183682Y0780534D01*
X0183556Y0780597D01*
X0183431Y0780662D01*
X0183309Y0780732D01*
X0183188Y0780804D01*
X0183069Y0780880D01*
X0182953Y0780960D01*
X0182839Y0781043D01*
X0182727Y0781128D01*
X0182618Y0781217D01*
X0182511Y0781309D01*
X0182407Y0781404D01*
X0182306Y0781502D01*
X0182207Y0781603D01*
X0182112Y0781706D01*
X0182019Y0781812D01*
X0181929Y0781921D01*
X0181843Y0782032D01*
X0181759Y0782145D01*
X0181679Y0782261D01*
X0181602Y0782379D01*
X0181529Y0782499D01*
X0181458Y0782622D01*
X0181392Y0782746D01*
X0181329Y0782872D01*
X0181269Y0782999D01*
X0181213Y0783128D01*
X0181161Y0783259D01*
X0181112Y0783391D01*
X0181067Y0783525D01*
X0181026Y0783660D01*
X0180989Y0783796D01*
X0180955Y0783932D01*
X0180926Y0784070D01*
X0180900Y0784209D01*
X0180879Y0784348D01*
X0180861Y0784488D01*
X0180847Y0784628D01*
X0180837Y0784768D01*
X0180831Y0784909D01*
X0180829Y0785050D01*
X0180239Y1040050D02*
X0180241Y1040199D01*
X0180247Y1040349D01*
X0180257Y1040498D01*
X0180271Y1040647D01*
X0180289Y1040795D01*
X0180311Y1040943D01*
X0180337Y1041090D01*
X0180366Y1041237D01*
X0180400Y1041382D01*
X0180438Y1041527D01*
X0180479Y1041670D01*
X0180524Y1041813D01*
X0180573Y1041954D01*
X0180626Y1042094D01*
X0180683Y1042232D01*
X0180743Y1042369D01*
X0180807Y1042504D01*
X0180874Y1042638D01*
X0180945Y1042769D01*
X0181019Y1042899D01*
X0181097Y1043026D01*
X0181178Y1043152D01*
X0181263Y1043275D01*
X0181351Y1043396D01*
X0181442Y1043514D01*
X0181536Y1043630D01*
X0181633Y1043744D01*
X0181734Y1043855D01*
X0181837Y1043963D01*
X0181943Y1044068D01*
X0182052Y1044171D01*
X0182163Y1044270D01*
X0182277Y1044367D01*
X0182394Y1044460D01*
X0182513Y1044550D01*
X0182635Y1044637D01*
X0182758Y1044721D01*
X0182884Y1044802D01*
X0183012Y1044879D01*
X0183143Y1044952D01*
X0183275Y1045022D01*
X0183408Y1045089D01*
X0183544Y1045152D01*
X0183681Y1045211D01*
X0183820Y1045266D01*
X0183960Y1045318D01*
X0184102Y1045366D01*
X0184244Y1045411D01*
X0184388Y1045451D01*
X0184533Y1045488D01*
X0184679Y1045520D01*
X0184826Y1045549D01*
X0184973Y1045574D01*
X0185121Y1045595D01*
X0185269Y1045612D01*
X0185418Y1045625D01*
X0185568Y1045634D01*
X0185717Y1045639D01*
X0185866Y1045640D01*
X0186016Y1045637D01*
X0186165Y1045630D01*
X0186314Y1045619D01*
X0186463Y1045604D01*
X0186611Y1045585D01*
X0186759Y1045562D01*
X0186906Y1045535D01*
X0187052Y1045505D01*
X0187197Y1045470D01*
X0187342Y1045431D01*
X0187485Y1045389D01*
X0187627Y1045343D01*
X0187768Y1045293D01*
X0187908Y1045239D01*
X0188046Y1045182D01*
X0188182Y1045121D01*
X0188317Y1045056D01*
X0188450Y1044988D01*
X0188581Y1044916D01*
X0188710Y1044840D01*
X0188837Y1044762D01*
X0188962Y1044680D01*
X0189084Y1044594D01*
X0189205Y1044506D01*
X0189323Y1044414D01*
X0189438Y1044319D01*
X0189551Y1044221D01*
X0189661Y1044120D01*
X0189768Y1044016D01*
X0189873Y1043909D01*
X0189975Y1043800D01*
X0190074Y1043688D01*
X0190169Y1043573D01*
X0190262Y1043455D01*
X0190351Y1043336D01*
X0190438Y1043214D01*
X0190521Y1043089D01*
X0190600Y1042963D01*
X0190676Y1042834D01*
X0190749Y1042704D01*
X0190818Y1042571D01*
X0190884Y1042437D01*
X0190946Y1042301D01*
X0191004Y1042163D01*
X0191059Y1042024D01*
X0191110Y1041884D01*
X0191157Y1041742D01*
X0191200Y1041599D01*
X0191240Y1041455D01*
X0191275Y1041309D01*
X0191307Y1041163D01*
X0191335Y1041017D01*
X0191359Y1040869D01*
X0191379Y1040721D01*
X0191395Y1040572D01*
X0191407Y1040423D01*
X0191415Y1040274D01*
X0191419Y1040125D01*
X0191419Y1039975D01*
X0191415Y1039826D01*
X0191407Y1039677D01*
X0191395Y1039528D01*
X0191379Y1039379D01*
X0191359Y1039231D01*
X0191335Y1039083D01*
X0191307Y1038937D01*
X0191275Y1038791D01*
X0191240Y1038645D01*
X0191200Y1038501D01*
X0191157Y1038358D01*
X0191110Y1038216D01*
X0191059Y1038076D01*
X0191004Y1037937D01*
X0190946Y1037799D01*
X0190884Y1037663D01*
X0190818Y1037529D01*
X0190749Y1037396D01*
X0190676Y1037266D01*
X0190600Y1037137D01*
X0190521Y1037011D01*
X0190438Y1036886D01*
X0190351Y1036764D01*
X0190262Y1036645D01*
X0190169Y1036527D01*
X0190074Y1036412D01*
X0189975Y1036300D01*
X0189873Y1036191D01*
X0189768Y1036084D01*
X0189661Y1035980D01*
X0189551Y1035879D01*
X0189438Y1035781D01*
X0189323Y1035686D01*
X0189205Y1035594D01*
X0189084Y1035506D01*
X0188962Y1035420D01*
X0188837Y1035338D01*
X0188710Y1035260D01*
X0188581Y1035184D01*
X0188450Y1035112D01*
X0188317Y1035044D01*
X0188182Y1034979D01*
X0188046Y1034918D01*
X0187908Y1034861D01*
X0187768Y1034807D01*
X0187627Y1034757D01*
X0187485Y1034711D01*
X0187342Y1034669D01*
X0187197Y1034630D01*
X0187052Y1034595D01*
X0186906Y1034565D01*
X0186759Y1034538D01*
X0186611Y1034515D01*
X0186463Y1034496D01*
X0186314Y1034481D01*
X0186165Y1034470D01*
X0186016Y1034463D01*
X0185866Y1034460D01*
X0185717Y1034461D01*
X0185568Y1034466D01*
X0185418Y1034475D01*
X0185269Y1034488D01*
X0185121Y1034505D01*
X0184973Y1034526D01*
X0184826Y1034551D01*
X0184679Y1034580D01*
X0184533Y1034612D01*
X0184388Y1034649D01*
X0184244Y1034689D01*
X0184102Y1034734D01*
X0183960Y1034782D01*
X0183820Y1034834D01*
X0183681Y1034889D01*
X0183544Y1034948D01*
X0183408Y1035011D01*
X0183275Y1035078D01*
X0183143Y1035148D01*
X0183012Y1035221D01*
X0182884Y1035298D01*
X0182758Y1035379D01*
X0182635Y1035463D01*
X0182513Y1035550D01*
X0182394Y1035640D01*
X0182277Y1035733D01*
X0182163Y1035830D01*
X0182052Y1035929D01*
X0181943Y1036032D01*
X0181837Y1036137D01*
X0181734Y1036245D01*
X0181633Y1036356D01*
X0181536Y1036470D01*
X0181442Y1036586D01*
X0181351Y1036704D01*
X0181263Y1036825D01*
X0181178Y1036948D01*
X0181097Y1037074D01*
X0181019Y1037201D01*
X0180945Y1037331D01*
X0180874Y1037462D01*
X0180807Y1037596D01*
X0180743Y1037731D01*
X0180683Y1037868D01*
X0180626Y1038006D01*
X0180573Y1038146D01*
X0180524Y1038287D01*
X0180479Y1038430D01*
X0180438Y1038573D01*
X0180400Y1038718D01*
X0180366Y1038863D01*
X0180337Y1039010D01*
X0180311Y1039157D01*
X0180289Y1039305D01*
X0180271Y1039453D01*
X0180257Y1039602D01*
X0180247Y1039751D01*
X0180241Y1039901D01*
X0180239Y1040050D01*
M02*
