G75*
%MOIN*%
%OFA0B0*%
%FSLAX25Y25*%
%IPPOS*%
%LPD*%
%AMOC8*
5,1,8,0,0,1.08239X$1,22.5*
%
%ADD10OC8,0.07000*%
%ADD11C,0.05200*%
%ADD12OC8,0.05200*%
%ADD13R,0.07000X0.07000*%
%ADD14C,0.07000*%
%ADD15OC8,0.06600*%
%ADD16OC8,0.05600*%
%ADD17C,0.06600*%
%ADD18C,0.06000*%
%ADD19C,0.05600*%
%ADD20C,0.01600*%
%ADD21C,0.01000*%
%ADD22R,0.04356X0.04356*%
%ADD23C,0.04000*%
D10*
X0365829Y0900050D03*
X0365829Y0910050D03*
X0365829Y0920050D03*
X0365829Y0930050D03*
X0365829Y0940050D03*
X0365829Y0950050D03*
X0365829Y0960050D03*
X0365829Y0970050D03*
X0365829Y0980050D03*
X0365829Y0990050D03*
X0415829Y0990050D03*
X0415829Y0980050D03*
X0415829Y0970050D03*
X0415829Y1000050D03*
X0415829Y1010050D03*
X0415829Y1020050D03*
X0290829Y1015050D03*
X0280829Y1015050D03*
X0270829Y1015050D03*
X0260829Y1015050D03*
X0250829Y1015050D03*
X0240829Y1015050D03*
X0230829Y1015050D03*
X0220829Y1015050D03*
X0210829Y1015050D03*
X0200829Y1015050D03*
X0200829Y1045050D03*
X0210829Y1045050D03*
X0220829Y1045050D03*
X0230829Y1045050D03*
X0240829Y1045050D03*
X0250829Y1045050D03*
X0260829Y1045050D03*
X0270829Y1045050D03*
X0280829Y1045050D03*
X0290829Y1045050D03*
X0290829Y0965050D03*
X0280829Y0965050D03*
X0270829Y0965050D03*
X0260829Y0965050D03*
X0250829Y0965050D03*
X0240829Y0965050D03*
X0230829Y0965050D03*
X0220829Y0965050D03*
X0210829Y0965050D03*
X0200829Y0965050D03*
X0200829Y0935050D03*
X0210829Y0935050D03*
X0220829Y0935050D03*
X0230829Y0935050D03*
X0240829Y0935050D03*
X0250829Y0935050D03*
X0260829Y0935050D03*
X0270829Y0935050D03*
X0280829Y0935050D03*
X0290829Y0935050D03*
D11*
X0338229Y0940050D02*
X0343429Y0940050D01*
X0343429Y0930050D02*
X0338229Y0930050D01*
X0338229Y0950050D02*
X0343429Y0950050D01*
X0343429Y0965050D02*
X0338229Y0965050D01*
X0338229Y0975050D02*
X0343429Y0975050D01*
X0343429Y0985050D02*
X0338229Y0985050D01*
X0433229Y0925050D02*
X0438429Y0925050D01*
X0438429Y0915050D02*
X0433229Y0915050D01*
X0433229Y0905050D02*
X0438429Y0905050D01*
X0438429Y0895050D02*
X0433229Y0895050D01*
X0463229Y0895050D02*
X0468429Y0895050D01*
X0468429Y0905050D02*
X0463229Y0905050D01*
X0463229Y0915050D02*
X0468429Y0915050D01*
X0468429Y0925050D02*
X0463229Y0925050D01*
D12*
X0480829Y0915050D03*
X0480829Y0895050D03*
X0495829Y0895050D03*
X0495829Y0915050D03*
X0325829Y0930050D03*
X0325829Y0945050D03*
X0305829Y0945050D03*
X0305829Y0930050D03*
X0305829Y1045050D03*
X0325829Y1045050D03*
D13*
X0350829Y0870050D03*
X0350829Y0855050D03*
D14*
X0340829Y0855050D03*
X0330829Y0855050D03*
X0330829Y0870050D03*
X0340829Y0870050D03*
X0320829Y0870050D03*
X0320829Y0855050D03*
X0310829Y0855050D03*
X0310829Y0870050D03*
X0300829Y0870050D03*
X0300829Y0855050D03*
X0290829Y0855050D03*
X0290829Y0870050D03*
X0280829Y0870050D03*
X0280829Y0855050D03*
X0270829Y0855050D03*
X0270829Y0870050D03*
X0260829Y0870050D03*
X0260829Y0855050D03*
X0250829Y0855050D03*
X0250829Y0870050D03*
X0240829Y0870050D03*
X0240829Y0855050D03*
X0230829Y0855050D03*
X0220829Y0855050D03*
X0220829Y0870050D03*
X0230829Y0870050D03*
X0210829Y0870050D03*
X0210829Y0855050D03*
X0210829Y0795050D03*
X0210829Y0780050D03*
X0220829Y0780050D03*
X0230829Y0780050D03*
X0230829Y0795050D03*
X0220829Y0795050D03*
X0240829Y0795050D03*
X0240829Y0780050D03*
X0250829Y0780050D03*
X0250829Y0795050D03*
X0260829Y0795050D03*
X0260829Y0780050D03*
X0270829Y0780050D03*
X0270829Y0795050D03*
X0280829Y0795050D03*
X0280829Y0780050D03*
X0290829Y0780050D03*
X0290829Y0795050D03*
X0300829Y0795050D03*
X0300829Y0780050D03*
X0310829Y0780050D03*
X0310829Y0795050D03*
X0320829Y0795050D03*
X0320829Y0780050D03*
X0330829Y0780050D03*
X0340829Y0780050D03*
X0340829Y0795050D03*
X0330829Y0795050D03*
X0350829Y0795050D03*
X0350829Y0780050D03*
D15*
X0294329Y0890050D03*
X0285829Y0890050D03*
X0277329Y0890050D03*
X0241829Y0890050D03*
X0233329Y0890050D03*
X0224829Y0890050D03*
D16*
X0215829Y0910050D03*
X0215829Y0920050D03*
X0240829Y0920050D03*
X0240829Y0910050D03*
X0265829Y0910050D03*
X0265829Y0920050D03*
X0290829Y0920050D03*
X0290829Y0910050D03*
X0310829Y0960050D03*
X0320829Y0960050D03*
X0320829Y0975050D03*
X0310829Y0975050D03*
X0420829Y0925050D03*
X0420829Y0915050D03*
D17*
X0410829Y0910050D03*
X0410829Y0900050D03*
X0410829Y0920050D03*
X0385829Y0920050D03*
X0385829Y0910050D03*
X0385829Y0900050D03*
X0385829Y0940050D03*
X0385829Y0950050D03*
X0385829Y0960050D03*
X0325829Y0990050D03*
X0310829Y0990050D03*
X0310829Y1030050D03*
X0325829Y1030050D03*
D18*
X0352829Y1030050D02*
X0358829Y1030050D01*
X0358829Y1020050D02*
X0352829Y1020050D01*
X0352829Y1010050D02*
X0358829Y1010050D01*
X0358829Y1040050D02*
X0352829Y1040050D01*
D19*
X0383029Y0990050D02*
X0388629Y0990050D01*
X0388629Y0980050D02*
X0383029Y0980050D01*
X0483329Y0927850D02*
X0483329Y0922250D01*
X0493329Y0922250D02*
X0493329Y0927850D01*
D20*
X0378329Y0947550D02*
X0378329Y0892550D01*
X0373329Y0887550D01*
X0353329Y0887550D01*
X0343329Y0897550D02*
X0303329Y0897550D01*
X0298329Y0902550D01*
X0273329Y0902550D01*
X0240829Y0870050D01*
X0250829Y0870050D02*
X0250829Y0872550D01*
X0275829Y0897550D01*
X0295829Y0897550D01*
X0300829Y0892550D01*
X0370829Y0892550D01*
X0373329Y0895050D01*
X0373329Y0942550D01*
X0365829Y0950050D01*
X0365829Y0960050D02*
X0378329Y0947550D01*
X0365829Y0920050D02*
X0358329Y0920050D01*
X0353329Y0915050D01*
X0270829Y0915050D01*
X0265829Y0910050D01*
X0280829Y0880050D02*
X0270829Y0870050D01*
X0280829Y0880050D02*
X0315829Y0880050D01*
X0320829Y0882550D02*
X0315829Y0887550D01*
X0296829Y0887550D01*
X0294329Y0890050D01*
X0290829Y0855050D02*
X0290829Y0850050D01*
X0295829Y0845050D01*
X0330829Y0845050D01*
X0333329Y0847550D01*
X0320829Y0870050D02*
X0320829Y0882550D01*
X0325829Y0945050D02*
X0325829Y0972550D01*
X0330829Y0972550D01*
X0333329Y0975050D01*
X0340829Y0975050D01*
X0368329Y0837550D02*
X0278329Y0837550D01*
X0260829Y0855050D01*
X0224829Y0890050D02*
X0224829Y0901050D01*
X0215829Y0910050D01*
X0328329Y0817550D02*
X0330829Y0817550D01*
X0330829Y0795050D01*
D21*
X0188758Y0774758D02*
X0186508Y0774550D01*
X0379300Y0774550D01*
X0376060Y0775472D01*
X0372922Y0777841D01*
X0370852Y0781185D01*
X0370129Y0785050D01*
X0370852Y0788915D01*
X0372922Y0792259D01*
X0376060Y0794628D01*
X0379842Y0795704D01*
X0383758Y0795342D01*
X0387278Y0793589D01*
X0389927Y0790683D01*
X0391329Y0787062D01*
X0391329Y0875843D01*
X0391272Y0876021D01*
X0391329Y0876732D01*
X0391329Y0877445D01*
X0391401Y0877619D01*
X0391520Y0879089D01*
X0391520Y0879089D01*
X0393201Y0883118D01*
X0393201Y0883118D01*
X0396043Y0886431D01*
X0396043Y0886431D01*
X0399771Y0888703D01*
X0399771Y0888703D01*
X0404018Y0889712D01*
X0404018Y0889712D01*
X0406012Y0889550D01*
X0500829Y0889550D01*
X0501547Y0889597D01*
X0502934Y0889969D01*
X0504178Y0890687D01*
X0505193Y0891702D01*
X0505911Y0892945D01*
X0506282Y0894332D01*
X0506329Y0895050D01*
X0506329Y1038038D01*
X0504927Y1034417D01*
X0502278Y1031511D01*
X0498758Y1029758D01*
X0494842Y1029396D01*
X0491060Y1030472D01*
X0487922Y1032841D01*
X0485852Y1036185D01*
X0485129Y1040050D01*
X0485852Y1043915D01*
X0487922Y1047259D01*
X0491060Y1049628D01*
X0494300Y1050550D01*
X0189640Y1050550D01*
X0192633Y1049060D01*
X0195428Y1045994D01*
X0195429Y1045991D01*
X0195429Y1047287D01*
X0198593Y1050450D01*
X0203066Y1050450D01*
X0205829Y1047687D01*
X0208593Y1050450D01*
X0213066Y1050450D01*
X0215829Y1047687D01*
X0218593Y1050450D01*
X0223066Y1050450D01*
X0225829Y1047687D01*
X0228593Y1050450D01*
X0233066Y1050450D01*
X0235829Y1047687D01*
X0238593Y1050450D01*
X0243066Y1050450D01*
X0245829Y1047687D01*
X0248593Y1050450D01*
X0253066Y1050450D01*
X0255829Y1047687D01*
X0258593Y1050450D01*
X0263066Y1050450D01*
X0265829Y1047687D01*
X0268593Y1050450D01*
X0273066Y1050450D01*
X0275829Y1047687D01*
X0278593Y1050450D01*
X0283066Y1050450D01*
X0285829Y1047687D01*
X0288593Y1050450D01*
X0293066Y1050450D01*
X0296229Y1047287D01*
X0296229Y1042813D01*
X0293066Y1039650D01*
X0288593Y1039650D01*
X0285829Y1042413D01*
X0283066Y1039650D01*
X0278593Y1039650D01*
X0275829Y1042413D01*
X0273066Y1039650D01*
X0268593Y1039650D01*
X0265829Y1042413D01*
X0263066Y1039650D01*
X0258593Y1039650D01*
X0255829Y1042413D01*
X0253066Y1039650D01*
X0248593Y1039650D01*
X0245829Y1042413D01*
X0243066Y1039650D01*
X0238593Y1039650D01*
X0235829Y1042413D01*
X0233066Y1039650D01*
X0228593Y1039650D01*
X0225829Y1042413D01*
X0223066Y1039650D01*
X0218593Y1039650D01*
X0215829Y1042413D01*
X0213066Y1039650D01*
X0208593Y1039650D01*
X0205829Y1042413D01*
X0203066Y1039650D01*
X0198593Y1039650D01*
X0196927Y1041315D01*
X0196927Y1037975D01*
X0195428Y1034106D01*
X0192633Y1031040D01*
X0188919Y1029191D01*
X0184788Y1028808D01*
X0180797Y1029943D01*
X0177486Y1032444D01*
X0175329Y1035927D01*
X0175329Y0786120D01*
X0175852Y0788915D01*
X0177922Y0792259D01*
X0181060Y0794628D01*
X0184842Y0795704D01*
X0188758Y0795342D01*
X0192278Y0793589D01*
X0194927Y0790683D01*
X0196347Y0787016D01*
X0196347Y0783084D01*
X0194927Y0779417D01*
X0192278Y0776511D01*
X0188758Y0774758D01*
X0189313Y0775035D02*
X0208826Y0775035D01*
X0209755Y0774650D02*
X0211904Y0774650D01*
X0213888Y0775472D01*
X0215407Y0776991D01*
X0215829Y0778010D01*
X0216251Y0776991D01*
X0217771Y0775472D01*
X0219755Y0774650D01*
X0221904Y0774650D01*
X0223888Y0775472D01*
X0225407Y0776991D01*
X0225829Y0778010D01*
X0226251Y0776991D01*
X0227771Y0775472D01*
X0229755Y0774650D01*
X0231904Y0774650D01*
X0233888Y0775472D01*
X0235407Y0776991D01*
X0235829Y0778010D01*
X0236251Y0776991D01*
X0237771Y0775472D01*
X0239755Y0774650D01*
X0241904Y0774650D01*
X0243888Y0775472D01*
X0245407Y0776991D01*
X0245829Y0778010D01*
X0246251Y0776991D01*
X0247771Y0775472D01*
X0249755Y0774650D01*
X0251904Y0774650D01*
X0253888Y0775472D01*
X0255407Y0776991D01*
X0255829Y0778010D01*
X0256251Y0776991D01*
X0257771Y0775472D01*
X0259755Y0774650D01*
X0261904Y0774650D01*
X0263888Y0775472D01*
X0265407Y0776991D01*
X0265829Y0778010D01*
X0266251Y0776991D01*
X0267771Y0775472D01*
X0269755Y0774650D01*
X0271904Y0774650D01*
X0273888Y0775472D01*
X0275407Y0776991D01*
X0275829Y0778010D01*
X0276251Y0776991D01*
X0277771Y0775472D01*
X0279755Y0774650D01*
X0281904Y0774650D01*
X0283888Y0775472D01*
X0285407Y0776991D01*
X0285829Y0778010D01*
X0286251Y0776991D01*
X0287771Y0775472D01*
X0289755Y0774650D01*
X0291904Y0774650D01*
X0293888Y0775472D01*
X0295407Y0776991D01*
X0295829Y0778010D01*
X0296251Y0776991D01*
X0297771Y0775472D01*
X0299755Y0774650D01*
X0301904Y0774650D01*
X0303888Y0775472D01*
X0305407Y0776991D01*
X0305829Y0778010D01*
X0306251Y0776991D01*
X0307771Y0775472D01*
X0309755Y0774650D01*
X0311904Y0774650D01*
X0313888Y0775472D01*
X0315407Y0776991D01*
X0315829Y0778010D01*
X0316251Y0776991D01*
X0317771Y0775472D01*
X0319755Y0774650D01*
X0321904Y0774650D01*
X0323888Y0775472D01*
X0325407Y0776991D01*
X0325829Y0778010D01*
X0326251Y0776991D01*
X0327771Y0775472D01*
X0329755Y0774650D01*
X0331904Y0774650D01*
X0333888Y0775472D01*
X0335407Y0776991D01*
X0336057Y0778559D01*
X0336196Y0778131D01*
X0336553Y0777429D01*
X0337016Y0776793D01*
X0337572Y0776236D01*
X0338209Y0775774D01*
X0338910Y0775416D01*
X0339659Y0775173D01*
X0340429Y0775051D01*
X0340429Y0779650D01*
X0341229Y0779650D01*
X0341229Y0775051D01*
X0342000Y0775173D01*
X0342749Y0775416D01*
X0343450Y0775774D01*
X0344087Y0776236D01*
X0344643Y0776793D01*
X0345106Y0777429D01*
X0345463Y0778131D01*
X0345602Y0778559D01*
X0346251Y0776991D01*
X0347771Y0775472D01*
X0349755Y0774650D01*
X0351904Y0774650D01*
X0353888Y0775472D01*
X0355407Y0776991D01*
X0356229Y0778976D01*
X0356229Y0781124D01*
X0355407Y0783109D01*
X0353888Y0784628D01*
X0351904Y0785450D01*
X0349755Y0785450D01*
X0347771Y0784628D01*
X0346251Y0783109D01*
X0345602Y0781541D01*
X0345463Y0781969D01*
X0345106Y0782671D01*
X0344643Y0783307D01*
X0344087Y0783864D01*
X0343450Y0784326D01*
X0342749Y0784684D01*
X0342000Y0784927D01*
X0341229Y0785049D01*
X0341229Y0780450D01*
X0340429Y0780450D01*
X0340429Y0785049D01*
X0339659Y0784927D01*
X0338910Y0784684D01*
X0338209Y0784326D01*
X0337572Y0783864D01*
X0337016Y0783307D01*
X0336553Y0782671D01*
X0336196Y0781969D01*
X0336057Y0781541D01*
X0335407Y0783109D01*
X0333888Y0784628D01*
X0331904Y0785450D01*
X0329755Y0785450D01*
X0327771Y0784628D01*
X0326251Y0783109D01*
X0325829Y0782090D01*
X0325407Y0783109D01*
X0323888Y0784628D01*
X0321904Y0785450D01*
X0319755Y0785450D01*
X0317771Y0784628D01*
X0316251Y0783109D01*
X0315829Y0782090D01*
X0315407Y0783109D01*
X0313888Y0784628D01*
X0311904Y0785450D01*
X0309755Y0785450D01*
X0307771Y0784628D01*
X0306251Y0783109D01*
X0305829Y0782090D01*
X0305407Y0783109D01*
X0303888Y0784628D01*
X0301904Y0785450D01*
X0299755Y0785450D01*
X0297771Y0784628D01*
X0296251Y0783109D01*
X0295829Y0782090D01*
X0295407Y0783109D01*
X0293888Y0784628D01*
X0291904Y0785450D01*
X0289755Y0785450D01*
X0287771Y0784628D01*
X0286251Y0783109D01*
X0285829Y0782090D01*
X0285407Y0783109D01*
X0283888Y0784628D01*
X0281904Y0785450D01*
X0279755Y0785450D01*
X0277771Y0784628D01*
X0276251Y0783109D01*
X0275829Y0782090D01*
X0275407Y0783109D01*
X0273888Y0784628D01*
X0271904Y0785450D01*
X0269755Y0785450D01*
X0267771Y0784628D01*
X0266251Y0783109D01*
X0265829Y0782090D01*
X0265407Y0783109D01*
X0263888Y0784628D01*
X0261904Y0785450D01*
X0259755Y0785450D01*
X0257771Y0784628D01*
X0256251Y0783109D01*
X0255829Y0782090D01*
X0255407Y0783109D01*
X0253888Y0784628D01*
X0251904Y0785450D01*
X0249755Y0785450D01*
X0247771Y0784628D01*
X0246251Y0783109D01*
X0245829Y0782090D01*
X0245407Y0783109D01*
X0243888Y0784628D01*
X0241904Y0785450D01*
X0239755Y0785450D01*
X0237771Y0784628D01*
X0236251Y0783109D01*
X0235829Y0782090D01*
X0235407Y0783109D01*
X0233888Y0784628D01*
X0231904Y0785450D01*
X0229755Y0785450D01*
X0227771Y0784628D01*
X0226251Y0783109D01*
X0225829Y0782090D01*
X0225407Y0783109D01*
X0223888Y0784628D01*
X0221904Y0785450D01*
X0219755Y0785450D01*
X0217771Y0784628D01*
X0216251Y0783109D01*
X0215829Y0782090D01*
X0215407Y0783109D01*
X0213888Y0784628D01*
X0211904Y0785450D01*
X0209755Y0785450D01*
X0207771Y0784628D01*
X0206251Y0783109D01*
X0205429Y0781124D01*
X0205429Y0778976D01*
X0206251Y0776991D01*
X0207771Y0775472D01*
X0209755Y0774650D01*
X0207209Y0776034D02*
X0191318Y0776034D01*
X0192752Y0777032D02*
X0206234Y0777032D01*
X0205821Y0778031D02*
X0193663Y0778031D01*
X0194573Y0779029D02*
X0205429Y0779029D01*
X0205429Y0780028D02*
X0195163Y0780028D01*
X0195550Y0781026D02*
X0205429Y0781026D01*
X0205802Y0782025D02*
X0195937Y0782025D01*
X0196324Y0783023D02*
X0206216Y0783023D01*
X0207164Y0784022D02*
X0196347Y0784022D01*
X0196347Y0785020D02*
X0208718Y0785020D01*
X0212941Y0785020D02*
X0218718Y0785020D01*
X0217164Y0784022D02*
X0214494Y0784022D01*
X0215443Y0783023D02*
X0216216Y0783023D01*
X0216234Y0777032D02*
X0215424Y0777032D01*
X0214450Y0776034D02*
X0217209Y0776034D01*
X0218826Y0775035D02*
X0212833Y0775035D01*
X0211904Y0789650D02*
X0209755Y0789650D01*
X0207771Y0790472D01*
X0206251Y0791991D01*
X0205429Y0793976D01*
X0205429Y0796124D01*
X0206251Y0798109D01*
X0207771Y0799628D01*
X0209755Y0800450D01*
X0211904Y0800450D01*
X0213888Y0799628D01*
X0215407Y0798109D01*
X0215829Y0797090D01*
X0216251Y0798109D01*
X0217771Y0799628D01*
X0219755Y0800450D01*
X0221904Y0800450D01*
X0223888Y0799628D01*
X0225407Y0798109D01*
X0225829Y0797090D01*
X0226251Y0798109D01*
X0227771Y0799628D01*
X0229755Y0800450D01*
X0231904Y0800450D01*
X0233888Y0799628D01*
X0235407Y0798109D01*
X0235829Y0797090D01*
X0236251Y0798109D01*
X0237771Y0799628D01*
X0239755Y0800450D01*
X0241904Y0800450D01*
X0243888Y0799628D01*
X0245407Y0798109D01*
X0245829Y0797090D01*
X0246251Y0798109D01*
X0247771Y0799628D01*
X0249755Y0800450D01*
X0251904Y0800450D01*
X0253888Y0799628D01*
X0255407Y0798109D01*
X0255829Y0797090D01*
X0256251Y0798109D01*
X0257771Y0799628D01*
X0259755Y0800450D01*
X0261904Y0800450D01*
X0263888Y0799628D01*
X0265407Y0798109D01*
X0265829Y0797090D01*
X0266251Y0798109D01*
X0267771Y0799628D01*
X0269755Y0800450D01*
X0271904Y0800450D01*
X0273888Y0799628D01*
X0275407Y0798109D01*
X0275829Y0797090D01*
X0276251Y0798109D01*
X0277771Y0799628D01*
X0279755Y0800450D01*
X0281904Y0800450D01*
X0283888Y0799628D01*
X0285407Y0798109D01*
X0285829Y0797090D01*
X0286251Y0798109D01*
X0287771Y0799628D01*
X0289755Y0800450D01*
X0291904Y0800450D01*
X0293888Y0799628D01*
X0295407Y0798109D01*
X0295829Y0797090D01*
X0296251Y0798109D01*
X0297771Y0799628D01*
X0299755Y0800450D01*
X0301904Y0800450D01*
X0303888Y0799628D01*
X0305407Y0798109D01*
X0305829Y0797090D01*
X0306251Y0798109D01*
X0307771Y0799628D01*
X0309755Y0800450D01*
X0311904Y0800450D01*
X0313888Y0799628D01*
X0315407Y0798109D01*
X0315829Y0797090D01*
X0316251Y0798109D01*
X0317771Y0799628D01*
X0319755Y0800450D01*
X0321904Y0800450D01*
X0323888Y0799628D01*
X0325407Y0798109D01*
X0325829Y0797090D01*
X0326251Y0798109D01*
X0327771Y0799628D01*
X0328129Y0799777D01*
X0328129Y0813650D01*
X0327554Y0813650D01*
X0326120Y0814244D01*
X0325023Y0815341D01*
X0324429Y0816774D01*
X0324429Y0818326D01*
X0325023Y0819759D01*
X0326120Y0820856D01*
X0327554Y0821450D01*
X0329105Y0821450D01*
X0330539Y0820856D01*
X0331145Y0820250D01*
X0331366Y0820250D01*
X0332359Y0819839D01*
X0333118Y0819079D01*
X0333529Y0818087D01*
X0333529Y0799777D01*
X0333888Y0799628D01*
X0335407Y0798109D01*
X0336057Y0796541D01*
X0336196Y0796969D01*
X0336553Y0797671D01*
X0337016Y0798307D01*
X0337572Y0798864D01*
X0338209Y0799326D01*
X0338910Y0799684D01*
X0339659Y0799927D01*
X0340429Y0800049D01*
X0340429Y0795450D01*
X0341229Y0795450D01*
X0341229Y0800049D01*
X0342000Y0799927D01*
X0342749Y0799684D01*
X0343450Y0799326D01*
X0344087Y0798864D01*
X0344643Y0798307D01*
X0345106Y0797671D01*
X0345463Y0796969D01*
X0345602Y0796541D01*
X0346251Y0798109D01*
X0347771Y0799628D01*
X0349755Y0800450D01*
X0351904Y0800450D01*
X0353888Y0799628D01*
X0355407Y0798109D01*
X0356229Y0796124D01*
X0356229Y0793976D01*
X0355407Y0791991D01*
X0353888Y0790472D01*
X0351904Y0789650D01*
X0349755Y0789650D01*
X0347771Y0790472D01*
X0346251Y0791991D01*
X0345602Y0793559D01*
X0345463Y0793131D01*
X0345106Y0792429D01*
X0344643Y0791793D01*
X0344087Y0791236D01*
X0343450Y0790774D01*
X0342749Y0790416D01*
X0342000Y0790173D01*
X0341229Y0790051D01*
X0341229Y0794650D01*
X0340429Y0794650D01*
X0340429Y0790051D01*
X0339659Y0790173D01*
X0338910Y0790416D01*
X0338209Y0790774D01*
X0337572Y0791236D01*
X0337016Y0791793D01*
X0336553Y0792429D01*
X0336196Y0793131D01*
X0336057Y0793559D01*
X0335407Y0791991D01*
X0333888Y0790472D01*
X0331904Y0789650D01*
X0329755Y0789650D01*
X0327771Y0790472D01*
X0326251Y0791991D01*
X0325829Y0793010D01*
X0325407Y0791991D01*
X0323888Y0790472D01*
X0321904Y0789650D01*
X0319755Y0789650D01*
X0317771Y0790472D01*
X0316251Y0791991D01*
X0315829Y0793010D01*
X0315407Y0791991D01*
X0313888Y0790472D01*
X0311904Y0789650D01*
X0309755Y0789650D01*
X0307771Y0790472D01*
X0306251Y0791991D01*
X0305829Y0793010D01*
X0305407Y0791991D01*
X0303888Y0790472D01*
X0301904Y0789650D01*
X0299755Y0789650D01*
X0297771Y0790472D01*
X0296251Y0791991D01*
X0295829Y0793010D01*
X0295407Y0791991D01*
X0293888Y0790472D01*
X0291904Y0789650D01*
X0289755Y0789650D01*
X0287771Y0790472D01*
X0286251Y0791991D01*
X0285829Y0793010D01*
X0285407Y0791991D01*
X0283888Y0790472D01*
X0281904Y0789650D01*
X0279755Y0789650D01*
X0277771Y0790472D01*
X0276251Y0791991D01*
X0275829Y0793010D01*
X0275407Y0791991D01*
X0273888Y0790472D01*
X0271904Y0789650D01*
X0269755Y0789650D01*
X0267771Y0790472D01*
X0266251Y0791991D01*
X0265829Y0793010D01*
X0265407Y0791991D01*
X0263888Y0790472D01*
X0261904Y0789650D01*
X0259755Y0789650D01*
X0257771Y0790472D01*
X0256251Y0791991D01*
X0255829Y0793010D01*
X0255407Y0791991D01*
X0253888Y0790472D01*
X0251904Y0789650D01*
X0249755Y0789650D01*
X0247771Y0790472D01*
X0246251Y0791991D01*
X0245829Y0793010D01*
X0245407Y0791991D01*
X0243888Y0790472D01*
X0241904Y0789650D01*
X0239755Y0789650D01*
X0237771Y0790472D01*
X0236251Y0791991D01*
X0235829Y0793010D01*
X0235407Y0791991D01*
X0233888Y0790472D01*
X0231904Y0789650D01*
X0229755Y0789650D01*
X0227771Y0790472D01*
X0226251Y0791991D01*
X0225829Y0793010D01*
X0225407Y0791991D01*
X0223888Y0790472D01*
X0221904Y0789650D01*
X0219755Y0789650D01*
X0217771Y0790472D01*
X0216251Y0791991D01*
X0215829Y0793010D01*
X0215407Y0791991D01*
X0213888Y0790472D01*
X0211904Y0789650D01*
X0212779Y0790013D02*
X0218879Y0790013D01*
X0217231Y0791011D02*
X0214427Y0791011D01*
X0215415Y0792010D02*
X0216244Y0792010D01*
X0215829Y0793008D02*
X0215830Y0793008D01*
X0215452Y0798001D02*
X0216207Y0798001D01*
X0217142Y0798999D02*
X0214517Y0798999D01*
X0212995Y0799998D02*
X0218664Y0799998D01*
X0222995Y0799998D02*
X0228664Y0799998D01*
X0227142Y0798999D02*
X0224517Y0798999D01*
X0225452Y0798001D02*
X0226207Y0798001D01*
X0225829Y0793008D02*
X0225830Y0793008D01*
X0225415Y0792010D02*
X0226244Y0792010D01*
X0227231Y0791011D02*
X0224427Y0791011D01*
X0222779Y0790013D02*
X0228879Y0790013D01*
X0232779Y0790013D02*
X0238879Y0790013D01*
X0237231Y0791011D02*
X0234427Y0791011D01*
X0235415Y0792010D02*
X0236244Y0792010D01*
X0235829Y0793008D02*
X0235830Y0793008D01*
X0235452Y0798001D02*
X0236207Y0798001D01*
X0237142Y0798999D02*
X0234517Y0798999D01*
X0232995Y0799998D02*
X0238664Y0799998D01*
X0242995Y0799998D02*
X0248664Y0799998D01*
X0247142Y0798999D02*
X0244517Y0798999D01*
X0245452Y0798001D02*
X0246207Y0798001D01*
X0245829Y0793008D02*
X0245830Y0793008D01*
X0245415Y0792010D02*
X0246244Y0792010D01*
X0247231Y0791011D02*
X0244427Y0791011D01*
X0242779Y0790013D02*
X0248879Y0790013D01*
X0252779Y0790013D02*
X0258879Y0790013D01*
X0257231Y0791011D02*
X0254427Y0791011D01*
X0255415Y0792010D02*
X0256244Y0792010D01*
X0255829Y0793008D02*
X0255830Y0793008D01*
X0255452Y0798001D02*
X0256207Y0798001D01*
X0257142Y0798999D02*
X0254517Y0798999D01*
X0252995Y0799998D02*
X0258664Y0799998D01*
X0262995Y0799998D02*
X0268664Y0799998D01*
X0267142Y0798999D02*
X0264517Y0798999D01*
X0265452Y0798001D02*
X0266207Y0798001D01*
X0265829Y0793008D02*
X0265830Y0793008D01*
X0265415Y0792010D02*
X0266244Y0792010D01*
X0267231Y0791011D02*
X0264427Y0791011D01*
X0262779Y0790013D02*
X0268879Y0790013D01*
X0272779Y0790013D02*
X0278879Y0790013D01*
X0277231Y0791011D02*
X0274427Y0791011D01*
X0275415Y0792010D02*
X0276244Y0792010D01*
X0275829Y0793008D02*
X0275830Y0793008D01*
X0275452Y0798001D02*
X0276207Y0798001D01*
X0277142Y0798999D02*
X0274517Y0798999D01*
X0272995Y0799998D02*
X0278664Y0799998D01*
X0282995Y0799998D02*
X0288664Y0799998D01*
X0287142Y0798999D02*
X0284517Y0798999D01*
X0285452Y0798001D02*
X0286207Y0798001D01*
X0285829Y0793008D02*
X0285830Y0793008D01*
X0285415Y0792010D02*
X0286244Y0792010D01*
X0287231Y0791011D02*
X0284427Y0791011D01*
X0282779Y0790013D02*
X0288879Y0790013D01*
X0292779Y0790013D02*
X0298879Y0790013D01*
X0297231Y0791011D02*
X0294427Y0791011D01*
X0295415Y0792010D02*
X0296244Y0792010D01*
X0295829Y0793008D02*
X0295830Y0793008D01*
X0295452Y0798001D02*
X0296207Y0798001D01*
X0297142Y0798999D02*
X0294517Y0798999D01*
X0292995Y0799998D02*
X0298664Y0799998D01*
X0302995Y0799998D02*
X0308664Y0799998D01*
X0307142Y0798999D02*
X0304517Y0798999D01*
X0305452Y0798001D02*
X0306207Y0798001D01*
X0305829Y0793008D02*
X0305830Y0793008D01*
X0305415Y0792010D02*
X0306244Y0792010D01*
X0307231Y0791011D02*
X0304427Y0791011D01*
X0302779Y0790013D02*
X0308879Y0790013D01*
X0312779Y0790013D02*
X0318879Y0790013D01*
X0317231Y0791011D02*
X0314427Y0791011D01*
X0315415Y0792010D02*
X0316244Y0792010D01*
X0315829Y0793008D02*
X0315830Y0793008D01*
X0315452Y0798001D02*
X0316207Y0798001D01*
X0317142Y0798999D02*
X0314517Y0798999D01*
X0312995Y0799998D02*
X0318664Y0799998D01*
X0322995Y0799998D02*
X0328129Y0799998D01*
X0328129Y0800996D02*
X0175329Y0800996D01*
X0175329Y0799998D02*
X0208664Y0799998D01*
X0207142Y0798999D02*
X0175329Y0798999D01*
X0175329Y0798001D02*
X0206207Y0798001D01*
X0205793Y0797002D02*
X0175329Y0797002D01*
X0175329Y0796004D02*
X0205429Y0796004D01*
X0205429Y0795005D02*
X0189433Y0795005D01*
X0191438Y0794007D02*
X0205429Y0794007D01*
X0205830Y0793008D02*
X0192807Y0793008D01*
X0193717Y0792010D02*
X0206244Y0792010D01*
X0207231Y0791011D02*
X0194627Y0791011D01*
X0195186Y0790013D02*
X0208879Y0790013D01*
X0196347Y0787017D02*
X0370497Y0787017D01*
X0370310Y0786019D02*
X0196347Y0786019D01*
X0195960Y0788016D02*
X0370684Y0788016D01*
X0370913Y0789014D02*
X0195573Y0789014D01*
X0182385Y0795005D02*
X0175329Y0795005D01*
X0175329Y0794007D02*
X0180237Y0794007D01*
X0178915Y0793008D02*
X0175329Y0793008D01*
X0175329Y0792010D02*
X0177768Y0792010D01*
X0177150Y0791011D02*
X0175329Y0791011D01*
X0175329Y0790013D02*
X0176531Y0790013D01*
X0175913Y0789014D02*
X0175329Y0789014D01*
X0175329Y0788016D02*
X0175684Y0788016D01*
X0175497Y0787017D02*
X0175329Y0787017D01*
X0175329Y0801995D02*
X0328129Y0801995D01*
X0328129Y0802993D02*
X0175329Y0802993D01*
X0175329Y0803992D02*
X0328129Y0803992D01*
X0328129Y0804990D02*
X0175329Y0804990D01*
X0175329Y0805989D02*
X0328129Y0805989D01*
X0328129Y0806987D02*
X0175329Y0806987D01*
X0175329Y0807986D02*
X0328129Y0807986D01*
X0328129Y0808984D02*
X0175329Y0808984D01*
X0175329Y0809983D02*
X0328129Y0809983D01*
X0328129Y0810982D02*
X0175329Y0810982D01*
X0175329Y0811980D02*
X0328129Y0811980D01*
X0328129Y0812979D02*
X0175329Y0812979D01*
X0175329Y0813977D02*
X0326764Y0813977D01*
X0325388Y0814976D02*
X0175329Y0814976D01*
X0175329Y0815974D02*
X0324761Y0815974D01*
X0324429Y0816973D02*
X0175329Y0816973D01*
X0175329Y0817971D02*
X0324429Y0817971D01*
X0324696Y0818970D02*
X0175329Y0818970D01*
X0175329Y0819968D02*
X0325232Y0819968D01*
X0326387Y0820967D02*
X0175329Y0820967D01*
X0175329Y0821965D02*
X0391329Y0821965D01*
X0391329Y0820967D02*
X0330272Y0820967D01*
X0332047Y0819968D02*
X0391329Y0819968D01*
X0391329Y0818970D02*
X0333164Y0818970D01*
X0333529Y0817971D02*
X0391329Y0817971D01*
X0391329Y0816973D02*
X0333529Y0816973D01*
X0333529Y0815974D02*
X0391329Y0815974D01*
X0391329Y0814976D02*
X0333529Y0814976D01*
X0333529Y0813977D02*
X0391329Y0813977D01*
X0391329Y0812979D02*
X0333529Y0812979D01*
X0333529Y0811980D02*
X0391329Y0811980D01*
X0391329Y0810982D02*
X0333529Y0810982D01*
X0333529Y0809983D02*
X0391329Y0809983D01*
X0391329Y0808984D02*
X0333529Y0808984D01*
X0333529Y0807986D02*
X0391329Y0807986D01*
X0391329Y0806987D02*
X0333529Y0806987D01*
X0333529Y0805989D02*
X0391329Y0805989D01*
X0391329Y0804990D02*
X0333529Y0804990D01*
X0333529Y0803992D02*
X0391329Y0803992D01*
X0391329Y0802993D02*
X0333529Y0802993D01*
X0333529Y0801995D02*
X0391329Y0801995D01*
X0391329Y0800996D02*
X0333529Y0800996D01*
X0333529Y0799998D02*
X0340107Y0799998D01*
X0340429Y0799998D02*
X0341229Y0799998D01*
X0341552Y0799998D02*
X0348664Y0799998D01*
X0347142Y0798999D02*
X0343900Y0798999D01*
X0344866Y0798001D02*
X0346207Y0798001D01*
X0345793Y0797002D02*
X0345446Y0797002D01*
X0345401Y0793008D02*
X0345830Y0793008D01*
X0346244Y0792010D02*
X0344801Y0792010D01*
X0343777Y0791011D02*
X0347231Y0791011D01*
X0348879Y0790013D02*
X0332779Y0790013D01*
X0334427Y0791011D02*
X0337882Y0791011D01*
X0336858Y0792010D02*
X0335415Y0792010D01*
X0335829Y0793008D02*
X0336258Y0793008D01*
X0336213Y0797002D02*
X0335866Y0797002D01*
X0335452Y0798001D02*
X0336793Y0798001D01*
X0337759Y0798999D02*
X0334517Y0798999D01*
X0340429Y0798999D02*
X0341229Y0798999D01*
X0341229Y0798001D02*
X0340429Y0798001D01*
X0340429Y0797002D02*
X0341229Y0797002D01*
X0341229Y0796004D02*
X0340429Y0796004D01*
X0340429Y0794007D02*
X0341229Y0794007D01*
X0341229Y0793008D02*
X0340429Y0793008D01*
X0340429Y0792010D02*
X0341229Y0792010D01*
X0341229Y0791011D02*
X0340429Y0791011D01*
X0340429Y0785020D02*
X0341229Y0785020D01*
X0341411Y0785020D02*
X0348718Y0785020D01*
X0347164Y0784022D02*
X0343869Y0784022D01*
X0344850Y0783023D02*
X0346216Y0783023D01*
X0345802Y0782025D02*
X0345435Y0782025D01*
X0345412Y0778031D02*
X0345821Y0778031D01*
X0346234Y0777032D02*
X0344817Y0777032D01*
X0343808Y0776034D02*
X0347209Y0776034D01*
X0348826Y0775035D02*
X0332833Y0775035D01*
X0334450Y0776034D02*
X0337851Y0776034D01*
X0336842Y0777032D02*
X0335424Y0777032D01*
X0335838Y0778031D02*
X0336247Y0778031D01*
X0336224Y0782025D02*
X0335856Y0782025D01*
X0335443Y0783023D02*
X0336809Y0783023D01*
X0337789Y0784022D02*
X0334494Y0784022D01*
X0332941Y0785020D02*
X0340248Y0785020D01*
X0340429Y0784022D02*
X0341229Y0784022D01*
X0341229Y0783023D02*
X0340429Y0783023D01*
X0340429Y0782025D02*
X0341229Y0782025D01*
X0341229Y0781026D02*
X0340429Y0781026D01*
X0340429Y0779029D02*
X0341229Y0779029D01*
X0341229Y0778031D02*
X0340429Y0778031D01*
X0340429Y0777032D02*
X0341229Y0777032D01*
X0341229Y0776034D02*
X0340429Y0776034D01*
X0328826Y0775035D02*
X0322833Y0775035D01*
X0324450Y0776034D02*
X0327209Y0776034D01*
X0326234Y0777032D02*
X0325424Y0777032D01*
X0325443Y0783023D02*
X0326216Y0783023D01*
X0327164Y0784022D02*
X0324494Y0784022D01*
X0322941Y0785020D02*
X0328718Y0785020D01*
X0328879Y0790013D02*
X0322779Y0790013D01*
X0324427Y0791011D02*
X0327231Y0791011D01*
X0326244Y0792010D02*
X0325415Y0792010D01*
X0325829Y0793008D02*
X0325830Y0793008D01*
X0325452Y0798001D02*
X0326207Y0798001D01*
X0327142Y0798999D02*
X0324517Y0798999D01*
X0318718Y0785020D02*
X0312941Y0785020D01*
X0314494Y0784022D02*
X0317164Y0784022D01*
X0316216Y0783023D02*
X0315443Y0783023D01*
X0315424Y0777032D02*
X0316234Y0777032D01*
X0317209Y0776034D02*
X0314450Y0776034D01*
X0312833Y0775035D02*
X0318826Y0775035D01*
X0308826Y0775035D02*
X0302833Y0775035D01*
X0304450Y0776034D02*
X0307209Y0776034D01*
X0306234Y0777032D02*
X0305424Y0777032D01*
X0305443Y0783023D02*
X0306216Y0783023D01*
X0307164Y0784022D02*
X0304494Y0784022D01*
X0302941Y0785020D02*
X0308718Y0785020D01*
X0298718Y0785020D02*
X0292941Y0785020D01*
X0294494Y0784022D02*
X0297164Y0784022D01*
X0296216Y0783023D02*
X0295443Y0783023D01*
X0295424Y0777032D02*
X0296234Y0777032D01*
X0297209Y0776034D02*
X0294450Y0776034D01*
X0292833Y0775035D02*
X0298826Y0775035D01*
X0288826Y0775035D02*
X0282833Y0775035D01*
X0284450Y0776034D02*
X0287209Y0776034D01*
X0286234Y0777032D02*
X0285424Y0777032D01*
X0285443Y0783023D02*
X0286216Y0783023D01*
X0287164Y0784022D02*
X0284494Y0784022D01*
X0282941Y0785020D02*
X0288718Y0785020D01*
X0278718Y0785020D02*
X0272941Y0785020D01*
X0274494Y0784022D02*
X0277164Y0784022D01*
X0276216Y0783023D02*
X0275443Y0783023D01*
X0275424Y0777032D02*
X0276234Y0777032D01*
X0277209Y0776034D02*
X0274450Y0776034D01*
X0272833Y0775035D02*
X0278826Y0775035D01*
X0268826Y0775035D02*
X0262833Y0775035D01*
X0264450Y0776034D02*
X0267209Y0776034D01*
X0266234Y0777032D02*
X0265424Y0777032D01*
X0265443Y0783023D02*
X0266216Y0783023D01*
X0267164Y0784022D02*
X0264494Y0784022D01*
X0262941Y0785020D02*
X0268718Y0785020D01*
X0258718Y0785020D02*
X0252941Y0785020D01*
X0254494Y0784022D02*
X0257164Y0784022D01*
X0256216Y0783023D02*
X0255443Y0783023D01*
X0255424Y0777032D02*
X0256234Y0777032D01*
X0257209Y0776034D02*
X0254450Y0776034D01*
X0252833Y0775035D02*
X0258826Y0775035D01*
X0248826Y0775035D02*
X0242833Y0775035D01*
X0244450Y0776034D02*
X0247209Y0776034D01*
X0246234Y0777032D02*
X0245424Y0777032D01*
X0245443Y0783023D02*
X0246216Y0783023D01*
X0247164Y0784022D02*
X0244494Y0784022D01*
X0242941Y0785020D02*
X0248718Y0785020D01*
X0238718Y0785020D02*
X0232941Y0785020D01*
X0234494Y0784022D02*
X0237164Y0784022D01*
X0236216Y0783023D02*
X0235443Y0783023D01*
X0235424Y0777032D02*
X0236234Y0777032D01*
X0237209Y0776034D02*
X0234450Y0776034D01*
X0232833Y0775035D02*
X0238826Y0775035D01*
X0228826Y0775035D02*
X0222833Y0775035D01*
X0224450Y0776034D02*
X0227209Y0776034D01*
X0226234Y0777032D02*
X0225424Y0777032D01*
X0225443Y0783023D02*
X0226216Y0783023D01*
X0227164Y0784022D02*
X0224494Y0784022D01*
X0222941Y0785020D02*
X0228718Y0785020D01*
X0229755Y0849650D02*
X0231904Y0849650D01*
X0233888Y0850472D01*
X0235407Y0851991D01*
X0235829Y0853010D01*
X0236251Y0851991D01*
X0237771Y0850472D01*
X0239755Y0849650D01*
X0241904Y0849650D01*
X0243888Y0850472D01*
X0245407Y0851991D01*
X0245829Y0853010D01*
X0246251Y0851991D01*
X0247771Y0850472D01*
X0249755Y0849650D01*
X0251904Y0849650D01*
X0253888Y0850472D01*
X0255407Y0851991D01*
X0255829Y0853010D01*
X0256251Y0851991D01*
X0257771Y0850472D01*
X0259755Y0849650D01*
X0261904Y0849650D01*
X0262262Y0849799D01*
X0276800Y0835261D01*
X0277792Y0834850D01*
X0364251Y0834850D01*
X0364251Y0834585D01*
X0365364Y0833472D01*
X0371294Y0833472D01*
X0372407Y0834585D01*
X0372407Y0840515D01*
X0371294Y0841628D01*
X0365364Y0841628D01*
X0364251Y0840515D01*
X0364251Y0840250D01*
X0279448Y0840250D01*
X0270048Y0849650D01*
X0271904Y0849650D01*
X0273888Y0850472D01*
X0275407Y0851991D01*
X0275829Y0853010D01*
X0276251Y0851991D01*
X0277771Y0850472D01*
X0279755Y0849650D01*
X0281904Y0849650D01*
X0283888Y0850472D01*
X0285407Y0851991D01*
X0285829Y0853010D01*
X0286251Y0851991D01*
X0287771Y0850472D01*
X0288129Y0850323D01*
X0288129Y0849513D01*
X0288540Y0848521D01*
X0289300Y0847761D01*
X0294300Y0842761D01*
X0295292Y0842350D01*
X0296366Y0842350D01*
X0331366Y0842350D01*
X0332359Y0842761D01*
X0333118Y0843521D01*
X0333248Y0843650D01*
X0334105Y0843650D01*
X0335539Y0844244D01*
X0336636Y0845341D01*
X0337229Y0846774D01*
X0337229Y0848326D01*
X0336636Y0849759D01*
X0335539Y0850856D01*
X0334643Y0851227D01*
X0335407Y0851991D01*
X0335829Y0853010D01*
X0336251Y0851991D01*
X0337771Y0850472D01*
X0339755Y0849650D01*
X0341904Y0849650D01*
X0343888Y0850472D01*
X0345407Y0851991D01*
X0345429Y0852045D01*
X0345429Y0850763D01*
X0346542Y0849650D01*
X0355116Y0849650D01*
X0356229Y0850763D01*
X0356229Y0859337D01*
X0355116Y0860450D01*
X0346542Y0860450D01*
X0345429Y0859337D01*
X0345429Y0858055D01*
X0345407Y0858109D01*
X0343888Y0859628D01*
X0341904Y0860450D01*
X0339755Y0860450D01*
X0337771Y0859628D01*
X0336251Y0858109D01*
X0335829Y0857090D01*
X0335407Y0858109D01*
X0333888Y0859628D01*
X0331904Y0860450D01*
X0329755Y0860450D01*
X0327771Y0859628D01*
X0326251Y0858109D01*
X0325602Y0856541D01*
X0325463Y0856969D01*
X0325106Y0857671D01*
X0324643Y0858307D01*
X0324087Y0858864D01*
X0323450Y0859326D01*
X0322749Y0859684D01*
X0322000Y0859927D01*
X0321229Y0860049D01*
X0321229Y0855450D01*
X0320429Y0855450D01*
X0320429Y0860049D01*
X0319659Y0859927D01*
X0318910Y0859684D01*
X0318209Y0859326D01*
X0317572Y0858864D01*
X0317016Y0858307D01*
X0316553Y0857671D01*
X0316196Y0856969D01*
X0316057Y0856541D01*
X0315407Y0858109D01*
X0313888Y0859628D01*
X0311904Y0860450D01*
X0309755Y0860450D01*
X0307771Y0859628D01*
X0306251Y0858109D01*
X0305829Y0857090D01*
X0305407Y0858109D01*
X0303888Y0859628D01*
X0301904Y0860450D01*
X0299755Y0860450D01*
X0297771Y0859628D01*
X0296251Y0858109D01*
X0295829Y0857090D01*
X0295407Y0858109D01*
X0293888Y0859628D01*
X0291904Y0860450D01*
X0289755Y0860450D01*
X0287771Y0859628D01*
X0286251Y0858109D01*
X0285829Y0857090D01*
X0285407Y0858109D01*
X0283888Y0859628D01*
X0281904Y0860450D01*
X0279755Y0860450D01*
X0277771Y0859628D01*
X0276251Y0858109D01*
X0275829Y0857090D01*
X0275407Y0858109D01*
X0273888Y0859628D01*
X0271904Y0860450D01*
X0269755Y0860450D01*
X0267771Y0859628D01*
X0266251Y0858109D01*
X0265829Y0857090D01*
X0265407Y0858109D01*
X0263888Y0859628D01*
X0261904Y0860450D01*
X0259755Y0860450D01*
X0257771Y0859628D01*
X0256251Y0858109D01*
X0255829Y0857090D01*
X0255407Y0858109D01*
X0253888Y0859628D01*
X0251904Y0860450D01*
X0249755Y0860450D01*
X0247771Y0859628D01*
X0246251Y0858109D01*
X0245829Y0857090D01*
X0245407Y0858109D01*
X0243888Y0859628D01*
X0241904Y0860450D01*
X0239755Y0860450D01*
X0237771Y0859628D01*
X0236251Y0858109D01*
X0235829Y0857090D01*
X0235407Y0858109D01*
X0233888Y0859628D01*
X0231904Y0860450D01*
X0229755Y0860450D01*
X0227771Y0859628D01*
X0226251Y0858109D01*
X0225829Y0857090D01*
X0225407Y0858109D01*
X0223888Y0859628D01*
X0221904Y0860450D01*
X0219755Y0860450D01*
X0217771Y0859628D01*
X0216251Y0858109D01*
X0215829Y0857090D01*
X0215407Y0858109D01*
X0213888Y0859628D01*
X0211904Y0860450D01*
X0209755Y0860450D01*
X0207771Y0859628D01*
X0206251Y0858109D01*
X0205429Y0856124D01*
X0205429Y0853976D01*
X0206251Y0851991D01*
X0207771Y0850472D01*
X0209755Y0849650D01*
X0211904Y0849650D01*
X0213888Y0850472D01*
X0215407Y0851991D01*
X0215829Y0853010D01*
X0216251Y0851991D01*
X0217771Y0850472D01*
X0219755Y0849650D01*
X0221904Y0849650D01*
X0223888Y0850472D01*
X0225407Y0851991D01*
X0225829Y0853010D01*
X0226251Y0851991D01*
X0227771Y0850472D01*
X0229755Y0849650D01*
X0229095Y0849923D02*
X0222564Y0849923D01*
X0224338Y0850922D02*
X0227321Y0850922D01*
X0226322Y0851920D02*
X0225337Y0851920D01*
X0225792Y0852919D02*
X0225867Y0852919D01*
X0226170Y0857912D02*
X0225489Y0857912D01*
X0224606Y0858910D02*
X0227053Y0858910D01*
X0228448Y0859909D02*
X0223211Y0859909D01*
X0218448Y0859909D02*
X0213211Y0859909D01*
X0214606Y0858910D02*
X0217053Y0858910D01*
X0216170Y0857912D02*
X0215489Y0857912D01*
X0215792Y0852919D02*
X0215867Y0852919D01*
X0216322Y0851920D02*
X0215337Y0851920D01*
X0214338Y0850922D02*
X0217321Y0850922D01*
X0219095Y0849923D02*
X0212564Y0849923D01*
X0209095Y0849923D02*
X0175329Y0849923D01*
X0175329Y0848925D02*
X0263136Y0848925D01*
X0264135Y0847926D02*
X0175329Y0847926D01*
X0175329Y0846928D02*
X0265133Y0846928D01*
X0266132Y0845929D02*
X0175329Y0845929D01*
X0175329Y0844931D02*
X0267130Y0844931D01*
X0268129Y0843932D02*
X0175329Y0843932D01*
X0175329Y0842934D02*
X0269127Y0842934D01*
X0270126Y0841935D02*
X0175329Y0841935D01*
X0175329Y0840937D02*
X0271124Y0840937D01*
X0272123Y0839938D02*
X0175329Y0839938D01*
X0175329Y0838940D02*
X0273121Y0838940D01*
X0274120Y0837941D02*
X0175329Y0837941D01*
X0175329Y0836943D02*
X0275118Y0836943D01*
X0276117Y0835944D02*
X0175329Y0835944D01*
X0175329Y0834946D02*
X0277561Y0834946D01*
X0278761Y0840937D02*
X0364673Y0840937D01*
X0364889Y0833947D02*
X0175329Y0833947D01*
X0175329Y0832949D02*
X0391329Y0832949D01*
X0391329Y0833947D02*
X0371770Y0833947D01*
X0372407Y0834946D02*
X0391329Y0834946D01*
X0391329Y0835944D02*
X0372407Y0835944D01*
X0372407Y0836943D02*
X0391329Y0836943D01*
X0391329Y0837941D02*
X0372407Y0837941D01*
X0372407Y0838940D02*
X0391329Y0838940D01*
X0391329Y0839938D02*
X0372407Y0839938D01*
X0371985Y0840937D02*
X0391329Y0840937D01*
X0391329Y0841935D02*
X0277762Y0841935D01*
X0276764Y0842934D02*
X0294127Y0842934D01*
X0293129Y0843932D02*
X0275765Y0843932D01*
X0274767Y0844931D02*
X0292130Y0844931D01*
X0291132Y0845929D02*
X0273768Y0845929D01*
X0272770Y0846928D02*
X0290133Y0846928D01*
X0289135Y0847926D02*
X0271771Y0847926D01*
X0270773Y0848925D02*
X0288373Y0848925D01*
X0288129Y0849923D02*
X0282564Y0849923D01*
X0284338Y0850922D02*
X0287321Y0850922D01*
X0286322Y0851920D02*
X0285337Y0851920D01*
X0285792Y0852919D02*
X0285867Y0852919D01*
X0286170Y0857912D02*
X0285489Y0857912D01*
X0284606Y0858910D02*
X0287053Y0858910D01*
X0288448Y0859909D02*
X0283211Y0859909D01*
X0278448Y0859909D02*
X0273211Y0859909D01*
X0274606Y0858910D02*
X0277053Y0858910D01*
X0276170Y0857912D02*
X0275489Y0857912D01*
X0275792Y0852919D02*
X0275867Y0852919D01*
X0276322Y0851920D02*
X0275337Y0851920D01*
X0274338Y0850922D02*
X0277321Y0850922D01*
X0279095Y0849923D02*
X0272564Y0849923D01*
X0266170Y0857912D02*
X0265489Y0857912D01*
X0264606Y0858910D02*
X0267053Y0858910D01*
X0268448Y0859909D02*
X0263211Y0859909D01*
X0258448Y0859909D02*
X0253211Y0859909D01*
X0254606Y0858910D02*
X0257053Y0858910D01*
X0256170Y0857912D02*
X0255489Y0857912D01*
X0255792Y0852919D02*
X0255867Y0852919D01*
X0256322Y0851920D02*
X0255337Y0851920D01*
X0254338Y0850922D02*
X0257321Y0850922D01*
X0259095Y0849923D02*
X0252564Y0849923D01*
X0249095Y0849923D02*
X0242564Y0849923D01*
X0244338Y0850922D02*
X0247321Y0850922D01*
X0246322Y0851920D02*
X0245337Y0851920D01*
X0245792Y0852919D02*
X0245867Y0852919D01*
X0246170Y0857912D02*
X0245489Y0857912D01*
X0244606Y0858910D02*
X0247053Y0858910D01*
X0248448Y0859909D02*
X0243211Y0859909D01*
X0238448Y0859909D02*
X0233211Y0859909D01*
X0234606Y0858910D02*
X0237053Y0858910D01*
X0236170Y0857912D02*
X0235489Y0857912D01*
X0235792Y0852919D02*
X0235867Y0852919D01*
X0236322Y0851920D02*
X0235337Y0851920D01*
X0234338Y0850922D02*
X0237321Y0850922D01*
X0239095Y0849923D02*
X0232564Y0849923D01*
X0231904Y0864650D02*
X0229755Y0864650D01*
X0227771Y0865472D01*
X0226251Y0866991D01*
X0225829Y0868010D01*
X0225407Y0866991D01*
X0223888Y0865472D01*
X0221904Y0864650D01*
X0219755Y0864650D01*
X0217771Y0865472D01*
X0216251Y0866991D01*
X0215829Y0868010D01*
X0215407Y0866991D01*
X0213888Y0865472D01*
X0211904Y0864650D01*
X0209755Y0864650D01*
X0207771Y0865472D01*
X0206251Y0866991D01*
X0205429Y0868976D01*
X0205429Y0871124D01*
X0206251Y0873109D01*
X0207771Y0874628D01*
X0209755Y0875450D01*
X0211904Y0875450D01*
X0213888Y0874628D01*
X0215407Y0873109D01*
X0215829Y0872090D01*
X0216251Y0873109D01*
X0217771Y0874628D01*
X0219755Y0875450D01*
X0221904Y0875450D01*
X0223888Y0874628D01*
X0225407Y0873109D01*
X0225829Y0872090D01*
X0226251Y0873109D01*
X0227771Y0874628D01*
X0229755Y0875450D01*
X0231904Y0875450D01*
X0233888Y0874628D01*
X0235407Y0873109D01*
X0235829Y0872090D01*
X0236251Y0873109D01*
X0237771Y0874628D01*
X0239755Y0875450D01*
X0241904Y0875450D01*
X0242262Y0875301D01*
X0271800Y0904839D01*
X0272792Y0905250D01*
X0298866Y0905250D01*
X0299859Y0904839D01*
X0300618Y0904079D01*
X0304448Y0900250D01*
X0339251Y0900250D01*
X0339251Y0900515D01*
X0340364Y0901628D01*
X0346294Y0901628D01*
X0347407Y0900515D01*
X0347407Y0895250D01*
X0362993Y0895250D01*
X0360429Y0897813D01*
X0360429Y0902287D01*
X0363193Y0905050D01*
X0360429Y0907813D01*
X0360429Y0912287D01*
X0363193Y0915050D01*
X0360893Y0917350D01*
X0359448Y0917350D01*
X0355618Y0913521D01*
X0354859Y0912761D01*
X0353866Y0912350D01*
X0295176Y0912350D01*
X0295529Y0911997D01*
X0295529Y0908103D01*
X0292776Y0905350D01*
X0288883Y0905350D01*
X0286129Y0908103D01*
X0286129Y0911997D01*
X0286483Y0912350D01*
X0271948Y0912350D01*
X0270529Y0910932D01*
X0270529Y0908103D01*
X0267776Y0905350D01*
X0263883Y0905350D01*
X0261129Y0908103D01*
X0261129Y0911997D01*
X0263883Y0914750D01*
X0266711Y0914750D01*
X0269300Y0917339D01*
X0270292Y0917750D01*
X0287048Y0917750D01*
X0286529Y0918269D01*
X0286529Y0919750D01*
X0290529Y0919750D01*
X0290529Y0920350D01*
X0286529Y0920350D01*
X0286529Y0921831D01*
X0289048Y0924350D01*
X0290529Y0924350D01*
X0290529Y0920350D01*
X0291129Y0920350D01*
X0291129Y0924350D01*
X0292610Y0924350D01*
X0295129Y0921831D01*
X0295129Y0920350D01*
X0291129Y0920350D01*
X0291129Y0919750D01*
X0295129Y0919750D01*
X0295129Y0918269D01*
X0294610Y0917750D01*
X0352211Y0917750D01*
X0356800Y0922339D01*
X0357792Y0922750D01*
X0360893Y0922750D01*
X0363476Y0925333D01*
X0360829Y0927979D01*
X0360829Y0929550D01*
X0365329Y0929550D01*
X0365329Y0930550D01*
X0360829Y0930550D01*
X0360829Y0932121D01*
X0363476Y0934767D01*
X0360429Y0937813D01*
X0360429Y0942287D01*
X0363193Y0945050D01*
X0360429Y0947813D01*
X0360429Y0952287D01*
X0363193Y0955050D01*
X0360429Y0957813D01*
X0360429Y0962287D01*
X0363193Y0965050D01*
X0360429Y0967813D01*
X0360429Y0972287D01*
X0363193Y0975050D01*
X0360429Y0977813D01*
X0360429Y0982287D01*
X0363193Y0985050D01*
X0360429Y0987813D01*
X0360429Y0992287D01*
X0363593Y0995450D01*
X0368066Y0995450D01*
X0371229Y0992287D01*
X0371229Y0987813D01*
X0368466Y0985050D01*
X0371229Y0982287D01*
X0371229Y0977813D01*
X0368466Y0975050D01*
X0371229Y0972287D01*
X0371229Y0967813D01*
X0368466Y0965050D01*
X0371229Y0962287D01*
X0371229Y0958468D01*
X0379859Y0949839D01*
X0379859Y0949839D01*
X0380618Y0949079D01*
X0380629Y0949053D01*
X0380629Y0951084D01*
X0381421Y0952996D01*
X0382884Y0954458D01*
X0384312Y0955050D01*
X0382884Y0955642D01*
X0381421Y0957104D01*
X0380629Y0959016D01*
X0380629Y0961084D01*
X0381421Y0962996D01*
X0382884Y0964458D01*
X0384795Y0965250D01*
X0386864Y0965250D01*
X0388775Y0964458D01*
X0390238Y0962996D01*
X0391029Y0961084D01*
X0391029Y0959016D01*
X0390238Y0957104D01*
X0388775Y0955642D01*
X0387347Y0955050D01*
X0388775Y0954458D01*
X0390238Y0952996D01*
X0391029Y0951084D01*
X0391029Y0949016D01*
X0390238Y0947104D01*
X0388775Y0945642D01*
X0387347Y0945050D01*
X0388775Y0944458D01*
X0390238Y0942996D01*
X0391029Y0941084D01*
X0391029Y0939016D01*
X0390238Y0937104D01*
X0388775Y0935642D01*
X0386864Y0934850D01*
X0384795Y0934850D01*
X0382884Y0935642D01*
X0381421Y0937104D01*
X0381029Y0938050D01*
X0381029Y0922050D01*
X0381421Y0922996D01*
X0382884Y0924458D01*
X0384795Y0925250D01*
X0386864Y0925250D01*
X0388775Y0924458D01*
X0390238Y0922996D01*
X0391029Y0921084D01*
X0391029Y0919016D01*
X0390238Y0917104D01*
X0388775Y0915642D01*
X0387347Y0915050D01*
X0388775Y0914458D01*
X0390238Y0912996D01*
X0391029Y0911084D01*
X0391029Y0909016D01*
X0390238Y0907104D01*
X0388775Y0905642D01*
X0386864Y0904850D01*
X0384795Y0904850D01*
X0382884Y0905642D01*
X0381421Y0907104D01*
X0381029Y0908050D01*
X0381029Y0892013D01*
X0380618Y0891021D01*
X0375618Y0886021D01*
X0375618Y0886021D01*
X0374859Y0885261D01*
X0373866Y0884850D01*
X0357407Y0884850D01*
X0357407Y0884585D01*
X0356294Y0883472D01*
X0350364Y0883472D01*
X0349251Y0884585D01*
X0349251Y0889850D01*
X0300292Y0889850D01*
X0299300Y0890261D01*
X0299129Y0890432D01*
X0299129Y0890350D01*
X0294629Y0890350D01*
X0294029Y0890350D01*
X0294029Y0894850D01*
X0292341Y0894850D01*
X0290362Y0892871D01*
X0288383Y0894850D01*
X0294711Y0894850D01*
X0294711Y0894850D01*
X0294629Y0894850D01*
X0294629Y0890350D01*
X0294629Y0889750D01*
X0294629Y0885250D01*
X0296318Y0885250D01*
X0299129Y0888062D01*
X0299129Y0889750D01*
X0294629Y0889750D01*
X0294029Y0889750D01*
X0294029Y0885250D01*
X0292341Y0885250D01*
X0290362Y0887229D01*
X0287983Y0884850D01*
X0283675Y0884850D01*
X0281579Y0886946D01*
X0279483Y0884850D01*
X0275175Y0884850D01*
X0272129Y0887896D01*
X0272129Y0890032D01*
X0255307Y0873209D01*
X0255407Y0873109D01*
X0255829Y0872090D01*
X0256251Y0873109D01*
X0257771Y0874628D01*
X0259755Y0875450D01*
X0261904Y0875450D01*
X0263888Y0874628D01*
X0265407Y0873109D01*
X0265829Y0872090D01*
X0266251Y0873109D01*
X0267771Y0874628D01*
X0269755Y0875450D01*
X0271904Y0875450D01*
X0272262Y0875301D01*
X0279300Y0882339D01*
X0280292Y0882750D01*
X0311751Y0882750D01*
X0311751Y0883015D01*
X0312864Y0884128D01*
X0318794Y0884128D01*
X0319907Y0883015D01*
X0319907Y0877085D01*
X0318794Y0875972D01*
X0312864Y0875972D01*
X0311751Y0877085D01*
X0311751Y0877350D01*
X0281948Y0877350D01*
X0280048Y0875450D01*
X0281904Y0875450D01*
X0283888Y0874628D01*
X0285407Y0873109D01*
X0285829Y0872090D01*
X0286251Y0873109D01*
X0287771Y0874628D01*
X0289755Y0875450D01*
X0291904Y0875450D01*
X0293888Y0874628D01*
X0295407Y0873109D01*
X0295829Y0872090D01*
X0296251Y0873109D01*
X0297771Y0874628D01*
X0299755Y0875450D01*
X0301904Y0875450D01*
X0303888Y0874628D01*
X0305407Y0873109D01*
X0305829Y0872090D01*
X0306251Y0873109D01*
X0307771Y0874628D01*
X0309755Y0875450D01*
X0311904Y0875450D01*
X0313888Y0874628D01*
X0315407Y0873109D01*
X0316057Y0871541D01*
X0316196Y0871969D01*
X0316553Y0872671D01*
X0317016Y0873307D01*
X0317572Y0873864D01*
X0318209Y0874326D01*
X0318910Y0874684D01*
X0319659Y0874927D01*
X0320429Y0875049D01*
X0320429Y0870450D01*
X0321229Y0870450D01*
X0321229Y0875049D01*
X0322000Y0874927D01*
X0322749Y0874684D01*
X0323450Y0874326D01*
X0324087Y0873864D01*
X0324643Y0873307D01*
X0325106Y0872671D01*
X0325463Y0871969D01*
X0325602Y0871541D01*
X0326251Y0873109D01*
X0327771Y0874628D01*
X0329755Y0875450D01*
X0331904Y0875450D01*
X0333888Y0874628D01*
X0335407Y0873109D01*
X0335829Y0872090D01*
X0336251Y0873109D01*
X0337771Y0874628D01*
X0339755Y0875450D01*
X0341904Y0875450D01*
X0343888Y0874628D01*
X0345407Y0873109D01*
X0345429Y0873055D01*
X0345429Y0874337D01*
X0346542Y0875450D01*
X0355116Y0875450D01*
X0356229Y0874337D01*
X0356229Y0865763D01*
X0355116Y0864650D01*
X0346542Y0864650D01*
X0345429Y0865763D01*
X0345429Y0867045D01*
X0345407Y0866991D01*
X0343888Y0865472D01*
X0341904Y0864650D01*
X0339755Y0864650D01*
X0337771Y0865472D01*
X0336251Y0866991D01*
X0335829Y0868010D01*
X0335407Y0866991D01*
X0333888Y0865472D01*
X0331904Y0864650D01*
X0329755Y0864650D01*
X0327771Y0865472D01*
X0326251Y0866991D01*
X0325602Y0868559D01*
X0325463Y0868131D01*
X0325106Y0867429D01*
X0324643Y0866793D01*
X0324087Y0866236D01*
X0323450Y0865774D01*
X0322749Y0865416D01*
X0322000Y0865173D01*
X0321229Y0865051D01*
X0321229Y0869650D01*
X0320429Y0869650D01*
X0320429Y0865051D01*
X0319659Y0865173D01*
X0318910Y0865416D01*
X0318209Y0865774D01*
X0317572Y0866236D01*
X0317016Y0866793D01*
X0316553Y0867429D01*
X0316196Y0868131D01*
X0316057Y0868559D01*
X0315407Y0866991D01*
X0313888Y0865472D01*
X0311904Y0864650D01*
X0309755Y0864650D01*
X0307771Y0865472D01*
X0306251Y0866991D01*
X0305829Y0868010D01*
X0305407Y0866991D01*
X0303888Y0865472D01*
X0301904Y0864650D01*
X0299755Y0864650D01*
X0297771Y0865472D01*
X0296251Y0866991D01*
X0295829Y0868010D01*
X0295407Y0866991D01*
X0293888Y0865472D01*
X0291904Y0864650D01*
X0289755Y0864650D01*
X0287771Y0865472D01*
X0286251Y0866991D01*
X0285829Y0868010D01*
X0285407Y0866991D01*
X0283888Y0865472D01*
X0281904Y0864650D01*
X0279755Y0864650D01*
X0277771Y0865472D01*
X0276251Y0866991D01*
X0275829Y0868010D01*
X0275407Y0866991D01*
X0273888Y0865472D01*
X0271904Y0864650D01*
X0269755Y0864650D01*
X0267771Y0865472D01*
X0266251Y0866991D01*
X0265829Y0868010D01*
X0265407Y0866991D01*
X0263888Y0865472D01*
X0261904Y0864650D01*
X0259755Y0864650D01*
X0257771Y0865472D01*
X0256251Y0866991D01*
X0255829Y0868010D01*
X0255407Y0866991D01*
X0253888Y0865472D01*
X0251904Y0864650D01*
X0249755Y0864650D01*
X0247771Y0865472D01*
X0246251Y0866991D01*
X0245829Y0868010D01*
X0245407Y0866991D01*
X0243888Y0865472D01*
X0241904Y0864650D01*
X0239755Y0864650D01*
X0237771Y0865472D01*
X0236251Y0866991D01*
X0235829Y0868010D01*
X0235407Y0866991D01*
X0233888Y0865472D01*
X0231904Y0864650D01*
X0232510Y0864901D02*
X0239149Y0864901D01*
X0237343Y0865900D02*
X0234316Y0865900D01*
X0235314Y0866898D02*
X0236344Y0866898D01*
X0235876Y0867897D02*
X0235782Y0867897D01*
X0235498Y0872889D02*
X0236161Y0872889D01*
X0237030Y0873888D02*
X0234628Y0873888D01*
X0233265Y0874886D02*
X0238394Y0874886D01*
X0242846Y0875885D02*
X0175329Y0875885D01*
X0175329Y0876883D02*
X0243844Y0876883D01*
X0244843Y0877882D02*
X0175329Y0877882D01*
X0175329Y0878880D02*
X0245841Y0878880D01*
X0246840Y0879879D02*
X0175329Y0879879D01*
X0175329Y0880877D02*
X0247838Y0880877D01*
X0248837Y0881876D02*
X0175329Y0881876D01*
X0175329Y0882874D02*
X0249835Y0882874D01*
X0250834Y0883873D02*
X0175329Y0883873D01*
X0175329Y0884871D02*
X0222654Y0884871D01*
X0222675Y0884850D02*
X0226983Y0884850D01*
X0229079Y0886946D01*
X0231175Y0884850D01*
X0235483Y0884850D01*
X0237862Y0887229D01*
X0239841Y0885250D01*
X0241529Y0885250D01*
X0241529Y0889750D01*
X0242129Y0889750D01*
X0242129Y0885250D01*
X0243818Y0885250D01*
X0246629Y0888062D01*
X0246629Y0889750D01*
X0242129Y0889750D01*
X0242129Y0890350D01*
X0241529Y0890350D01*
X0241529Y0894850D01*
X0239841Y0894850D01*
X0237862Y0892871D01*
X0235483Y0895250D01*
X0231175Y0895250D01*
X0229079Y0893154D01*
X0227529Y0894704D01*
X0227529Y0901587D01*
X0227118Y0902579D01*
X0226359Y0903339D01*
X0220529Y0909168D01*
X0220529Y0911997D01*
X0217776Y0914750D01*
X0213883Y0914750D01*
X0211129Y0911997D01*
X0211129Y0908103D01*
X0213883Y0905350D01*
X0216711Y0905350D01*
X0222129Y0899932D01*
X0222129Y0894704D01*
X0219629Y0892204D01*
X0219629Y0887896D01*
X0222675Y0884850D01*
X0221656Y0885870D02*
X0175329Y0885870D01*
X0175329Y0886868D02*
X0220657Y0886868D01*
X0219659Y0887867D02*
X0175329Y0887867D01*
X0175329Y0888865D02*
X0219629Y0888865D01*
X0219629Y0889864D02*
X0175329Y0889864D01*
X0175329Y0890862D02*
X0219629Y0890862D01*
X0219629Y0891861D02*
X0175329Y0891861D01*
X0175329Y0892859D02*
X0220285Y0892859D01*
X0221283Y0893858D02*
X0175329Y0893858D01*
X0175329Y0894856D02*
X0222129Y0894856D01*
X0222129Y0895855D02*
X0175329Y0895855D01*
X0175329Y0896853D02*
X0222129Y0896853D01*
X0222129Y0897852D02*
X0175329Y0897852D01*
X0175329Y0898851D02*
X0222129Y0898851D01*
X0222129Y0899849D02*
X0175329Y0899849D01*
X0175329Y0900848D02*
X0221213Y0900848D01*
X0220215Y0901846D02*
X0175329Y0901846D01*
X0175329Y0902845D02*
X0219216Y0902845D01*
X0218218Y0903843D02*
X0175329Y0903843D01*
X0175329Y0904842D02*
X0217219Y0904842D01*
X0213392Y0905840D02*
X0175329Y0905840D01*
X0175329Y0906839D02*
X0212394Y0906839D01*
X0211395Y0907837D02*
X0175329Y0907837D01*
X0175329Y0908836D02*
X0211129Y0908836D01*
X0211129Y0909834D02*
X0175329Y0909834D01*
X0175329Y0910833D02*
X0211129Y0910833D01*
X0211129Y0911831D02*
X0175329Y0911831D01*
X0175329Y0912830D02*
X0211962Y0912830D01*
X0212961Y0913828D02*
X0175329Y0913828D01*
X0175329Y0914827D02*
X0266788Y0914827D01*
X0266129Y0915750D02*
X0267610Y0915750D01*
X0270129Y0918269D01*
X0270129Y0919750D01*
X0266129Y0919750D01*
X0266129Y0915750D01*
X0266129Y0915825D02*
X0265529Y0915825D01*
X0265529Y0915750D02*
X0265529Y0919750D01*
X0261529Y0919750D01*
X0261529Y0918269D01*
X0264048Y0915750D01*
X0265529Y0915750D01*
X0265529Y0916824D02*
X0266129Y0916824D01*
X0266129Y0917822D02*
X0265529Y0917822D01*
X0265529Y0918821D02*
X0266129Y0918821D01*
X0266129Y0919750D02*
X0265529Y0919750D01*
X0265529Y0920350D01*
X0261529Y0920350D01*
X0261529Y0921831D01*
X0264048Y0924350D01*
X0265529Y0924350D01*
X0265529Y0920350D01*
X0266129Y0920350D01*
X0266129Y0924350D01*
X0267610Y0924350D01*
X0270129Y0921831D01*
X0270129Y0920350D01*
X0266129Y0920350D01*
X0266129Y0919750D01*
X0266129Y0919819D02*
X0290529Y0919819D01*
X0291129Y0919819D02*
X0354280Y0919819D01*
X0353282Y0918821D02*
X0295129Y0918821D01*
X0294683Y0917822D02*
X0352283Y0917822D01*
X0355279Y0920818D02*
X0295129Y0920818D01*
X0295129Y0921816D02*
X0356277Y0921816D01*
X0360957Y0922815D02*
X0294146Y0922815D01*
X0293147Y0923813D02*
X0361956Y0923813D01*
X0362954Y0924812D02*
X0175329Y0924812D01*
X0175329Y0925810D02*
X0303705Y0925810D01*
X0303965Y0925550D02*
X0307693Y0925550D01*
X0310329Y0928186D01*
X0310329Y0931914D01*
X0307693Y0934550D01*
X0303965Y0934550D01*
X0301329Y0931914D01*
X0301329Y0928186D01*
X0303965Y0925550D01*
X0302707Y0926809D02*
X0175329Y0926809D01*
X0175329Y0927807D02*
X0301708Y0927807D01*
X0301329Y0928806D02*
X0175329Y0928806D01*
X0175329Y0929804D02*
X0198438Y0929804D01*
X0198593Y0929650D02*
X0203066Y0929650D01*
X0205829Y0932413D01*
X0208593Y0929650D01*
X0213066Y0929650D01*
X0215829Y0932413D01*
X0218593Y0929650D01*
X0223066Y0929650D01*
X0225829Y0932413D01*
X0228593Y0929650D01*
X0233066Y0929650D01*
X0235829Y0932413D01*
X0238593Y0929650D01*
X0243066Y0929650D01*
X0245829Y0932413D01*
X0248593Y0929650D01*
X0253066Y0929650D01*
X0255829Y0932413D01*
X0258593Y0929650D01*
X0263066Y0929650D01*
X0265829Y0932413D01*
X0268593Y0929650D01*
X0273066Y0929650D01*
X0275829Y0932413D01*
X0278593Y0929650D01*
X0283066Y0929650D01*
X0286112Y0932696D01*
X0288758Y0930050D01*
X0290329Y0930050D01*
X0290329Y0934550D01*
X0291329Y0934550D01*
X0291329Y0930050D01*
X0292900Y0930050D01*
X0295829Y0932979D01*
X0295829Y0934550D01*
X0291329Y0934550D01*
X0291329Y0935550D01*
X0290329Y0935550D01*
X0290329Y0940050D01*
X0288758Y0940050D01*
X0286112Y0937404D01*
X0283066Y0940450D01*
X0278593Y0940450D01*
X0275829Y0937687D01*
X0273066Y0940450D01*
X0268593Y0940450D01*
X0265829Y0937687D01*
X0263066Y0940450D01*
X0258593Y0940450D01*
X0255829Y0937687D01*
X0253066Y0940450D01*
X0248593Y0940450D01*
X0245829Y0937687D01*
X0243066Y0940450D01*
X0238593Y0940450D01*
X0235829Y0937687D01*
X0233066Y0940450D01*
X0228593Y0940450D01*
X0225829Y0937687D01*
X0223066Y0940450D01*
X0218593Y0940450D01*
X0215829Y0937687D01*
X0213066Y0940450D01*
X0208593Y0940450D01*
X0205829Y0937687D01*
X0203066Y0940450D01*
X0198593Y0940450D01*
X0195429Y0937287D01*
X0195429Y0932813D01*
X0198593Y0929650D01*
X0197440Y0930803D02*
X0175329Y0930803D01*
X0175329Y0931801D02*
X0196441Y0931801D01*
X0195443Y0932800D02*
X0175329Y0932800D01*
X0175329Y0933798D02*
X0195429Y0933798D01*
X0195429Y0934797D02*
X0175329Y0934797D01*
X0175329Y0935795D02*
X0195429Y0935795D01*
X0195429Y0936794D02*
X0175329Y0936794D01*
X0175329Y0937792D02*
X0195935Y0937792D01*
X0196934Y0938791D02*
X0175329Y0938791D01*
X0175329Y0939789D02*
X0197932Y0939789D01*
X0203727Y0939789D02*
X0207932Y0939789D01*
X0206934Y0938791D02*
X0204725Y0938791D01*
X0205724Y0937792D02*
X0205935Y0937792D01*
X0206441Y0931801D02*
X0205218Y0931801D01*
X0204219Y0930803D02*
X0207440Y0930803D01*
X0208438Y0929804D02*
X0203220Y0929804D01*
X0213220Y0929804D02*
X0218438Y0929804D01*
X0217440Y0930803D02*
X0214219Y0930803D01*
X0215218Y0931801D02*
X0216441Y0931801D01*
X0215935Y0937792D02*
X0215724Y0937792D01*
X0214725Y0938791D02*
X0216934Y0938791D01*
X0217932Y0939789D02*
X0213727Y0939789D01*
X0214048Y0924350D02*
X0211529Y0921831D01*
X0211529Y0920350D01*
X0215529Y0920350D01*
X0215529Y0919750D01*
X0211529Y0919750D01*
X0211529Y0918269D01*
X0214048Y0915750D01*
X0215529Y0915750D01*
X0215529Y0919750D01*
X0216129Y0919750D01*
X0216129Y0915750D01*
X0217610Y0915750D01*
X0220129Y0918269D01*
X0220129Y0919750D01*
X0216129Y0919750D01*
X0216129Y0920350D01*
X0215529Y0920350D01*
X0215529Y0924350D01*
X0214048Y0924350D01*
X0213512Y0923813D02*
X0175329Y0923813D01*
X0175329Y0922815D02*
X0212513Y0922815D01*
X0211529Y0921816D02*
X0175329Y0921816D01*
X0175329Y0920818D02*
X0211529Y0920818D01*
X0211529Y0918821D02*
X0175329Y0918821D01*
X0175329Y0919819D02*
X0215529Y0919819D01*
X0216129Y0919819D02*
X0240529Y0919819D01*
X0240529Y0919750D02*
X0236529Y0919750D01*
X0236529Y0918269D01*
X0239048Y0915750D01*
X0240529Y0915750D01*
X0240529Y0919750D01*
X0240529Y0920350D01*
X0236529Y0920350D01*
X0236529Y0921831D01*
X0239048Y0924350D01*
X0240529Y0924350D01*
X0240529Y0920350D01*
X0241129Y0920350D01*
X0241129Y0924350D01*
X0242610Y0924350D01*
X0245129Y0921831D01*
X0245129Y0920350D01*
X0241129Y0920350D01*
X0241129Y0919750D01*
X0241129Y0915750D01*
X0242610Y0915750D01*
X0245129Y0918269D01*
X0245129Y0919750D01*
X0241129Y0919750D01*
X0240529Y0919750D01*
X0241129Y0919819D02*
X0265529Y0919819D01*
X0265529Y0920818D02*
X0266129Y0920818D01*
X0266129Y0921816D02*
X0265529Y0921816D01*
X0265529Y0922815D02*
X0266129Y0922815D01*
X0266129Y0923813D02*
X0265529Y0923813D01*
X0263512Y0923813D02*
X0243147Y0923813D01*
X0244146Y0922815D02*
X0262513Y0922815D01*
X0261529Y0921816D02*
X0245129Y0921816D01*
X0245129Y0920818D02*
X0261529Y0920818D01*
X0261529Y0918821D02*
X0245129Y0918821D01*
X0244683Y0917822D02*
X0261976Y0917822D01*
X0262975Y0916824D02*
X0243684Y0916824D01*
X0242686Y0915825D02*
X0263973Y0915825D01*
X0262961Y0913828D02*
X0243698Y0913828D01*
X0242776Y0914750D02*
X0238883Y0914750D01*
X0236129Y0911997D01*
X0236129Y0908103D01*
X0238883Y0905350D01*
X0242776Y0905350D01*
X0245529Y0908103D01*
X0245529Y0911997D01*
X0242776Y0914750D01*
X0241129Y0915825D02*
X0240529Y0915825D01*
X0240529Y0916824D02*
X0241129Y0916824D01*
X0241129Y0917822D02*
X0240529Y0917822D01*
X0240529Y0918821D02*
X0241129Y0918821D01*
X0241129Y0920818D02*
X0240529Y0920818D01*
X0240529Y0921816D02*
X0241129Y0921816D01*
X0241129Y0922815D02*
X0240529Y0922815D01*
X0240529Y0923813D02*
X0241129Y0923813D01*
X0238512Y0923813D02*
X0218147Y0923813D01*
X0217610Y0924350D02*
X0216129Y0924350D01*
X0216129Y0920350D01*
X0220129Y0920350D01*
X0220129Y0921831D01*
X0217610Y0924350D01*
X0216129Y0923813D02*
X0215529Y0923813D01*
X0215529Y0922815D02*
X0216129Y0922815D01*
X0216129Y0921816D02*
X0215529Y0921816D01*
X0215529Y0920818D02*
X0216129Y0920818D01*
X0216129Y0918821D02*
X0215529Y0918821D01*
X0215529Y0917822D02*
X0216129Y0917822D01*
X0216129Y0916824D02*
X0215529Y0916824D01*
X0215529Y0915825D02*
X0216129Y0915825D01*
X0217686Y0915825D02*
X0238973Y0915825D01*
X0237975Y0916824D02*
X0218684Y0916824D01*
X0219683Y0917822D02*
X0236976Y0917822D01*
X0236529Y0918821D02*
X0220129Y0918821D01*
X0220129Y0920818D02*
X0236529Y0920818D01*
X0236529Y0921816D02*
X0220129Y0921816D01*
X0219146Y0922815D02*
X0237513Y0922815D01*
X0238438Y0929804D02*
X0233220Y0929804D01*
X0234219Y0930803D02*
X0237440Y0930803D01*
X0236441Y0931801D02*
X0235218Y0931801D01*
X0235724Y0937792D02*
X0235935Y0937792D01*
X0236934Y0938791D02*
X0234725Y0938791D01*
X0233727Y0939789D02*
X0237932Y0939789D01*
X0243727Y0939789D02*
X0247932Y0939789D01*
X0246934Y0938791D02*
X0244725Y0938791D01*
X0245724Y0937792D02*
X0245935Y0937792D01*
X0246441Y0931801D02*
X0245218Y0931801D01*
X0244219Y0930803D02*
X0247440Y0930803D01*
X0248438Y0929804D02*
X0243220Y0929804D01*
X0253220Y0929804D02*
X0258438Y0929804D01*
X0257440Y0930803D02*
X0254219Y0930803D01*
X0255218Y0931801D02*
X0256441Y0931801D01*
X0255935Y0937792D02*
X0255724Y0937792D01*
X0254725Y0938791D02*
X0256934Y0938791D01*
X0257932Y0939789D02*
X0253727Y0939789D01*
X0263727Y0939789D02*
X0267932Y0939789D01*
X0266934Y0938791D02*
X0264725Y0938791D01*
X0265724Y0937792D02*
X0265935Y0937792D01*
X0266441Y0931801D02*
X0265218Y0931801D01*
X0264219Y0930803D02*
X0267440Y0930803D01*
X0268438Y0929804D02*
X0263220Y0929804D01*
X0268147Y0923813D02*
X0288512Y0923813D01*
X0287513Y0922815D02*
X0269146Y0922815D01*
X0270129Y0921816D02*
X0286529Y0921816D01*
X0286529Y0920818D02*
X0270129Y0920818D01*
X0270129Y0918821D02*
X0286529Y0918821D01*
X0286976Y0917822D02*
X0269683Y0917822D01*
X0268785Y0916824D02*
X0268684Y0916824D01*
X0267786Y0915825D02*
X0267686Y0915825D01*
X0271429Y0911831D02*
X0286129Y0911831D01*
X0286129Y0910833D02*
X0270529Y0910833D01*
X0270529Y0909834D02*
X0286129Y0909834D01*
X0286129Y0908836D02*
X0270529Y0908836D01*
X0270263Y0907837D02*
X0286395Y0907837D01*
X0287394Y0906839D02*
X0269265Y0906839D01*
X0268266Y0905840D02*
X0288392Y0905840D01*
X0293266Y0905840D02*
X0362403Y0905840D01*
X0362984Y0904842D02*
X0299852Y0904842D01*
X0300855Y0903843D02*
X0361986Y0903843D01*
X0360987Y0902845D02*
X0301853Y0902845D01*
X0302852Y0901846D02*
X0360429Y0901846D01*
X0360429Y0900848D02*
X0347075Y0900848D01*
X0347407Y0899849D02*
X0360429Y0899849D01*
X0360429Y0898851D02*
X0347407Y0898851D01*
X0347407Y0897852D02*
X0360429Y0897852D01*
X0361389Y0896853D02*
X0347407Y0896853D01*
X0347407Y0895855D02*
X0362388Y0895855D01*
X0361404Y0906839D02*
X0294265Y0906839D01*
X0295263Y0907837D02*
X0360429Y0907837D01*
X0360429Y0908836D02*
X0295529Y0908836D01*
X0295529Y0909834D02*
X0360429Y0909834D01*
X0360429Y0910833D02*
X0295529Y0910833D01*
X0295529Y0911831D02*
X0360429Y0911831D01*
X0360972Y0912830D02*
X0354927Y0912830D01*
X0355926Y0913828D02*
X0361971Y0913828D01*
X0362969Y0914827D02*
X0356924Y0914827D01*
X0357923Y0915825D02*
X0362417Y0915825D01*
X0361419Y0916824D02*
X0358921Y0916824D01*
X0362998Y0925810D02*
X0327954Y0925810D01*
X0327693Y0925550D02*
X0330329Y0928186D01*
X0330329Y0931914D01*
X0327693Y0934550D01*
X0323965Y0934550D01*
X0321329Y0931914D01*
X0321329Y0928186D01*
X0323965Y0925550D01*
X0327693Y0925550D01*
X0328952Y0926809D02*
X0335715Y0926809D01*
X0335558Y0926923D02*
X0336081Y0926543D01*
X0336656Y0926250D01*
X0337269Y0926051D01*
X0337907Y0925950D01*
X0340529Y0925950D01*
X0340529Y0929750D01*
X0334129Y0929750D01*
X0334129Y0929727D01*
X0334230Y0929090D01*
X0334430Y0928476D01*
X0334723Y0927901D01*
X0335102Y0927379D01*
X0335558Y0926923D01*
X0334791Y0927807D02*
X0329951Y0927807D01*
X0330329Y0928806D02*
X0334323Y0928806D01*
X0334129Y0930350D02*
X0340529Y0930350D01*
X0340529Y0929750D01*
X0341129Y0929750D01*
X0341129Y0925950D01*
X0343752Y0925950D01*
X0344389Y0926051D01*
X0345003Y0926250D01*
X0345578Y0926543D01*
X0346100Y0926923D01*
X0346557Y0927379D01*
X0346936Y0927901D01*
X0347229Y0928476D01*
X0347428Y0929090D01*
X0347529Y0929727D01*
X0347529Y0929750D01*
X0341129Y0929750D01*
X0341129Y0930350D01*
X0340529Y0930350D01*
X0340529Y0934150D01*
X0337907Y0934150D01*
X0337269Y0934049D01*
X0336656Y0933850D01*
X0336081Y0933557D01*
X0335558Y0933177D01*
X0335102Y0932721D01*
X0334723Y0932199D01*
X0334430Y0931624D01*
X0334230Y0931010D01*
X0334129Y0930373D01*
X0334129Y0930350D01*
X0334198Y0930803D02*
X0330329Y0930803D01*
X0330329Y0931801D02*
X0334520Y0931801D01*
X0335181Y0932800D02*
X0329443Y0932800D01*
X0328445Y0933798D02*
X0336555Y0933798D01*
X0337334Y0935550D02*
X0335680Y0936235D01*
X0334414Y0937501D01*
X0333729Y0939155D01*
X0333729Y0940945D01*
X0334414Y0942599D01*
X0335680Y0943865D01*
X0337334Y0944550D01*
X0344324Y0944550D01*
X0345978Y0943865D01*
X0347244Y0942599D01*
X0347929Y0940945D01*
X0347929Y0939155D01*
X0347244Y0937501D01*
X0345978Y0936235D01*
X0344324Y0935550D01*
X0337334Y0935550D01*
X0336742Y0935795D02*
X0295829Y0935795D01*
X0295829Y0935550D02*
X0295829Y0937121D01*
X0292900Y0940050D01*
X0291329Y0940050D01*
X0291329Y0935550D01*
X0295829Y0935550D01*
X0295829Y0936794D02*
X0335121Y0936794D01*
X0334294Y0937792D02*
X0295158Y0937792D01*
X0294159Y0938791D02*
X0333880Y0938791D01*
X0333729Y0939789D02*
X0293161Y0939789D01*
X0291329Y0939789D02*
X0290329Y0939789D01*
X0290329Y0938791D02*
X0291329Y0938791D01*
X0291329Y0937792D02*
X0290329Y0937792D01*
X0290329Y0936794D02*
X0291329Y0936794D01*
X0291329Y0935795D02*
X0290329Y0935795D01*
X0291329Y0934797D02*
X0363446Y0934797D01*
X0362507Y0933798D02*
X0345104Y0933798D01*
X0345003Y0933850D02*
X0344389Y0934049D01*
X0343752Y0934150D01*
X0341129Y0934150D01*
X0341129Y0930350D01*
X0347529Y0930350D01*
X0347529Y0930373D01*
X0347428Y0931010D01*
X0347229Y0931624D01*
X0346936Y0932199D01*
X0346557Y0932721D01*
X0346100Y0933177D01*
X0345578Y0933557D01*
X0345003Y0933850D01*
X0346478Y0932800D02*
X0361508Y0932800D01*
X0360829Y0931801D02*
X0347139Y0931801D01*
X0347461Y0930803D02*
X0360829Y0930803D01*
X0360829Y0928806D02*
X0347336Y0928806D01*
X0346868Y0927807D02*
X0361001Y0927807D01*
X0361999Y0926809D02*
X0345944Y0926809D01*
X0341129Y0926809D02*
X0340529Y0926809D01*
X0340529Y0927807D02*
X0341129Y0927807D01*
X0341129Y0928806D02*
X0340529Y0928806D01*
X0340529Y0929804D02*
X0330329Y0929804D01*
X0323705Y0925810D02*
X0307954Y0925810D01*
X0308952Y0926809D02*
X0322707Y0926809D01*
X0321708Y0927807D02*
X0309951Y0927807D01*
X0310329Y0928806D02*
X0321329Y0928806D01*
X0321329Y0929804D02*
X0310329Y0929804D01*
X0310329Y0930803D02*
X0321329Y0930803D01*
X0321329Y0931801D02*
X0310329Y0931801D01*
X0309443Y0932800D02*
X0322215Y0932800D01*
X0323214Y0933798D02*
X0308445Y0933798D01*
X0303214Y0933798D02*
X0295829Y0933798D01*
X0295650Y0932800D02*
X0302215Y0932800D01*
X0301329Y0931801D02*
X0294652Y0931801D01*
X0293653Y0930803D02*
X0301329Y0930803D01*
X0301329Y0929804D02*
X0283220Y0929804D01*
X0284219Y0930803D02*
X0288005Y0930803D01*
X0287007Y0931801D02*
X0285218Y0931801D01*
X0290329Y0931801D02*
X0291329Y0931801D01*
X0291329Y0930803D02*
X0290329Y0930803D01*
X0290329Y0932800D02*
X0291329Y0932800D01*
X0291329Y0933798D02*
X0290329Y0933798D01*
X0286501Y0937792D02*
X0285724Y0937792D01*
X0284725Y0938791D02*
X0287499Y0938791D01*
X0288498Y0939789D02*
X0283727Y0939789D01*
X0278438Y0929804D02*
X0273220Y0929804D01*
X0274219Y0930803D02*
X0277440Y0930803D01*
X0276441Y0931801D02*
X0275218Y0931801D01*
X0275724Y0937792D02*
X0275935Y0937792D01*
X0276934Y0938791D02*
X0274725Y0938791D01*
X0273727Y0939789D02*
X0277932Y0939789D01*
X0278593Y0959650D02*
X0283066Y0959650D01*
X0286112Y0962696D01*
X0288758Y0960050D01*
X0290329Y0960050D01*
X0290329Y0964550D01*
X0291329Y0964550D01*
X0291329Y0960050D01*
X0292900Y0960050D01*
X0295829Y0962979D01*
X0295829Y0964550D01*
X0291329Y0964550D01*
X0291329Y0965550D01*
X0290329Y0965550D01*
X0290329Y0970050D01*
X0288758Y0970050D01*
X0286112Y0967404D01*
X0283066Y0970450D01*
X0278593Y0970450D01*
X0275829Y0967687D01*
X0273066Y0970450D01*
X0268593Y0970450D01*
X0265829Y0967687D01*
X0263066Y0970450D01*
X0258593Y0970450D01*
X0255829Y0967687D01*
X0253066Y0970450D01*
X0248593Y0970450D01*
X0245829Y0967687D01*
X0243066Y0970450D01*
X0238593Y0970450D01*
X0235829Y0967687D01*
X0233066Y0970450D01*
X0228593Y0970450D01*
X0225829Y0967687D01*
X0223066Y0970450D01*
X0218593Y0970450D01*
X0215829Y0967687D01*
X0213066Y0970450D01*
X0208593Y0970450D01*
X0205829Y0967687D01*
X0203066Y0970450D01*
X0198593Y0970450D01*
X0195429Y0967287D01*
X0195429Y0962813D01*
X0198593Y0959650D01*
X0203066Y0959650D01*
X0205829Y0962413D01*
X0208593Y0959650D01*
X0213066Y0959650D01*
X0215829Y0962413D01*
X0218593Y0959650D01*
X0223066Y0959650D01*
X0225829Y0962413D01*
X0228593Y0959650D01*
X0233066Y0959650D01*
X0235829Y0962413D01*
X0238593Y0959650D01*
X0243066Y0959650D01*
X0245829Y0962413D01*
X0248593Y0959650D01*
X0253066Y0959650D01*
X0255829Y0962413D01*
X0258593Y0959650D01*
X0263066Y0959650D01*
X0265829Y0962413D01*
X0268593Y0959650D01*
X0273066Y0959650D01*
X0275829Y0962413D01*
X0278593Y0959650D01*
X0278483Y0959760D02*
X0273176Y0959760D01*
X0274174Y0960758D02*
X0277484Y0960758D01*
X0276486Y0961757D02*
X0275173Y0961757D01*
X0275768Y0967748D02*
X0275890Y0967748D01*
X0276889Y0968746D02*
X0274770Y0968746D01*
X0273771Y0969745D02*
X0277887Y0969745D01*
X0267887Y0969745D02*
X0263771Y0969745D01*
X0264770Y0968746D02*
X0266889Y0968746D01*
X0265890Y0967748D02*
X0265768Y0967748D01*
X0265173Y0961757D02*
X0266486Y0961757D01*
X0267484Y0960758D02*
X0264174Y0960758D01*
X0263176Y0959760D02*
X0268483Y0959760D01*
X0258483Y0959760D02*
X0253176Y0959760D01*
X0254174Y0960758D02*
X0257484Y0960758D01*
X0256486Y0961757D02*
X0255173Y0961757D01*
X0255768Y0967748D02*
X0255890Y0967748D01*
X0256889Y0968746D02*
X0254770Y0968746D01*
X0253771Y0969745D02*
X0257887Y0969745D01*
X0247887Y0969745D02*
X0243771Y0969745D01*
X0244770Y0968746D02*
X0246889Y0968746D01*
X0245890Y0967748D02*
X0245768Y0967748D01*
X0245173Y0961757D02*
X0246486Y0961757D01*
X0247484Y0960758D02*
X0244174Y0960758D01*
X0243176Y0959760D02*
X0248483Y0959760D01*
X0238483Y0959760D02*
X0233176Y0959760D01*
X0234174Y0960758D02*
X0237484Y0960758D01*
X0236486Y0961757D02*
X0235173Y0961757D01*
X0235768Y0967748D02*
X0235890Y0967748D01*
X0236889Y0968746D02*
X0234770Y0968746D01*
X0233771Y0969745D02*
X0237887Y0969745D01*
X0227887Y0969745D02*
X0223771Y0969745D01*
X0224770Y0968746D02*
X0226889Y0968746D01*
X0225890Y0967748D02*
X0225768Y0967748D01*
X0225173Y0961757D02*
X0226486Y0961757D01*
X0227484Y0960758D02*
X0224174Y0960758D01*
X0223176Y0959760D02*
X0228483Y0959760D01*
X0218483Y0959760D02*
X0213176Y0959760D01*
X0214174Y0960758D02*
X0217484Y0960758D01*
X0216486Y0961757D02*
X0215173Y0961757D01*
X0215768Y0967748D02*
X0215890Y0967748D01*
X0216889Y0968746D02*
X0214770Y0968746D01*
X0213771Y0969745D02*
X0217887Y0969745D01*
X0207887Y0969745D02*
X0203771Y0969745D01*
X0204770Y0968746D02*
X0206889Y0968746D01*
X0205890Y0967748D02*
X0205768Y0967748D01*
X0205173Y0961757D02*
X0206486Y0961757D01*
X0207484Y0960758D02*
X0204174Y0960758D01*
X0203176Y0959760D02*
X0208483Y0959760D01*
X0198483Y0959760D02*
X0175329Y0959760D01*
X0175329Y0960758D02*
X0197484Y0960758D01*
X0196486Y0961757D02*
X0175329Y0961757D01*
X0175329Y0962755D02*
X0195487Y0962755D01*
X0195429Y0963754D02*
X0175329Y0963754D01*
X0175329Y0964752D02*
X0195429Y0964752D01*
X0195429Y0965751D02*
X0175329Y0965751D01*
X0175329Y0966749D02*
X0195429Y0966749D01*
X0195890Y0967748D02*
X0175329Y0967748D01*
X0175329Y0968746D02*
X0196889Y0968746D01*
X0197887Y0969745D02*
X0175329Y0969745D01*
X0175329Y0970743D02*
X0308489Y0970743D01*
X0308883Y0970350D02*
X0312776Y0970350D01*
X0315529Y0973103D01*
X0315529Y0976997D01*
X0312776Y0979750D01*
X0308883Y0979750D01*
X0306129Y0976997D01*
X0306129Y0973103D01*
X0308883Y0970350D01*
X0307491Y0971742D02*
X0175329Y0971742D01*
X0175329Y0972740D02*
X0306492Y0972740D01*
X0306129Y0973739D02*
X0175329Y0973739D01*
X0175329Y0974737D02*
X0306129Y0974737D01*
X0306129Y0975736D02*
X0175329Y0975736D01*
X0175329Y0976734D02*
X0306129Y0976734D01*
X0306866Y0977733D02*
X0175329Y0977733D01*
X0175329Y0978731D02*
X0307864Y0978731D01*
X0308863Y0979730D02*
X0175329Y0979730D01*
X0175329Y0980728D02*
X0336903Y0980728D01*
X0337334Y0980550D02*
X0335680Y0981235D01*
X0334414Y0982501D01*
X0333729Y0984155D01*
X0333729Y0985945D01*
X0334414Y0987599D01*
X0335680Y0988865D01*
X0337334Y0989550D01*
X0344324Y0989550D01*
X0345978Y0988865D01*
X0347244Y0987599D01*
X0347929Y0985945D01*
X0347929Y0984155D01*
X0347244Y0982501D01*
X0345978Y0981235D01*
X0344324Y0980550D01*
X0337334Y0980550D01*
X0337334Y0979550D02*
X0335680Y0978865D01*
X0334565Y0977750D01*
X0332792Y0977750D01*
X0331800Y0977339D01*
X0331040Y0976579D01*
X0329711Y0975250D01*
X0325529Y0975250D01*
X0325529Y0976997D01*
X0322776Y0979750D01*
X0318883Y0979750D01*
X0316129Y0976997D01*
X0316129Y0973103D01*
X0318883Y0970350D01*
X0322776Y0970350D01*
X0323129Y0970703D01*
X0323129Y0964397D01*
X0322776Y0964750D01*
X0318883Y0964750D01*
X0316129Y0961997D01*
X0316129Y0958103D01*
X0318883Y0955350D01*
X0322776Y0955350D01*
X0323129Y0955703D01*
X0323129Y0948714D01*
X0321329Y0946914D01*
X0321329Y0943186D01*
X0323965Y0940550D01*
X0327693Y0940550D01*
X0330329Y0943186D01*
X0330329Y0946914D01*
X0328529Y0948714D01*
X0328529Y0969850D01*
X0331366Y0969850D01*
X0332359Y0970261D01*
X0334448Y0972350D01*
X0334565Y0972350D01*
X0335680Y0971235D01*
X0337334Y0970550D01*
X0344324Y0970550D01*
X0345978Y0971235D01*
X0347244Y0972501D01*
X0347929Y0974155D01*
X0347929Y0975945D01*
X0347244Y0977599D01*
X0345978Y0978865D01*
X0344324Y0979550D01*
X0337334Y0979550D01*
X0335547Y0978731D02*
X0323795Y0978731D01*
X0324793Y0977733D02*
X0332751Y0977733D01*
X0331195Y0976734D02*
X0325529Y0976734D01*
X0325529Y0975736D02*
X0330197Y0975736D01*
X0333840Y0971742D02*
X0335174Y0971742D01*
X0336868Y0970743D02*
X0332841Y0970743D01*
X0335558Y0968177D02*
X0335102Y0967721D01*
X0334723Y0967199D01*
X0334430Y0966624D01*
X0334230Y0966010D01*
X0334129Y0965373D01*
X0334129Y0965350D01*
X0340529Y0965350D01*
X0340529Y0964750D01*
X0334129Y0964750D01*
X0334129Y0964727D01*
X0334230Y0964090D01*
X0334430Y0963476D01*
X0334723Y0962901D01*
X0335102Y0962379D01*
X0335558Y0961923D01*
X0336081Y0961543D01*
X0336656Y0961250D01*
X0337269Y0961051D01*
X0337907Y0960950D01*
X0340529Y0960950D01*
X0340529Y0964750D01*
X0341129Y0964750D01*
X0341129Y0960950D01*
X0343752Y0960950D01*
X0344389Y0961051D01*
X0345003Y0961250D01*
X0345578Y0961543D01*
X0346100Y0961923D01*
X0346557Y0962379D01*
X0346936Y0962901D01*
X0347229Y0963476D01*
X0347428Y0964090D01*
X0347529Y0964727D01*
X0347529Y0964750D01*
X0341129Y0964750D01*
X0341129Y0965350D01*
X0340529Y0965350D01*
X0340529Y0969150D01*
X0337907Y0969150D01*
X0337269Y0969049D01*
X0336656Y0968850D01*
X0336081Y0968557D01*
X0335558Y0968177D01*
X0335129Y0967748D02*
X0328529Y0967748D01*
X0328529Y0968746D02*
X0336453Y0968746D01*
X0334494Y0966749D02*
X0328529Y0966749D01*
X0328529Y0965751D02*
X0334189Y0965751D01*
X0334340Y0963754D02*
X0328529Y0963754D01*
X0328529Y0964752D02*
X0340529Y0964752D01*
X0341129Y0964752D02*
X0362895Y0964752D01*
X0362492Y0965751D02*
X0347470Y0965751D01*
X0347428Y0966010D02*
X0347229Y0966624D01*
X0346936Y0967199D01*
X0346557Y0967721D01*
X0346100Y0968177D01*
X0345578Y0968557D01*
X0345003Y0968850D01*
X0344389Y0969049D01*
X0343752Y0969150D01*
X0341129Y0969150D01*
X0341129Y0965350D01*
X0347529Y0965350D01*
X0347529Y0965373D01*
X0347428Y0966010D01*
X0347165Y0966749D02*
X0361493Y0966749D01*
X0360495Y0967748D02*
X0346530Y0967748D01*
X0345206Y0968746D02*
X0360429Y0968746D01*
X0360429Y0969745D02*
X0328529Y0969745D01*
X0323129Y0969745D02*
X0293206Y0969745D01*
X0292900Y0970050D02*
X0291329Y0970050D01*
X0291329Y0965550D01*
X0295829Y0965550D01*
X0295829Y0967121D01*
X0292900Y0970050D01*
X0291329Y0969745D02*
X0290329Y0969745D01*
X0290329Y0968746D02*
X0291329Y0968746D01*
X0291329Y0967748D02*
X0290329Y0967748D01*
X0290329Y0966749D02*
X0291329Y0966749D01*
X0291329Y0965751D02*
X0290329Y0965751D01*
X0291329Y0964752D02*
X0323129Y0964752D01*
X0323129Y0965751D02*
X0295829Y0965751D01*
X0295829Y0966749D02*
X0323129Y0966749D01*
X0323129Y0967748D02*
X0295203Y0967748D01*
X0294204Y0968746D02*
X0323129Y0968746D01*
X0318489Y0970743D02*
X0313170Y0970743D01*
X0314168Y0971742D02*
X0317491Y0971742D01*
X0316492Y0972740D02*
X0315167Y0972740D01*
X0315529Y0973739D02*
X0316129Y0973739D01*
X0316129Y0974737D02*
X0315529Y0974737D01*
X0315529Y0975736D02*
X0316129Y0975736D01*
X0316129Y0976734D02*
X0315529Y0976734D01*
X0314793Y0977733D02*
X0316866Y0977733D01*
X0317864Y0978731D02*
X0313795Y0978731D01*
X0312796Y0979730D02*
X0318863Y0979730D01*
X0322796Y0979730D02*
X0360429Y0979730D01*
X0360429Y0980728D02*
X0344755Y0980728D01*
X0346470Y0981727D02*
X0360429Y0981727D01*
X0360868Y0982725D02*
X0347337Y0982725D01*
X0347751Y0983724D02*
X0361867Y0983724D01*
X0362865Y0984722D02*
X0347929Y0984722D01*
X0347929Y0985721D02*
X0362522Y0985721D01*
X0361523Y0986720D02*
X0347609Y0986720D01*
X0347125Y0987718D02*
X0360525Y0987718D01*
X0360429Y0988717D02*
X0346127Y0988717D01*
X0346112Y0978731D02*
X0360429Y0978731D01*
X0360510Y0977733D02*
X0347110Y0977733D01*
X0347602Y0976734D02*
X0361508Y0976734D01*
X0362507Y0975736D02*
X0347929Y0975736D01*
X0347929Y0974737D02*
X0362880Y0974737D01*
X0361882Y0973739D02*
X0347757Y0973739D01*
X0347343Y0972740D02*
X0360883Y0972740D01*
X0360429Y0971742D02*
X0346485Y0971742D01*
X0344791Y0970743D02*
X0360429Y0970743D01*
X0361896Y0963754D02*
X0347319Y0963754D01*
X0346830Y0962755D02*
X0360898Y0962755D01*
X0360429Y0961757D02*
X0345872Y0961757D01*
X0341129Y0961757D02*
X0340529Y0961757D01*
X0340529Y0962755D02*
X0341129Y0962755D01*
X0341129Y0963754D02*
X0340529Y0963754D01*
X0340529Y0965751D02*
X0341129Y0965751D01*
X0341129Y0966749D02*
X0340529Y0966749D01*
X0340529Y0967748D02*
X0341129Y0967748D01*
X0341129Y0968746D02*
X0340529Y0968746D01*
X0334829Y0962755D02*
X0328529Y0962755D01*
X0328529Y0961757D02*
X0335787Y0961757D01*
X0328529Y0960758D02*
X0360429Y0960758D01*
X0360429Y0959760D02*
X0328529Y0959760D01*
X0328529Y0958761D02*
X0360429Y0958761D01*
X0360480Y0957763D02*
X0328529Y0957763D01*
X0328529Y0956764D02*
X0361478Y0956764D01*
X0362477Y0955766D02*
X0328529Y0955766D01*
X0328529Y0954767D02*
X0362910Y0954767D01*
X0361911Y0953769D02*
X0346075Y0953769D01*
X0345978Y0953865D02*
X0344324Y0954550D01*
X0337334Y0954550D01*
X0335680Y0953865D01*
X0334414Y0952599D01*
X0333729Y0950945D01*
X0333729Y0949155D01*
X0334414Y0947501D01*
X0335680Y0946235D01*
X0337334Y0945550D01*
X0344324Y0945550D01*
X0345978Y0946235D01*
X0347244Y0947501D01*
X0347929Y0949155D01*
X0347929Y0950945D01*
X0347244Y0952599D01*
X0345978Y0953865D01*
X0347073Y0952770D02*
X0360913Y0952770D01*
X0360429Y0951772D02*
X0347587Y0951772D01*
X0347929Y0950773D02*
X0360429Y0950773D01*
X0360429Y0949775D02*
X0347929Y0949775D01*
X0347772Y0948776D02*
X0360429Y0948776D01*
X0360465Y0947778D02*
X0347359Y0947778D01*
X0346522Y0946779D02*
X0361464Y0946779D01*
X0362462Y0945781D02*
X0344881Y0945781D01*
X0346060Y0943784D02*
X0361926Y0943784D01*
X0362925Y0944782D02*
X0330329Y0944782D01*
X0330329Y0943784D02*
X0335599Y0943784D01*
X0334600Y0942785D02*
X0329928Y0942785D01*
X0328930Y0941787D02*
X0334078Y0941787D01*
X0333729Y0940788D02*
X0327931Y0940788D01*
X0323727Y0940788D02*
X0307931Y0940788D01*
X0307693Y0940550D02*
X0310329Y0943186D01*
X0310329Y0946914D01*
X0307693Y0949550D01*
X0303965Y0949550D01*
X0301329Y0946914D01*
X0301329Y0943186D01*
X0303965Y0940550D01*
X0307693Y0940550D01*
X0308930Y0941787D02*
X0322729Y0941787D01*
X0321730Y0942785D02*
X0309928Y0942785D01*
X0310329Y0943784D02*
X0321329Y0943784D01*
X0321329Y0944782D02*
X0310329Y0944782D01*
X0310329Y0945781D02*
X0321329Y0945781D01*
X0321329Y0946779D02*
X0310329Y0946779D01*
X0309466Y0947778D02*
X0322193Y0947778D01*
X0323129Y0948776D02*
X0308467Y0948776D01*
X0303192Y0948776D02*
X0175329Y0948776D01*
X0175329Y0947778D02*
X0302193Y0947778D01*
X0301329Y0946779D02*
X0175329Y0946779D01*
X0175329Y0945781D02*
X0301329Y0945781D01*
X0301329Y0944782D02*
X0175329Y0944782D01*
X0175329Y0943784D02*
X0301329Y0943784D01*
X0301730Y0942785D02*
X0175329Y0942785D01*
X0175329Y0941787D02*
X0302729Y0941787D01*
X0303727Y0940788D02*
X0175329Y0940788D01*
X0175329Y0949775D02*
X0323129Y0949775D01*
X0323129Y0950773D02*
X0175329Y0950773D01*
X0175329Y0951772D02*
X0323129Y0951772D01*
X0323129Y0952770D02*
X0175329Y0952770D01*
X0175329Y0953769D02*
X0323129Y0953769D01*
X0323129Y0954767D02*
X0175329Y0954767D01*
X0175329Y0955766D02*
X0308467Y0955766D01*
X0308883Y0955350D02*
X0312776Y0955350D01*
X0315529Y0958103D01*
X0315529Y0961997D01*
X0312776Y0964750D01*
X0308883Y0964750D01*
X0306129Y0961997D01*
X0306129Y0958103D01*
X0308883Y0955350D01*
X0307468Y0956764D02*
X0175329Y0956764D01*
X0175329Y0957763D02*
X0306470Y0957763D01*
X0306129Y0958761D02*
X0175329Y0958761D01*
X0175329Y0981727D02*
X0335188Y0981727D01*
X0334321Y0982725D02*
X0175329Y0982725D01*
X0175329Y0983724D02*
X0333908Y0983724D01*
X0333729Y0984722D02*
X0175329Y0984722D01*
X0175329Y0985721D02*
X0307804Y0985721D01*
X0307884Y0985642D02*
X0309795Y0984850D01*
X0311864Y0984850D01*
X0313775Y0985642D01*
X0315238Y0987104D01*
X0316029Y0989016D01*
X0316029Y0991084D01*
X0315238Y0992996D01*
X0313775Y0994458D01*
X0311864Y0995250D01*
X0309795Y0995250D01*
X0307884Y0994458D01*
X0306421Y0992996D01*
X0305629Y0991084D01*
X0305629Y0989016D01*
X0306421Y0987104D01*
X0307884Y0985642D01*
X0306806Y0986720D02*
X0175329Y0986720D01*
X0175329Y0987718D02*
X0306167Y0987718D01*
X0305753Y0988717D02*
X0175329Y0988717D01*
X0175329Y0989715D02*
X0305629Y0989715D01*
X0305629Y0990714D02*
X0175329Y0990714D01*
X0175329Y0991712D02*
X0305889Y0991712D01*
X0306303Y0992711D02*
X0175329Y0992711D01*
X0175329Y0993709D02*
X0307135Y0993709D01*
X0308486Y0994708D02*
X0175329Y0994708D01*
X0175329Y0995706D02*
X0391329Y0995706D01*
X0391329Y0994708D02*
X0368809Y0994708D01*
X0369807Y0993709D02*
X0380750Y0993709D01*
X0380776Y0993728D02*
X0380228Y0993330D01*
X0379750Y0992851D01*
X0379352Y0992304D01*
X0379044Y0991701D01*
X0378835Y0991057D01*
X0378739Y0990450D01*
X0385429Y0990450D01*
X0385429Y0989650D01*
X0378739Y0989650D01*
X0378835Y0989043D01*
X0379044Y0988399D01*
X0379352Y0987796D01*
X0379750Y0987249D01*
X0380228Y0986770D01*
X0380776Y0986372D01*
X0381379Y0986065D01*
X0382022Y0985856D01*
X0382691Y0985750D01*
X0385429Y0985750D01*
X0385429Y0989650D01*
X0386229Y0989650D01*
X0386229Y0985750D01*
X0388968Y0985750D01*
X0389636Y0985856D01*
X0390280Y0986065D01*
X0390883Y0986372D01*
X0391329Y0986697D01*
X0391329Y0983997D01*
X0391292Y0984034D01*
X0389564Y0984750D01*
X0382094Y0984750D01*
X0380367Y0984034D01*
X0379045Y0982712D01*
X0378329Y0980985D01*
X0378329Y0979115D01*
X0379045Y0977388D01*
X0380367Y0976066D01*
X0382094Y0975350D01*
X0389564Y0975350D01*
X0391292Y0976066D01*
X0391329Y0976103D01*
X0391329Y0929155D01*
X0392014Y0927501D01*
X0393280Y0926235D01*
X0393280Y0926235D01*
X0393778Y0925738D01*
X0396731Y0924514D01*
X0399928Y0924514D01*
X0402881Y0925738D01*
X0403378Y0926235D01*
X0403378Y0926235D01*
X0404644Y0927501D01*
X0405329Y0929155D01*
X0405329Y1025945D01*
X0404644Y1027599D01*
X0403378Y1028865D01*
X0402881Y1029362D01*
X0399928Y1030586D01*
X0396731Y1030586D01*
X0393778Y1029362D01*
X0393280Y1028865D01*
X0392647Y1028232D01*
X0392014Y1027599D01*
X0391329Y1025945D01*
X0391329Y0993403D01*
X0390883Y0993728D01*
X0390280Y0994035D01*
X0389636Y0994244D01*
X0388968Y0994350D01*
X0386229Y0994350D01*
X0386229Y0990450D01*
X0385429Y0990450D01*
X0385429Y0994350D01*
X0382691Y0994350D01*
X0382022Y0994244D01*
X0381379Y0994035D01*
X0380776Y0993728D01*
X0379647Y0992711D02*
X0370806Y0992711D01*
X0371229Y0991712D02*
X0379050Y0991712D01*
X0378781Y0990714D02*
X0371229Y0990714D01*
X0371229Y0989715D02*
X0385429Y0989715D01*
X0385429Y0988717D02*
X0386229Y0988717D01*
X0386229Y0987718D02*
X0385429Y0987718D01*
X0385429Y0986720D02*
X0386229Y0986720D01*
X0389631Y0984722D02*
X0391329Y0984722D01*
X0391329Y0985721D02*
X0369137Y0985721D01*
X0368794Y0984722D02*
X0382028Y0984722D01*
X0380057Y0983724D02*
X0369792Y0983724D01*
X0370791Y0982725D02*
X0379058Y0982725D01*
X0378637Y0981727D02*
X0371229Y0981727D01*
X0371229Y0980728D02*
X0378329Y0980728D01*
X0378329Y0979730D02*
X0371229Y0979730D01*
X0371229Y0978731D02*
X0378488Y0978731D01*
X0378902Y0977733D02*
X0371149Y0977733D01*
X0370151Y0976734D02*
X0379698Y0976734D01*
X0381163Y0975736D02*
X0369152Y0975736D01*
X0368779Y0974737D02*
X0391329Y0974737D01*
X0391329Y0973739D02*
X0369777Y0973739D01*
X0370776Y0972740D02*
X0391329Y0972740D01*
X0391329Y0971742D02*
X0371229Y0971742D01*
X0371229Y0970743D02*
X0391329Y0970743D01*
X0391329Y0969745D02*
X0371229Y0969745D01*
X0371229Y0968746D02*
X0391329Y0968746D01*
X0391329Y0967748D02*
X0371164Y0967748D01*
X0370165Y0966749D02*
X0391329Y0966749D01*
X0391329Y0965751D02*
X0369167Y0965751D01*
X0368764Y0964752D02*
X0383593Y0964752D01*
X0382179Y0963754D02*
X0369762Y0963754D01*
X0370761Y0962755D02*
X0381322Y0962755D01*
X0380908Y0961757D02*
X0371229Y0961757D01*
X0371229Y0960758D02*
X0380629Y0960758D01*
X0380629Y0959760D02*
X0371229Y0959760D01*
X0371229Y0958761D02*
X0380735Y0958761D01*
X0381148Y0957763D02*
X0371935Y0957763D01*
X0372934Y0956764D02*
X0381761Y0956764D01*
X0382760Y0955766D02*
X0373932Y0955766D01*
X0374931Y0954767D02*
X0383629Y0954767D01*
X0382194Y0953769D02*
X0375929Y0953769D01*
X0376928Y0952770D02*
X0381328Y0952770D01*
X0380914Y0951772D02*
X0377926Y0951772D01*
X0378925Y0950773D02*
X0380629Y0950773D01*
X0380629Y0949775D02*
X0379923Y0949775D01*
X0387993Y0944782D02*
X0391329Y0944782D01*
X0391329Y0943784D02*
X0389450Y0943784D01*
X0390325Y0942785D02*
X0391329Y0942785D01*
X0391329Y0941787D02*
X0390739Y0941787D01*
X0391029Y0940788D02*
X0391329Y0940788D01*
X0391329Y0939789D02*
X0391029Y0939789D01*
X0390936Y0938791D02*
X0391329Y0938791D01*
X0391329Y0937792D02*
X0390523Y0937792D01*
X0389927Y0936794D02*
X0391329Y0936794D01*
X0391329Y0935795D02*
X0388929Y0935795D01*
X0391329Y0934797D02*
X0381029Y0934797D01*
X0381029Y0935795D02*
X0382730Y0935795D01*
X0381732Y0936794D02*
X0381029Y0936794D01*
X0381029Y0937792D02*
X0381136Y0937792D01*
X0381029Y0933798D02*
X0391329Y0933798D01*
X0391329Y0932800D02*
X0381029Y0932800D01*
X0381029Y0931801D02*
X0391329Y0931801D01*
X0391329Y0930803D02*
X0381029Y0930803D01*
X0381029Y0929804D02*
X0391329Y0929804D01*
X0391474Y0928806D02*
X0381029Y0928806D01*
X0381029Y0927807D02*
X0391888Y0927807D01*
X0392707Y0926809D02*
X0381029Y0926809D01*
X0381029Y0925810D02*
X0393705Y0925810D01*
X0393778Y0925738D02*
X0393778Y0925738D01*
X0396013Y0924812D02*
X0387922Y0924812D01*
X0389420Y0923813D02*
X0407239Y0923813D01*
X0407884Y0924458D02*
X0406421Y0922996D01*
X0405629Y0921084D01*
X0405629Y0919016D01*
X0406421Y0917104D01*
X0407884Y0915642D01*
X0409312Y0915050D01*
X0407884Y0914458D01*
X0406421Y0912996D01*
X0405629Y0911084D01*
X0405629Y0909016D01*
X0406421Y0907104D01*
X0407884Y0905642D01*
X0409795Y0904850D01*
X0411864Y0904850D01*
X0413775Y0905642D01*
X0415238Y0907104D01*
X0416029Y0909016D01*
X0416029Y0911084D01*
X0415238Y0912996D01*
X0413775Y0914458D01*
X0412347Y0915050D01*
X0413775Y0915642D01*
X0415238Y0917104D01*
X0416029Y0919016D01*
X0416029Y0921084D01*
X0415238Y0922996D01*
X0413775Y0924458D01*
X0411864Y0925250D01*
X0409795Y0925250D01*
X0407884Y0924458D01*
X0408737Y0924812D02*
X0400646Y0924812D01*
X0402881Y0925738D02*
X0402881Y0925738D01*
X0402954Y0925810D02*
X0416129Y0925810D01*
X0416129Y0924812D02*
X0412922Y0924812D01*
X0414420Y0923813D02*
X0416129Y0923813D01*
X0416129Y0923103D02*
X0418883Y0920350D01*
X0422776Y0920350D01*
X0425529Y0923103D01*
X0425529Y0926997D01*
X0422776Y0929750D01*
X0418883Y0929750D01*
X0416129Y0926997D01*
X0416129Y0923103D01*
X0416418Y0922815D02*
X0415313Y0922815D01*
X0415726Y0921816D02*
X0417416Y0921816D01*
X0418415Y0920818D02*
X0416029Y0920818D01*
X0416029Y0919819D02*
X0479249Y0919819D01*
X0479345Y0919588D02*
X0479383Y0919550D01*
X0478965Y0919550D01*
X0476329Y0916914D01*
X0476329Y0913186D01*
X0478965Y0910550D01*
X0482693Y0910550D01*
X0485329Y0913186D01*
X0485329Y0916914D01*
X0484568Y0917676D01*
X0485992Y0918266D01*
X0487314Y0919588D01*
X0488029Y0921315D01*
X0488029Y0928785D01*
X0487314Y0930512D01*
X0485992Y0931834D01*
X0484264Y0932550D01*
X0482394Y0932550D01*
X0480667Y0931834D01*
X0479345Y0930512D01*
X0478629Y0928785D01*
X0478629Y0921315D01*
X0479345Y0919588D01*
X0478835Y0920818D02*
X0439971Y0920818D01*
X0439324Y0920550D02*
X0440978Y0921235D01*
X0442244Y0922501D01*
X0442929Y0924155D01*
X0442929Y0925945D01*
X0442244Y0927599D01*
X0440978Y0928865D01*
X0439324Y0929550D01*
X0432334Y0929550D01*
X0430680Y0928865D01*
X0429414Y0927599D01*
X0428729Y0925945D01*
X0428729Y0924155D01*
X0429414Y0922501D01*
X0430680Y0921235D01*
X0432334Y0920550D01*
X0439324Y0920550D01*
X0439324Y0919550D02*
X0440978Y0918865D01*
X0442244Y0917599D01*
X0442929Y0915945D01*
X0442929Y0914155D01*
X0442244Y0912501D01*
X0440978Y0911235D01*
X0439324Y0910550D01*
X0432334Y0910550D01*
X0430680Y0911235D01*
X0429414Y0912501D01*
X0428729Y0914155D01*
X0428729Y0915945D01*
X0429414Y0917599D01*
X0430680Y0918865D01*
X0432334Y0919550D01*
X0439324Y0919550D01*
X0441023Y0918821D02*
X0460636Y0918821D01*
X0460680Y0918865D02*
X0459414Y0917599D01*
X0458729Y0915945D01*
X0458729Y0914155D01*
X0459414Y0912501D01*
X0460680Y0911235D01*
X0462334Y0910550D01*
X0469324Y0910550D01*
X0470978Y0911235D01*
X0472244Y0912501D01*
X0472929Y0914155D01*
X0472929Y0915945D01*
X0472244Y0917599D01*
X0470978Y0918865D01*
X0469324Y0919550D01*
X0462334Y0919550D01*
X0460680Y0918865D01*
X0459638Y0917822D02*
X0442021Y0917822D01*
X0442565Y0916824D02*
X0459093Y0916824D01*
X0458729Y0915825D02*
X0442929Y0915825D01*
X0442929Y0914827D02*
X0458729Y0914827D01*
X0458865Y0913828D02*
X0442794Y0913828D01*
X0442380Y0912830D02*
X0459278Y0912830D01*
X0460084Y0911831D02*
X0441575Y0911831D01*
X0440007Y0910833D02*
X0461652Y0910833D01*
X0462334Y0909550D02*
X0460680Y0908865D01*
X0459414Y0907599D01*
X0458729Y0905945D01*
X0458729Y0904155D01*
X0459414Y0902501D01*
X0460680Y0901235D01*
X0462334Y0900550D01*
X0469324Y0900550D01*
X0470978Y0901235D01*
X0472244Y0902501D01*
X0472929Y0904155D01*
X0472929Y0905945D01*
X0472244Y0907599D01*
X0470978Y0908865D01*
X0469324Y0909550D01*
X0462334Y0909550D01*
X0460651Y0908836D02*
X0441008Y0908836D01*
X0440978Y0908865D02*
X0439324Y0909550D01*
X0432334Y0909550D01*
X0430680Y0908865D01*
X0429414Y0907599D01*
X0428729Y0905945D01*
X0428729Y0904155D01*
X0429414Y0902501D01*
X0430680Y0901235D01*
X0432334Y0900550D01*
X0439324Y0900550D01*
X0440978Y0901235D01*
X0442244Y0902501D01*
X0442929Y0904155D01*
X0442929Y0905945D01*
X0442244Y0907599D01*
X0440978Y0908865D01*
X0442006Y0907837D02*
X0459653Y0907837D01*
X0459099Y0906839D02*
X0442559Y0906839D01*
X0442929Y0905840D02*
X0458729Y0905840D01*
X0458729Y0904842D02*
X0442929Y0904842D01*
X0442800Y0903843D02*
X0458859Y0903843D01*
X0459272Y0902845D02*
X0442387Y0902845D01*
X0441589Y0901846D02*
X0460069Y0901846D01*
X0461616Y0900848D02*
X0440043Y0900848D01*
X0439324Y0899550D02*
X0440978Y0898865D01*
X0442244Y0897599D01*
X0442929Y0895945D01*
X0442929Y0894155D01*
X0442244Y0892501D01*
X0440978Y0891235D01*
X0439324Y0890550D01*
X0432334Y0890550D01*
X0430680Y0891235D01*
X0429414Y0892501D01*
X0428729Y0894155D01*
X0428729Y0895945D01*
X0429414Y0897599D01*
X0430680Y0898865D01*
X0432334Y0899550D01*
X0439324Y0899550D01*
X0440993Y0898851D02*
X0460666Y0898851D01*
X0460680Y0898865D02*
X0459414Y0897599D01*
X0458729Y0895945D01*
X0458729Y0894155D01*
X0459414Y0892501D01*
X0460680Y0891235D01*
X0462334Y0890550D01*
X0469324Y0890550D01*
X0470978Y0891235D01*
X0472244Y0892501D01*
X0472929Y0894155D01*
X0472929Y0895945D01*
X0472244Y0897599D01*
X0470978Y0898865D01*
X0469324Y0899550D01*
X0462334Y0899550D01*
X0460680Y0898865D01*
X0459667Y0897852D02*
X0441991Y0897852D01*
X0442553Y0896853D02*
X0459106Y0896853D01*
X0458729Y0895855D02*
X0442929Y0895855D01*
X0442929Y0894856D02*
X0458729Y0894856D01*
X0458852Y0893858D02*
X0442806Y0893858D01*
X0442393Y0892859D02*
X0459266Y0892859D01*
X0460054Y0891861D02*
X0441604Y0891861D01*
X0440079Y0890862D02*
X0461580Y0890862D01*
X0470079Y0890862D02*
X0478653Y0890862D01*
X0478965Y0890550D02*
X0482693Y0890550D01*
X0485329Y0893186D01*
X0485329Y0896914D01*
X0482693Y0899550D01*
X0478965Y0899550D01*
X0476329Y0896914D01*
X0476329Y0893186D01*
X0478965Y0890550D01*
X0477654Y0891861D02*
X0471604Y0891861D01*
X0472393Y0892859D02*
X0476656Y0892859D01*
X0476329Y0893858D02*
X0472806Y0893858D01*
X0472929Y0894856D02*
X0476329Y0894856D01*
X0476329Y0895855D02*
X0472929Y0895855D01*
X0472553Y0896853D02*
X0476329Y0896853D01*
X0477267Y0897852D02*
X0471991Y0897852D01*
X0470993Y0898851D02*
X0478266Y0898851D01*
X0483393Y0898851D02*
X0493832Y0898851D01*
X0494131Y0899150D02*
X0491729Y0896748D01*
X0491729Y0895350D01*
X0495529Y0895350D01*
X0495529Y0894750D01*
X0491729Y0894750D01*
X0491729Y0893352D01*
X0494131Y0890950D01*
X0495529Y0890950D01*
X0495529Y0894750D01*
X0496129Y0894750D01*
X0496129Y0890950D01*
X0497528Y0890950D01*
X0499929Y0893352D01*
X0499929Y0894750D01*
X0496129Y0894750D01*
X0496129Y0895350D01*
X0495529Y0895350D01*
X0495529Y0899150D01*
X0494131Y0899150D01*
X0495529Y0898851D02*
X0496129Y0898851D01*
X0496129Y0899150D02*
X0496129Y0895350D01*
X0499929Y0895350D01*
X0499929Y0896748D01*
X0497528Y0899150D01*
X0496129Y0899150D01*
X0496129Y0897852D02*
X0495529Y0897852D01*
X0495529Y0896853D02*
X0496129Y0896853D01*
X0496129Y0895855D02*
X0495529Y0895855D01*
X0495529Y0894856D02*
X0485329Y0894856D01*
X0485329Y0893858D02*
X0491729Y0893858D01*
X0492222Y0892859D02*
X0485003Y0892859D01*
X0484004Y0891861D02*
X0493220Y0891861D01*
X0495529Y0891861D02*
X0496129Y0891861D01*
X0496129Y0892859D02*
X0495529Y0892859D01*
X0495529Y0893858D02*
X0496129Y0893858D01*
X0496129Y0894856D02*
X0506317Y0894856D01*
X0506329Y0895855D02*
X0499929Y0895855D01*
X0499824Y0896853D02*
X0506329Y0896853D01*
X0506329Y0897852D02*
X0498826Y0897852D01*
X0497827Y0898851D02*
X0506329Y0898851D01*
X0506329Y0899849D02*
X0411329Y0899849D01*
X0411329Y0899550D02*
X0411329Y0900550D01*
X0410329Y0900550D01*
X0410329Y0899550D01*
X0406049Y0899550D01*
X0406148Y0898926D01*
X0406381Y0898207D01*
X0406724Y0897534D01*
X0407168Y0896923D01*
X0407702Y0896389D01*
X0408314Y0895945D01*
X0408987Y0895602D01*
X0409705Y0895368D01*
X0410329Y0895269D01*
X0410329Y0899550D01*
X0411329Y0899550D01*
X0411329Y0895269D01*
X0411953Y0895368D01*
X0412672Y0895602D01*
X0413345Y0895945D01*
X0413956Y0896389D01*
X0414491Y0896923D01*
X0414935Y0897534D01*
X0415278Y0898207D01*
X0415511Y0898926D01*
X0415610Y0899550D01*
X0411329Y0899550D01*
X0411329Y0898851D02*
X0410329Y0898851D01*
X0410329Y0899849D02*
X0386329Y0899849D01*
X0386329Y0899550D02*
X0386329Y0900550D01*
X0385329Y0900550D01*
X0385329Y0899550D01*
X0381049Y0899550D01*
X0381148Y0898926D01*
X0381381Y0898207D01*
X0381724Y0897534D01*
X0382168Y0896923D01*
X0382702Y0896389D01*
X0383314Y0895945D01*
X0383987Y0895602D01*
X0384705Y0895368D01*
X0385329Y0895269D01*
X0385329Y0899550D01*
X0386329Y0899550D01*
X0386329Y0895269D01*
X0386953Y0895368D01*
X0387672Y0895602D01*
X0388345Y0895945D01*
X0388956Y0896389D01*
X0389491Y0896923D01*
X0389935Y0897534D01*
X0390278Y0898207D01*
X0390511Y0898926D01*
X0390610Y0899550D01*
X0386329Y0899550D01*
X0386329Y0898851D02*
X0385329Y0898851D01*
X0385329Y0899849D02*
X0381029Y0899849D01*
X0381049Y0900550D02*
X0385329Y0900550D01*
X0385329Y0904831D01*
X0384705Y0904732D01*
X0383987Y0904498D01*
X0383314Y0904155D01*
X0382702Y0903711D01*
X0382168Y0903177D01*
X0381724Y0902566D01*
X0381381Y0901893D01*
X0381148Y0901174D01*
X0381049Y0900550D01*
X0381029Y0900848D02*
X0381096Y0900848D01*
X0381029Y0901846D02*
X0381366Y0901846D01*
X0381029Y0902845D02*
X0381927Y0902845D01*
X0381029Y0903843D02*
X0382884Y0903843D01*
X0382685Y0905840D02*
X0381029Y0905840D01*
X0381029Y0904842D02*
X0428729Y0904842D01*
X0428729Y0905840D02*
X0413973Y0905840D01*
X0414972Y0906839D02*
X0429099Y0906839D01*
X0429653Y0907837D02*
X0415541Y0907837D01*
X0415955Y0908836D02*
X0430651Y0908836D01*
X0431652Y0910833D02*
X0422693Y0910833D01*
X0422610Y0910750D02*
X0425129Y0913269D01*
X0425129Y0914750D01*
X0421129Y0914750D01*
X0421129Y0910750D01*
X0422610Y0910750D01*
X0421129Y0910833D02*
X0420529Y0910833D01*
X0420529Y0910750D02*
X0420529Y0914750D01*
X0416529Y0914750D01*
X0416529Y0913269D01*
X0419048Y0910750D01*
X0420529Y0910750D01*
X0420529Y0911831D02*
X0421129Y0911831D01*
X0421129Y0912830D02*
X0420529Y0912830D01*
X0420529Y0913828D02*
X0421129Y0913828D01*
X0421129Y0914750D02*
X0420529Y0914750D01*
X0420529Y0915350D01*
X0416529Y0915350D01*
X0416529Y0916831D01*
X0419048Y0919350D01*
X0420529Y0919350D01*
X0420529Y0915350D01*
X0421129Y0915350D01*
X0421129Y0919350D01*
X0422610Y0919350D01*
X0425129Y0916831D01*
X0425129Y0915350D01*
X0421129Y0915350D01*
X0421129Y0914750D01*
X0421129Y0914827D02*
X0428729Y0914827D01*
X0428729Y0915825D02*
X0425129Y0915825D01*
X0425129Y0916824D02*
X0429093Y0916824D01*
X0429638Y0917822D02*
X0424138Y0917822D01*
X0423140Y0918821D02*
X0430636Y0918821D01*
X0431688Y0920818D02*
X0423244Y0920818D01*
X0424242Y0921816D02*
X0430099Y0921816D01*
X0429284Y0922815D02*
X0425241Y0922815D01*
X0425529Y0923813D02*
X0428871Y0923813D01*
X0428729Y0924812D02*
X0425529Y0924812D01*
X0425529Y0925810D02*
X0428729Y0925810D01*
X0429087Y0926809D02*
X0425529Y0926809D01*
X0424719Y0927807D02*
X0429623Y0927807D01*
X0430621Y0928806D02*
X0423720Y0928806D01*
X0417938Y0928806D02*
X0405185Y0928806D01*
X0405329Y0929804D02*
X0479052Y0929804D01*
X0478638Y0928806D02*
X0470089Y0928806D01*
X0470003Y0928850D02*
X0469389Y0929049D01*
X0468752Y0929150D01*
X0466129Y0929150D01*
X0466129Y0925350D01*
X0465529Y0925350D01*
X0465529Y0924750D01*
X0459129Y0924750D01*
X0459129Y0924727D01*
X0459230Y0924090D01*
X0459430Y0923476D01*
X0459723Y0922901D01*
X0460102Y0922379D01*
X0460558Y0921923D01*
X0461081Y0921543D01*
X0461656Y0921250D01*
X0462269Y0921051D01*
X0462907Y0920950D01*
X0465529Y0920950D01*
X0465529Y0924750D01*
X0466129Y0924750D01*
X0466129Y0920950D01*
X0468752Y0920950D01*
X0469389Y0921051D01*
X0470003Y0921250D01*
X0470578Y0921543D01*
X0471100Y0921923D01*
X0471557Y0922379D01*
X0471936Y0922901D01*
X0472229Y0923476D01*
X0472428Y0924090D01*
X0472529Y0924727D01*
X0472529Y0924750D01*
X0466129Y0924750D01*
X0466129Y0925350D01*
X0472529Y0925350D01*
X0472529Y0925373D01*
X0472428Y0926010D01*
X0472229Y0926624D01*
X0471936Y0927199D01*
X0471557Y0927721D01*
X0471100Y0928177D01*
X0470578Y0928557D01*
X0470003Y0928850D01*
X0471470Y0927807D02*
X0478629Y0927807D01*
X0478629Y0926809D02*
X0472135Y0926809D01*
X0472460Y0925810D02*
X0478629Y0925810D01*
X0478629Y0924812D02*
X0466129Y0924812D01*
X0465529Y0924812D02*
X0442929Y0924812D01*
X0442929Y0925810D02*
X0459199Y0925810D01*
X0459230Y0926010D02*
X0459129Y0925373D01*
X0459129Y0925350D01*
X0465529Y0925350D01*
X0465529Y0929150D01*
X0462907Y0929150D01*
X0462269Y0929049D01*
X0461656Y0928850D01*
X0461081Y0928557D01*
X0460558Y0928177D01*
X0460102Y0927721D01*
X0459723Y0927199D01*
X0459430Y0926624D01*
X0459230Y0926010D01*
X0459524Y0926809D02*
X0442572Y0926809D01*
X0442036Y0927807D02*
X0460188Y0927807D01*
X0461570Y0928806D02*
X0441037Y0928806D01*
X0442788Y0923813D02*
X0459320Y0923813D01*
X0459785Y0922815D02*
X0442374Y0922815D01*
X0441560Y0921816D02*
X0460705Y0921816D01*
X0465529Y0921816D02*
X0466129Y0921816D01*
X0466129Y0922815D02*
X0465529Y0922815D01*
X0465529Y0923813D02*
X0466129Y0923813D01*
X0466129Y0925810D02*
X0465529Y0925810D01*
X0465529Y0926809D02*
X0466129Y0926809D01*
X0466129Y0927807D02*
X0465529Y0927807D01*
X0465529Y0928806D02*
X0466129Y0928806D01*
X0472339Y0923813D02*
X0478629Y0923813D01*
X0478629Y0922815D02*
X0471873Y0922815D01*
X0470954Y0921816D02*
X0478629Y0921816D01*
X0478236Y0918821D02*
X0471023Y0918821D01*
X0472021Y0917822D02*
X0477238Y0917822D01*
X0476329Y0916824D02*
X0472565Y0916824D01*
X0472929Y0915825D02*
X0476329Y0915825D01*
X0476329Y0914827D02*
X0472929Y0914827D01*
X0472794Y0913828D02*
X0476329Y0913828D01*
X0476686Y0912830D02*
X0472380Y0912830D01*
X0471575Y0911831D02*
X0477684Y0911831D01*
X0478683Y0910833D02*
X0470007Y0910833D01*
X0471008Y0908836D02*
X0506329Y0908836D01*
X0506329Y0909834D02*
X0416029Y0909834D01*
X0416029Y0910833D02*
X0418966Y0910833D01*
X0417967Y0911831D02*
X0415720Y0911831D01*
X0415306Y0912830D02*
X0416969Y0912830D01*
X0416529Y0913828D02*
X0414405Y0913828D01*
X0412886Y0914827D02*
X0420529Y0914827D01*
X0420529Y0915825D02*
X0421129Y0915825D01*
X0421129Y0916824D02*
X0420529Y0916824D01*
X0420529Y0917822D02*
X0421129Y0917822D01*
X0421129Y0918821D02*
X0420529Y0918821D01*
X0418519Y0918821D02*
X0415949Y0918821D01*
X0415535Y0917822D02*
X0417521Y0917822D01*
X0416529Y0916824D02*
X0414957Y0916824D01*
X0413959Y0915825D02*
X0416529Y0915825D01*
X0423692Y0911831D02*
X0430084Y0911831D01*
X0429278Y0912830D02*
X0424690Y0912830D01*
X0425129Y0913828D02*
X0428865Y0913828D01*
X0428859Y0903843D02*
X0413775Y0903843D01*
X0413956Y0903711D02*
X0413345Y0904155D01*
X0412672Y0904498D01*
X0411953Y0904732D01*
X0411329Y0904831D01*
X0411329Y0900550D01*
X0415610Y0900550D01*
X0415511Y0901174D01*
X0415278Y0901893D01*
X0414935Y0902566D01*
X0414491Y0903177D01*
X0413956Y0903711D01*
X0414732Y0902845D02*
X0429272Y0902845D01*
X0430069Y0901846D02*
X0415293Y0901846D01*
X0415563Y0900848D02*
X0431616Y0900848D01*
X0430666Y0898851D02*
X0415487Y0898851D01*
X0415097Y0897852D02*
X0429667Y0897852D01*
X0429106Y0896853D02*
X0414421Y0896853D01*
X0413169Y0895855D02*
X0428729Y0895855D01*
X0428729Y0894856D02*
X0381029Y0894856D01*
X0381029Y0893858D02*
X0428852Y0893858D01*
X0429266Y0892859D02*
X0381029Y0892859D01*
X0380966Y0891861D02*
X0430054Y0891861D01*
X0431580Y0890862D02*
X0380460Y0890862D01*
X0379462Y0889864D02*
X0502543Y0889864D01*
X0504353Y0890862D02*
X0483006Y0890862D01*
X0485329Y0895855D02*
X0491729Y0895855D01*
X0491835Y0896853D02*
X0485329Y0896853D01*
X0484391Y0897852D02*
X0492833Y0897852D01*
X0498439Y0891861D02*
X0505285Y0891861D01*
X0505861Y0892859D02*
X0499437Y0892859D01*
X0499929Y0893858D02*
X0506155Y0893858D01*
X0506329Y0900848D02*
X0470043Y0900848D01*
X0471589Y0901846D02*
X0506329Y0901846D01*
X0506329Y0902845D02*
X0472387Y0902845D01*
X0472800Y0903843D02*
X0506329Y0903843D01*
X0506329Y0904842D02*
X0472929Y0904842D01*
X0472929Y0905840D02*
X0506329Y0905840D01*
X0506329Y0906839D02*
X0472559Y0906839D01*
X0472006Y0907837D02*
X0506329Y0907837D01*
X0506329Y0910833D02*
X0497976Y0910833D01*
X0497693Y0910550D02*
X0500329Y0913186D01*
X0500329Y0916914D01*
X0497693Y0919550D01*
X0497276Y0919550D01*
X0497314Y0919588D01*
X0498029Y0921315D01*
X0498029Y0928785D01*
X0497314Y0930512D01*
X0495992Y0931834D01*
X0494264Y0932550D01*
X0492394Y0932550D01*
X0490667Y0931834D01*
X0489345Y0930512D01*
X0488629Y0928785D01*
X0488629Y0921315D01*
X0489345Y0919588D01*
X0490667Y0918266D01*
X0492091Y0917676D01*
X0491329Y0916914D01*
X0491329Y0913186D01*
X0493965Y0910550D01*
X0497693Y0910550D01*
X0498975Y0911831D02*
X0506329Y0911831D01*
X0506329Y0912830D02*
X0499973Y0912830D01*
X0500329Y0913828D02*
X0506329Y0913828D01*
X0506329Y0914827D02*
X0500329Y0914827D01*
X0500329Y0915825D02*
X0506329Y0915825D01*
X0506329Y0916824D02*
X0500329Y0916824D01*
X0499421Y0917822D02*
X0506329Y0917822D01*
X0506329Y0918821D02*
X0498423Y0918821D01*
X0497410Y0919819D02*
X0506329Y0919819D01*
X0506329Y0920818D02*
X0497823Y0920818D01*
X0498029Y0921816D02*
X0506329Y0921816D01*
X0506329Y0922815D02*
X0498029Y0922815D01*
X0498029Y0923813D02*
X0506329Y0923813D01*
X0506329Y0924812D02*
X0498029Y0924812D01*
X0498029Y0925810D02*
X0506329Y0925810D01*
X0506329Y0926809D02*
X0498029Y0926809D01*
X0498029Y0927807D02*
X0506329Y0927807D01*
X0506329Y0928806D02*
X0498021Y0928806D01*
X0497607Y0929804D02*
X0506329Y0929804D01*
X0506329Y0930803D02*
X0497023Y0930803D01*
X0496025Y0931801D02*
X0506329Y0931801D01*
X0506329Y0932800D02*
X0405329Y0932800D01*
X0405329Y0933798D02*
X0506329Y0933798D01*
X0506329Y0934797D02*
X0405329Y0934797D01*
X0405329Y0935795D02*
X0506329Y0935795D01*
X0506329Y0936794D02*
X0405329Y0936794D01*
X0405329Y0937792D02*
X0506329Y0937792D01*
X0506329Y0938791D02*
X0405329Y0938791D01*
X0405329Y0939789D02*
X0418458Y0939789D01*
X0419842Y0939396D02*
X0423758Y0939758D01*
X0427278Y0941511D01*
X0429927Y0944417D01*
X0431347Y0948084D01*
X0431347Y0952016D01*
X0429927Y0955683D01*
X0427278Y0958589D01*
X0423758Y0960342D01*
X0419842Y0960704D01*
X0416060Y0959628D01*
X0412922Y0957259D01*
X0410852Y0953915D01*
X0410129Y0950050D01*
X0410852Y0946185D01*
X0412922Y0942841D01*
X0416060Y0940472D01*
X0419842Y0939396D01*
X0423820Y0939789D02*
X0483458Y0939789D01*
X0484842Y0939396D02*
X0488758Y0939758D01*
X0492278Y0941511D01*
X0494927Y0944417D01*
X0496347Y0948084D01*
X0496347Y0952016D01*
X0494927Y0955683D01*
X0492278Y0958589D01*
X0488758Y0960342D01*
X0484842Y0960704D01*
X0481060Y0959628D01*
X0477922Y0957259D01*
X0475852Y0953915D01*
X0475129Y0950050D01*
X0475852Y0946185D01*
X0477922Y0942841D01*
X0481060Y0940472D01*
X0484842Y0939396D01*
X0488820Y0939789D02*
X0506329Y0939789D01*
X0506329Y0940788D02*
X0490825Y0940788D01*
X0492529Y0941787D02*
X0506329Y0941787D01*
X0506329Y0942785D02*
X0493439Y0942785D01*
X0494349Y0943784D02*
X0506329Y0943784D01*
X0506329Y0944782D02*
X0495068Y0944782D01*
X0495455Y0945781D02*
X0506329Y0945781D01*
X0506329Y0946779D02*
X0495842Y0946779D01*
X0496229Y0947778D02*
X0506329Y0947778D01*
X0506329Y0948776D02*
X0496347Y0948776D01*
X0496347Y0949775D02*
X0506329Y0949775D01*
X0506329Y0950773D02*
X0496347Y0950773D01*
X0496347Y0951772D02*
X0506329Y0951772D01*
X0506329Y0952770D02*
X0496055Y0952770D01*
X0495668Y0953769D02*
X0506329Y0953769D01*
X0506329Y0954767D02*
X0495281Y0954767D01*
X0494851Y0955766D02*
X0506329Y0955766D01*
X0506329Y0956764D02*
X0493941Y0956764D01*
X0493031Y0957763D02*
X0506329Y0957763D01*
X0506329Y0958761D02*
X0491931Y0958761D01*
X0489926Y0959760D02*
X0506329Y0959760D01*
X0506329Y0960758D02*
X0405329Y0960758D01*
X0405329Y0959760D02*
X0416522Y0959760D01*
X0414912Y0958761D02*
X0405329Y0958761D01*
X0405329Y0957763D02*
X0413590Y0957763D01*
X0412616Y0956764D02*
X0405329Y0956764D01*
X0405329Y0955766D02*
X0411998Y0955766D01*
X0411379Y0954767D02*
X0405329Y0954767D01*
X0405329Y0953769D02*
X0410825Y0953769D01*
X0410638Y0952770D02*
X0405329Y0952770D01*
X0405329Y0951772D02*
X0410451Y0951772D01*
X0410265Y0950773D02*
X0405329Y0950773D01*
X0405329Y0949775D02*
X0410181Y0949775D01*
X0410368Y0948776D02*
X0405329Y0948776D01*
X0405329Y0947778D02*
X0410554Y0947778D01*
X0410741Y0946779D02*
X0405329Y0946779D01*
X0405329Y0945781D02*
X0411102Y0945781D01*
X0411720Y0944782D02*
X0405329Y0944782D01*
X0405329Y0943784D02*
X0412339Y0943784D01*
X0412997Y0942785D02*
X0405329Y0942785D01*
X0405329Y0941787D02*
X0414319Y0941787D01*
X0415641Y0940788D02*
X0405329Y0940788D01*
X0405329Y0931801D02*
X0480634Y0931801D01*
X0479635Y0930803D02*
X0405329Y0930803D01*
X0404771Y0927807D02*
X0416940Y0927807D01*
X0416129Y0926809D02*
X0403952Y0926809D01*
X0406346Y0922815D02*
X0390313Y0922815D01*
X0390726Y0921816D02*
X0405933Y0921816D01*
X0405629Y0920818D02*
X0391029Y0920818D01*
X0391029Y0919819D02*
X0405629Y0919819D01*
X0405710Y0918821D02*
X0390949Y0918821D01*
X0390535Y0917822D02*
X0406124Y0917822D01*
X0406702Y0916824D02*
X0389957Y0916824D01*
X0388959Y0915825D02*
X0407700Y0915825D01*
X0408773Y0914827D02*
X0387886Y0914827D01*
X0389405Y0913828D02*
X0407254Y0913828D01*
X0406352Y0912830D02*
X0390306Y0912830D01*
X0390720Y0911831D02*
X0405939Y0911831D01*
X0405629Y0910833D02*
X0391029Y0910833D01*
X0391029Y0909834D02*
X0405629Y0909834D01*
X0405704Y0908836D02*
X0390955Y0908836D01*
X0390541Y0907837D02*
X0406118Y0907837D01*
X0406687Y0906839D02*
X0389972Y0906839D01*
X0388973Y0905840D02*
X0407685Y0905840D01*
X0408314Y0904155D02*
X0407702Y0903711D01*
X0407168Y0903177D01*
X0406724Y0902566D01*
X0406381Y0901893D01*
X0406148Y0901174D01*
X0406049Y0900550D01*
X0410329Y0900550D01*
X0410329Y0904831D01*
X0409705Y0904732D01*
X0408987Y0904498D01*
X0408314Y0904155D01*
X0407884Y0903843D02*
X0388775Y0903843D01*
X0388956Y0903711D02*
X0388345Y0904155D01*
X0387672Y0904498D01*
X0386953Y0904732D01*
X0386329Y0904831D01*
X0386329Y0900550D01*
X0390610Y0900550D01*
X0390511Y0901174D01*
X0390278Y0901893D01*
X0389935Y0902566D01*
X0389491Y0903177D01*
X0388956Y0903711D01*
X0389732Y0902845D02*
X0406927Y0902845D01*
X0406366Y0901846D02*
X0390293Y0901846D01*
X0390563Y0900848D02*
X0406096Y0900848D01*
X0406172Y0898851D02*
X0390487Y0898851D01*
X0390097Y0897852D02*
X0406562Y0897852D01*
X0407238Y0896853D02*
X0389421Y0896853D01*
X0388169Y0895855D02*
X0408490Y0895855D01*
X0410329Y0895855D02*
X0411329Y0895855D01*
X0411329Y0896853D02*
X0410329Y0896853D01*
X0410329Y0897852D02*
X0411329Y0897852D01*
X0411329Y0900848D02*
X0410329Y0900848D01*
X0410329Y0901846D02*
X0411329Y0901846D01*
X0411329Y0902845D02*
X0410329Y0902845D01*
X0410329Y0903843D02*
X0411329Y0903843D01*
X0400456Y0888865D02*
X0378463Y0888865D01*
X0377465Y0887867D02*
X0398400Y0887867D01*
X0396761Y0886868D02*
X0376466Y0886868D01*
X0375468Y0885870D02*
X0395562Y0885870D01*
X0394705Y0884871D02*
X0373918Y0884871D01*
X0381029Y0895855D02*
X0383490Y0895855D01*
X0382238Y0896853D02*
X0381029Y0896853D01*
X0381029Y0897852D02*
X0381562Y0897852D01*
X0381172Y0898851D02*
X0381029Y0898851D01*
X0385329Y0897852D02*
X0386329Y0897852D01*
X0386329Y0896853D02*
X0385329Y0896853D01*
X0385329Y0895855D02*
X0386329Y0895855D01*
X0386329Y0900848D02*
X0385329Y0900848D01*
X0385329Y0901846D02*
X0386329Y0901846D01*
X0386329Y0902845D02*
X0385329Y0902845D01*
X0385329Y0903843D02*
X0386329Y0903843D01*
X0381687Y0906839D02*
X0381029Y0906839D01*
X0381029Y0907837D02*
X0381118Y0907837D01*
X0381029Y0922815D02*
X0381346Y0922815D01*
X0381029Y0923813D02*
X0382239Y0923813D01*
X0381029Y0924812D02*
X0383737Y0924812D01*
X0388914Y0945781D02*
X0391329Y0945781D01*
X0391329Y0946779D02*
X0389912Y0946779D01*
X0390517Y0947778D02*
X0391329Y0947778D01*
X0391329Y0948776D02*
X0390930Y0948776D01*
X0391029Y0949775D02*
X0391329Y0949775D01*
X0391329Y0950773D02*
X0391029Y0950773D01*
X0390745Y0951772D02*
X0391329Y0951772D01*
X0391329Y0952770D02*
X0390331Y0952770D01*
X0389465Y0953769D02*
X0391329Y0953769D01*
X0391329Y0954767D02*
X0388029Y0954767D01*
X0388899Y0955766D02*
X0391329Y0955766D01*
X0391329Y0956764D02*
X0389897Y0956764D01*
X0390510Y0957763D02*
X0391329Y0957763D01*
X0391329Y0958761D02*
X0390924Y0958761D01*
X0391029Y0959760D02*
X0391329Y0959760D01*
X0391329Y0960758D02*
X0391029Y0960758D01*
X0390751Y0961757D02*
X0391329Y0961757D01*
X0391329Y0962755D02*
X0390337Y0962755D01*
X0389480Y0963754D02*
X0391329Y0963754D01*
X0391329Y0964752D02*
X0388065Y0964752D01*
X0390496Y0975736D02*
X0391329Y0975736D01*
X0386229Y0990714D02*
X0385429Y0990714D01*
X0385429Y0991712D02*
X0386229Y0991712D01*
X0386229Y0992711D02*
X0385429Y0992711D01*
X0385429Y0993709D02*
X0386229Y0993709D01*
X0390909Y0993709D02*
X0391329Y0993709D01*
X0391329Y0996705D02*
X0175329Y0996705D01*
X0175329Y0997703D02*
X0391329Y0997703D01*
X0391329Y0998702D02*
X0175329Y0998702D01*
X0175329Y0999700D02*
X0391329Y0999700D01*
X0391329Y1000699D02*
X0175329Y1000699D01*
X0175329Y1001697D02*
X0391329Y1001697D01*
X0391329Y1002696D02*
X0175329Y1002696D01*
X0175329Y1003694D02*
X0391329Y1003694D01*
X0391329Y1004693D02*
X0175329Y1004693D01*
X0175329Y1005691D02*
X0350548Y1005691D01*
X0350054Y1005896D02*
X0351855Y1005150D01*
X0359804Y1005150D01*
X0361605Y1005896D01*
X0362983Y1007274D01*
X0363729Y1009075D01*
X0363729Y1011025D01*
X0362983Y1012826D01*
X0361605Y1014204D01*
X0359804Y1014950D01*
X0351855Y1014950D01*
X0350054Y1014204D01*
X0348675Y1012826D01*
X0347929Y1011025D01*
X0347929Y1009075D01*
X0348675Y1007274D01*
X0350054Y1005896D01*
X0349260Y1006690D02*
X0175329Y1006690D01*
X0175329Y1007688D02*
X0348504Y1007688D01*
X0348090Y1008687D02*
X0175329Y1008687D01*
X0175329Y1009685D02*
X0198557Y1009685D01*
X0198593Y1009650D02*
X0203066Y1009650D01*
X0205829Y1012413D01*
X0208593Y1009650D01*
X0213066Y1009650D01*
X0215829Y1012413D01*
X0218593Y1009650D01*
X0223066Y1009650D01*
X0225829Y1012413D01*
X0228593Y1009650D01*
X0233066Y1009650D01*
X0235829Y1012413D01*
X0238593Y1009650D01*
X0243066Y1009650D01*
X0245829Y1012413D01*
X0248593Y1009650D01*
X0253066Y1009650D01*
X0255829Y1012413D01*
X0258593Y1009650D01*
X0263066Y1009650D01*
X0265829Y1012413D01*
X0268593Y1009650D01*
X0273066Y1009650D01*
X0275829Y1012413D01*
X0278593Y1009650D01*
X0283066Y1009650D01*
X0285829Y1012413D01*
X0288593Y1009650D01*
X0293066Y1009650D01*
X0296229Y1012813D01*
X0296229Y1017287D01*
X0293066Y1020450D01*
X0288593Y1020450D01*
X0285829Y1017687D01*
X0283066Y1020450D01*
X0278593Y1020450D01*
X0275829Y1017687D01*
X0273066Y1020450D01*
X0268593Y1020450D01*
X0265829Y1017687D01*
X0263066Y1020450D01*
X0258593Y1020450D01*
X0255829Y1017687D01*
X0253066Y1020450D01*
X0248593Y1020450D01*
X0245829Y1017687D01*
X0243066Y1020450D01*
X0238593Y1020450D01*
X0235829Y1017687D01*
X0233066Y1020450D01*
X0228593Y1020450D01*
X0225829Y1017687D01*
X0223066Y1020450D01*
X0218593Y1020450D01*
X0215829Y1017687D01*
X0213066Y1020450D01*
X0208593Y1020450D01*
X0205829Y1017687D01*
X0203066Y1020450D01*
X0198593Y1020450D01*
X0195429Y1017287D01*
X0195429Y1012813D01*
X0198593Y1009650D01*
X0197559Y1010684D02*
X0175329Y1010684D01*
X0175329Y1011682D02*
X0196560Y1011682D01*
X0195562Y1012681D02*
X0175329Y1012681D01*
X0175329Y1013679D02*
X0195429Y1013679D01*
X0195429Y1014678D02*
X0175329Y1014678D01*
X0175329Y1015676D02*
X0195429Y1015676D01*
X0195429Y1016675D02*
X0175329Y1016675D01*
X0175329Y1017673D02*
X0195816Y1017673D01*
X0196815Y1018672D02*
X0175329Y1018672D01*
X0175329Y1019670D02*
X0197813Y1019670D01*
X0203846Y1019670D02*
X0207813Y1019670D01*
X0206815Y1018672D02*
X0204844Y1018672D01*
X0205098Y1011682D02*
X0206560Y1011682D01*
X0207559Y1010684D02*
X0204100Y1010684D01*
X0203101Y1009685D02*
X0208557Y1009685D01*
X0213101Y1009685D02*
X0218557Y1009685D01*
X0217559Y1010684D02*
X0214100Y1010684D01*
X0215098Y1011682D02*
X0216560Y1011682D01*
X0223101Y1009685D02*
X0228557Y1009685D01*
X0227559Y1010684D02*
X0224100Y1010684D01*
X0225098Y1011682D02*
X0226560Y1011682D01*
X0233101Y1009685D02*
X0238557Y1009685D01*
X0237559Y1010684D02*
X0234100Y1010684D01*
X0235098Y1011682D02*
X0236560Y1011682D01*
X0243101Y1009685D02*
X0248557Y1009685D01*
X0247559Y1010684D02*
X0244100Y1010684D01*
X0245098Y1011682D02*
X0246560Y1011682D01*
X0246815Y1018672D02*
X0244844Y1018672D01*
X0243846Y1019670D02*
X0247813Y1019670D01*
X0253846Y1019670D02*
X0257813Y1019670D01*
X0256815Y1018672D02*
X0254844Y1018672D01*
X0255098Y1011682D02*
X0256560Y1011682D01*
X0257559Y1010684D02*
X0254100Y1010684D01*
X0253101Y1009685D02*
X0258557Y1009685D01*
X0263101Y1009685D02*
X0268557Y1009685D01*
X0267559Y1010684D02*
X0264100Y1010684D01*
X0265098Y1011682D02*
X0266560Y1011682D01*
X0266815Y1018672D02*
X0264844Y1018672D01*
X0263846Y1019670D02*
X0267813Y1019670D01*
X0273846Y1019670D02*
X0277813Y1019670D01*
X0276815Y1018672D02*
X0274844Y1018672D01*
X0275098Y1011682D02*
X0276560Y1011682D01*
X0277559Y1010684D02*
X0274100Y1010684D01*
X0273101Y1009685D02*
X0278557Y1009685D01*
X0283101Y1009685D02*
X0288557Y1009685D01*
X0287559Y1010684D02*
X0284100Y1010684D01*
X0285098Y1011682D02*
X0286560Y1011682D01*
X0293101Y1009685D02*
X0347929Y1009685D01*
X0347929Y1010684D02*
X0294100Y1010684D01*
X0295098Y1011682D02*
X0348202Y1011682D01*
X0348615Y1012681D02*
X0296097Y1012681D01*
X0296229Y1013679D02*
X0349529Y1013679D01*
X0351198Y1014678D02*
X0296229Y1014678D01*
X0296229Y1015676D02*
X0350584Y1015676D01*
X0350054Y1015896D02*
X0351855Y1015150D01*
X0359804Y1015150D01*
X0361605Y1015896D01*
X0362983Y1017274D01*
X0363729Y1019075D01*
X0363729Y1021025D01*
X0362983Y1022826D01*
X0361605Y1024204D01*
X0359804Y1024950D01*
X0351855Y1024950D01*
X0350054Y1024204D01*
X0348675Y1022826D01*
X0347929Y1021025D01*
X0347929Y1019075D01*
X0348675Y1017274D01*
X0350054Y1015896D01*
X0349275Y1016675D02*
X0296229Y1016675D01*
X0295843Y1017673D02*
X0348510Y1017673D01*
X0348096Y1018672D02*
X0294844Y1018672D01*
X0293846Y1019670D02*
X0347929Y1019670D01*
X0347929Y1020669D02*
X0175329Y1020669D01*
X0175329Y1021667D02*
X0348196Y1021667D01*
X0348609Y1022666D02*
X0175329Y1022666D01*
X0175329Y1023664D02*
X0349514Y1023664D01*
X0351162Y1024663D02*
X0175329Y1024663D01*
X0175329Y1025661D02*
X0307864Y1025661D01*
X0307884Y1025642D02*
X0309795Y1024850D01*
X0311864Y1024850D01*
X0313775Y1025642D01*
X0315238Y1027104D01*
X0316029Y1029016D01*
X0316029Y1031084D01*
X0315238Y1032996D01*
X0313775Y1034458D01*
X0311864Y1035250D01*
X0309795Y1035250D01*
X0307884Y1034458D01*
X0306421Y1032996D01*
X0305629Y1031084D01*
X0305629Y1029016D01*
X0306421Y1027104D01*
X0307884Y1025642D01*
X0306866Y1026660D02*
X0175329Y1026660D01*
X0175329Y1027658D02*
X0306192Y1027658D01*
X0305778Y1028657D02*
X0175329Y1028657D01*
X0175329Y1029655D02*
X0181809Y1029655D01*
X0179856Y1030654D02*
X0175329Y1030654D01*
X0175329Y1031653D02*
X0178534Y1031653D01*
X0177358Y1032651D02*
X0175329Y1032651D01*
X0175329Y1033650D02*
X0176739Y1033650D01*
X0176121Y1034648D02*
X0175329Y1034648D01*
X0175329Y1035647D02*
X0175503Y1035647D01*
X0189852Y1029655D02*
X0305629Y1029655D01*
X0305629Y1030654D02*
X0191858Y1030654D01*
X0193191Y1031653D02*
X0305865Y1031653D01*
X0306278Y1032651D02*
X0194102Y1032651D01*
X0195012Y1033650D02*
X0307075Y1033650D01*
X0308342Y1034648D02*
X0195638Y1034648D01*
X0196025Y1035647D02*
X0351866Y1035647D01*
X0351776Y1035661D02*
X0352475Y1035550D01*
X0355329Y1035550D01*
X0355329Y1039550D01*
X0348352Y1039550D01*
X0348440Y1038996D01*
X0348659Y1038323D01*
X0348981Y1037691D01*
X0349397Y1037118D01*
X0349898Y1036618D01*
X0350471Y1036201D01*
X0351102Y1035880D01*
X0351776Y1035661D01*
X0351855Y1034950D02*
X0350054Y1034204D01*
X0348675Y1032826D01*
X0347929Y1031025D01*
X0347929Y1029075D01*
X0348675Y1027274D01*
X0350054Y1025896D01*
X0351855Y1025150D01*
X0359804Y1025150D01*
X0361605Y1025896D01*
X0362983Y1027274D01*
X0363729Y1029075D01*
X0363729Y1031025D01*
X0362983Y1032826D01*
X0361605Y1034204D01*
X0359804Y1034950D01*
X0351855Y1034950D01*
X0351126Y1034648D02*
X0328317Y1034648D01*
X0328775Y1034458D02*
X0326864Y1035250D01*
X0324795Y1035250D01*
X0322884Y1034458D01*
X0321421Y1032996D01*
X0320629Y1031084D01*
X0320629Y1029016D01*
X0321421Y1027104D01*
X0322884Y1025642D01*
X0324795Y1024850D01*
X0326864Y1024850D01*
X0328775Y1025642D01*
X0330238Y1027104D01*
X0331029Y1029016D01*
X0331029Y1031084D01*
X0330238Y1032996D01*
X0328775Y1034458D01*
X0329584Y1033650D02*
X0349499Y1033650D01*
X0348603Y1032651D02*
X0330380Y1032651D01*
X0330794Y1031653D02*
X0348189Y1031653D01*
X0347929Y1030654D02*
X0331029Y1030654D01*
X0331029Y1029655D02*
X0347929Y1029655D01*
X0348103Y1028657D02*
X0330881Y1028657D01*
X0330467Y1027658D02*
X0348516Y1027658D01*
X0349290Y1026660D02*
X0329793Y1026660D01*
X0328795Y1025661D02*
X0350620Y1025661D01*
X0355329Y1035647D02*
X0356329Y1035647D01*
X0356329Y1035550D02*
X0359184Y1035550D01*
X0359883Y1035661D01*
X0360557Y1035880D01*
X0361188Y1036201D01*
X0361761Y1036618D01*
X0362262Y1037118D01*
X0362678Y1037691D01*
X0363000Y1038323D01*
X0363219Y1038996D01*
X0363306Y1039550D01*
X0356329Y1039550D01*
X0356329Y1035550D01*
X0356329Y1036645D02*
X0355329Y1036645D01*
X0355329Y1037644D02*
X0356329Y1037644D01*
X0356329Y1038642D02*
X0355329Y1038642D01*
X0355329Y1039550D02*
X0356329Y1039550D01*
X0356329Y1040550D01*
X0355329Y1040550D01*
X0355329Y1039550D01*
X0355329Y1039641D02*
X0196927Y1039641D01*
X0196927Y1040639D02*
X0197604Y1040639D01*
X0196927Y1038642D02*
X0348555Y1038642D01*
X0349015Y1037644D02*
X0196799Y1037644D01*
X0196412Y1036645D02*
X0349870Y1036645D01*
X0348352Y1040550D02*
X0355329Y1040550D01*
X0355329Y1044550D01*
X0352475Y1044550D01*
X0351776Y1044439D01*
X0351102Y1044220D01*
X0350471Y1043899D01*
X0349898Y1043482D01*
X0349397Y1042982D01*
X0348981Y1042409D01*
X0348659Y1041777D01*
X0348440Y1041104D01*
X0348352Y1040550D01*
X0348367Y1040639D02*
X0327782Y1040639D01*
X0327693Y1040550D02*
X0330329Y1043186D01*
X0330329Y1046914D01*
X0327693Y1049550D01*
X0323965Y1049550D01*
X0321329Y1046914D01*
X0321329Y1043186D01*
X0323965Y1040550D01*
X0327693Y1040550D01*
X0328781Y1041638D02*
X0348614Y1041638D01*
X0349146Y1042636D02*
X0329779Y1042636D01*
X0330329Y1043635D02*
X0350107Y1043635D01*
X0355329Y1043635D02*
X0356329Y1043635D01*
X0356329Y1044550D02*
X0356329Y1040550D01*
X0363306Y1040550D01*
X0363219Y1041104D01*
X0363000Y1041777D01*
X0362678Y1042409D01*
X0362262Y1042982D01*
X0361761Y1043482D01*
X0361188Y1043899D01*
X0360557Y1044220D01*
X0359883Y1044439D01*
X0359184Y1044550D01*
X0356329Y1044550D01*
X0356329Y1042636D02*
X0355329Y1042636D01*
X0355329Y1041638D02*
X0356329Y1041638D01*
X0356329Y1040639D02*
X0355329Y1040639D01*
X0356329Y1039641D02*
X0485206Y1039641D01*
X0485240Y1040639D02*
X0363292Y1040639D01*
X0363045Y1041638D02*
X0485426Y1041638D01*
X0485613Y1042636D02*
X0362513Y1042636D01*
X0361551Y1043635D02*
X0485799Y1043635D01*
X0486296Y1044633D02*
X0330329Y1044633D01*
X0330329Y1045632D02*
X0486915Y1045632D01*
X0487533Y1046630D02*
X0330329Y1046630D01*
X0329615Y1047629D02*
X0488412Y1047629D01*
X0489734Y1048627D02*
X0328616Y1048627D01*
X0323043Y1048627D02*
X0308616Y1048627D01*
X0307693Y1049550D02*
X0303965Y1049550D01*
X0301329Y1046914D01*
X0301329Y1043186D01*
X0303965Y1040550D01*
X0307693Y1040550D01*
X0310329Y1043186D01*
X0310329Y1046914D01*
X0307693Y1049550D01*
X0309615Y1047629D02*
X0322044Y1047629D01*
X0321329Y1046630D02*
X0310329Y1046630D01*
X0310329Y1045632D02*
X0321329Y1045632D01*
X0321329Y1044633D02*
X0310329Y1044633D01*
X0310329Y1043635D02*
X0321329Y1043635D01*
X0321879Y1042636D02*
X0309779Y1042636D01*
X0308781Y1041638D02*
X0322878Y1041638D01*
X0323876Y1040639D02*
X0307782Y1040639D01*
X0303876Y1040639D02*
X0294055Y1040639D01*
X0295054Y1041638D02*
X0302878Y1041638D01*
X0301879Y1042636D02*
X0296052Y1042636D01*
X0296229Y1043635D02*
X0301329Y1043635D01*
X0301329Y1044633D02*
X0296229Y1044633D01*
X0296229Y1045632D02*
X0301329Y1045632D01*
X0301329Y1046630D02*
X0296229Y1046630D01*
X0295887Y1047629D02*
X0302044Y1047629D01*
X0303043Y1048627D02*
X0294889Y1048627D01*
X0293890Y1049626D02*
X0491057Y1049626D01*
X0485393Y1038642D02*
X0363104Y1038642D01*
X0362643Y1037644D02*
X0485579Y1037644D01*
X0485766Y1036645D02*
X0361788Y1036645D01*
X0359793Y1035647D02*
X0486185Y1035647D01*
X0486803Y1034648D02*
X0360533Y1034648D01*
X0362159Y1033650D02*
X0487422Y1033650D01*
X0488174Y1032651D02*
X0363056Y1032651D01*
X0363469Y1031653D02*
X0489496Y1031653D01*
X0490819Y1030654D02*
X0363729Y1030654D01*
X0363729Y1029655D02*
X0394486Y1029655D01*
X0393778Y1029362D02*
X0393778Y1029362D01*
X0393072Y1028657D02*
X0363556Y1028657D01*
X0363142Y1027658D02*
X0392074Y1027658D01*
X0391626Y1026660D02*
X0362369Y1026660D01*
X0361039Y1025661D02*
X0391329Y1025661D01*
X0391329Y1024663D02*
X0360497Y1024663D01*
X0362145Y1023664D02*
X0391329Y1023664D01*
X0391329Y1022666D02*
X0363050Y1022666D01*
X0363463Y1021667D02*
X0391329Y1021667D01*
X0391329Y1020669D02*
X0363729Y1020669D01*
X0363729Y1019670D02*
X0391329Y1019670D01*
X0391329Y1018672D02*
X0363562Y1018672D01*
X0363149Y1017673D02*
X0391329Y1017673D01*
X0391329Y1016675D02*
X0362384Y1016675D01*
X0361075Y1015676D02*
X0391329Y1015676D01*
X0391329Y1014678D02*
X0360461Y1014678D01*
X0362130Y1013679D02*
X0391329Y1013679D01*
X0391329Y1012681D02*
X0363043Y1012681D01*
X0363457Y1011682D02*
X0391329Y1011682D01*
X0391329Y1010684D02*
X0363729Y1010684D01*
X0363729Y1009685D02*
X0391329Y1009685D01*
X0391329Y1008687D02*
X0363568Y1008687D01*
X0363155Y1007688D02*
X0391329Y1007688D01*
X0391329Y1006690D02*
X0362399Y1006690D01*
X0361111Y1005691D02*
X0391329Y1005691D01*
X0378941Y0988717D02*
X0371229Y0988717D01*
X0371134Y0987718D02*
X0379409Y0987718D01*
X0380298Y0986720D02*
X0370136Y0986720D01*
X0362850Y0994708D02*
X0328173Y0994708D01*
X0328775Y0994458D02*
X0326864Y0995250D01*
X0324795Y0995250D01*
X0322884Y0994458D01*
X0321421Y0992996D01*
X0320629Y0991084D01*
X0320629Y0989016D01*
X0321421Y0987104D01*
X0322884Y0985642D01*
X0324795Y0984850D01*
X0326864Y0984850D01*
X0328775Y0985642D01*
X0330238Y0987104D01*
X0331029Y0989016D01*
X0331029Y0991084D01*
X0330238Y0992996D01*
X0328775Y0994458D01*
X0329524Y0993709D02*
X0361852Y0993709D01*
X0360853Y0992711D02*
X0330356Y0992711D01*
X0330769Y0991712D02*
X0360429Y0991712D01*
X0360429Y0990714D02*
X0331029Y0990714D01*
X0331029Y0989715D02*
X0360429Y0989715D01*
X0360928Y0942785D02*
X0347058Y0942785D01*
X0347581Y0941787D02*
X0360429Y0941787D01*
X0360429Y0940788D02*
X0347929Y0940788D01*
X0347929Y0939789D02*
X0360429Y0939789D01*
X0360429Y0938791D02*
X0347779Y0938791D01*
X0347365Y0937792D02*
X0360450Y0937792D01*
X0361449Y0936794D02*
X0346537Y0936794D01*
X0344917Y0935795D02*
X0362447Y0935795D01*
X0365329Y0929804D02*
X0341129Y0929804D01*
X0341129Y0930803D02*
X0340529Y0930803D01*
X0340529Y0931801D02*
X0341129Y0931801D01*
X0341129Y0932800D02*
X0340529Y0932800D01*
X0340529Y0933798D02*
X0341129Y0933798D01*
X0336778Y0945781D02*
X0330329Y0945781D01*
X0330329Y0946779D02*
X0335136Y0946779D01*
X0334300Y0947778D02*
X0329466Y0947778D01*
X0328529Y0948776D02*
X0333886Y0948776D01*
X0333729Y0949775D02*
X0328529Y0949775D01*
X0328529Y0950773D02*
X0333729Y0950773D01*
X0334072Y0951772D02*
X0328529Y0951772D01*
X0328529Y0952770D02*
X0334586Y0952770D01*
X0335584Y0953769D02*
X0328529Y0953769D01*
X0318467Y0955766D02*
X0313192Y0955766D01*
X0314190Y0956764D02*
X0317468Y0956764D01*
X0316470Y0957763D02*
X0315189Y0957763D01*
X0315529Y0958761D02*
X0316129Y0958761D01*
X0316129Y0959760D02*
X0315529Y0959760D01*
X0315529Y0960758D02*
X0316129Y0960758D01*
X0316129Y0961757D02*
X0315529Y0961757D01*
X0314771Y0962755D02*
X0316888Y0962755D01*
X0317886Y0963754D02*
X0313772Y0963754D01*
X0307886Y0963754D02*
X0295829Y0963754D01*
X0295606Y0962755D02*
X0306888Y0962755D01*
X0306129Y0961757D02*
X0294607Y0961757D01*
X0293609Y0960758D02*
X0306129Y0960758D01*
X0306129Y0959760D02*
X0283176Y0959760D01*
X0284174Y0960758D02*
X0288050Y0960758D01*
X0287052Y0961757D02*
X0285173Y0961757D01*
X0290329Y0961757D02*
X0291329Y0961757D01*
X0291329Y0962755D02*
X0290329Y0962755D01*
X0290329Y0963754D02*
X0291329Y0963754D01*
X0291329Y0960758D02*
X0290329Y0960758D01*
X0286456Y0967748D02*
X0285768Y0967748D01*
X0284770Y0968746D02*
X0287455Y0968746D01*
X0288453Y0969745D02*
X0283771Y0969745D01*
X0290529Y0923813D02*
X0291129Y0923813D01*
X0291129Y0922815D02*
X0290529Y0922815D01*
X0290529Y0921816D02*
X0291129Y0921816D01*
X0291129Y0920818D02*
X0290529Y0920818D01*
X0303850Y0900848D02*
X0339584Y0900848D01*
X0349251Y0888865D02*
X0299129Y0888865D01*
X0298934Y0887867D02*
X0349251Y0887867D01*
X0349251Y0886868D02*
X0297936Y0886868D01*
X0296937Y0885870D02*
X0349251Y0885870D01*
X0349251Y0884871D02*
X0288005Y0884871D01*
X0289003Y0885870D02*
X0291721Y0885870D01*
X0290723Y0886868D02*
X0290002Y0886868D01*
X0294029Y0886868D02*
X0294629Y0886868D01*
X0294629Y0885870D02*
X0294029Y0885870D01*
X0294029Y0887867D02*
X0294629Y0887867D01*
X0294629Y0888865D02*
X0294029Y0888865D01*
X0294629Y0889864D02*
X0300259Y0889864D01*
X0294629Y0890862D02*
X0294029Y0890862D01*
X0294029Y0891861D02*
X0294629Y0891861D01*
X0294629Y0892859D02*
X0294029Y0892859D01*
X0294029Y0893858D02*
X0294629Y0893858D01*
X0291349Y0893858D02*
X0289375Y0893858D01*
X0283654Y0884871D02*
X0279505Y0884871D01*
X0280503Y0885870D02*
X0282656Y0885870D01*
X0281657Y0886868D02*
X0281502Y0886868D01*
X0278837Y0881876D02*
X0263974Y0881876D01*
X0264972Y0882874D02*
X0311751Y0882874D01*
X0312609Y0883873D02*
X0265971Y0883873D01*
X0266969Y0884871D02*
X0275154Y0884871D01*
X0274156Y0885870D02*
X0267968Y0885870D01*
X0268966Y0886868D02*
X0273157Y0886868D01*
X0272159Y0887867D02*
X0269965Y0887867D01*
X0270963Y0888865D02*
X0272129Y0888865D01*
X0272129Y0889864D02*
X0271962Y0889864D01*
X0264813Y0897852D02*
X0227529Y0897852D01*
X0227529Y0898851D02*
X0265812Y0898851D01*
X0266810Y0899849D02*
X0227529Y0899849D01*
X0227529Y0900848D02*
X0267809Y0900848D01*
X0268807Y0901846D02*
X0227422Y0901846D01*
X0226853Y0902845D02*
X0269806Y0902845D01*
X0270804Y0903843D02*
X0225855Y0903843D01*
X0224856Y0904842D02*
X0271806Y0904842D01*
X0263392Y0905840D02*
X0243266Y0905840D01*
X0244265Y0906839D02*
X0262394Y0906839D01*
X0261395Y0907837D02*
X0245263Y0907837D01*
X0245529Y0908836D02*
X0261129Y0908836D01*
X0261129Y0909834D02*
X0245529Y0909834D01*
X0245529Y0910833D02*
X0261129Y0910833D01*
X0261129Y0911831D02*
X0245529Y0911831D01*
X0244696Y0912830D02*
X0261962Y0912830D01*
X0263815Y0896853D02*
X0227529Y0896853D01*
X0227529Y0895855D02*
X0262816Y0895855D01*
X0261818Y0894856D02*
X0235877Y0894856D01*
X0236875Y0893858D02*
X0238849Y0893858D01*
X0241529Y0893858D02*
X0242129Y0893858D01*
X0242129Y0894850D02*
X0242129Y0890350D01*
X0246629Y0890350D01*
X0246629Y0892038D01*
X0243818Y0894850D01*
X0242129Y0894850D01*
X0242129Y0892859D02*
X0241529Y0892859D01*
X0241529Y0891861D02*
X0242129Y0891861D01*
X0242129Y0890862D02*
X0241529Y0890862D01*
X0242129Y0889864D02*
X0256825Y0889864D01*
X0257823Y0890862D02*
X0246629Y0890862D01*
X0246629Y0891861D02*
X0258822Y0891861D01*
X0259820Y0892859D02*
X0245808Y0892859D01*
X0244810Y0893858D02*
X0260819Y0893858D01*
X0255826Y0888865D02*
X0246629Y0888865D01*
X0246434Y0887867D02*
X0254828Y0887867D01*
X0253829Y0886868D02*
X0245436Y0886868D01*
X0244437Y0885870D02*
X0252831Y0885870D01*
X0251832Y0884871D02*
X0235505Y0884871D01*
X0236503Y0885870D02*
X0239221Y0885870D01*
X0238223Y0886868D02*
X0237502Y0886868D01*
X0241529Y0886868D02*
X0242129Y0886868D01*
X0242129Y0885870D02*
X0241529Y0885870D01*
X0241529Y0887867D02*
X0242129Y0887867D01*
X0242129Y0888865D02*
X0241529Y0888865D01*
X0238392Y0905840D02*
X0223858Y0905840D01*
X0222859Y0906839D02*
X0237394Y0906839D01*
X0236395Y0907837D02*
X0221861Y0907837D01*
X0220862Y0908836D02*
X0236129Y0908836D01*
X0236129Y0909834D02*
X0220529Y0909834D01*
X0220529Y0910833D02*
X0236129Y0910833D01*
X0236129Y0911831D02*
X0220529Y0911831D01*
X0219696Y0912830D02*
X0236962Y0912830D01*
X0237961Y0913828D02*
X0218698Y0913828D01*
X0213973Y0915825D02*
X0175329Y0915825D01*
X0175329Y0916824D02*
X0212975Y0916824D01*
X0211976Y0917822D02*
X0175329Y0917822D01*
X0175329Y0874886D02*
X0208394Y0874886D01*
X0207030Y0873888D02*
X0175329Y0873888D01*
X0175329Y0872889D02*
X0206161Y0872889D01*
X0205747Y0871891D02*
X0175329Y0871891D01*
X0175329Y0870892D02*
X0205429Y0870892D01*
X0205429Y0869894D02*
X0175329Y0869894D01*
X0175329Y0868895D02*
X0205463Y0868895D01*
X0205876Y0867897D02*
X0175329Y0867897D01*
X0175329Y0866898D02*
X0206344Y0866898D01*
X0207343Y0865900D02*
X0175329Y0865900D01*
X0175329Y0864901D02*
X0209149Y0864901D01*
X0212510Y0864901D02*
X0219149Y0864901D01*
X0217343Y0865900D02*
X0214316Y0865900D01*
X0215314Y0866898D02*
X0216344Y0866898D01*
X0215876Y0867897D02*
X0215782Y0867897D01*
X0215498Y0872889D02*
X0216161Y0872889D01*
X0217030Y0873888D02*
X0214628Y0873888D01*
X0213265Y0874886D02*
X0218394Y0874886D01*
X0223265Y0874886D02*
X0228394Y0874886D01*
X0227030Y0873888D02*
X0224628Y0873888D01*
X0225498Y0872889D02*
X0226161Y0872889D01*
X0225876Y0867897D02*
X0225782Y0867897D01*
X0225314Y0866898D02*
X0226344Y0866898D01*
X0227343Y0865900D02*
X0224316Y0865900D01*
X0222510Y0864901D02*
X0229149Y0864901D01*
X0231154Y0884871D02*
X0227005Y0884871D01*
X0228003Y0885870D02*
X0230156Y0885870D01*
X0229157Y0886868D02*
X0229002Y0886868D01*
X0228375Y0893858D02*
X0229783Y0893858D01*
X0230782Y0894856D02*
X0227529Y0894856D01*
X0245782Y0867897D02*
X0245876Y0867897D01*
X0246344Y0866898D02*
X0245314Y0866898D01*
X0244316Y0865900D02*
X0247343Y0865900D01*
X0249149Y0864901D02*
X0242510Y0864901D01*
X0252510Y0864901D02*
X0259149Y0864901D01*
X0257343Y0865900D02*
X0254316Y0865900D01*
X0255314Y0866898D02*
X0256344Y0866898D01*
X0255876Y0867897D02*
X0255782Y0867897D01*
X0255498Y0872889D02*
X0256161Y0872889D01*
X0255985Y0873888D02*
X0257030Y0873888D01*
X0256984Y0874886D02*
X0258394Y0874886D01*
X0257983Y0875885D02*
X0272846Y0875885D01*
X0273844Y0876883D02*
X0258981Y0876883D01*
X0259980Y0877882D02*
X0274843Y0877882D01*
X0275841Y0878880D02*
X0260978Y0878880D01*
X0261977Y0879879D02*
X0276840Y0879879D01*
X0277838Y0880877D02*
X0262975Y0880877D01*
X0263265Y0874886D02*
X0268394Y0874886D01*
X0267030Y0873888D02*
X0264628Y0873888D01*
X0265498Y0872889D02*
X0266161Y0872889D01*
X0265876Y0867897D02*
X0265782Y0867897D01*
X0265314Y0866898D02*
X0266344Y0866898D01*
X0267343Y0865900D02*
X0264316Y0865900D01*
X0262510Y0864901D02*
X0269149Y0864901D01*
X0272510Y0864901D02*
X0279149Y0864901D01*
X0277343Y0865900D02*
X0274316Y0865900D01*
X0275314Y0866898D02*
X0276344Y0866898D01*
X0275876Y0867897D02*
X0275782Y0867897D01*
X0282510Y0864901D02*
X0289149Y0864901D01*
X0287343Y0865900D02*
X0284316Y0865900D01*
X0285314Y0866898D02*
X0286344Y0866898D01*
X0285876Y0867897D02*
X0285782Y0867897D01*
X0285498Y0872889D02*
X0286161Y0872889D01*
X0287030Y0873888D02*
X0284628Y0873888D01*
X0283265Y0874886D02*
X0288394Y0874886D01*
X0293265Y0874886D02*
X0298394Y0874886D01*
X0297030Y0873888D02*
X0294628Y0873888D01*
X0295498Y0872889D02*
X0296161Y0872889D01*
X0295876Y0867897D02*
X0295782Y0867897D01*
X0295314Y0866898D02*
X0296344Y0866898D01*
X0297343Y0865900D02*
X0294316Y0865900D01*
X0292510Y0864901D02*
X0299149Y0864901D01*
X0302510Y0864901D02*
X0309149Y0864901D01*
X0307343Y0865900D02*
X0304316Y0865900D01*
X0305314Y0866898D02*
X0306344Y0866898D01*
X0305876Y0867897D02*
X0305782Y0867897D01*
X0305498Y0872889D02*
X0306161Y0872889D01*
X0307030Y0873888D02*
X0304628Y0873888D01*
X0303265Y0874886D02*
X0308394Y0874886D01*
X0311953Y0876883D02*
X0281481Y0876883D01*
X0280483Y0875885D02*
X0391316Y0875885D01*
X0391329Y0876883D02*
X0319706Y0876883D01*
X0319907Y0877882D02*
X0391423Y0877882D01*
X0391504Y0878880D02*
X0319907Y0878880D01*
X0319907Y0879879D02*
X0391850Y0879879D01*
X0392266Y0880877D02*
X0319907Y0880877D01*
X0319907Y0881876D02*
X0392683Y0881876D01*
X0393099Y0882874D02*
X0319907Y0882874D01*
X0319049Y0883873D02*
X0349964Y0883873D01*
X0356695Y0883873D02*
X0393848Y0883873D01*
X0391329Y0874886D02*
X0355680Y0874886D01*
X0356229Y0873888D02*
X0391329Y0873888D01*
X0391329Y0872889D02*
X0356229Y0872889D01*
X0356229Y0871891D02*
X0391329Y0871891D01*
X0391329Y0870892D02*
X0356229Y0870892D01*
X0356229Y0869894D02*
X0391329Y0869894D01*
X0391329Y0868895D02*
X0356229Y0868895D01*
X0356229Y0867897D02*
X0391329Y0867897D01*
X0391329Y0866898D02*
X0356229Y0866898D01*
X0356229Y0865900D02*
X0391329Y0865900D01*
X0391329Y0864901D02*
X0355368Y0864901D01*
X0355658Y0859909D02*
X0391329Y0859909D01*
X0391329Y0860907D02*
X0175329Y0860907D01*
X0175329Y0859909D02*
X0208448Y0859909D01*
X0207053Y0858910D02*
X0175329Y0858910D01*
X0175329Y0857912D02*
X0206170Y0857912D01*
X0205756Y0856913D02*
X0175329Y0856913D01*
X0175329Y0855915D02*
X0205429Y0855915D01*
X0205429Y0854916D02*
X0175329Y0854916D01*
X0175329Y0853918D02*
X0205454Y0853918D01*
X0205867Y0852919D02*
X0175329Y0852919D01*
X0175329Y0851920D02*
X0206322Y0851920D01*
X0207321Y0850922D02*
X0175329Y0850922D01*
X0175329Y0861906D02*
X0391329Y0861906D01*
X0391329Y0862904D02*
X0175329Y0862904D01*
X0175329Y0863903D02*
X0391329Y0863903D01*
X0391329Y0858910D02*
X0356229Y0858910D01*
X0356229Y0857912D02*
X0391329Y0857912D01*
X0391329Y0856913D02*
X0356229Y0856913D01*
X0356229Y0855915D02*
X0391329Y0855915D01*
X0391329Y0854916D02*
X0356229Y0854916D01*
X0356229Y0853918D02*
X0391329Y0853918D01*
X0391329Y0852919D02*
X0356229Y0852919D01*
X0356229Y0851920D02*
X0391329Y0851920D01*
X0391329Y0850922D02*
X0356229Y0850922D01*
X0355390Y0849923D02*
X0391329Y0849923D01*
X0391329Y0848925D02*
X0336981Y0848925D01*
X0337229Y0847926D02*
X0391329Y0847926D01*
X0391329Y0846928D02*
X0337229Y0846928D01*
X0336879Y0845929D02*
X0391329Y0845929D01*
X0391329Y0844931D02*
X0336226Y0844931D01*
X0334787Y0843932D02*
X0391329Y0843932D01*
X0391329Y0842934D02*
X0332532Y0842934D01*
X0329429Y0847750D02*
X0296948Y0847750D01*
X0294057Y0850641D01*
X0295407Y0851991D01*
X0295829Y0853010D01*
X0296251Y0851991D01*
X0297771Y0850472D01*
X0299755Y0849650D01*
X0301904Y0849650D01*
X0303888Y0850472D01*
X0305407Y0851991D01*
X0305829Y0853010D01*
X0306251Y0851991D01*
X0307771Y0850472D01*
X0309755Y0849650D01*
X0311904Y0849650D01*
X0313888Y0850472D01*
X0315407Y0851991D01*
X0316057Y0853559D01*
X0316196Y0853131D01*
X0316553Y0852429D01*
X0317016Y0851793D01*
X0317572Y0851236D01*
X0318209Y0850774D01*
X0318910Y0850416D01*
X0319659Y0850173D01*
X0320429Y0850051D01*
X0320429Y0854650D01*
X0321229Y0854650D01*
X0321229Y0850051D01*
X0322000Y0850173D01*
X0322749Y0850416D01*
X0323450Y0850774D01*
X0324087Y0851236D01*
X0324643Y0851793D01*
X0325106Y0852429D01*
X0325463Y0853131D01*
X0325602Y0853559D01*
X0326251Y0851991D01*
X0327771Y0850472D01*
X0329755Y0849650D01*
X0329978Y0849650D01*
X0329429Y0848326D01*
X0329429Y0847750D01*
X0329429Y0847926D02*
X0296771Y0847926D01*
X0295773Y0848925D02*
X0329678Y0848925D01*
X0329095Y0849923D02*
X0312564Y0849923D01*
X0314338Y0850922D02*
X0318005Y0850922D01*
X0316923Y0851920D02*
X0315337Y0851920D01*
X0315792Y0852919D02*
X0316304Y0852919D01*
X0316177Y0856913D02*
X0315903Y0856913D01*
X0315489Y0857912D02*
X0316728Y0857912D01*
X0317636Y0858910D02*
X0314606Y0858910D01*
X0313211Y0859909D02*
X0319602Y0859909D01*
X0320429Y0859909D02*
X0321229Y0859909D01*
X0322057Y0859909D02*
X0328448Y0859909D01*
X0327053Y0858910D02*
X0324023Y0858910D01*
X0324931Y0857912D02*
X0326170Y0857912D01*
X0325756Y0856913D02*
X0325481Y0856913D01*
X0325355Y0852919D02*
X0325867Y0852919D01*
X0326322Y0851920D02*
X0324736Y0851920D01*
X0323654Y0850922D02*
X0327321Y0850922D01*
X0321229Y0850922D02*
X0320429Y0850922D01*
X0320429Y0851920D02*
X0321229Y0851920D01*
X0321229Y0852919D02*
X0320429Y0852919D01*
X0320429Y0853918D02*
X0321229Y0853918D01*
X0321229Y0855915D02*
X0320429Y0855915D01*
X0320429Y0856913D02*
X0321229Y0856913D01*
X0321229Y0857912D02*
X0320429Y0857912D01*
X0320429Y0858910D02*
X0321229Y0858910D01*
X0321229Y0865900D02*
X0320429Y0865900D01*
X0320429Y0866898D02*
X0321229Y0866898D01*
X0321229Y0867897D02*
X0320429Y0867897D01*
X0320429Y0868895D02*
X0321229Y0868895D01*
X0321229Y0870892D02*
X0320429Y0870892D01*
X0320429Y0871891D02*
X0321229Y0871891D01*
X0321229Y0872889D02*
X0320429Y0872889D01*
X0320429Y0873888D02*
X0321229Y0873888D01*
X0321229Y0874886D02*
X0320429Y0874886D01*
X0319534Y0874886D02*
X0313265Y0874886D01*
X0314628Y0873888D02*
X0317605Y0873888D01*
X0316712Y0872889D02*
X0315498Y0872889D01*
X0315912Y0871891D02*
X0316170Y0871891D01*
X0316315Y0867897D02*
X0315782Y0867897D01*
X0315314Y0866898D02*
X0316939Y0866898D01*
X0318035Y0865900D02*
X0314316Y0865900D01*
X0312510Y0864901D02*
X0329149Y0864901D01*
X0327343Y0865900D02*
X0323623Y0865900D01*
X0324720Y0866898D02*
X0326344Y0866898D01*
X0325876Y0867897D02*
X0325344Y0867897D01*
X0325489Y0871891D02*
X0325747Y0871891D01*
X0326161Y0872889D02*
X0324947Y0872889D01*
X0324054Y0873888D02*
X0327030Y0873888D01*
X0328394Y0874886D02*
X0322125Y0874886D01*
X0333265Y0874886D02*
X0338394Y0874886D01*
X0337030Y0873888D02*
X0334628Y0873888D01*
X0335498Y0872889D02*
X0336161Y0872889D01*
X0335876Y0867897D02*
X0335782Y0867897D01*
X0335314Y0866898D02*
X0336344Y0866898D01*
X0337343Y0865900D02*
X0334316Y0865900D01*
X0332510Y0864901D02*
X0339149Y0864901D01*
X0342510Y0864901D02*
X0346291Y0864901D01*
X0345429Y0865900D02*
X0344316Y0865900D01*
X0345314Y0866898D02*
X0345429Y0866898D01*
X0345429Y0873888D02*
X0344628Y0873888D01*
X0345979Y0874886D02*
X0343265Y0874886D01*
X0343211Y0859909D02*
X0346001Y0859909D01*
X0345429Y0858910D02*
X0344606Y0858910D01*
X0338448Y0859909D02*
X0333211Y0859909D01*
X0334606Y0858910D02*
X0337053Y0858910D01*
X0336170Y0857912D02*
X0335489Y0857912D01*
X0335792Y0852919D02*
X0335867Y0852919D01*
X0336322Y0851920D02*
X0335337Y0851920D01*
X0335380Y0850922D02*
X0337321Y0850922D01*
X0336471Y0849923D02*
X0339095Y0849923D01*
X0342564Y0849923D02*
X0346269Y0849923D01*
X0345429Y0850922D02*
X0344338Y0850922D01*
X0345337Y0851920D02*
X0345429Y0851920D01*
X0352995Y0799998D02*
X0391329Y0799998D01*
X0391329Y0798999D02*
X0354517Y0798999D01*
X0355452Y0798001D02*
X0391329Y0798001D01*
X0391329Y0797002D02*
X0355866Y0797002D01*
X0356229Y0796004D02*
X0391329Y0796004D01*
X0391329Y0795005D02*
X0384433Y0795005D01*
X0386438Y0794007D02*
X0391329Y0794007D01*
X0391329Y0793008D02*
X0387807Y0793008D01*
X0388717Y0792010D02*
X0391329Y0792010D01*
X0391329Y0791011D02*
X0389627Y0791011D01*
X0390186Y0790013D02*
X0391329Y0790013D01*
X0391329Y0789014D02*
X0390573Y0789014D01*
X0390960Y0788016D02*
X0391329Y0788016D01*
X0377385Y0795005D02*
X0356229Y0795005D01*
X0356229Y0794007D02*
X0375237Y0794007D01*
X0373915Y0793008D02*
X0355829Y0793008D01*
X0355415Y0792010D02*
X0372768Y0792010D01*
X0372150Y0791011D02*
X0354427Y0791011D01*
X0352779Y0790013D02*
X0371531Y0790013D01*
X0370135Y0785020D02*
X0352941Y0785020D01*
X0354494Y0784022D02*
X0370322Y0784022D01*
X0370508Y0783023D02*
X0355443Y0783023D01*
X0355856Y0782025D02*
X0370695Y0782025D01*
X0370950Y0781026D02*
X0356229Y0781026D01*
X0356229Y0780028D02*
X0371568Y0780028D01*
X0372187Y0779029D02*
X0356229Y0779029D01*
X0355838Y0778031D02*
X0372805Y0778031D01*
X0373994Y0777032D02*
X0355424Y0777032D01*
X0354450Y0776034D02*
X0375316Y0776034D01*
X0377595Y0775035D02*
X0352833Y0775035D01*
X0391329Y0822964D02*
X0175329Y0822964D01*
X0175329Y0823962D02*
X0391329Y0823962D01*
X0391329Y0824961D02*
X0175329Y0824961D01*
X0175329Y0825959D02*
X0391329Y0825959D01*
X0391329Y0826958D02*
X0175329Y0826958D01*
X0175329Y0827956D02*
X0391329Y0827956D01*
X0391329Y0828955D02*
X0175329Y0828955D01*
X0175329Y0829953D02*
X0391329Y0829953D01*
X0391329Y0830952D02*
X0175329Y0830952D01*
X0175329Y0831950D02*
X0391329Y0831950D01*
X0425825Y0940788D02*
X0480641Y0940788D01*
X0479319Y0941787D02*
X0427529Y0941787D01*
X0428439Y0942785D02*
X0477997Y0942785D01*
X0477339Y0943784D02*
X0429349Y0943784D01*
X0430068Y0944782D02*
X0476720Y0944782D01*
X0476102Y0945781D02*
X0430455Y0945781D01*
X0430842Y0946779D02*
X0475741Y0946779D01*
X0475554Y0947778D02*
X0431229Y0947778D01*
X0431347Y0948776D02*
X0475368Y0948776D01*
X0475181Y0949775D02*
X0431347Y0949775D01*
X0431347Y0950773D02*
X0475265Y0950773D01*
X0475451Y0951772D02*
X0431347Y0951772D01*
X0431055Y0952770D02*
X0475638Y0952770D01*
X0475825Y0953769D02*
X0430668Y0953769D01*
X0430281Y0954767D02*
X0476379Y0954767D01*
X0476998Y0955766D02*
X0429851Y0955766D01*
X0428941Y0956764D02*
X0477616Y0956764D01*
X0478590Y0957763D02*
X0428031Y0957763D01*
X0426931Y0958761D02*
X0479912Y0958761D01*
X0481522Y0959760D02*
X0424926Y0959760D01*
X0419167Y0965751D02*
X0506329Y0965751D01*
X0506329Y0966749D02*
X0420165Y0966749D01*
X0421164Y0967748D02*
X0506329Y0967748D01*
X0506329Y0968746D02*
X0421229Y0968746D01*
X0421229Y0967813D02*
X0421229Y0972287D01*
X0418183Y0975333D01*
X0420829Y0977979D01*
X0420829Y0979550D01*
X0416329Y0979550D01*
X0416329Y0980550D01*
X0420829Y0980550D01*
X0420829Y0982121D01*
X0418183Y0984767D01*
X0421229Y0987813D01*
X0421229Y0992287D01*
X0418466Y0995050D01*
X0421229Y0997813D01*
X0421229Y1002287D01*
X0418183Y1005333D01*
X0420829Y1007979D01*
X0420829Y1009550D01*
X0416329Y1009550D01*
X0416329Y1010550D01*
X0420829Y1010550D01*
X0420829Y1012121D01*
X0418183Y1014767D01*
X0421229Y1017813D01*
X0421229Y1022287D01*
X0418066Y1025450D01*
X0413593Y1025450D01*
X0410429Y1022287D01*
X0410429Y1017813D01*
X0413476Y1014767D01*
X0410829Y1012121D01*
X0410829Y1010550D01*
X0415329Y1010550D01*
X0415329Y1009550D01*
X0410829Y1009550D01*
X0410829Y1007979D01*
X0413476Y1005333D01*
X0410429Y1002287D01*
X0410429Y0997813D01*
X0413193Y0995050D01*
X0410429Y0992287D01*
X0410429Y0987813D01*
X0413476Y0984767D01*
X0410829Y0982121D01*
X0410829Y0980550D01*
X0415329Y0980550D01*
X0415329Y0979550D01*
X0410829Y0979550D01*
X0410829Y0977979D01*
X0413476Y0975333D01*
X0410429Y0972287D01*
X0410429Y0967813D01*
X0413593Y0964650D01*
X0418066Y0964650D01*
X0421229Y0967813D01*
X0421229Y0969745D02*
X0506329Y0969745D01*
X0506329Y0970743D02*
X0421229Y0970743D01*
X0421229Y0971742D02*
X0506329Y0971742D01*
X0506329Y0972740D02*
X0420776Y0972740D01*
X0419777Y0973739D02*
X0506329Y0973739D01*
X0506329Y0974737D02*
X0418779Y0974737D01*
X0418586Y0975736D02*
X0506329Y0975736D01*
X0506329Y0976734D02*
X0419585Y0976734D01*
X0420583Y0977733D02*
X0506329Y0977733D01*
X0506329Y0978731D02*
X0420829Y0978731D01*
X0420829Y0980728D02*
X0506329Y0980728D01*
X0506329Y0979730D02*
X0416329Y0979730D01*
X0415329Y0979730D02*
X0405329Y0979730D01*
X0405329Y0980728D02*
X0410829Y0980728D01*
X0410829Y0981727D02*
X0405329Y0981727D01*
X0405329Y0982725D02*
X0411434Y0982725D01*
X0412432Y0983724D02*
X0405329Y0983724D01*
X0405329Y0984722D02*
X0413431Y0984722D01*
X0412522Y0985721D02*
X0405329Y0985721D01*
X0405329Y0986720D02*
X0411523Y0986720D01*
X0410525Y0987718D02*
X0405329Y0987718D01*
X0405329Y0988717D02*
X0410429Y0988717D01*
X0410429Y0989715D02*
X0405329Y0989715D01*
X0405329Y0990714D02*
X0410429Y0990714D01*
X0410429Y0991712D02*
X0405329Y0991712D01*
X0405329Y0992711D02*
X0410853Y0992711D01*
X0411852Y0993709D02*
X0405329Y0993709D01*
X0405329Y0994708D02*
X0412850Y0994708D01*
X0412537Y0995706D02*
X0405329Y0995706D01*
X0405329Y0996705D02*
X0411538Y0996705D01*
X0410540Y0997703D02*
X0405329Y0997703D01*
X0405329Y0998702D02*
X0410429Y0998702D01*
X0410429Y0999700D02*
X0405329Y0999700D01*
X0405329Y1000699D02*
X0410429Y1000699D01*
X0410429Y1001697D02*
X0405329Y1001697D01*
X0405329Y1002696D02*
X0410838Y1002696D01*
X0411837Y1003694D02*
X0405329Y1003694D01*
X0405329Y1004693D02*
X0412835Y1004693D01*
X0413117Y1005691D02*
X0405329Y1005691D01*
X0405329Y1006690D02*
X0412119Y1006690D01*
X0411120Y1007688D02*
X0405329Y1007688D01*
X0405329Y1008687D02*
X0410829Y1008687D01*
X0410829Y1010684D02*
X0405329Y1010684D01*
X0405329Y1011682D02*
X0410829Y1011682D01*
X0411389Y1012681D02*
X0405329Y1012681D01*
X0405329Y1013679D02*
X0412388Y1013679D01*
X0413386Y1014678D02*
X0405329Y1014678D01*
X0405329Y1015676D02*
X0412566Y1015676D01*
X0411568Y1016675D02*
X0405329Y1016675D01*
X0405329Y1017673D02*
X0410569Y1017673D01*
X0410429Y1018672D02*
X0405329Y1018672D01*
X0405329Y1019670D02*
X0410429Y1019670D01*
X0410429Y1020669D02*
X0405329Y1020669D01*
X0405329Y1021667D02*
X0410429Y1021667D01*
X0410809Y1022666D02*
X0405329Y1022666D01*
X0405329Y1023664D02*
X0411807Y1023664D01*
X0412806Y1024663D02*
X0405329Y1024663D01*
X0405329Y1025661D02*
X0506329Y1025661D01*
X0506329Y1024663D02*
X0418853Y1024663D01*
X0419852Y1023664D02*
X0506329Y1023664D01*
X0506329Y1022666D02*
X0420850Y1022666D01*
X0421229Y1021667D02*
X0506329Y1021667D01*
X0506329Y1020669D02*
X0421229Y1020669D01*
X0421229Y1019670D02*
X0506329Y1019670D01*
X0506329Y1018672D02*
X0421229Y1018672D01*
X0421089Y1017673D02*
X0506329Y1017673D01*
X0506329Y1016675D02*
X0420091Y1016675D01*
X0419092Y1015676D02*
X0506329Y1015676D01*
X0506329Y1014678D02*
X0418273Y1014678D01*
X0419271Y1013679D02*
X0506329Y1013679D01*
X0506329Y1012681D02*
X0420270Y1012681D01*
X0420829Y1011682D02*
X0506329Y1011682D01*
X0506329Y1010684D02*
X0420829Y1010684D01*
X0420829Y1008687D02*
X0506329Y1008687D01*
X0506329Y1009685D02*
X0416329Y1009685D01*
X0415329Y1009685D02*
X0405329Y1009685D01*
X0418542Y1005691D02*
X0506329Y1005691D01*
X0506329Y1004693D02*
X0418823Y1004693D01*
X0419822Y1003694D02*
X0506329Y1003694D01*
X0506329Y1002696D02*
X0420820Y1002696D01*
X0421229Y1001697D02*
X0506329Y1001697D01*
X0506329Y1000699D02*
X0421229Y1000699D01*
X0421229Y0999700D02*
X0506329Y0999700D01*
X0506329Y0998702D02*
X0421229Y0998702D01*
X0421119Y0997703D02*
X0506329Y0997703D01*
X0506329Y0996705D02*
X0420121Y0996705D01*
X0419122Y0995706D02*
X0506329Y0995706D01*
X0506329Y0994708D02*
X0418809Y0994708D01*
X0419807Y0993709D02*
X0506329Y0993709D01*
X0506329Y0992711D02*
X0420806Y0992711D01*
X0421229Y0991712D02*
X0506329Y0991712D01*
X0506329Y0990714D02*
X0421229Y0990714D01*
X0421229Y0989715D02*
X0506329Y0989715D01*
X0506329Y0988717D02*
X0421229Y0988717D01*
X0421134Y0987718D02*
X0506329Y0987718D01*
X0506329Y0986720D02*
X0420136Y0986720D01*
X0419137Y0985721D02*
X0506329Y0985721D01*
X0506329Y0984722D02*
X0418228Y0984722D01*
X0419226Y0983724D02*
X0506329Y0983724D01*
X0506329Y0982725D02*
X0420225Y0982725D01*
X0420829Y0981727D02*
X0506329Y0981727D01*
X0506329Y0964752D02*
X0418168Y0964752D01*
X0413490Y0964752D02*
X0405329Y0964752D01*
X0405329Y0963754D02*
X0506329Y0963754D01*
X0506329Y0962755D02*
X0405329Y0962755D01*
X0405329Y0961757D02*
X0506329Y0961757D01*
X0490634Y0931801D02*
X0486025Y0931801D01*
X0487023Y0930803D02*
X0489635Y0930803D01*
X0489052Y0929804D02*
X0487607Y0929804D01*
X0488021Y0928806D02*
X0488638Y0928806D01*
X0488629Y0927807D02*
X0488029Y0927807D01*
X0488029Y0926809D02*
X0488629Y0926809D01*
X0488629Y0925810D02*
X0488029Y0925810D01*
X0488029Y0924812D02*
X0488629Y0924812D01*
X0488629Y0923813D02*
X0488029Y0923813D01*
X0488029Y0922815D02*
X0488629Y0922815D01*
X0488629Y0921816D02*
X0488029Y0921816D01*
X0487823Y0920818D02*
X0488835Y0920818D01*
X0489249Y0919819D02*
X0487410Y0919819D01*
X0486547Y0918821D02*
X0490112Y0918821D01*
X0491737Y0917822D02*
X0484921Y0917822D01*
X0485329Y0916824D02*
X0491329Y0916824D01*
X0491329Y0915825D02*
X0485329Y0915825D01*
X0485329Y0914827D02*
X0491329Y0914827D01*
X0491329Y0913828D02*
X0485329Y0913828D01*
X0484973Y0912830D02*
X0491686Y0912830D01*
X0492684Y0911831D02*
X0483975Y0911831D01*
X0482976Y0910833D02*
X0493683Y0910833D01*
X0506329Y1006690D02*
X0419540Y1006690D01*
X0420539Y1007688D02*
X0506329Y1007688D01*
X0506329Y1026660D02*
X0405033Y1026660D01*
X0404585Y1027658D02*
X0506329Y1027658D01*
X0506329Y1028657D02*
X0403586Y1028657D01*
X0403378Y1028865D02*
X0403378Y1028865D01*
X0402881Y1029362D02*
X0402881Y1029362D01*
X0402173Y1029655D02*
X0493929Y1029655D01*
X0497646Y1029655D02*
X0506329Y1029655D01*
X0506329Y1030654D02*
X0500556Y1030654D01*
X0502406Y1031653D02*
X0506329Y1031653D01*
X0506329Y1032651D02*
X0503317Y1032651D01*
X0504227Y1033650D02*
X0506329Y1033650D01*
X0506329Y1034648D02*
X0505016Y1034648D01*
X0505403Y1035647D02*
X0506329Y1035647D01*
X0506329Y1036645D02*
X0505790Y1036645D01*
X0506177Y1037644D02*
X0506329Y1037644D01*
X0413072Y0975736D02*
X0405329Y0975736D01*
X0405329Y0976734D02*
X0412074Y0976734D01*
X0411075Y0977733D02*
X0405329Y0977733D01*
X0405329Y0978731D02*
X0410829Y0978731D01*
X0412880Y0974737D02*
X0405329Y0974737D01*
X0405329Y0973739D02*
X0411882Y0973739D01*
X0410883Y0972740D02*
X0405329Y0972740D01*
X0405329Y0971742D02*
X0410429Y0971742D01*
X0410429Y0970743D02*
X0405329Y0970743D01*
X0405329Y0969745D02*
X0410429Y0969745D01*
X0410429Y0968746D02*
X0405329Y0968746D01*
X0405329Y0967748D02*
X0410495Y0967748D01*
X0411493Y0966749D02*
X0405329Y0966749D01*
X0405329Y0965751D02*
X0412492Y0965751D01*
X0335532Y0988717D02*
X0330905Y0988717D01*
X0330492Y0987718D02*
X0334533Y0987718D01*
X0334050Y0986720D02*
X0329853Y0986720D01*
X0328854Y0985721D02*
X0333729Y0985721D01*
X0322804Y0985721D02*
X0313854Y0985721D01*
X0314853Y0986720D02*
X0321806Y0986720D01*
X0321167Y0987718D02*
X0315492Y0987718D01*
X0315905Y0988717D02*
X0320753Y0988717D01*
X0320629Y0989715D02*
X0316029Y0989715D01*
X0316029Y0990714D02*
X0320629Y0990714D01*
X0320889Y0991712D02*
X0315769Y0991712D01*
X0315356Y0992711D02*
X0321303Y0992711D01*
X0322135Y0993709D02*
X0314524Y0993709D01*
X0313173Y0994708D02*
X0323486Y0994708D01*
X0322864Y1025661D02*
X0313795Y1025661D01*
X0314793Y1026660D02*
X0321866Y1026660D01*
X0321192Y1027658D02*
X0315467Y1027658D01*
X0315881Y1028657D02*
X0320778Y1028657D01*
X0320629Y1029655D02*
X0316029Y1029655D01*
X0316029Y1030654D02*
X0320629Y1030654D01*
X0320865Y1031653D02*
X0315794Y1031653D01*
X0315380Y1032651D02*
X0321278Y1032651D01*
X0322075Y1033650D02*
X0314584Y1033650D01*
X0313317Y1034648D02*
X0323342Y1034648D01*
X0287604Y1040639D02*
X0284055Y1040639D01*
X0285054Y1041638D02*
X0286605Y1041638D01*
X0286770Y1048627D02*
X0284889Y1048627D01*
X0283890Y1049626D02*
X0287768Y1049626D01*
X0277768Y1049626D02*
X0273890Y1049626D01*
X0274889Y1048627D02*
X0276770Y1048627D01*
X0276605Y1041638D02*
X0275054Y1041638D01*
X0274055Y1040639D02*
X0277604Y1040639D01*
X0267768Y1049626D02*
X0263890Y1049626D01*
X0264889Y1048627D02*
X0266770Y1048627D01*
X0266605Y1041638D02*
X0265054Y1041638D01*
X0264055Y1040639D02*
X0267604Y1040639D01*
X0257604Y1040639D02*
X0254055Y1040639D01*
X0255054Y1041638D02*
X0256605Y1041638D01*
X0256770Y1048627D02*
X0254889Y1048627D01*
X0253890Y1049626D02*
X0257768Y1049626D01*
X0247768Y1049626D02*
X0243890Y1049626D01*
X0244889Y1048627D02*
X0246770Y1048627D01*
X0246605Y1041638D02*
X0245054Y1041638D01*
X0244055Y1040639D02*
X0247604Y1040639D01*
X0237604Y1040639D02*
X0234055Y1040639D01*
X0235054Y1041638D02*
X0236605Y1041638D01*
X0236770Y1048627D02*
X0234889Y1048627D01*
X0233890Y1049626D02*
X0237768Y1049626D01*
X0227768Y1049626D02*
X0223890Y1049626D01*
X0224889Y1048627D02*
X0226770Y1048627D01*
X0226605Y1041638D02*
X0225054Y1041638D01*
X0224055Y1040639D02*
X0227604Y1040639D01*
X0217604Y1040639D02*
X0214055Y1040639D01*
X0215054Y1041638D02*
X0216605Y1041638D01*
X0216770Y1048627D02*
X0214889Y1048627D01*
X0213890Y1049626D02*
X0217768Y1049626D01*
X0207768Y1049626D02*
X0203890Y1049626D01*
X0204889Y1048627D02*
X0206770Y1048627D01*
X0206605Y1041638D02*
X0205054Y1041638D01*
X0204055Y1040639D02*
X0207604Y1040639D01*
X0197768Y1049626D02*
X0191497Y1049626D01*
X0193028Y1048627D02*
X0196770Y1048627D01*
X0195771Y1047629D02*
X0193938Y1047629D01*
X0194848Y1046630D02*
X0195429Y1046630D01*
X0213846Y1019670D02*
X0217813Y1019670D01*
X0216815Y1018672D02*
X0214844Y1018672D01*
X0223846Y1019670D02*
X0227813Y1019670D01*
X0226815Y1018672D02*
X0224844Y1018672D01*
X0233846Y1019670D02*
X0237813Y1019670D01*
X0236815Y1018672D02*
X0234844Y1018672D01*
X0227932Y0939789D02*
X0223727Y0939789D01*
X0224725Y0938791D02*
X0226934Y0938791D01*
X0225935Y0937792D02*
X0225724Y0937792D01*
X0225218Y0931801D02*
X0226441Y0931801D01*
X0227440Y0930803D02*
X0224219Y0930803D01*
X0223220Y0929804D02*
X0228438Y0929804D01*
X0284844Y1018672D02*
X0286815Y1018672D01*
X0287813Y1019670D02*
X0283846Y1019670D01*
X0293211Y0859909D02*
X0298448Y0859909D01*
X0297053Y0858910D02*
X0294606Y0858910D01*
X0295489Y0857912D02*
X0296170Y0857912D01*
X0295867Y0852919D02*
X0295792Y0852919D01*
X0295337Y0851920D02*
X0296322Y0851920D01*
X0297321Y0850922D02*
X0294338Y0850922D01*
X0294774Y0849923D02*
X0299095Y0849923D01*
X0302564Y0849923D02*
X0309095Y0849923D01*
X0307321Y0850922D02*
X0304338Y0850922D01*
X0305337Y0851920D02*
X0306322Y0851920D01*
X0305867Y0852919D02*
X0305792Y0852919D01*
X0305489Y0857912D02*
X0306170Y0857912D01*
X0307053Y0858910D02*
X0304606Y0858910D01*
X0303211Y0859909D02*
X0308448Y0859909D01*
D22*
X0315829Y0880050D03*
X0343329Y0897550D03*
X0353329Y0887550D03*
X0368329Y0837550D03*
D23*
X0333329Y0847550D03*
X0328329Y0817550D03*
M02*
