%
M48
M72
T01C0.0240
T02C0.0276
T03C0.0320
T04C0.0360
T05C0.0400
T06C0.0440
T07C0.0650
%
T01
X32833Y81755
X33333Y84755
T02
X31583Y88005
X34333Y89755
X35333Y88755
X36833Y83755
T03
X34083Y93005
X34083Y94005
X34083Y95005
X34083Y96505
X34083Y97505
X34083Y98505
X32083Y97505
X31083Y97505
X31083Y96005
X30583Y94505
X30583Y93005
X29083Y92005
X29083Y91005
X29433Y89005
X28583Y89005
X27733Y89005
X26583Y91005
X26583Y92005
X24183Y89005
X23333Y89005
X22483Y89005
X21583Y91005
X21583Y92005
X24083Y92005
X24083Y91005
X30583Y104505
X32583Y104505
X32083Y96005
X32583Y94505
X32583Y93005
X42083Y92505
X42083Y91505
X43583Y91505
X43583Y90505
X43583Y89505
X43583Y92505
X46583Y92505
X46583Y91505
X46583Y90505
X46583Y89505
X48083Y89505
X48083Y91505
X49583Y91505
X49583Y89505
T04
X49333Y92505
X48333Y92505
X38583Y98005
X38583Y99005
X35083Y87005
X35083Y85505
X34083Y85505
X33083Y85505
X33083Y87005
X34083Y87005
X32083Y87005
X32083Y85505
X31083Y85505
X31083Y87005
X30083Y87005
X30083Y85505
X29083Y85505
X29083Y87005
X28083Y87005
X28083Y85505
X27083Y85505
X27083Y87005
X26083Y87005
X26083Y85505
X25083Y85505
X25083Y87005
X24083Y87005
X24083Y85505
X23083Y85505
X22083Y85505
X22083Y87005
X23083Y87005
X21083Y87005
X21083Y85505
X21083Y79505
X21083Y78005
X22083Y78005
X23083Y78005
X23083Y79505
X22083Y79505
X24083Y79505
X24083Y78005
X25083Y78005
X25083Y79505
X26083Y79505
X26083Y78005
X27083Y78005
X27083Y79505
X28083Y79505
X28083Y78005
X29083Y78005
X29083Y79505
X30083Y79505
X30083Y78005
X31083Y78005
X31083Y79505
X32083Y79505
X32083Y78005
X33083Y78005
X34083Y78005
X34083Y79505
X33083Y79505
X35083Y79505
X35083Y78005
T05
X36583Y90005
X36583Y91005
X36583Y92005
X36583Y93005
X36583Y94005
X36583Y95005
X36583Y96005
X36583Y97005
X36583Y98005
X36583Y99005
X35583Y101005
X35583Y102005
X35583Y103005
X35583Y104005
X38583Y96005
X38583Y95005
X38583Y94005
X38583Y92005
X38583Y91005
X38583Y90005
X41083Y90005
X41083Y91005
X41083Y92005
X41583Y97005
X41583Y98005
X41583Y99005
X41583Y100005
X41583Y101005
X41583Y102005
X29083Y101505
X28083Y101505
X27083Y101505
X26083Y101505
X25083Y101505
X24083Y101505
X23083Y101505
X22083Y101505
X21083Y101505
X20083Y101505
X20083Y104505
X21083Y104505
X22083Y104505
X23083Y104505
X24083Y104505
X25083Y104505
X26083Y104505
X27083Y104505
X28083Y104505
X29083Y104505
X29083Y96505
X28083Y96505
X27083Y96505
X26083Y96505
X25083Y96505
X24083Y96505
X23083Y96505
X22083Y96505
X21083Y96505
X20083Y96505
X20083Y93505
X21083Y93505
X22083Y93505
X23083Y93505
X24083Y93505
X25083Y93505
X26083Y93505
X27083Y93505
X28083Y93505
X29083Y93505
T06
X31083Y99005
X32583Y99005
X32583Y103005
X31083Y103005
T07
X583Y505
X6583Y505
X6583Y16505
X583Y16505
M30
