G75*
%MOIN*%
%OFA0B0*%
%FSLAX25Y25*%
%IPPOS*%
%LPD*%
%AMOC8*
5,1,8,0,0,1.08239X$1,22.5*
%
%ADD10OC8,0.07000*%
%ADD11C,0.05200*%
%ADD12OC8,0.05200*%
%ADD13R,0.07000X0.07000*%
%ADD14C,0.07000*%
%ADD15OC8,0.06600*%
%ADD16OC8,0.05600*%
%ADD17C,0.06600*%
%ADD18C,0.06000*%
%ADD19C,0.05600*%
%ADD20C,0.01600*%
%ADD21C,0.02400*%
%ADD22R,0.04356X0.04356*%
%ADD23C,0.04000*%
D10*
X0365829Y0900050D03*
X0365829Y0910050D03*
X0365829Y0920050D03*
X0365829Y0930050D03*
X0365829Y0940050D03*
X0365829Y0950050D03*
X0365829Y0960050D03*
X0365829Y0970050D03*
X0365829Y0980050D03*
X0365829Y0990050D03*
X0415829Y0990050D03*
X0415829Y0980050D03*
X0415829Y0970050D03*
X0415829Y1000050D03*
X0415829Y1010050D03*
X0415829Y1020050D03*
X0290829Y1015050D03*
X0280829Y1015050D03*
X0270829Y1015050D03*
X0260829Y1015050D03*
X0250829Y1015050D03*
X0240829Y1015050D03*
X0230829Y1015050D03*
X0220829Y1015050D03*
X0210829Y1015050D03*
X0200829Y1015050D03*
X0200829Y1045050D03*
X0210829Y1045050D03*
X0220829Y1045050D03*
X0230829Y1045050D03*
X0240829Y1045050D03*
X0250829Y1045050D03*
X0260829Y1045050D03*
X0270829Y1045050D03*
X0280829Y1045050D03*
X0290829Y1045050D03*
X0290829Y0965050D03*
X0280829Y0965050D03*
X0270829Y0965050D03*
X0260829Y0965050D03*
X0250829Y0965050D03*
X0240829Y0965050D03*
X0230829Y0965050D03*
X0220829Y0965050D03*
X0210829Y0965050D03*
X0200829Y0965050D03*
X0200829Y0935050D03*
X0210829Y0935050D03*
X0220829Y0935050D03*
X0230829Y0935050D03*
X0240829Y0935050D03*
X0250829Y0935050D03*
X0260829Y0935050D03*
X0270829Y0935050D03*
X0280829Y0935050D03*
X0290829Y0935050D03*
D11*
X0338229Y0940050D02*
X0343429Y0940050D01*
X0343429Y0930050D02*
X0338229Y0930050D01*
X0338229Y0950050D02*
X0343429Y0950050D01*
X0343429Y0965050D02*
X0338229Y0965050D01*
X0338229Y0975050D02*
X0343429Y0975050D01*
X0343429Y0985050D02*
X0338229Y0985050D01*
X0433229Y0925050D02*
X0438429Y0925050D01*
X0438429Y0915050D02*
X0433229Y0915050D01*
X0433229Y0905050D02*
X0438429Y0905050D01*
X0438429Y0895050D02*
X0433229Y0895050D01*
X0463229Y0895050D02*
X0468429Y0895050D01*
X0468429Y0905050D02*
X0463229Y0905050D01*
X0463229Y0915050D02*
X0468429Y0915050D01*
X0468429Y0925050D02*
X0463229Y0925050D01*
D12*
X0480829Y0915050D03*
X0480829Y0895050D03*
X0495829Y0895050D03*
X0495829Y0915050D03*
X0325829Y0930050D03*
X0325829Y0945050D03*
X0305829Y0945050D03*
X0305829Y0930050D03*
X0305829Y1045050D03*
X0325829Y1045050D03*
D13*
X0350829Y0870050D03*
X0350829Y0855050D03*
D14*
X0210829Y0780050D03*
X0210829Y0795050D03*
X0220829Y0795050D03*
X0230829Y0795050D03*
X0230829Y0780050D03*
X0220829Y0780050D03*
X0240829Y0780050D03*
X0240829Y0795050D03*
X0250829Y0795050D03*
X0250829Y0780050D03*
X0260829Y0780050D03*
X0260829Y0795050D03*
X0270829Y0795050D03*
X0270829Y0780050D03*
X0280829Y0780050D03*
X0280829Y0795050D03*
X0290829Y0795050D03*
X0290829Y0780050D03*
X0300829Y0780050D03*
X0300829Y0795050D03*
X0310829Y0795050D03*
X0310829Y0780050D03*
X0320829Y0780050D03*
X0320829Y0795050D03*
X0330829Y0795050D03*
X0340829Y0795050D03*
X0340829Y0780050D03*
X0330829Y0780050D03*
X0350829Y0780050D03*
X0350829Y0795050D03*
X0340829Y0855050D03*
X0330829Y0855050D03*
X0330829Y0870050D03*
X0340829Y0870050D03*
X0320829Y0870050D03*
X0320829Y0855050D03*
X0310829Y0855050D03*
X0310829Y0870050D03*
X0300829Y0870050D03*
X0300829Y0855050D03*
X0290829Y0855050D03*
X0290829Y0870050D03*
X0280829Y0870050D03*
X0280829Y0855050D03*
X0270829Y0855050D03*
X0270829Y0870050D03*
X0260829Y0870050D03*
X0260829Y0855050D03*
X0250829Y0855050D03*
X0250829Y0870050D03*
X0240829Y0870050D03*
X0240829Y0855050D03*
X0230829Y0855050D03*
X0220829Y0855050D03*
X0220829Y0870050D03*
X0230829Y0870050D03*
X0210829Y0870050D03*
X0210829Y0855050D03*
D15*
X0224829Y0890050D03*
X0233329Y0890050D03*
X0241829Y0890050D03*
X0277329Y0890050D03*
X0285829Y0890050D03*
X0294329Y0890050D03*
D16*
X0290829Y0910050D03*
X0290829Y0920050D03*
X0310829Y0960050D03*
X0320829Y0960050D03*
X0320829Y0975050D03*
X0310829Y0975050D03*
X0265829Y0920050D03*
X0265829Y0910050D03*
X0240829Y0910050D03*
X0240829Y0920050D03*
X0215829Y0920050D03*
X0215829Y0910050D03*
X0420829Y0915050D03*
X0420829Y0925050D03*
D17*
X0410829Y0920050D03*
X0410829Y0910050D03*
X0410829Y0900050D03*
X0385829Y0900050D03*
X0385829Y0910050D03*
X0385829Y0920050D03*
X0385829Y0940050D03*
X0385829Y0950050D03*
X0385829Y0960050D03*
X0325829Y0990050D03*
X0310829Y0990050D03*
X0310829Y1030050D03*
X0325829Y1030050D03*
D18*
X0352829Y1030050D02*
X0358829Y1030050D01*
X0358829Y1020050D02*
X0352829Y1020050D01*
X0352829Y1010050D02*
X0358829Y1010050D01*
X0358829Y1040050D02*
X0352829Y1040050D01*
D19*
X0383029Y0990050D02*
X0388629Y0990050D01*
X0388629Y0980050D02*
X0383029Y0980050D01*
X0483329Y0927850D02*
X0483329Y0922250D01*
X0493329Y0922250D02*
X0493329Y0927850D01*
D20*
X0493329Y0925050D02*
X0428329Y0990050D01*
X0415829Y0990050D01*
X0415829Y1000050D02*
X0453329Y1000050D01*
X0503329Y0950050D01*
X0503329Y0907550D01*
X0500829Y0905050D01*
X0480829Y0905050D01*
X0470829Y0895050D01*
X0465829Y0895050D01*
X0460829Y0890050D02*
X0475829Y0890050D01*
X0480829Y0895050D01*
X0480829Y0915050D02*
X0495829Y0915050D01*
X0483329Y0925050D02*
X0478329Y0925050D01*
X0473329Y0920050D01*
X0458329Y0920050D01*
X0455829Y0917550D01*
X0455829Y0907550D01*
X0458329Y0905050D01*
X0465829Y0905050D01*
X0465829Y0915050D02*
X0480829Y0915050D01*
X0460829Y0890050D02*
X0440829Y0910050D01*
X0410829Y0910050D01*
X0420829Y0925050D02*
X0435829Y0925050D01*
X0435829Y0957550D01*
X0423329Y0970050D01*
X0415829Y0970050D01*
X0385829Y0960050D02*
X0385829Y0980050D01*
X0373329Y0972550D02*
X0373329Y0962550D01*
X0385829Y0950050D01*
X0373329Y0972550D02*
X0365829Y0980050D01*
X0365829Y0970050D02*
X0355829Y0960050D01*
X0320829Y0960050D01*
X0315829Y0965050D01*
X0315829Y0977550D01*
X0310829Y0982550D01*
X0310829Y0990050D01*
X0320829Y0975050D02*
X0330829Y0985050D01*
X0325829Y0990050D01*
X0365829Y0990050D01*
X0355829Y1020050D02*
X0350829Y1020050D01*
X0325829Y1045050D01*
X0310829Y1030050D02*
X0305829Y1035050D01*
X0305829Y1045050D01*
X0290829Y1045050D02*
X0290829Y1015050D01*
X0280829Y1015050D02*
X0280829Y1045050D01*
X0270829Y1045050D02*
X0270829Y1015050D01*
X0260829Y1015050D02*
X0260829Y1045050D01*
X0250829Y1045050D02*
X0250829Y1015050D01*
X0240829Y1015050D02*
X0240829Y1045050D01*
X0230829Y1045050D02*
X0230829Y1015050D01*
X0220829Y1015050D02*
X0220829Y1045050D01*
X0210829Y1045050D02*
X0210829Y1015050D01*
X0200829Y1015050D02*
X0200829Y1045050D01*
X0200829Y0965050D02*
X0200829Y0935050D01*
X0210829Y0935050D02*
X0210829Y0927550D01*
X0200829Y0917550D01*
X0200829Y0852550D01*
X0213329Y0840050D01*
X0285829Y0840050D01*
X0300829Y0855050D01*
X0300829Y0870050D01*
X0290829Y0870050D02*
X0290829Y0855050D01*
X0280829Y0855050D02*
X0280829Y0870050D01*
X0280829Y0885050D01*
X0285829Y0890050D01*
X0290829Y0895050D01*
X0290829Y0910050D01*
X0293329Y0915050D02*
X0245829Y0915050D01*
X0240829Y0910050D01*
X0233329Y0902550D01*
X0233329Y0890050D01*
X0228329Y0907550D02*
X0215829Y0895050D01*
X0215829Y0875050D01*
X0220829Y0870050D01*
X0220829Y0855050D01*
X0230829Y0855050D02*
X0230829Y0870050D01*
X0240829Y0870050D02*
X0240829Y0855050D01*
X0250829Y0855050D02*
X0250829Y0870050D01*
X0260829Y0870050D02*
X0260829Y0855050D01*
X0270829Y0855050D02*
X0270829Y0870050D01*
X0277329Y0890050D02*
X0265829Y0901550D01*
X0265829Y0910050D01*
X0260829Y0935050D02*
X0260829Y0965050D01*
X0250829Y0965050D02*
X0250829Y0935050D01*
X0240829Y0935050D02*
X0240829Y0965050D01*
X0230829Y0965050D02*
X0230829Y0935050D01*
X0223329Y0932550D02*
X0220829Y0935050D01*
X0220829Y0965050D01*
X0210829Y0965050D02*
X0210829Y0935050D01*
X0223329Y0932550D02*
X0223329Y0917550D01*
X0215829Y0910050D01*
X0228329Y0907550D02*
X0228329Y0922550D01*
X0233329Y0927550D01*
X0293329Y0927550D01*
X0305829Y0940050D01*
X0305829Y0945050D01*
X0305829Y0930050D02*
X0305829Y0890050D01*
X0315829Y0880050D01*
X0310829Y0877550D02*
X0310829Y0870050D01*
X0310829Y0855050D01*
X0310829Y0877550D02*
X0300829Y0887550D01*
X0300829Y0907550D01*
X0293329Y0915050D01*
X0280829Y0935050D02*
X0280829Y0965050D01*
X0270829Y0965050D02*
X0270829Y0935050D01*
X0325829Y0930050D02*
X0330829Y0930050D01*
X0340829Y0940050D01*
X0340829Y0950050D02*
X0345829Y0950050D01*
X0355829Y0960050D01*
X0340829Y0985050D02*
X0330829Y0985050D01*
X0365829Y0910050D02*
X0358329Y0902550D01*
X0358329Y0850050D01*
X0355829Y0847550D01*
X0333329Y0847550D01*
X0328329Y0852550D02*
X0330829Y0855050D01*
X0330829Y0870050D01*
X0340829Y0870050D02*
X0340829Y0855050D01*
X0350829Y0855050D02*
X0350829Y0870050D01*
X0353329Y0887550D02*
X0343329Y0897550D01*
X0328329Y0852550D02*
X0328329Y0817550D01*
X0330829Y0795050D02*
X0330829Y0780050D01*
X0320829Y0780050D02*
X0320829Y0795050D01*
X0310829Y0795050D02*
X0310829Y0780050D01*
X0300829Y0780050D02*
X0300829Y0795050D01*
X0290829Y0795050D02*
X0290829Y0780050D01*
X0280829Y0780050D02*
X0280829Y0795050D01*
X0270829Y0795050D02*
X0270829Y0780050D01*
X0260829Y0780050D02*
X0260829Y0795050D01*
X0250829Y0795050D02*
X0250829Y0780050D01*
X0240829Y0780050D02*
X0240829Y0795050D01*
X0230829Y0795050D02*
X0230829Y0780050D01*
X0220829Y0780050D02*
X0220829Y0795050D01*
X0210829Y0795050D02*
X0210829Y0780050D01*
X0210829Y0855050D02*
X0210829Y0870050D01*
X0350829Y0795050D02*
X0350829Y0780050D01*
X0368329Y0837550D02*
X0375829Y0845050D01*
X0375829Y0900050D01*
X0385829Y0910050D01*
D21*
X0410829Y0910050D01*
X0410829Y0900050D02*
X0385829Y0900050D01*
X0385829Y0920050D02*
X0365829Y0900050D01*
X0365829Y0845050D01*
X0320829Y0800050D01*
X0320829Y0795050D01*
X0323329Y0922550D02*
X0348329Y0922550D01*
X0365829Y0940050D01*
X0385829Y0940050D01*
X0385829Y0920050D01*
X0410829Y0920050D01*
X0410829Y0940050D01*
X0408329Y0942550D01*
X0408329Y1012550D01*
X0415829Y1020050D01*
X0355829Y1010050D02*
X0345829Y1010050D01*
X0325829Y1030050D01*
X0310829Y1030050D01*
X0300829Y1020050D01*
X0300829Y0985050D01*
X0310829Y0975050D01*
X0310829Y0960050D01*
X0310829Y0952550D01*
X0313329Y0950050D01*
X0313329Y0932550D01*
X0323329Y0922550D01*
X0220829Y0815050D02*
X0220829Y0795050D01*
X0220829Y0815050D02*
X0188329Y0847550D01*
X0188329Y0922550D01*
X0200829Y0935050D01*
D22*
X0315829Y0880050D03*
X0343329Y0897550D03*
X0353329Y0887550D03*
X0368329Y0837550D03*
D23*
X0333329Y0847550D03*
X0328329Y0817550D03*
M02*
