G75*
%MOIN*%
%OFA0B0*%
%FSLAX25Y25*%
%IPPOS*%
%LPD*%
%AMOC8*
5,1,8,0,0,1.08239X$1,22.5*
%
%ADD10C,0.00010*%
%ADD11C,0.00000*%
D10*
X0024954Y0018689D02*
X0314954Y0018689D01*
X0315196Y0018692D01*
X0315437Y0018701D01*
X0315678Y0018715D01*
X0315919Y0018736D01*
X0316159Y0018762D01*
X0316399Y0018794D01*
X0316638Y0018832D01*
X0316875Y0018875D01*
X0317112Y0018925D01*
X0317347Y0018980D01*
X0317581Y0019040D01*
X0317813Y0019107D01*
X0318044Y0019178D01*
X0318273Y0019256D01*
X0318500Y0019339D01*
X0318725Y0019427D01*
X0318948Y0019521D01*
X0319168Y0019620D01*
X0319386Y0019725D01*
X0319601Y0019834D01*
X0319814Y0019949D01*
X0320024Y0020069D01*
X0320230Y0020194D01*
X0320434Y0020324D01*
X0320635Y0020459D01*
X0320832Y0020599D01*
X0321026Y0020743D01*
X0321216Y0020892D01*
X0321402Y0021046D01*
X0321585Y0021204D01*
X0321764Y0021366D01*
X0321939Y0021533D01*
X0322110Y0021704D01*
X0322277Y0021879D01*
X0322439Y0022058D01*
X0322597Y0022241D01*
X0322751Y0022427D01*
X0322900Y0022617D01*
X0323044Y0022811D01*
X0323184Y0023008D01*
X0323319Y0023209D01*
X0323449Y0023413D01*
X0323574Y0023619D01*
X0323694Y0023829D01*
X0323809Y0024042D01*
X0323918Y0024257D01*
X0324023Y0024475D01*
X0324122Y0024695D01*
X0324216Y0024918D01*
X0324304Y0025143D01*
X0324387Y0025370D01*
X0324465Y0025599D01*
X0324536Y0025830D01*
X0324603Y0026062D01*
X0324663Y0026296D01*
X0324718Y0026531D01*
X0324768Y0026768D01*
X0324811Y0027005D01*
X0324849Y0027244D01*
X0324881Y0027484D01*
X0324907Y0027724D01*
X0324928Y0027965D01*
X0324942Y0028206D01*
X0324951Y0028447D01*
X0324954Y0028689D01*
X0324954Y0198689D01*
X0324951Y0198931D01*
X0324942Y0199172D01*
X0324928Y0199413D01*
X0324907Y0199654D01*
X0324881Y0199894D01*
X0324849Y0200134D01*
X0324811Y0200373D01*
X0324768Y0200610D01*
X0324718Y0200847D01*
X0324663Y0201082D01*
X0324603Y0201316D01*
X0324536Y0201548D01*
X0324465Y0201779D01*
X0324387Y0202008D01*
X0324304Y0202235D01*
X0324216Y0202460D01*
X0324122Y0202683D01*
X0324023Y0202903D01*
X0323918Y0203121D01*
X0323809Y0203336D01*
X0323694Y0203549D01*
X0323574Y0203759D01*
X0323449Y0203965D01*
X0323319Y0204169D01*
X0323184Y0204370D01*
X0323044Y0204567D01*
X0322900Y0204761D01*
X0322751Y0204951D01*
X0322597Y0205137D01*
X0322439Y0205320D01*
X0322277Y0205499D01*
X0322110Y0205674D01*
X0321939Y0205845D01*
X0321764Y0206012D01*
X0321585Y0206174D01*
X0321402Y0206332D01*
X0321216Y0206486D01*
X0321026Y0206635D01*
X0320832Y0206779D01*
X0320635Y0206919D01*
X0320434Y0207054D01*
X0320230Y0207184D01*
X0320024Y0207309D01*
X0319814Y0207429D01*
X0319601Y0207544D01*
X0319386Y0207653D01*
X0319168Y0207758D01*
X0318948Y0207857D01*
X0318725Y0207951D01*
X0318500Y0208039D01*
X0318273Y0208122D01*
X0318044Y0208200D01*
X0317813Y0208271D01*
X0317581Y0208338D01*
X0317347Y0208398D01*
X0317112Y0208453D01*
X0316875Y0208503D01*
X0316638Y0208546D01*
X0316399Y0208584D01*
X0316159Y0208616D01*
X0315919Y0208642D01*
X0315678Y0208663D01*
X0315437Y0208677D01*
X0315196Y0208686D01*
X0314954Y0208689D01*
X0024954Y0208689D01*
X0024712Y0208686D01*
X0024471Y0208677D01*
X0024230Y0208663D01*
X0023989Y0208642D01*
X0023749Y0208616D01*
X0023509Y0208584D01*
X0023270Y0208546D01*
X0023033Y0208503D01*
X0022796Y0208453D01*
X0022561Y0208398D01*
X0022327Y0208338D01*
X0022095Y0208271D01*
X0021864Y0208200D01*
X0021635Y0208122D01*
X0021408Y0208039D01*
X0021183Y0207951D01*
X0020960Y0207857D01*
X0020740Y0207758D01*
X0020522Y0207653D01*
X0020307Y0207544D01*
X0020094Y0207429D01*
X0019884Y0207309D01*
X0019678Y0207184D01*
X0019474Y0207054D01*
X0019273Y0206919D01*
X0019076Y0206779D01*
X0018882Y0206635D01*
X0018692Y0206486D01*
X0018506Y0206332D01*
X0018323Y0206174D01*
X0018144Y0206012D01*
X0017969Y0205845D01*
X0017798Y0205674D01*
X0017631Y0205499D01*
X0017469Y0205320D01*
X0017311Y0205137D01*
X0017157Y0204951D01*
X0017008Y0204761D01*
X0016864Y0204567D01*
X0016724Y0204370D01*
X0016589Y0204169D01*
X0016459Y0203965D01*
X0016334Y0203759D01*
X0016214Y0203549D01*
X0016099Y0203336D01*
X0015990Y0203121D01*
X0015885Y0202903D01*
X0015786Y0202683D01*
X0015692Y0202460D01*
X0015604Y0202235D01*
X0015521Y0202008D01*
X0015443Y0201779D01*
X0015372Y0201548D01*
X0015305Y0201316D01*
X0015245Y0201082D01*
X0015190Y0200847D01*
X0015140Y0200610D01*
X0015097Y0200373D01*
X0015059Y0200134D01*
X0015027Y0199894D01*
X0015001Y0199654D01*
X0014980Y0199413D01*
X0014966Y0199172D01*
X0014957Y0198931D01*
X0014954Y0198689D01*
X0014954Y0028689D01*
X0014957Y0028447D01*
X0014966Y0028206D01*
X0014980Y0027965D01*
X0015001Y0027724D01*
X0015027Y0027484D01*
X0015059Y0027244D01*
X0015097Y0027005D01*
X0015140Y0026768D01*
X0015190Y0026531D01*
X0015245Y0026296D01*
X0015305Y0026062D01*
X0015372Y0025830D01*
X0015443Y0025599D01*
X0015521Y0025370D01*
X0015604Y0025143D01*
X0015692Y0024918D01*
X0015786Y0024695D01*
X0015885Y0024475D01*
X0015990Y0024257D01*
X0016099Y0024042D01*
X0016214Y0023829D01*
X0016334Y0023619D01*
X0016459Y0023413D01*
X0016589Y0023209D01*
X0016724Y0023008D01*
X0016864Y0022811D01*
X0017008Y0022617D01*
X0017157Y0022427D01*
X0017311Y0022241D01*
X0017469Y0022058D01*
X0017631Y0021879D01*
X0017798Y0021704D01*
X0017969Y0021533D01*
X0018144Y0021366D01*
X0018323Y0021204D01*
X0018506Y0021046D01*
X0018692Y0020892D01*
X0018882Y0020743D01*
X0019076Y0020599D01*
X0019273Y0020459D01*
X0019474Y0020324D01*
X0019678Y0020194D01*
X0019884Y0020069D01*
X0020094Y0019949D01*
X0020307Y0019834D01*
X0020522Y0019725D01*
X0020740Y0019620D01*
X0020960Y0019521D01*
X0021183Y0019427D01*
X0021408Y0019339D01*
X0021635Y0019256D01*
X0021864Y0019178D01*
X0022095Y0019107D01*
X0022327Y0019040D01*
X0022561Y0018980D01*
X0022796Y0018925D01*
X0023033Y0018875D01*
X0023270Y0018832D01*
X0023509Y0018794D01*
X0023749Y0018762D01*
X0023989Y0018736D01*
X0024230Y0018715D01*
X0024471Y0018701D01*
X0024712Y0018692D01*
X0024954Y0018689D01*
D11*
X0023454Y0033689D02*
X0023456Y0033850D01*
X0023462Y0034010D01*
X0023472Y0034171D01*
X0023486Y0034331D01*
X0023504Y0034491D01*
X0023525Y0034650D01*
X0023551Y0034809D01*
X0023581Y0034967D01*
X0023614Y0035124D01*
X0023652Y0035281D01*
X0023693Y0035436D01*
X0023738Y0035590D01*
X0023787Y0035743D01*
X0023840Y0035895D01*
X0023896Y0036046D01*
X0023957Y0036195D01*
X0024020Y0036343D01*
X0024088Y0036489D01*
X0024159Y0036633D01*
X0024233Y0036775D01*
X0024311Y0036916D01*
X0024393Y0037054D01*
X0024478Y0037191D01*
X0024566Y0037325D01*
X0024658Y0037457D01*
X0024753Y0037587D01*
X0024851Y0037715D01*
X0024952Y0037840D01*
X0025056Y0037962D01*
X0025163Y0038082D01*
X0025273Y0038199D01*
X0025386Y0038314D01*
X0025502Y0038425D01*
X0025621Y0038534D01*
X0025742Y0038639D01*
X0025866Y0038742D01*
X0025992Y0038842D01*
X0026120Y0038938D01*
X0026251Y0039031D01*
X0026385Y0039121D01*
X0026520Y0039208D01*
X0026658Y0039291D01*
X0026797Y0039371D01*
X0026939Y0039447D01*
X0027082Y0039520D01*
X0027227Y0039589D01*
X0027374Y0039655D01*
X0027522Y0039717D01*
X0027672Y0039775D01*
X0027823Y0039830D01*
X0027976Y0039881D01*
X0028130Y0039928D01*
X0028285Y0039971D01*
X0028441Y0040010D01*
X0028597Y0040046D01*
X0028755Y0040077D01*
X0028913Y0040105D01*
X0029072Y0040129D01*
X0029232Y0040149D01*
X0029392Y0040165D01*
X0029552Y0040177D01*
X0029713Y0040185D01*
X0029874Y0040189D01*
X0030034Y0040189D01*
X0030195Y0040185D01*
X0030356Y0040177D01*
X0030516Y0040165D01*
X0030676Y0040149D01*
X0030836Y0040129D01*
X0030995Y0040105D01*
X0031153Y0040077D01*
X0031311Y0040046D01*
X0031467Y0040010D01*
X0031623Y0039971D01*
X0031778Y0039928D01*
X0031932Y0039881D01*
X0032085Y0039830D01*
X0032236Y0039775D01*
X0032386Y0039717D01*
X0032534Y0039655D01*
X0032681Y0039589D01*
X0032826Y0039520D01*
X0032969Y0039447D01*
X0033111Y0039371D01*
X0033250Y0039291D01*
X0033388Y0039208D01*
X0033523Y0039121D01*
X0033657Y0039031D01*
X0033788Y0038938D01*
X0033916Y0038842D01*
X0034042Y0038742D01*
X0034166Y0038639D01*
X0034287Y0038534D01*
X0034406Y0038425D01*
X0034522Y0038314D01*
X0034635Y0038199D01*
X0034745Y0038082D01*
X0034852Y0037962D01*
X0034956Y0037840D01*
X0035057Y0037715D01*
X0035155Y0037587D01*
X0035250Y0037457D01*
X0035342Y0037325D01*
X0035430Y0037191D01*
X0035515Y0037054D01*
X0035597Y0036916D01*
X0035675Y0036775D01*
X0035749Y0036633D01*
X0035820Y0036489D01*
X0035888Y0036343D01*
X0035951Y0036195D01*
X0036012Y0036046D01*
X0036068Y0035895D01*
X0036121Y0035743D01*
X0036170Y0035590D01*
X0036215Y0035436D01*
X0036256Y0035281D01*
X0036294Y0035124D01*
X0036327Y0034967D01*
X0036357Y0034809D01*
X0036383Y0034650D01*
X0036404Y0034491D01*
X0036422Y0034331D01*
X0036436Y0034171D01*
X0036446Y0034010D01*
X0036452Y0033850D01*
X0036454Y0033689D01*
X0036452Y0033528D01*
X0036446Y0033368D01*
X0036436Y0033207D01*
X0036422Y0033047D01*
X0036404Y0032887D01*
X0036383Y0032728D01*
X0036357Y0032569D01*
X0036327Y0032411D01*
X0036294Y0032254D01*
X0036256Y0032097D01*
X0036215Y0031942D01*
X0036170Y0031788D01*
X0036121Y0031635D01*
X0036068Y0031483D01*
X0036012Y0031332D01*
X0035951Y0031183D01*
X0035888Y0031035D01*
X0035820Y0030889D01*
X0035749Y0030745D01*
X0035675Y0030603D01*
X0035597Y0030462D01*
X0035515Y0030324D01*
X0035430Y0030187D01*
X0035342Y0030053D01*
X0035250Y0029921D01*
X0035155Y0029791D01*
X0035057Y0029663D01*
X0034956Y0029538D01*
X0034852Y0029416D01*
X0034745Y0029296D01*
X0034635Y0029179D01*
X0034522Y0029064D01*
X0034406Y0028953D01*
X0034287Y0028844D01*
X0034166Y0028739D01*
X0034042Y0028636D01*
X0033916Y0028536D01*
X0033788Y0028440D01*
X0033657Y0028347D01*
X0033523Y0028257D01*
X0033388Y0028170D01*
X0033250Y0028087D01*
X0033111Y0028007D01*
X0032969Y0027931D01*
X0032826Y0027858D01*
X0032681Y0027789D01*
X0032534Y0027723D01*
X0032386Y0027661D01*
X0032236Y0027603D01*
X0032085Y0027548D01*
X0031932Y0027497D01*
X0031778Y0027450D01*
X0031623Y0027407D01*
X0031467Y0027368D01*
X0031311Y0027332D01*
X0031153Y0027301D01*
X0030995Y0027273D01*
X0030836Y0027249D01*
X0030676Y0027229D01*
X0030516Y0027213D01*
X0030356Y0027201D01*
X0030195Y0027193D01*
X0030034Y0027189D01*
X0029874Y0027189D01*
X0029713Y0027193D01*
X0029552Y0027201D01*
X0029392Y0027213D01*
X0029232Y0027229D01*
X0029072Y0027249D01*
X0028913Y0027273D01*
X0028755Y0027301D01*
X0028597Y0027332D01*
X0028441Y0027368D01*
X0028285Y0027407D01*
X0028130Y0027450D01*
X0027976Y0027497D01*
X0027823Y0027548D01*
X0027672Y0027603D01*
X0027522Y0027661D01*
X0027374Y0027723D01*
X0027227Y0027789D01*
X0027082Y0027858D01*
X0026939Y0027931D01*
X0026797Y0028007D01*
X0026658Y0028087D01*
X0026520Y0028170D01*
X0026385Y0028257D01*
X0026251Y0028347D01*
X0026120Y0028440D01*
X0025992Y0028536D01*
X0025866Y0028636D01*
X0025742Y0028739D01*
X0025621Y0028844D01*
X0025502Y0028953D01*
X0025386Y0029064D01*
X0025273Y0029179D01*
X0025163Y0029296D01*
X0025056Y0029416D01*
X0024952Y0029538D01*
X0024851Y0029663D01*
X0024753Y0029791D01*
X0024658Y0029921D01*
X0024566Y0030053D01*
X0024478Y0030187D01*
X0024393Y0030324D01*
X0024311Y0030462D01*
X0024233Y0030603D01*
X0024159Y0030745D01*
X0024088Y0030889D01*
X0024020Y0031035D01*
X0023957Y0031183D01*
X0023896Y0031332D01*
X0023840Y0031483D01*
X0023787Y0031635D01*
X0023738Y0031788D01*
X0023693Y0031942D01*
X0023652Y0032097D01*
X0023614Y0032254D01*
X0023581Y0032411D01*
X0023551Y0032569D01*
X0023525Y0032728D01*
X0023504Y0032887D01*
X0023486Y0033047D01*
X0023472Y0033207D01*
X0023462Y0033368D01*
X0023456Y0033528D01*
X0023454Y0033689D01*
X0022630Y0093610D02*
X0022632Y0093718D01*
X0022638Y0093827D01*
X0022648Y0093935D01*
X0022662Y0094042D01*
X0022680Y0094149D01*
X0022701Y0094256D01*
X0022727Y0094361D01*
X0022757Y0094466D01*
X0022790Y0094569D01*
X0022827Y0094671D01*
X0022868Y0094771D01*
X0022912Y0094870D01*
X0022961Y0094968D01*
X0023012Y0095063D01*
X0023067Y0095156D01*
X0023126Y0095248D01*
X0023188Y0095337D01*
X0023253Y0095424D01*
X0023321Y0095508D01*
X0023392Y0095590D01*
X0023466Y0095669D01*
X0023543Y0095745D01*
X0023623Y0095819D01*
X0023706Y0095889D01*
X0023791Y0095957D01*
X0023878Y0096021D01*
X0023968Y0096082D01*
X0024060Y0096140D01*
X0024154Y0096194D01*
X0024250Y0096245D01*
X0024347Y0096292D01*
X0024447Y0096336D01*
X0024548Y0096376D01*
X0024650Y0096412D01*
X0024753Y0096444D01*
X0024858Y0096473D01*
X0024964Y0096497D01*
X0025070Y0096518D01*
X0025177Y0096535D01*
X0025285Y0096548D01*
X0025393Y0096557D01*
X0025502Y0096562D01*
X0025610Y0096563D01*
X0025719Y0096560D01*
X0025827Y0096553D01*
X0025935Y0096542D01*
X0026042Y0096527D01*
X0026149Y0096508D01*
X0026255Y0096485D01*
X0026360Y0096459D01*
X0026465Y0096428D01*
X0026567Y0096394D01*
X0026669Y0096356D01*
X0026769Y0096314D01*
X0026868Y0096269D01*
X0026965Y0096220D01*
X0027059Y0096167D01*
X0027152Y0096111D01*
X0027243Y0096052D01*
X0027332Y0095989D01*
X0027418Y0095924D01*
X0027502Y0095855D01*
X0027583Y0095783D01*
X0027661Y0095708D01*
X0027737Y0095630D01*
X0027810Y0095549D01*
X0027880Y0095466D01*
X0027946Y0095381D01*
X0028010Y0095293D01*
X0028070Y0095202D01*
X0028127Y0095110D01*
X0028180Y0095015D01*
X0028230Y0094919D01*
X0028276Y0094821D01*
X0028319Y0094721D01*
X0028358Y0094620D01*
X0028393Y0094517D01*
X0028425Y0094414D01*
X0028452Y0094309D01*
X0028476Y0094203D01*
X0028496Y0094096D01*
X0028512Y0093989D01*
X0028524Y0093881D01*
X0028532Y0093773D01*
X0028536Y0093664D01*
X0028536Y0093556D01*
X0028532Y0093447D01*
X0028524Y0093339D01*
X0028512Y0093231D01*
X0028496Y0093124D01*
X0028476Y0093017D01*
X0028452Y0092911D01*
X0028425Y0092806D01*
X0028393Y0092703D01*
X0028358Y0092600D01*
X0028319Y0092499D01*
X0028276Y0092399D01*
X0028230Y0092301D01*
X0028180Y0092205D01*
X0028127Y0092110D01*
X0028070Y0092018D01*
X0028010Y0091927D01*
X0027946Y0091839D01*
X0027880Y0091754D01*
X0027810Y0091671D01*
X0027737Y0091590D01*
X0027661Y0091512D01*
X0027583Y0091437D01*
X0027502Y0091365D01*
X0027418Y0091296D01*
X0027332Y0091231D01*
X0027243Y0091168D01*
X0027152Y0091109D01*
X0027060Y0091053D01*
X0026965Y0091000D01*
X0026868Y0090951D01*
X0026769Y0090906D01*
X0026669Y0090864D01*
X0026567Y0090826D01*
X0026465Y0090792D01*
X0026360Y0090761D01*
X0026255Y0090735D01*
X0026149Y0090712D01*
X0026042Y0090693D01*
X0025935Y0090678D01*
X0025827Y0090667D01*
X0025719Y0090660D01*
X0025610Y0090657D01*
X0025502Y0090658D01*
X0025393Y0090663D01*
X0025285Y0090672D01*
X0025177Y0090685D01*
X0025070Y0090702D01*
X0024964Y0090723D01*
X0024858Y0090747D01*
X0024753Y0090776D01*
X0024650Y0090808D01*
X0024548Y0090844D01*
X0024447Y0090884D01*
X0024347Y0090928D01*
X0024250Y0090975D01*
X0024154Y0091026D01*
X0024060Y0091080D01*
X0023968Y0091138D01*
X0023878Y0091199D01*
X0023791Y0091263D01*
X0023706Y0091331D01*
X0023623Y0091401D01*
X0023543Y0091475D01*
X0023466Y0091551D01*
X0023392Y0091630D01*
X0023321Y0091712D01*
X0023253Y0091796D01*
X0023188Y0091883D01*
X0023126Y0091972D01*
X0023067Y0092064D01*
X0023012Y0092157D01*
X0022961Y0092252D01*
X0022912Y0092350D01*
X0022868Y0092449D01*
X0022827Y0092549D01*
X0022790Y0092651D01*
X0022757Y0092754D01*
X0022727Y0092859D01*
X0022701Y0092964D01*
X0022680Y0093071D01*
X0022662Y0093178D01*
X0022648Y0093285D01*
X0022638Y0093393D01*
X0022632Y0093502D01*
X0022630Y0093610D01*
X0042316Y0113295D02*
X0042318Y0113403D01*
X0042324Y0113512D01*
X0042334Y0113620D01*
X0042348Y0113727D01*
X0042366Y0113834D01*
X0042387Y0113941D01*
X0042413Y0114046D01*
X0042443Y0114151D01*
X0042476Y0114254D01*
X0042513Y0114356D01*
X0042554Y0114456D01*
X0042598Y0114555D01*
X0042647Y0114653D01*
X0042698Y0114748D01*
X0042753Y0114841D01*
X0042812Y0114933D01*
X0042874Y0115022D01*
X0042939Y0115109D01*
X0043007Y0115193D01*
X0043078Y0115275D01*
X0043152Y0115354D01*
X0043229Y0115430D01*
X0043309Y0115504D01*
X0043392Y0115574D01*
X0043477Y0115642D01*
X0043564Y0115706D01*
X0043654Y0115767D01*
X0043746Y0115825D01*
X0043840Y0115879D01*
X0043936Y0115930D01*
X0044033Y0115977D01*
X0044133Y0116021D01*
X0044234Y0116061D01*
X0044336Y0116097D01*
X0044439Y0116129D01*
X0044544Y0116158D01*
X0044650Y0116182D01*
X0044756Y0116203D01*
X0044863Y0116220D01*
X0044971Y0116233D01*
X0045079Y0116242D01*
X0045188Y0116247D01*
X0045296Y0116248D01*
X0045405Y0116245D01*
X0045513Y0116238D01*
X0045621Y0116227D01*
X0045728Y0116212D01*
X0045835Y0116193D01*
X0045941Y0116170D01*
X0046046Y0116144D01*
X0046151Y0116113D01*
X0046253Y0116079D01*
X0046355Y0116041D01*
X0046455Y0115999D01*
X0046554Y0115954D01*
X0046651Y0115905D01*
X0046745Y0115852D01*
X0046838Y0115796D01*
X0046929Y0115737D01*
X0047018Y0115674D01*
X0047104Y0115609D01*
X0047188Y0115540D01*
X0047269Y0115468D01*
X0047347Y0115393D01*
X0047423Y0115315D01*
X0047496Y0115234D01*
X0047566Y0115151D01*
X0047632Y0115066D01*
X0047696Y0114978D01*
X0047756Y0114887D01*
X0047813Y0114795D01*
X0047866Y0114700D01*
X0047916Y0114604D01*
X0047962Y0114506D01*
X0048005Y0114406D01*
X0048044Y0114305D01*
X0048079Y0114202D01*
X0048111Y0114099D01*
X0048138Y0113994D01*
X0048162Y0113888D01*
X0048182Y0113781D01*
X0048198Y0113674D01*
X0048210Y0113566D01*
X0048218Y0113458D01*
X0048222Y0113349D01*
X0048222Y0113241D01*
X0048218Y0113132D01*
X0048210Y0113024D01*
X0048198Y0112916D01*
X0048182Y0112809D01*
X0048162Y0112702D01*
X0048138Y0112596D01*
X0048111Y0112491D01*
X0048079Y0112388D01*
X0048044Y0112285D01*
X0048005Y0112184D01*
X0047962Y0112084D01*
X0047916Y0111986D01*
X0047866Y0111890D01*
X0047813Y0111795D01*
X0047756Y0111703D01*
X0047696Y0111612D01*
X0047632Y0111524D01*
X0047566Y0111439D01*
X0047496Y0111356D01*
X0047423Y0111275D01*
X0047347Y0111197D01*
X0047269Y0111122D01*
X0047188Y0111050D01*
X0047104Y0110981D01*
X0047018Y0110916D01*
X0046929Y0110853D01*
X0046838Y0110794D01*
X0046746Y0110738D01*
X0046651Y0110685D01*
X0046554Y0110636D01*
X0046455Y0110591D01*
X0046355Y0110549D01*
X0046253Y0110511D01*
X0046151Y0110477D01*
X0046046Y0110446D01*
X0045941Y0110420D01*
X0045835Y0110397D01*
X0045728Y0110378D01*
X0045621Y0110363D01*
X0045513Y0110352D01*
X0045405Y0110345D01*
X0045296Y0110342D01*
X0045188Y0110343D01*
X0045079Y0110348D01*
X0044971Y0110357D01*
X0044863Y0110370D01*
X0044756Y0110387D01*
X0044650Y0110408D01*
X0044544Y0110432D01*
X0044439Y0110461D01*
X0044336Y0110493D01*
X0044234Y0110529D01*
X0044133Y0110569D01*
X0044033Y0110613D01*
X0043936Y0110660D01*
X0043840Y0110711D01*
X0043746Y0110765D01*
X0043654Y0110823D01*
X0043564Y0110884D01*
X0043477Y0110948D01*
X0043392Y0111016D01*
X0043309Y0111086D01*
X0043229Y0111160D01*
X0043152Y0111236D01*
X0043078Y0111315D01*
X0043007Y0111397D01*
X0042939Y0111481D01*
X0042874Y0111568D01*
X0042812Y0111657D01*
X0042753Y0111749D01*
X0042698Y0111842D01*
X0042647Y0111937D01*
X0042598Y0112035D01*
X0042554Y0112134D01*
X0042513Y0112234D01*
X0042476Y0112336D01*
X0042443Y0112439D01*
X0042413Y0112544D01*
X0042387Y0112649D01*
X0042366Y0112756D01*
X0042348Y0112863D01*
X0042334Y0112970D01*
X0042324Y0113078D01*
X0042318Y0113187D01*
X0042316Y0113295D01*
X0022630Y0132980D02*
X0022632Y0133088D01*
X0022638Y0133197D01*
X0022648Y0133305D01*
X0022662Y0133412D01*
X0022680Y0133519D01*
X0022701Y0133626D01*
X0022727Y0133731D01*
X0022757Y0133836D01*
X0022790Y0133939D01*
X0022827Y0134041D01*
X0022868Y0134141D01*
X0022912Y0134240D01*
X0022961Y0134338D01*
X0023012Y0134433D01*
X0023067Y0134526D01*
X0023126Y0134618D01*
X0023188Y0134707D01*
X0023253Y0134794D01*
X0023321Y0134878D01*
X0023392Y0134960D01*
X0023466Y0135039D01*
X0023543Y0135115D01*
X0023623Y0135189D01*
X0023706Y0135259D01*
X0023791Y0135327D01*
X0023878Y0135391D01*
X0023968Y0135452D01*
X0024060Y0135510D01*
X0024154Y0135564D01*
X0024250Y0135615D01*
X0024347Y0135662D01*
X0024447Y0135706D01*
X0024548Y0135746D01*
X0024650Y0135782D01*
X0024753Y0135814D01*
X0024858Y0135843D01*
X0024964Y0135867D01*
X0025070Y0135888D01*
X0025177Y0135905D01*
X0025285Y0135918D01*
X0025393Y0135927D01*
X0025502Y0135932D01*
X0025610Y0135933D01*
X0025719Y0135930D01*
X0025827Y0135923D01*
X0025935Y0135912D01*
X0026042Y0135897D01*
X0026149Y0135878D01*
X0026255Y0135855D01*
X0026360Y0135829D01*
X0026465Y0135798D01*
X0026567Y0135764D01*
X0026669Y0135726D01*
X0026769Y0135684D01*
X0026868Y0135639D01*
X0026965Y0135590D01*
X0027059Y0135537D01*
X0027152Y0135481D01*
X0027243Y0135422D01*
X0027332Y0135359D01*
X0027418Y0135294D01*
X0027502Y0135225D01*
X0027583Y0135153D01*
X0027661Y0135078D01*
X0027737Y0135000D01*
X0027810Y0134919D01*
X0027880Y0134836D01*
X0027946Y0134751D01*
X0028010Y0134663D01*
X0028070Y0134572D01*
X0028127Y0134480D01*
X0028180Y0134385D01*
X0028230Y0134289D01*
X0028276Y0134191D01*
X0028319Y0134091D01*
X0028358Y0133990D01*
X0028393Y0133887D01*
X0028425Y0133784D01*
X0028452Y0133679D01*
X0028476Y0133573D01*
X0028496Y0133466D01*
X0028512Y0133359D01*
X0028524Y0133251D01*
X0028532Y0133143D01*
X0028536Y0133034D01*
X0028536Y0132926D01*
X0028532Y0132817D01*
X0028524Y0132709D01*
X0028512Y0132601D01*
X0028496Y0132494D01*
X0028476Y0132387D01*
X0028452Y0132281D01*
X0028425Y0132176D01*
X0028393Y0132073D01*
X0028358Y0131970D01*
X0028319Y0131869D01*
X0028276Y0131769D01*
X0028230Y0131671D01*
X0028180Y0131575D01*
X0028127Y0131480D01*
X0028070Y0131388D01*
X0028010Y0131297D01*
X0027946Y0131209D01*
X0027880Y0131124D01*
X0027810Y0131041D01*
X0027737Y0130960D01*
X0027661Y0130882D01*
X0027583Y0130807D01*
X0027502Y0130735D01*
X0027418Y0130666D01*
X0027332Y0130601D01*
X0027243Y0130538D01*
X0027152Y0130479D01*
X0027060Y0130423D01*
X0026965Y0130370D01*
X0026868Y0130321D01*
X0026769Y0130276D01*
X0026669Y0130234D01*
X0026567Y0130196D01*
X0026465Y0130162D01*
X0026360Y0130131D01*
X0026255Y0130105D01*
X0026149Y0130082D01*
X0026042Y0130063D01*
X0025935Y0130048D01*
X0025827Y0130037D01*
X0025719Y0130030D01*
X0025610Y0130027D01*
X0025502Y0130028D01*
X0025393Y0130033D01*
X0025285Y0130042D01*
X0025177Y0130055D01*
X0025070Y0130072D01*
X0024964Y0130093D01*
X0024858Y0130117D01*
X0024753Y0130146D01*
X0024650Y0130178D01*
X0024548Y0130214D01*
X0024447Y0130254D01*
X0024347Y0130298D01*
X0024250Y0130345D01*
X0024154Y0130396D01*
X0024060Y0130450D01*
X0023968Y0130508D01*
X0023878Y0130569D01*
X0023791Y0130633D01*
X0023706Y0130701D01*
X0023623Y0130771D01*
X0023543Y0130845D01*
X0023466Y0130921D01*
X0023392Y0131000D01*
X0023321Y0131082D01*
X0023253Y0131166D01*
X0023188Y0131253D01*
X0023126Y0131342D01*
X0023067Y0131434D01*
X0023012Y0131527D01*
X0022961Y0131622D01*
X0022912Y0131720D01*
X0022868Y0131819D01*
X0022827Y0131919D01*
X0022790Y0132021D01*
X0022757Y0132124D01*
X0022727Y0132229D01*
X0022701Y0132334D01*
X0022680Y0132441D01*
X0022662Y0132548D01*
X0022648Y0132655D01*
X0022638Y0132763D01*
X0022632Y0132872D01*
X0022630Y0132980D01*
X0023454Y0193689D02*
X0023456Y0193850D01*
X0023462Y0194010D01*
X0023472Y0194171D01*
X0023486Y0194331D01*
X0023504Y0194491D01*
X0023525Y0194650D01*
X0023551Y0194809D01*
X0023581Y0194967D01*
X0023614Y0195124D01*
X0023652Y0195281D01*
X0023693Y0195436D01*
X0023738Y0195590D01*
X0023787Y0195743D01*
X0023840Y0195895D01*
X0023896Y0196046D01*
X0023957Y0196195D01*
X0024020Y0196343D01*
X0024088Y0196489D01*
X0024159Y0196633D01*
X0024233Y0196775D01*
X0024311Y0196916D01*
X0024393Y0197054D01*
X0024478Y0197191D01*
X0024566Y0197325D01*
X0024658Y0197457D01*
X0024753Y0197587D01*
X0024851Y0197715D01*
X0024952Y0197840D01*
X0025056Y0197962D01*
X0025163Y0198082D01*
X0025273Y0198199D01*
X0025386Y0198314D01*
X0025502Y0198425D01*
X0025621Y0198534D01*
X0025742Y0198639D01*
X0025866Y0198742D01*
X0025992Y0198842D01*
X0026120Y0198938D01*
X0026251Y0199031D01*
X0026385Y0199121D01*
X0026520Y0199208D01*
X0026658Y0199291D01*
X0026797Y0199371D01*
X0026939Y0199447D01*
X0027082Y0199520D01*
X0027227Y0199589D01*
X0027374Y0199655D01*
X0027522Y0199717D01*
X0027672Y0199775D01*
X0027823Y0199830D01*
X0027976Y0199881D01*
X0028130Y0199928D01*
X0028285Y0199971D01*
X0028441Y0200010D01*
X0028597Y0200046D01*
X0028755Y0200077D01*
X0028913Y0200105D01*
X0029072Y0200129D01*
X0029232Y0200149D01*
X0029392Y0200165D01*
X0029552Y0200177D01*
X0029713Y0200185D01*
X0029874Y0200189D01*
X0030034Y0200189D01*
X0030195Y0200185D01*
X0030356Y0200177D01*
X0030516Y0200165D01*
X0030676Y0200149D01*
X0030836Y0200129D01*
X0030995Y0200105D01*
X0031153Y0200077D01*
X0031311Y0200046D01*
X0031467Y0200010D01*
X0031623Y0199971D01*
X0031778Y0199928D01*
X0031932Y0199881D01*
X0032085Y0199830D01*
X0032236Y0199775D01*
X0032386Y0199717D01*
X0032534Y0199655D01*
X0032681Y0199589D01*
X0032826Y0199520D01*
X0032969Y0199447D01*
X0033111Y0199371D01*
X0033250Y0199291D01*
X0033388Y0199208D01*
X0033523Y0199121D01*
X0033657Y0199031D01*
X0033788Y0198938D01*
X0033916Y0198842D01*
X0034042Y0198742D01*
X0034166Y0198639D01*
X0034287Y0198534D01*
X0034406Y0198425D01*
X0034522Y0198314D01*
X0034635Y0198199D01*
X0034745Y0198082D01*
X0034852Y0197962D01*
X0034956Y0197840D01*
X0035057Y0197715D01*
X0035155Y0197587D01*
X0035250Y0197457D01*
X0035342Y0197325D01*
X0035430Y0197191D01*
X0035515Y0197054D01*
X0035597Y0196916D01*
X0035675Y0196775D01*
X0035749Y0196633D01*
X0035820Y0196489D01*
X0035888Y0196343D01*
X0035951Y0196195D01*
X0036012Y0196046D01*
X0036068Y0195895D01*
X0036121Y0195743D01*
X0036170Y0195590D01*
X0036215Y0195436D01*
X0036256Y0195281D01*
X0036294Y0195124D01*
X0036327Y0194967D01*
X0036357Y0194809D01*
X0036383Y0194650D01*
X0036404Y0194491D01*
X0036422Y0194331D01*
X0036436Y0194171D01*
X0036446Y0194010D01*
X0036452Y0193850D01*
X0036454Y0193689D01*
X0036452Y0193528D01*
X0036446Y0193368D01*
X0036436Y0193207D01*
X0036422Y0193047D01*
X0036404Y0192887D01*
X0036383Y0192728D01*
X0036357Y0192569D01*
X0036327Y0192411D01*
X0036294Y0192254D01*
X0036256Y0192097D01*
X0036215Y0191942D01*
X0036170Y0191788D01*
X0036121Y0191635D01*
X0036068Y0191483D01*
X0036012Y0191332D01*
X0035951Y0191183D01*
X0035888Y0191035D01*
X0035820Y0190889D01*
X0035749Y0190745D01*
X0035675Y0190603D01*
X0035597Y0190462D01*
X0035515Y0190324D01*
X0035430Y0190187D01*
X0035342Y0190053D01*
X0035250Y0189921D01*
X0035155Y0189791D01*
X0035057Y0189663D01*
X0034956Y0189538D01*
X0034852Y0189416D01*
X0034745Y0189296D01*
X0034635Y0189179D01*
X0034522Y0189064D01*
X0034406Y0188953D01*
X0034287Y0188844D01*
X0034166Y0188739D01*
X0034042Y0188636D01*
X0033916Y0188536D01*
X0033788Y0188440D01*
X0033657Y0188347D01*
X0033523Y0188257D01*
X0033388Y0188170D01*
X0033250Y0188087D01*
X0033111Y0188007D01*
X0032969Y0187931D01*
X0032826Y0187858D01*
X0032681Y0187789D01*
X0032534Y0187723D01*
X0032386Y0187661D01*
X0032236Y0187603D01*
X0032085Y0187548D01*
X0031932Y0187497D01*
X0031778Y0187450D01*
X0031623Y0187407D01*
X0031467Y0187368D01*
X0031311Y0187332D01*
X0031153Y0187301D01*
X0030995Y0187273D01*
X0030836Y0187249D01*
X0030676Y0187229D01*
X0030516Y0187213D01*
X0030356Y0187201D01*
X0030195Y0187193D01*
X0030034Y0187189D01*
X0029874Y0187189D01*
X0029713Y0187193D01*
X0029552Y0187201D01*
X0029392Y0187213D01*
X0029232Y0187229D01*
X0029072Y0187249D01*
X0028913Y0187273D01*
X0028755Y0187301D01*
X0028597Y0187332D01*
X0028441Y0187368D01*
X0028285Y0187407D01*
X0028130Y0187450D01*
X0027976Y0187497D01*
X0027823Y0187548D01*
X0027672Y0187603D01*
X0027522Y0187661D01*
X0027374Y0187723D01*
X0027227Y0187789D01*
X0027082Y0187858D01*
X0026939Y0187931D01*
X0026797Y0188007D01*
X0026658Y0188087D01*
X0026520Y0188170D01*
X0026385Y0188257D01*
X0026251Y0188347D01*
X0026120Y0188440D01*
X0025992Y0188536D01*
X0025866Y0188636D01*
X0025742Y0188739D01*
X0025621Y0188844D01*
X0025502Y0188953D01*
X0025386Y0189064D01*
X0025273Y0189179D01*
X0025163Y0189296D01*
X0025056Y0189416D01*
X0024952Y0189538D01*
X0024851Y0189663D01*
X0024753Y0189791D01*
X0024658Y0189921D01*
X0024566Y0190053D01*
X0024478Y0190187D01*
X0024393Y0190324D01*
X0024311Y0190462D01*
X0024233Y0190603D01*
X0024159Y0190745D01*
X0024088Y0190889D01*
X0024020Y0191035D01*
X0023957Y0191183D01*
X0023896Y0191332D01*
X0023840Y0191483D01*
X0023787Y0191635D01*
X0023738Y0191788D01*
X0023693Y0191942D01*
X0023652Y0192097D01*
X0023614Y0192254D01*
X0023581Y0192411D01*
X0023551Y0192569D01*
X0023525Y0192728D01*
X0023504Y0192887D01*
X0023486Y0193047D01*
X0023472Y0193207D01*
X0023462Y0193368D01*
X0023456Y0193528D01*
X0023454Y0193689D01*
X0291686Y0089083D02*
X0291688Y0089191D01*
X0291694Y0089300D01*
X0291704Y0089408D01*
X0291718Y0089515D01*
X0291736Y0089622D01*
X0291757Y0089729D01*
X0291783Y0089834D01*
X0291813Y0089939D01*
X0291846Y0090042D01*
X0291883Y0090144D01*
X0291924Y0090244D01*
X0291968Y0090343D01*
X0292017Y0090441D01*
X0292068Y0090536D01*
X0292123Y0090629D01*
X0292182Y0090721D01*
X0292244Y0090810D01*
X0292309Y0090897D01*
X0292377Y0090981D01*
X0292448Y0091063D01*
X0292522Y0091142D01*
X0292599Y0091218D01*
X0292679Y0091292D01*
X0292762Y0091362D01*
X0292847Y0091430D01*
X0292934Y0091494D01*
X0293024Y0091555D01*
X0293116Y0091613D01*
X0293210Y0091667D01*
X0293306Y0091718D01*
X0293403Y0091765D01*
X0293503Y0091809D01*
X0293604Y0091849D01*
X0293706Y0091885D01*
X0293809Y0091917D01*
X0293914Y0091946D01*
X0294020Y0091970D01*
X0294126Y0091991D01*
X0294233Y0092008D01*
X0294341Y0092021D01*
X0294449Y0092030D01*
X0294558Y0092035D01*
X0294666Y0092036D01*
X0294775Y0092033D01*
X0294883Y0092026D01*
X0294991Y0092015D01*
X0295098Y0092000D01*
X0295205Y0091981D01*
X0295311Y0091958D01*
X0295416Y0091932D01*
X0295521Y0091901D01*
X0295623Y0091867D01*
X0295725Y0091829D01*
X0295825Y0091787D01*
X0295924Y0091742D01*
X0296021Y0091693D01*
X0296115Y0091640D01*
X0296208Y0091584D01*
X0296299Y0091525D01*
X0296388Y0091462D01*
X0296474Y0091397D01*
X0296558Y0091328D01*
X0296639Y0091256D01*
X0296717Y0091181D01*
X0296793Y0091103D01*
X0296866Y0091022D01*
X0296936Y0090939D01*
X0297002Y0090854D01*
X0297066Y0090766D01*
X0297126Y0090675D01*
X0297183Y0090583D01*
X0297236Y0090488D01*
X0297286Y0090392D01*
X0297332Y0090294D01*
X0297375Y0090194D01*
X0297414Y0090093D01*
X0297449Y0089990D01*
X0297481Y0089887D01*
X0297508Y0089782D01*
X0297532Y0089676D01*
X0297552Y0089569D01*
X0297568Y0089462D01*
X0297580Y0089354D01*
X0297588Y0089246D01*
X0297592Y0089137D01*
X0297592Y0089029D01*
X0297588Y0088920D01*
X0297580Y0088812D01*
X0297568Y0088704D01*
X0297552Y0088597D01*
X0297532Y0088490D01*
X0297508Y0088384D01*
X0297481Y0088279D01*
X0297449Y0088176D01*
X0297414Y0088073D01*
X0297375Y0087972D01*
X0297332Y0087872D01*
X0297286Y0087774D01*
X0297236Y0087678D01*
X0297183Y0087583D01*
X0297126Y0087491D01*
X0297066Y0087400D01*
X0297002Y0087312D01*
X0296936Y0087227D01*
X0296866Y0087144D01*
X0296793Y0087063D01*
X0296717Y0086985D01*
X0296639Y0086910D01*
X0296558Y0086838D01*
X0296474Y0086769D01*
X0296388Y0086704D01*
X0296299Y0086641D01*
X0296208Y0086582D01*
X0296116Y0086526D01*
X0296021Y0086473D01*
X0295924Y0086424D01*
X0295825Y0086379D01*
X0295725Y0086337D01*
X0295623Y0086299D01*
X0295521Y0086265D01*
X0295416Y0086234D01*
X0295311Y0086208D01*
X0295205Y0086185D01*
X0295098Y0086166D01*
X0294991Y0086151D01*
X0294883Y0086140D01*
X0294775Y0086133D01*
X0294666Y0086130D01*
X0294558Y0086131D01*
X0294449Y0086136D01*
X0294341Y0086145D01*
X0294233Y0086158D01*
X0294126Y0086175D01*
X0294020Y0086196D01*
X0293914Y0086220D01*
X0293809Y0086249D01*
X0293706Y0086281D01*
X0293604Y0086317D01*
X0293503Y0086357D01*
X0293403Y0086401D01*
X0293306Y0086448D01*
X0293210Y0086499D01*
X0293116Y0086553D01*
X0293024Y0086611D01*
X0292934Y0086672D01*
X0292847Y0086736D01*
X0292762Y0086804D01*
X0292679Y0086874D01*
X0292599Y0086948D01*
X0292522Y0087024D01*
X0292448Y0087103D01*
X0292377Y0087185D01*
X0292309Y0087269D01*
X0292244Y0087356D01*
X0292182Y0087445D01*
X0292123Y0087537D01*
X0292068Y0087630D01*
X0292017Y0087725D01*
X0291968Y0087823D01*
X0291924Y0087922D01*
X0291883Y0088022D01*
X0291846Y0088124D01*
X0291813Y0088227D01*
X0291783Y0088332D01*
X0291757Y0088437D01*
X0291736Y0088544D01*
X0291718Y0088651D01*
X0291704Y0088758D01*
X0291694Y0088866D01*
X0291688Y0088975D01*
X0291686Y0089083D01*
X0311371Y0069398D02*
X0311373Y0069506D01*
X0311379Y0069615D01*
X0311389Y0069723D01*
X0311403Y0069830D01*
X0311421Y0069937D01*
X0311442Y0070044D01*
X0311468Y0070149D01*
X0311498Y0070254D01*
X0311531Y0070357D01*
X0311568Y0070459D01*
X0311609Y0070559D01*
X0311653Y0070658D01*
X0311702Y0070756D01*
X0311753Y0070851D01*
X0311808Y0070944D01*
X0311867Y0071036D01*
X0311929Y0071125D01*
X0311994Y0071212D01*
X0312062Y0071296D01*
X0312133Y0071378D01*
X0312207Y0071457D01*
X0312284Y0071533D01*
X0312364Y0071607D01*
X0312447Y0071677D01*
X0312532Y0071745D01*
X0312619Y0071809D01*
X0312709Y0071870D01*
X0312801Y0071928D01*
X0312895Y0071982D01*
X0312991Y0072033D01*
X0313088Y0072080D01*
X0313188Y0072124D01*
X0313289Y0072164D01*
X0313391Y0072200D01*
X0313494Y0072232D01*
X0313599Y0072261D01*
X0313705Y0072285D01*
X0313811Y0072306D01*
X0313918Y0072323D01*
X0314026Y0072336D01*
X0314134Y0072345D01*
X0314243Y0072350D01*
X0314351Y0072351D01*
X0314460Y0072348D01*
X0314568Y0072341D01*
X0314676Y0072330D01*
X0314783Y0072315D01*
X0314890Y0072296D01*
X0314996Y0072273D01*
X0315101Y0072247D01*
X0315206Y0072216D01*
X0315308Y0072182D01*
X0315410Y0072144D01*
X0315510Y0072102D01*
X0315609Y0072057D01*
X0315706Y0072008D01*
X0315800Y0071955D01*
X0315893Y0071899D01*
X0315984Y0071840D01*
X0316073Y0071777D01*
X0316159Y0071712D01*
X0316243Y0071643D01*
X0316324Y0071571D01*
X0316402Y0071496D01*
X0316478Y0071418D01*
X0316551Y0071337D01*
X0316621Y0071254D01*
X0316687Y0071169D01*
X0316751Y0071081D01*
X0316811Y0070990D01*
X0316868Y0070898D01*
X0316921Y0070803D01*
X0316971Y0070707D01*
X0317017Y0070609D01*
X0317060Y0070509D01*
X0317099Y0070408D01*
X0317134Y0070305D01*
X0317166Y0070202D01*
X0317193Y0070097D01*
X0317217Y0069991D01*
X0317237Y0069884D01*
X0317253Y0069777D01*
X0317265Y0069669D01*
X0317273Y0069561D01*
X0317277Y0069452D01*
X0317277Y0069344D01*
X0317273Y0069235D01*
X0317265Y0069127D01*
X0317253Y0069019D01*
X0317237Y0068912D01*
X0317217Y0068805D01*
X0317193Y0068699D01*
X0317166Y0068594D01*
X0317134Y0068491D01*
X0317099Y0068388D01*
X0317060Y0068287D01*
X0317017Y0068187D01*
X0316971Y0068089D01*
X0316921Y0067993D01*
X0316868Y0067898D01*
X0316811Y0067806D01*
X0316751Y0067715D01*
X0316687Y0067627D01*
X0316621Y0067542D01*
X0316551Y0067459D01*
X0316478Y0067378D01*
X0316402Y0067300D01*
X0316324Y0067225D01*
X0316243Y0067153D01*
X0316159Y0067084D01*
X0316073Y0067019D01*
X0315984Y0066956D01*
X0315893Y0066897D01*
X0315801Y0066841D01*
X0315706Y0066788D01*
X0315609Y0066739D01*
X0315510Y0066694D01*
X0315410Y0066652D01*
X0315308Y0066614D01*
X0315206Y0066580D01*
X0315101Y0066549D01*
X0314996Y0066523D01*
X0314890Y0066500D01*
X0314783Y0066481D01*
X0314676Y0066466D01*
X0314568Y0066455D01*
X0314460Y0066448D01*
X0314351Y0066445D01*
X0314243Y0066446D01*
X0314134Y0066451D01*
X0314026Y0066460D01*
X0313918Y0066473D01*
X0313811Y0066490D01*
X0313705Y0066511D01*
X0313599Y0066535D01*
X0313494Y0066564D01*
X0313391Y0066596D01*
X0313289Y0066632D01*
X0313188Y0066672D01*
X0313088Y0066716D01*
X0312991Y0066763D01*
X0312895Y0066814D01*
X0312801Y0066868D01*
X0312709Y0066926D01*
X0312619Y0066987D01*
X0312532Y0067051D01*
X0312447Y0067119D01*
X0312364Y0067189D01*
X0312284Y0067263D01*
X0312207Y0067339D01*
X0312133Y0067418D01*
X0312062Y0067500D01*
X0311994Y0067584D01*
X0311929Y0067671D01*
X0311867Y0067760D01*
X0311808Y0067852D01*
X0311753Y0067945D01*
X0311702Y0068040D01*
X0311653Y0068138D01*
X0311609Y0068237D01*
X0311568Y0068337D01*
X0311531Y0068439D01*
X0311498Y0068542D01*
X0311468Y0068647D01*
X0311442Y0068752D01*
X0311421Y0068859D01*
X0311403Y0068966D01*
X0311389Y0069073D01*
X0311379Y0069181D01*
X0311373Y0069290D01*
X0311371Y0069398D01*
X0303454Y0033689D02*
X0303456Y0033850D01*
X0303462Y0034010D01*
X0303472Y0034171D01*
X0303486Y0034331D01*
X0303504Y0034491D01*
X0303525Y0034650D01*
X0303551Y0034809D01*
X0303581Y0034967D01*
X0303614Y0035124D01*
X0303652Y0035281D01*
X0303693Y0035436D01*
X0303738Y0035590D01*
X0303787Y0035743D01*
X0303840Y0035895D01*
X0303896Y0036046D01*
X0303957Y0036195D01*
X0304020Y0036343D01*
X0304088Y0036489D01*
X0304159Y0036633D01*
X0304233Y0036775D01*
X0304311Y0036916D01*
X0304393Y0037054D01*
X0304478Y0037191D01*
X0304566Y0037325D01*
X0304658Y0037457D01*
X0304753Y0037587D01*
X0304851Y0037715D01*
X0304952Y0037840D01*
X0305056Y0037962D01*
X0305163Y0038082D01*
X0305273Y0038199D01*
X0305386Y0038314D01*
X0305502Y0038425D01*
X0305621Y0038534D01*
X0305742Y0038639D01*
X0305866Y0038742D01*
X0305992Y0038842D01*
X0306120Y0038938D01*
X0306251Y0039031D01*
X0306385Y0039121D01*
X0306520Y0039208D01*
X0306658Y0039291D01*
X0306797Y0039371D01*
X0306939Y0039447D01*
X0307082Y0039520D01*
X0307227Y0039589D01*
X0307374Y0039655D01*
X0307522Y0039717D01*
X0307672Y0039775D01*
X0307823Y0039830D01*
X0307976Y0039881D01*
X0308130Y0039928D01*
X0308285Y0039971D01*
X0308441Y0040010D01*
X0308597Y0040046D01*
X0308755Y0040077D01*
X0308913Y0040105D01*
X0309072Y0040129D01*
X0309232Y0040149D01*
X0309392Y0040165D01*
X0309552Y0040177D01*
X0309713Y0040185D01*
X0309874Y0040189D01*
X0310034Y0040189D01*
X0310195Y0040185D01*
X0310356Y0040177D01*
X0310516Y0040165D01*
X0310676Y0040149D01*
X0310836Y0040129D01*
X0310995Y0040105D01*
X0311153Y0040077D01*
X0311311Y0040046D01*
X0311467Y0040010D01*
X0311623Y0039971D01*
X0311778Y0039928D01*
X0311932Y0039881D01*
X0312085Y0039830D01*
X0312236Y0039775D01*
X0312386Y0039717D01*
X0312534Y0039655D01*
X0312681Y0039589D01*
X0312826Y0039520D01*
X0312969Y0039447D01*
X0313111Y0039371D01*
X0313250Y0039291D01*
X0313388Y0039208D01*
X0313523Y0039121D01*
X0313657Y0039031D01*
X0313788Y0038938D01*
X0313916Y0038842D01*
X0314042Y0038742D01*
X0314166Y0038639D01*
X0314287Y0038534D01*
X0314406Y0038425D01*
X0314522Y0038314D01*
X0314635Y0038199D01*
X0314745Y0038082D01*
X0314852Y0037962D01*
X0314956Y0037840D01*
X0315057Y0037715D01*
X0315155Y0037587D01*
X0315250Y0037457D01*
X0315342Y0037325D01*
X0315430Y0037191D01*
X0315515Y0037054D01*
X0315597Y0036916D01*
X0315675Y0036775D01*
X0315749Y0036633D01*
X0315820Y0036489D01*
X0315888Y0036343D01*
X0315951Y0036195D01*
X0316012Y0036046D01*
X0316068Y0035895D01*
X0316121Y0035743D01*
X0316170Y0035590D01*
X0316215Y0035436D01*
X0316256Y0035281D01*
X0316294Y0035124D01*
X0316327Y0034967D01*
X0316357Y0034809D01*
X0316383Y0034650D01*
X0316404Y0034491D01*
X0316422Y0034331D01*
X0316436Y0034171D01*
X0316446Y0034010D01*
X0316452Y0033850D01*
X0316454Y0033689D01*
X0316452Y0033528D01*
X0316446Y0033368D01*
X0316436Y0033207D01*
X0316422Y0033047D01*
X0316404Y0032887D01*
X0316383Y0032728D01*
X0316357Y0032569D01*
X0316327Y0032411D01*
X0316294Y0032254D01*
X0316256Y0032097D01*
X0316215Y0031942D01*
X0316170Y0031788D01*
X0316121Y0031635D01*
X0316068Y0031483D01*
X0316012Y0031332D01*
X0315951Y0031183D01*
X0315888Y0031035D01*
X0315820Y0030889D01*
X0315749Y0030745D01*
X0315675Y0030603D01*
X0315597Y0030462D01*
X0315515Y0030324D01*
X0315430Y0030187D01*
X0315342Y0030053D01*
X0315250Y0029921D01*
X0315155Y0029791D01*
X0315057Y0029663D01*
X0314956Y0029538D01*
X0314852Y0029416D01*
X0314745Y0029296D01*
X0314635Y0029179D01*
X0314522Y0029064D01*
X0314406Y0028953D01*
X0314287Y0028844D01*
X0314166Y0028739D01*
X0314042Y0028636D01*
X0313916Y0028536D01*
X0313788Y0028440D01*
X0313657Y0028347D01*
X0313523Y0028257D01*
X0313388Y0028170D01*
X0313250Y0028087D01*
X0313111Y0028007D01*
X0312969Y0027931D01*
X0312826Y0027858D01*
X0312681Y0027789D01*
X0312534Y0027723D01*
X0312386Y0027661D01*
X0312236Y0027603D01*
X0312085Y0027548D01*
X0311932Y0027497D01*
X0311778Y0027450D01*
X0311623Y0027407D01*
X0311467Y0027368D01*
X0311311Y0027332D01*
X0311153Y0027301D01*
X0310995Y0027273D01*
X0310836Y0027249D01*
X0310676Y0027229D01*
X0310516Y0027213D01*
X0310356Y0027201D01*
X0310195Y0027193D01*
X0310034Y0027189D01*
X0309874Y0027189D01*
X0309713Y0027193D01*
X0309552Y0027201D01*
X0309392Y0027213D01*
X0309232Y0027229D01*
X0309072Y0027249D01*
X0308913Y0027273D01*
X0308755Y0027301D01*
X0308597Y0027332D01*
X0308441Y0027368D01*
X0308285Y0027407D01*
X0308130Y0027450D01*
X0307976Y0027497D01*
X0307823Y0027548D01*
X0307672Y0027603D01*
X0307522Y0027661D01*
X0307374Y0027723D01*
X0307227Y0027789D01*
X0307082Y0027858D01*
X0306939Y0027931D01*
X0306797Y0028007D01*
X0306658Y0028087D01*
X0306520Y0028170D01*
X0306385Y0028257D01*
X0306251Y0028347D01*
X0306120Y0028440D01*
X0305992Y0028536D01*
X0305866Y0028636D01*
X0305742Y0028739D01*
X0305621Y0028844D01*
X0305502Y0028953D01*
X0305386Y0029064D01*
X0305273Y0029179D01*
X0305163Y0029296D01*
X0305056Y0029416D01*
X0304952Y0029538D01*
X0304851Y0029663D01*
X0304753Y0029791D01*
X0304658Y0029921D01*
X0304566Y0030053D01*
X0304478Y0030187D01*
X0304393Y0030324D01*
X0304311Y0030462D01*
X0304233Y0030603D01*
X0304159Y0030745D01*
X0304088Y0030889D01*
X0304020Y0031035D01*
X0303957Y0031183D01*
X0303896Y0031332D01*
X0303840Y0031483D01*
X0303787Y0031635D01*
X0303738Y0031788D01*
X0303693Y0031942D01*
X0303652Y0032097D01*
X0303614Y0032254D01*
X0303581Y0032411D01*
X0303551Y0032569D01*
X0303525Y0032728D01*
X0303504Y0032887D01*
X0303486Y0033047D01*
X0303472Y0033207D01*
X0303462Y0033368D01*
X0303456Y0033528D01*
X0303454Y0033689D01*
X0311371Y0108768D02*
X0311373Y0108876D01*
X0311379Y0108985D01*
X0311389Y0109093D01*
X0311403Y0109200D01*
X0311421Y0109307D01*
X0311442Y0109414D01*
X0311468Y0109519D01*
X0311498Y0109624D01*
X0311531Y0109727D01*
X0311568Y0109829D01*
X0311609Y0109929D01*
X0311653Y0110028D01*
X0311702Y0110126D01*
X0311753Y0110221D01*
X0311808Y0110314D01*
X0311867Y0110406D01*
X0311929Y0110495D01*
X0311994Y0110582D01*
X0312062Y0110666D01*
X0312133Y0110748D01*
X0312207Y0110827D01*
X0312284Y0110903D01*
X0312364Y0110977D01*
X0312447Y0111047D01*
X0312532Y0111115D01*
X0312619Y0111179D01*
X0312709Y0111240D01*
X0312801Y0111298D01*
X0312895Y0111352D01*
X0312991Y0111403D01*
X0313088Y0111450D01*
X0313188Y0111494D01*
X0313289Y0111534D01*
X0313391Y0111570D01*
X0313494Y0111602D01*
X0313599Y0111631D01*
X0313705Y0111655D01*
X0313811Y0111676D01*
X0313918Y0111693D01*
X0314026Y0111706D01*
X0314134Y0111715D01*
X0314243Y0111720D01*
X0314351Y0111721D01*
X0314460Y0111718D01*
X0314568Y0111711D01*
X0314676Y0111700D01*
X0314783Y0111685D01*
X0314890Y0111666D01*
X0314996Y0111643D01*
X0315101Y0111617D01*
X0315206Y0111586D01*
X0315308Y0111552D01*
X0315410Y0111514D01*
X0315510Y0111472D01*
X0315609Y0111427D01*
X0315706Y0111378D01*
X0315800Y0111325D01*
X0315893Y0111269D01*
X0315984Y0111210D01*
X0316073Y0111147D01*
X0316159Y0111082D01*
X0316243Y0111013D01*
X0316324Y0110941D01*
X0316402Y0110866D01*
X0316478Y0110788D01*
X0316551Y0110707D01*
X0316621Y0110624D01*
X0316687Y0110539D01*
X0316751Y0110451D01*
X0316811Y0110360D01*
X0316868Y0110268D01*
X0316921Y0110173D01*
X0316971Y0110077D01*
X0317017Y0109979D01*
X0317060Y0109879D01*
X0317099Y0109778D01*
X0317134Y0109675D01*
X0317166Y0109572D01*
X0317193Y0109467D01*
X0317217Y0109361D01*
X0317237Y0109254D01*
X0317253Y0109147D01*
X0317265Y0109039D01*
X0317273Y0108931D01*
X0317277Y0108822D01*
X0317277Y0108714D01*
X0317273Y0108605D01*
X0317265Y0108497D01*
X0317253Y0108389D01*
X0317237Y0108282D01*
X0317217Y0108175D01*
X0317193Y0108069D01*
X0317166Y0107964D01*
X0317134Y0107861D01*
X0317099Y0107758D01*
X0317060Y0107657D01*
X0317017Y0107557D01*
X0316971Y0107459D01*
X0316921Y0107363D01*
X0316868Y0107268D01*
X0316811Y0107176D01*
X0316751Y0107085D01*
X0316687Y0106997D01*
X0316621Y0106912D01*
X0316551Y0106829D01*
X0316478Y0106748D01*
X0316402Y0106670D01*
X0316324Y0106595D01*
X0316243Y0106523D01*
X0316159Y0106454D01*
X0316073Y0106389D01*
X0315984Y0106326D01*
X0315893Y0106267D01*
X0315801Y0106211D01*
X0315706Y0106158D01*
X0315609Y0106109D01*
X0315510Y0106064D01*
X0315410Y0106022D01*
X0315308Y0105984D01*
X0315206Y0105950D01*
X0315101Y0105919D01*
X0314996Y0105893D01*
X0314890Y0105870D01*
X0314783Y0105851D01*
X0314676Y0105836D01*
X0314568Y0105825D01*
X0314460Y0105818D01*
X0314351Y0105815D01*
X0314243Y0105816D01*
X0314134Y0105821D01*
X0314026Y0105830D01*
X0313918Y0105843D01*
X0313811Y0105860D01*
X0313705Y0105881D01*
X0313599Y0105905D01*
X0313494Y0105934D01*
X0313391Y0105966D01*
X0313289Y0106002D01*
X0313188Y0106042D01*
X0313088Y0106086D01*
X0312991Y0106133D01*
X0312895Y0106184D01*
X0312801Y0106238D01*
X0312709Y0106296D01*
X0312619Y0106357D01*
X0312532Y0106421D01*
X0312447Y0106489D01*
X0312364Y0106559D01*
X0312284Y0106633D01*
X0312207Y0106709D01*
X0312133Y0106788D01*
X0312062Y0106870D01*
X0311994Y0106954D01*
X0311929Y0107041D01*
X0311867Y0107130D01*
X0311808Y0107222D01*
X0311753Y0107315D01*
X0311702Y0107410D01*
X0311653Y0107508D01*
X0311609Y0107607D01*
X0311568Y0107707D01*
X0311531Y0107809D01*
X0311498Y0107912D01*
X0311468Y0108017D01*
X0311442Y0108122D01*
X0311421Y0108229D01*
X0311403Y0108336D01*
X0311389Y0108443D01*
X0311379Y0108551D01*
X0311373Y0108660D01*
X0311371Y0108768D01*
X0303454Y0193689D02*
X0303456Y0193850D01*
X0303462Y0194010D01*
X0303472Y0194171D01*
X0303486Y0194331D01*
X0303504Y0194491D01*
X0303525Y0194650D01*
X0303551Y0194809D01*
X0303581Y0194967D01*
X0303614Y0195124D01*
X0303652Y0195281D01*
X0303693Y0195436D01*
X0303738Y0195590D01*
X0303787Y0195743D01*
X0303840Y0195895D01*
X0303896Y0196046D01*
X0303957Y0196195D01*
X0304020Y0196343D01*
X0304088Y0196489D01*
X0304159Y0196633D01*
X0304233Y0196775D01*
X0304311Y0196916D01*
X0304393Y0197054D01*
X0304478Y0197191D01*
X0304566Y0197325D01*
X0304658Y0197457D01*
X0304753Y0197587D01*
X0304851Y0197715D01*
X0304952Y0197840D01*
X0305056Y0197962D01*
X0305163Y0198082D01*
X0305273Y0198199D01*
X0305386Y0198314D01*
X0305502Y0198425D01*
X0305621Y0198534D01*
X0305742Y0198639D01*
X0305866Y0198742D01*
X0305992Y0198842D01*
X0306120Y0198938D01*
X0306251Y0199031D01*
X0306385Y0199121D01*
X0306520Y0199208D01*
X0306658Y0199291D01*
X0306797Y0199371D01*
X0306939Y0199447D01*
X0307082Y0199520D01*
X0307227Y0199589D01*
X0307374Y0199655D01*
X0307522Y0199717D01*
X0307672Y0199775D01*
X0307823Y0199830D01*
X0307976Y0199881D01*
X0308130Y0199928D01*
X0308285Y0199971D01*
X0308441Y0200010D01*
X0308597Y0200046D01*
X0308755Y0200077D01*
X0308913Y0200105D01*
X0309072Y0200129D01*
X0309232Y0200149D01*
X0309392Y0200165D01*
X0309552Y0200177D01*
X0309713Y0200185D01*
X0309874Y0200189D01*
X0310034Y0200189D01*
X0310195Y0200185D01*
X0310356Y0200177D01*
X0310516Y0200165D01*
X0310676Y0200149D01*
X0310836Y0200129D01*
X0310995Y0200105D01*
X0311153Y0200077D01*
X0311311Y0200046D01*
X0311467Y0200010D01*
X0311623Y0199971D01*
X0311778Y0199928D01*
X0311932Y0199881D01*
X0312085Y0199830D01*
X0312236Y0199775D01*
X0312386Y0199717D01*
X0312534Y0199655D01*
X0312681Y0199589D01*
X0312826Y0199520D01*
X0312969Y0199447D01*
X0313111Y0199371D01*
X0313250Y0199291D01*
X0313388Y0199208D01*
X0313523Y0199121D01*
X0313657Y0199031D01*
X0313788Y0198938D01*
X0313916Y0198842D01*
X0314042Y0198742D01*
X0314166Y0198639D01*
X0314287Y0198534D01*
X0314406Y0198425D01*
X0314522Y0198314D01*
X0314635Y0198199D01*
X0314745Y0198082D01*
X0314852Y0197962D01*
X0314956Y0197840D01*
X0315057Y0197715D01*
X0315155Y0197587D01*
X0315250Y0197457D01*
X0315342Y0197325D01*
X0315430Y0197191D01*
X0315515Y0197054D01*
X0315597Y0196916D01*
X0315675Y0196775D01*
X0315749Y0196633D01*
X0315820Y0196489D01*
X0315888Y0196343D01*
X0315951Y0196195D01*
X0316012Y0196046D01*
X0316068Y0195895D01*
X0316121Y0195743D01*
X0316170Y0195590D01*
X0316215Y0195436D01*
X0316256Y0195281D01*
X0316294Y0195124D01*
X0316327Y0194967D01*
X0316357Y0194809D01*
X0316383Y0194650D01*
X0316404Y0194491D01*
X0316422Y0194331D01*
X0316436Y0194171D01*
X0316446Y0194010D01*
X0316452Y0193850D01*
X0316454Y0193689D01*
X0316452Y0193528D01*
X0316446Y0193368D01*
X0316436Y0193207D01*
X0316422Y0193047D01*
X0316404Y0192887D01*
X0316383Y0192728D01*
X0316357Y0192569D01*
X0316327Y0192411D01*
X0316294Y0192254D01*
X0316256Y0192097D01*
X0316215Y0191942D01*
X0316170Y0191788D01*
X0316121Y0191635D01*
X0316068Y0191483D01*
X0316012Y0191332D01*
X0315951Y0191183D01*
X0315888Y0191035D01*
X0315820Y0190889D01*
X0315749Y0190745D01*
X0315675Y0190603D01*
X0315597Y0190462D01*
X0315515Y0190324D01*
X0315430Y0190187D01*
X0315342Y0190053D01*
X0315250Y0189921D01*
X0315155Y0189791D01*
X0315057Y0189663D01*
X0314956Y0189538D01*
X0314852Y0189416D01*
X0314745Y0189296D01*
X0314635Y0189179D01*
X0314522Y0189064D01*
X0314406Y0188953D01*
X0314287Y0188844D01*
X0314166Y0188739D01*
X0314042Y0188636D01*
X0313916Y0188536D01*
X0313788Y0188440D01*
X0313657Y0188347D01*
X0313523Y0188257D01*
X0313388Y0188170D01*
X0313250Y0188087D01*
X0313111Y0188007D01*
X0312969Y0187931D01*
X0312826Y0187858D01*
X0312681Y0187789D01*
X0312534Y0187723D01*
X0312386Y0187661D01*
X0312236Y0187603D01*
X0312085Y0187548D01*
X0311932Y0187497D01*
X0311778Y0187450D01*
X0311623Y0187407D01*
X0311467Y0187368D01*
X0311311Y0187332D01*
X0311153Y0187301D01*
X0310995Y0187273D01*
X0310836Y0187249D01*
X0310676Y0187229D01*
X0310516Y0187213D01*
X0310356Y0187201D01*
X0310195Y0187193D01*
X0310034Y0187189D01*
X0309874Y0187189D01*
X0309713Y0187193D01*
X0309552Y0187201D01*
X0309392Y0187213D01*
X0309232Y0187229D01*
X0309072Y0187249D01*
X0308913Y0187273D01*
X0308755Y0187301D01*
X0308597Y0187332D01*
X0308441Y0187368D01*
X0308285Y0187407D01*
X0308130Y0187450D01*
X0307976Y0187497D01*
X0307823Y0187548D01*
X0307672Y0187603D01*
X0307522Y0187661D01*
X0307374Y0187723D01*
X0307227Y0187789D01*
X0307082Y0187858D01*
X0306939Y0187931D01*
X0306797Y0188007D01*
X0306658Y0188087D01*
X0306520Y0188170D01*
X0306385Y0188257D01*
X0306251Y0188347D01*
X0306120Y0188440D01*
X0305992Y0188536D01*
X0305866Y0188636D01*
X0305742Y0188739D01*
X0305621Y0188844D01*
X0305502Y0188953D01*
X0305386Y0189064D01*
X0305273Y0189179D01*
X0305163Y0189296D01*
X0305056Y0189416D01*
X0304952Y0189538D01*
X0304851Y0189663D01*
X0304753Y0189791D01*
X0304658Y0189921D01*
X0304566Y0190053D01*
X0304478Y0190187D01*
X0304393Y0190324D01*
X0304311Y0190462D01*
X0304233Y0190603D01*
X0304159Y0190745D01*
X0304088Y0190889D01*
X0304020Y0191035D01*
X0303957Y0191183D01*
X0303896Y0191332D01*
X0303840Y0191483D01*
X0303787Y0191635D01*
X0303738Y0191788D01*
X0303693Y0191942D01*
X0303652Y0192097D01*
X0303614Y0192254D01*
X0303581Y0192411D01*
X0303551Y0192569D01*
X0303525Y0192728D01*
X0303504Y0192887D01*
X0303486Y0193047D01*
X0303472Y0193207D01*
X0303462Y0193368D01*
X0303456Y0193528D01*
X0303454Y0193689D01*
M02*
