G75*
%MOIN*%
%OFA0B0*%
%FSLAX25Y25*%
%IPPOS*%
%LPD*%
%AMOC8*
5,1,8,0,0,1.08239X$1,22.5*
%
%ADD10OC8,0.06300*%
%ADD11C,0.06300*%
%ADD12C,0.10000*%
%ADD13C,0.08858*%
%ADD14R,0.07400X0.07400*%
%ADD15C,0.07400*%
%ADD16OC8,0.04800*%
%ADD17C,0.04800*%
%ADD18C,0.07000*%
%ADD19C,0.06000*%
%ADD20C,0.06496*%
%ADD21C,0.01600*%
%ADD22C,0.01200*%
D10*
X0039954Y0063689D03*
X0094954Y0063689D03*
X0104954Y0033689D03*
X0159954Y0028689D03*
X0194954Y0038689D03*
X0289954Y0043689D03*
X0099954Y0163689D03*
X0104954Y0198689D03*
X0159954Y0198689D03*
X0189954Y0188689D03*
X0284954Y0183689D03*
X0039954Y0163689D03*
D11*
X0039954Y0153689D03*
X0089954Y0163689D03*
X0104954Y0188689D03*
X0159954Y0188689D03*
X0189954Y0198689D03*
X0274954Y0183689D03*
X0084954Y0063689D03*
X0104954Y0043689D03*
X0159954Y0038689D03*
X0194954Y0028689D03*
X0279954Y0043689D03*
X0039954Y0073689D03*
D12*
X0025583Y0113295D03*
X0314324Y0089083D03*
D13*
X0294639Y0098532D03*
X0294639Y0109162D03*
X0294639Y0079634D03*
X0294639Y0069004D03*
X0045269Y0093217D03*
X0045269Y0103847D03*
X0045269Y0122744D03*
X0045269Y0133374D03*
D14*
X0144954Y0113689D03*
D15*
X0144954Y0103689D03*
D16*
X0049954Y0028689D03*
X0059954Y0023689D03*
X0059954Y0033689D03*
X0089954Y0033689D03*
X0089954Y0023689D03*
X0049954Y0058689D03*
X0069954Y0078689D03*
X0089954Y0078689D03*
X0109954Y0078689D03*
X0129954Y0078689D03*
X0144954Y0078689D03*
X0164954Y0078689D03*
X0159954Y0093689D03*
X0184954Y0078689D03*
X0204954Y0078689D03*
X0204954Y0048689D03*
X0184954Y0048689D03*
X0164954Y0048689D03*
X0144954Y0048689D03*
X0129954Y0108689D03*
X0129954Y0118689D03*
X0109954Y0118689D03*
X0109954Y0108689D03*
X0089954Y0108689D03*
X0089954Y0118689D03*
X0069954Y0118689D03*
X0069954Y0108689D03*
X0069954Y0148689D03*
X0089954Y0148689D03*
X0109954Y0148689D03*
X0129954Y0148689D03*
X0144954Y0148689D03*
X0164954Y0148689D03*
X0184954Y0148689D03*
X0204954Y0148689D03*
X0204954Y0178689D03*
X0184954Y0178689D03*
X0164954Y0178689D03*
X0144954Y0178689D03*
X0089954Y0188689D03*
X0089954Y0198689D03*
X0059954Y0198689D03*
X0049954Y0198689D03*
X0059954Y0188689D03*
X0049954Y0168689D03*
X0159954Y0123689D03*
D17*
X0122354Y0153689D02*
X0117554Y0153689D01*
X0117554Y0163689D02*
X0122354Y0163689D01*
X0122354Y0173689D02*
X0117554Y0173689D01*
X0127554Y0183689D02*
X0132354Y0183689D01*
X0132354Y0193689D02*
X0127554Y0193689D01*
X0127554Y0203689D02*
X0132354Y0203689D01*
X0067354Y0178689D02*
X0062554Y0178689D01*
X0062554Y0168689D02*
X0067354Y0168689D01*
X0067354Y0158689D02*
X0062554Y0158689D01*
X0117554Y0073689D02*
X0122354Y0073689D01*
X0122354Y0063689D02*
X0117554Y0063689D01*
X0117554Y0053689D02*
X0122354Y0053689D01*
X0132554Y0043689D02*
X0137354Y0043689D01*
X0137354Y0033689D02*
X0132554Y0033689D01*
X0132554Y0023689D02*
X0137354Y0023689D01*
X0072354Y0048689D02*
X0067554Y0048689D01*
X0067554Y0058689D02*
X0072354Y0058689D01*
X0072354Y0068689D02*
X0067554Y0068689D01*
X0217554Y0043689D02*
X0222354Y0043689D01*
X0222354Y0033689D02*
X0217554Y0033689D01*
X0217554Y0023689D02*
X0222354Y0023689D01*
X0252554Y0023689D02*
X0257354Y0023689D01*
X0257354Y0033689D02*
X0252554Y0033689D01*
X0252554Y0043689D02*
X0257354Y0043689D01*
X0257554Y0053689D02*
X0262354Y0053689D01*
X0262354Y0063689D02*
X0257554Y0063689D01*
X0257554Y0073689D02*
X0262354Y0073689D01*
X0232354Y0073689D02*
X0227554Y0073689D01*
X0227554Y0063689D02*
X0232354Y0063689D01*
X0232354Y0053689D02*
X0227554Y0053689D01*
X0227354Y0153689D02*
X0222554Y0153689D01*
X0222554Y0163689D02*
X0227354Y0163689D01*
X0227354Y0173689D02*
X0222554Y0173689D01*
X0222354Y0183689D02*
X0217554Y0183689D01*
X0217554Y0193689D02*
X0222354Y0193689D01*
X0222354Y0203689D02*
X0217554Y0203689D01*
X0247554Y0203689D02*
X0252354Y0203689D01*
X0252354Y0193689D02*
X0247554Y0193689D01*
X0247554Y0183689D02*
X0252354Y0183689D01*
X0252354Y0173689D02*
X0247554Y0173689D01*
X0247554Y0163689D02*
X0252354Y0163689D01*
X0252354Y0153689D02*
X0247554Y0153689D01*
D18*
X0269954Y0148689D03*
X0294954Y0148689D03*
X0304954Y0148689D03*
X0304954Y0138689D03*
X0294954Y0138689D03*
X0294954Y0128689D03*
X0304954Y0128689D03*
X0284954Y0128689D03*
X0269954Y0128689D03*
X0269954Y0108689D03*
D19*
X0260454Y0103689D02*
X0254454Y0103689D01*
X0254454Y0093689D02*
X0260454Y0093689D01*
X0230454Y0093689D02*
X0224454Y0093689D01*
X0224454Y0103689D02*
X0230454Y0103689D01*
D20*
X0203202Y0103689D02*
X0196706Y0103689D01*
X0196706Y0113689D02*
X0203202Y0113689D01*
X0183202Y0113689D02*
X0176706Y0113689D01*
X0176706Y0103689D02*
X0183202Y0103689D01*
X0183202Y0093689D02*
X0176706Y0093689D01*
X0196706Y0093689D02*
X0203202Y0093689D01*
D21*
X0179954Y0113689D02*
X0179954Y0123689D01*
X0204954Y0148689D01*
X0244954Y0148689D01*
X0249954Y0153689D01*
X0284954Y0128689D02*
X0269954Y0113689D01*
X0269954Y0108689D01*
X0159954Y0098689D02*
X0159954Y0093689D01*
X0159954Y0098689D02*
X0144954Y0113689D01*
X0119954Y0103689D02*
X0119954Y0073689D01*
X0119954Y0103689D02*
X0114954Y0108689D01*
X0109954Y0108689D01*
X0109954Y0118689D01*
X0114954Y0118689D01*
X0119954Y0123689D01*
X0119954Y0153689D01*
X0124954Y0153689D01*
X0129954Y0158689D01*
X0129954Y0183689D01*
X0109954Y0118689D02*
X0089954Y0118689D01*
X0069954Y0118689D01*
X0069954Y0108689D01*
X0089954Y0108689D01*
X0109954Y0108689D01*
D22*
X0129954Y0118689D02*
X0159954Y0148689D01*
X0159954Y0178689D01*
X0144954Y0178689D01*
X0159954Y0178689D02*
X0159954Y0188689D01*
X0119954Y0163689D02*
X0099954Y0163689D01*
X0089954Y0163689D02*
X0089954Y0148689D01*
X0069954Y0148689D02*
X0049954Y0148689D01*
X0049954Y0163689D01*
X0039954Y0163689D01*
X0049954Y0163689D02*
X0049954Y0168689D01*
X0064954Y0168689D01*
X0089954Y0188689D02*
X0104954Y0188689D01*
X0104954Y0198689D02*
X0089954Y0198689D01*
X0179954Y0113689D02*
X0199954Y0093689D01*
X0199954Y0083689D01*
X0204954Y0078689D01*
X0229954Y0073689D02*
X0229954Y0063689D01*
X0259954Y0063689D01*
X0259954Y0053689D02*
X0259954Y0048689D01*
X0254954Y0043689D01*
X0254954Y0033689D02*
X0219954Y0033689D01*
X0219954Y0023689D01*
X0219954Y0043689D02*
X0229954Y0053689D01*
X0289954Y0043689D02*
X0292454Y0046189D01*
X0292454Y0068689D01*
X0294639Y0069004D01*
X0294639Y0109162D02*
X0292454Y0111189D01*
X0289954Y0113689D01*
X0289954Y0178689D01*
X0284954Y0183689D01*
X0274954Y0183689D02*
X0249954Y0183689D01*
X0249954Y0173689D01*
X0249954Y0163689D02*
X0224954Y0163689D01*
X0224954Y0153689D01*
X0224954Y0173689D02*
X0219954Y0178689D01*
X0219954Y0183689D01*
X0219954Y0193689D02*
X0219954Y0203689D01*
X0219954Y0193689D02*
X0249954Y0193689D01*
X0199954Y0113689D02*
X0209954Y0103689D01*
X0227454Y0103689D01*
X0129954Y0078689D02*
X0129954Y0073689D01*
X0119954Y0063689D01*
X0094954Y0063689D01*
X0084954Y0063689D02*
X0084954Y0073689D01*
X0089954Y0078689D01*
X0069954Y0078689D02*
X0062454Y0071189D01*
X0062454Y0058689D01*
X0069954Y0058689D01*
X0062454Y0058689D02*
X0049954Y0058689D01*
X0119954Y0053689D02*
X0119954Y0048689D01*
X0134954Y0033689D01*
M02*
