G75*
%MOIN*%
%OFA0B0*%
%FSLAX25Y25*%
%IPPOS*%
%LPD*%
%AMOC8*
5,1,8,0,0,1.08239X$1,22.5*
%
%ADD10OC8,0.06300*%
%ADD11C,0.06300*%
%ADD12C,0.10000*%
%ADD13C,0.08858*%
%ADD14R,0.07400X0.07400*%
%ADD15C,0.07400*%
%ADD16OC8,0.04800*%
%ADD17C,0.04800*%
%ADD18C,0.07000*%
%ADD19C,0.06000*%
%ADD20C,0.06496*%
%ADD21C,0.01600*%
%ADD22C,0.01200*%
D10*
X0039954Y0063689D03*
X0094954Y0063689D03*
X0104954Y0033689D03*
X0159954Y0028689D03*
X0194954Y0038689D03*
X0289954Y0043689D03*
X0099954Y0163689D03*
X0104954Y0198689D03*
X0159954Y0198689D03*
X0189954Y0188689D03*
X0284954Y0183689D03*
X0039954Y0163689D03*
D11*
X0039954Y0153689D03*
X0089954Y0163689D03*
X0104954Y0188689D03*
X0159954Y0188689D03*
X0189954Y0198689D03*
X0274954Y0183689D03*
X0084954Y0063689D03*
X0104954Y0043689D03*
X0159954Y0038689D03*
X0194954Y0028689D03*
X0279954Y0043689D03*
X0039954Y0073689D03*
D12*
X0025583Y0113295D03*
X0314324Y0089083D03*
D13*
X0294639Y0098532D03*
X0294639Y0109162D03*
X0294639Y0079634D03*
X0294639Y0069004D03*
X0045269Y0093217D03*
X0045269Y0103847D03*
X0045269Y0122744D03*
X0045269Y0133374D03*
D14*
X0144954Y0113689D03*
D15*
X0144954Y0103689D03*
D16*
X0129954Y0108689D03*
X0129954Y0118689D03*
X0109954Y0118689D03*
X0109954Y0108689D03*
X0089954Y0108689D03*
X0089954Y0118689D03*
X0069954Y0118689D03*
X0069954Y0108689D03*
X0069954Y0078689D03*
X0089954Y0078689D03*
X0109954Y0078689D03*
X0129954Y0078689D03*
X0144954Y0078689D03*
X0164954Y0078689D03*
X0159954Y0093689D03*
X0184954Y0078689D03*
X0204954Y0078689D03*
X0204954Y0048689D03*
X0184954Y0048689D03*
X0164954Y0048689D03*
X0144954Y0048689D03*
X0089954Y0033689D03*
X0089954Y0023689D03*
X0059954Y0023689D03*
X0049954Y0028689D03*
X0059954Y0033689D03*
X0049954Y0058689D03*
X0159954Y0123689D03*
X0164954Y0148689D03*
X0184954Y0148689D03*
X0204954Y0148689D03*
X0204954Y0178689D03*
X0184954Y0178689D03*
X0164954Y0178689D03*
X0144954Y0178689D03*
X0144954Y0148689D03*
X0129954Y0148689D03*
X0109954Y0148689D03*
X0089954Y0148689D03*
X0069954Y0148689D03*
X0049954Y0168689D03*
X0059954Y0188689D03*
X0059954Y0198689D03*
X0049954Y0198689D03*
X0089954Y0198689D03*
X0089954Y0188689D03*
D17*
X0067354Y0178689D02*
X0062554Y0178689D01*
X0062554Y0168689D02*
X0067354Y0168689D01*
X0067354Y0158689D02*
X0062554Y0158689D01*
X0117554Y0153689D02*
X0122354Y0153689D01*
X0122354Y0163689D02*
X0117554Y0163689D01*
X0117554Y0173689D02*
X0122354Y0173689D01*
X0127554Y0183689D02*
X0132354Y0183689D01*
X0132354Y0193689D02*
X0127554Y0193689D01*
X0127554Y0203689D02*
X0132354Y0203689D01*
X0217554Y0203689D02*
X0222354Y0203689D01*
X0222354Y0193689D02*
X0217554Y0193689D01*
X0217554Y0183689D02*
X0222354Y0183689D01*
X0222554Y0173689D02*
X0227354Y0173689D01*
X0227354Y0163689D02*
X0222554Y0163689D01*
X0222554Y0153689D02*
X0227354Y0153689D01*
X0247554Y0153689D02*
X0252354Y0153689D01*
X0252354Y0163689D02*
X0247554Y0163689D01*
X0247554Y0173689D02*
X0252354Y0173689D01*
X0252354Y0183689D02*
X0247554Y0183689D01*
X0247554Y0193689D02*
X0252354Y0193689D01*
X0252354Y0203689D02*
X0247554Y0203689D01*
X0257554Y0073689D02*
X0262354Y0073689D01*
X0262354Y0063689D02*
X0257554Y0063689D01*
X0257554Y0053689D02*
X0262354Y0053689D01*
X0257354Y0043689D02*
X0252554Y0043689D01*
X0252554Y0033689D02*
X0257354Y0033689D01*
X0257354Y0023689D02*
X0252554Y0023689D01*
X0222354Y0023689D02*
X0217554Y0023689D01*
X0217554Y0033689D02*
X0222354Y0033689D01*
X0222354Y0043689D02*
X0217554Y0043689D01*
X0227554Y0053689D02*
X0232354Y0053689D01*
X0232354Y0063689D02*
X0227554Y0063689D01*
X0227554Y0073689D02*
X0232354Y0073689D01*
X0137354Y0043689D02*
X0132554Y0043689D01*
X0132554Y0033689D02*
X0137354Y0033689D01*
X0137354Y0023689D02*
X0132554Y0023689D01*
X0122354Y0053689D02*
X0117554Y0053689D01*
X0117554Y0063689D02*
X0122354Y0063689D01*
X0122354Y0073689D02*
X0117554Y0073689D01*
X0072354Y0068689D02*
X0067554Y0068689D01*
X0067554Y0058689D02*
X0072354Y0058689D01*
X0072354Y0048689D02*
X0067554Y0048689D01*
D18*
X0269954Y0108689D03*
X0269954Y0128689D03*
X0284954Y0128689D03*
X0294954Y0128689D03*
X0304954Y0128689D03*
X0304954Y0138689D03*
X0294954Y0138689D03*
X0294954Y0148689D03*
X0304954Y0148689D03*
X0269954Y0148689D03*
D19*
X0260454Y0103689D02*
X0254454Y0103689D01*
X0254454Y0093689D02*
X0260454Y0093689D01*
X0230454Y0093689D02*
X0224454Y0093689D01*
X0224454Y0103689D02*
X0230454Y0103689D01*
D20*
X0203202Y0103689D02*
X0196706Y0103689D01*
X0196706Y0113689D02*
X0203202Y0113689D01*
X0183202Y0113689D02*
X0176706Y0113689D01*
X0176706Y0103689D02*
X0183202Y0103689D01*
X0183202Y0093689D02*
X0176706Y0093689D01*
X0196706Y0093689D02*
X0203202Y0093689D01*
D21*
X0021460Y0021833D02*
X0019512Y0023248D01*
X0018097Y0025196D01*
X0017353Y0027485D01*
X0017259Y0028689D01*
X0017259Y0198689D01*
X0017353Y0199893D01*
X0018097Y0202183D01*
X0019512Y0204130D01*
X0021460Y0205545D01*
X0023750Y0206289D01*
X0024953Y0206384D01*
X0124875Y0206384D01*
X0124332Y0205842D01*
X0123754Y0204445D01*
X0123754Y0202933D01*
X0124332Y0201537D01*
X0125401Y0200468D01*
X0126798Y0199889D01*
X0130925Y0199889D01*
X0132954Y0197861D01*
X0133478Y0197337D01*
X0133109Y0197489D01*
X0126798Y0197489D01*
X0125401Y0196911D01*
X0124332Y0195842D01*
X0124269Y0195689D01*
X0119125Y0195689D01*
X0117954Y0194518D01*
X0117954Y0177489D01*
X0116798Y0177489D01*
X0115401Y0176911D01*
X0114332Y0175842D01*
X0113754Y0174445D01*
X0113754Y0172933D01*
X0114332Y0171537D01*
X0115180Y0170689D01*
X0109125Y0170689D01*
X0107954Y0169518D01*
X0107954Y0152063D01*
X0106154Y0150263D01*
X0106154Y0147115D01*
X0107580Y0145689D01*
X0092328Y0145689D01*
X0093754Y0147115D01*
X0093754Y0150263D01*
X0091528Y0152489D01*
X0088380Y0152489D01*
X0086154Y0150263D01*
X0086154Y0147115D01*
X0087580Y0145689D01*
X0072328Y0145689D01*
X0073754Y0147115D01*
X0073754Y0150263D01*
X0071528Y0152489D01*
X0068380Y0152489D01*
X0066154Y0150263D01*
X0066154Y0147115D01*
X0067580Y0145689D01*
X0058282Y0145689D01*
X0044454Y0159518D01*
X0043335Y0160636D01*
X0044504Y0161804D01*
X0044504Y0165574D01*
X0041838Y0168239D01*
X0038069Y0168239D01*
X0035404Y0165574D01*
X0035404Y0161804D01*
X0036572Y0160636D01*
X0034125Y0158189D01*
X0032954Y0157018D01*
X0032954Y0092861D01*
X0034125Y0091689D01*
X0039592Y0091689D01*
X0040327Y0089915D01*
X0041967Y0088275D01*
X0044109Y0087388D01*
X0046428Y0087388D01*
X0048570Y0088275D01*
X0050210Y0089915D01*
X0051098Y0092057D01*
X0051098Y0094376D01*
X0050210Y0096519D01*
X0048570Y0098158D01*
X0047669Y0098532D01*
X0048570Y0098905D01*
X0050210Y0100545D01*
X0051098Y0102687D01*
X0051098Y0105006D01*
X0050210Y0107149D01*
X0048570Y0108788D01*
X0048301Y0108900D01*
X0049722Y0110320D01*
X0050521Y0112251D01*
X0050521Y0114340D01*
X0049722Y0116271D01*
X0048301Y0117691D01*
X0048570Y0117803D01*
X0050210Y0119442D01*
X0051098Y0121585D01*
X0051098Y0123904D01*
X0050210Y0126046D01*
X0048570Y0127686D01*
X0047669Y0128059D01*
X0048570Y0128432D01*
X0050210Y0130072D01*
X0050880Y0131689D01*
X0266024Y0131689D01*
X0265800Y0131465D01*
X0265054Y0129664D01*
X0265054Y0127714D01*
X0265800Y0125914D01*
X0267178Y0124535D01*
X0268979Y0123789D01*
X0270928Y0123789D01*
X0272729Y0124535D01*
X0274108Y0125914D01*
X0274854Y0127714D01*
X0274854Y0129664D01*
X0274108Y0131465D01*
X0273883Y0131689D01*
X0281024Y0131689D01*
X0280800Y0131465D01*
X0280054Y0129664D01*
X0280054Y0127714D01*
X0280800Y0125914D01*
X0282178Y0124535D01*
X0283979Y0123789D01*
X0285928Y0123789D01*
X0287729Y0124535D01*
X0289108Y0125914D01*
X0289346Y0126489D01*
X0290126Y0126489D01*
X0290421Y0125911D01*
X0290911Y0125236D01*
X0291501Y0124647D01*
X0292176Y0124156D01*
X0292919Y0123777D01*
X0293712Y0123520D01*
X0294536Y0123389D01*
X0294754Y0123389D01*
X0294754Y0128489D01*
X0295154Y0128489D01*
X0295154Y0128889D01*
X0300254Y0128889D01*
X0304753Y0128889D01*
X0304753Y0128489D01*
X0295154Y0128489D01*
X0295154Y0123389D01*
X0295371Y0123389D01*
X0296195Y0123520D01*
X0296988Y0123777D01*
X0297731Y0124156D01*
X0298406Y0124647D01*
X0298996Y0125236D01*
X0299487Y0125911D01*
X0299865Y0126655D01*
X0299954Y0126926D01*
X0300042Y0126655D01*
X0300421Y0125911D01*
X0300911Y0125236D01*
X0301501Y0124647D01*
X0302176Y0124156D01*
X0302919Y0123777D01*
X0303712Y0123520D01*
X0304536Y0123389D01*
X0304754Y0123389D01*
X0304754Y0128489D01*
X0305154Y0128489D01*
X0305154Y0123389D01*
X0305371Y0123389D01*
X0306195Y0123520D01*
X0306903Y0123750D01*
X0304042Y0120889D01*
X0255865Y0120889D01*
X0247154Y0129600D01*
X0245865Y0130889D01*
X0069042Y0130889D01*
X0059042Y0120889D01*
X0057754Y0119600D01*
X0057754Y0094600D01*
X0041236Y0078083D01*
X0040859Y0078239D01*
X0039048Y0078239D01*
X0037376Y0077546D01*
X0036096Y0076266D01*
X0035404Y0074594D01*
X0035404Y0072784D01*
X0036096Y0071112D01*
X0037376Y0069832D01*
X0039048Y0069139D01*
X0040859Y0069139D01*
X0042531Y0069832D01*
X0043811Y0071112D01*
X0044504Y0072784D01*
X0044504Y0074594D01*
X0044347Y0074972D01*
X0062154Y0092778D01*
X0062154Y0117778D01*
X0070865Y0126489D01*
X0157380Y0126489D01*
X0156780Y0125889D01*
X0114042Y0125889D01*
X0110642Y0122489D01*
X0108380Y0122489D01*
X0106154Y0120263D01*
X0106154Y0117115D01*
X0108380Y0114889D01*
X0111528Y0114889D01*
X0113754Y0117115D01*
X0113754Y0119378D01*
X0115865Y0121489D01*
X0127380Y0121489D01*
X0126154Y0120263D01*
X0126154Y0117115D01*
X0128380Y0114889D01*
X0131528Y0114889D01*
X0133754Y0117115D01*
X0133754Y0120263D01*
X0132528Y0121489D01*
X0156780Y0121489D01*
X0158380Y0119889D01*
X0160642Y0119889D01*
X0169042Y0111489D01*
X0172586Y0111489D01*
X0172765Y0111056D01*
X0174073Y0109749D01*
X0175781Y0109041D01*
X0184126Y0109041D01*
X0185834Y0109749D01*
X0187142Y0111056D01*
X0187850Y0112765D01*
X0187850Y0114614D01*
X0187142Y0116322D01*
X0185834Y0117630D01*
X0184126Y0118337D01*
X0175781Y0118337D01*
X0174073Y0117630D01*
X0172765Y0116322D01*
X0172586Y0115889D01*
X0170865Y0115889D01*
X0163754Y0123000D01*
X0163754Y0125263D01*
X0162528Y0126489D01*
X0244042Y0126489D01*
X0254042Y0116489D01*
X0305865Y0116489D01*
X0307154Y0117778D01*
X0312154Y0122778D01*
X0312154Y0134600D01*
X0310865Y0135889D01*
X0309615Y0137139D01*
X0309854Y0137714D01*
X0309854Y0139664D01*
X0309108Y0141465D01*
X0307729Y0142843D01*
X0305928Y0143589D01*
X0303979Y0143589D01*
X0302178Y0142843D01*
X0301954Y0142619D01*
X0301954Y0142861D01*
X0303203Y0144110D01*
X0303979Y0143789D01*
X0305928Y0143789D01*
X0307729Y0144535D01*
X0309108Y0145914D01*
X0309854Y0147714D01*
X0309854Y0149664D01*
X0309108Y0151465D01*
X0307729Y0152843D01*
X0305928Y0153589D01*
X0303979Y0153589D01*
X0302178Y0152843D01*
X0300800Y0151465D01*
X0300054Y0149664D01*
X0300054Y0147714D01*
X0300375Y0146939D01*
X0297954Y0144518D01*
X0297954Y0142619D01*
X0297729Y0142843D01*
X0295928Y0143589D01*
X0293979Y0143589D01*
X0292178Y0142843D01*
X0290800Y0141465D01*
X0290478Y0140689D01*
X0055782Y0140689D01*
X0044264Y0152207D01*
X0044504Y0152784D01*
X0044504Y0153811D01*
X0056625Y0141689D01*
X0290782Y0141689D01*
X0291954Y0142861D01*
X0293203Y0144110D01*
X0293979Y0143789D01*
X0295928Y0143789D01*
X0297729Y0144535D01*
X0299108Y0145914D01*
X0299854Y0147714D01*
X0299854Y0149664D01*
X0299108Y0151465D01*
X0297729Y0152843D01*
X0295928Y0153589D01*
X0293979Y0153589D01*
X0292178Y0152843D01*
X0290800Y0151465D01*
X0290054Y0149664D01*
X0290054Y0147714D01*
X0290375Y0146939D01*
X0289125Y0145689D01*
X0273883Y0145689D01*
X0274108Y0145914D01*
X0274854Y0147714D01*
X0274854Y0149664D01*
X0274108Y0151465D01*
X0272729Y0152843D01*
X0270928Y0153589D01*
X0268979Y0153589D01*
X0267178Y0152843D01*
X0265800Y0151465D01*
X0265054Y0149664D01*
X0265054Y0147714D01*
X0265800Y0145914D01*
X0266024Y0145689D01*
X0207328Y0145689D01*
X0208754Y0147115D01*
X0208754Y0150263D01*
X0206528Y0152489D01*
X0203380Y0152489D01*
X0201154Y0150263D01*
X0201154Y0147115D01*
X0202580Y0145689D01*
X0187893Y0145689D01*
X0189154Y0146949D01*
X0189154Y0148689D01*
X0184954Y0148689D01*
X0184954Y0148689D01*
X0189154Y0148689D01*
X0189154Y0150429D01*
X0186693Y0152889D01*
X0184954Y0152889D01*
X0184954Y0148689D01*
X0184953Y0148689D01*
X0180754Y0148689D01*
X0180754Y0146949D01*
X0182014Y0145689D01*
X0167893Y0145689D01*
X0169154Y0146949D01*
X0169154Y0148689D01*
X0164954Y0148689D01*
X0164954Y0148689D01*
X0169154Y0148689D01*
X0169154Y0150429D01*
X0166693Y0152889D01*
X0164954Y0152889D01*
X0164954Y0148689D01*
X0164953Y0148689D01*
X0160754Y0148689D01*
X0160754Y0146949D01*
X0162014Y0145689D01*
X0147893Y0145689D01*
X0149154Y0146949D01*
X0149154Y0148689D01*
X0144954Y0148689D01*
X0144954Y0148689D01*
X0149154Y0148689D01*
X0149154Y0150429D01*
X0146693Y0152889D01*
X0144954Y0152889D01*
X0144954Y0148689D01*
X0144953Y0148689D01*
X0140754Y0148689D01*
X0140754Y0146949D01*
X0142014Y0145689D01*
X0132328Y0145689D01*
X0133754Y0147115D01*
X0133754Y0150263D01*
X0131954Y0152063D01*
X0131954Y0164518D01*
X0130782Y0165689D01*
X0125638Y0165689D01*
X0125575Y0165842D01*
X0124728Y0166689D01*
X0135782Y0166689D01*
X0143982Y0174889D01*
X0146528Y0174889D01*
X0148754Y0177115D01*
X0148754Y0180263D01*
X0146528Y0182489D01*
X0143380Y0182489D01*
X0141154Y0180263D01*
X0141154Y0177718D01*
X0134125Y0170689D01*
X0124728Y0170689D01*
X0125575Y0171537D01*
X0126154Y0172933D01*
X0126154Y0174445D01*
X0125575Y0175842D01*
X0124506Y0176911D01*
X0123109Y0177489D01*
X0121954Y0177489D01*
X0121954Y0191689D01*
X0124269Y0191689D01*
X0124332Y0191537D01*
X0125401Y0190468D01*
X0126798Y0189889D01*
X0133109Y0189889D01*
X0134506Y0190468D01*
X0135575Y0191537D01*
X0136154Y0192933D01*
X0136154Y0194445D01*
X0135575Y0195842D01*
X0134728Y0196689D01*
X0155519Y0196689D01*
X0158069Y0194139D01*
X0161838Y0194139D01*
X0162954Y0195254D01*
X0162954Y0192124D01*
X0162531Y0192546D01*
X0160859Y0193239D01*
X0159048Y0193239D01*
X0157376Y0192546D01*
X0156096Y0191266D01*
X0155404Y0189594D01*
X0155404Y0187784D01*
X0156096Y0186112D01*
X0157376Y0184832D01*
X0159048Y0184139D01*
X0160859Y0184139D01*
X0162531Y0184832D01*
X0162954Y0185254D01*
X0162954Y0182063D01*
X0161154Y0180263D01*
X0161154Y0177115D01*
X0163380Y0174889D01*
X0166528Y0174889D01*
X0168754Y0177115D01*
X0168754Y0180263D01*
X0166954Y0182063D01*
X0166954Y0196689D01*
X0185857Y0196689D01*
X0186096Y0196112D01*
X0186519Y0195689D01*
X0184125Y0195689D01*
X0182954Y0194518D01*
X0182954Y0182063D01*
X0181154Y0180263D01*
X0181154Y0177115D01*
X0183380Y0174889D01*
X0186528Y0174889D01*
X0188754Y0177115D01*
X0188754Y0180263D01*
X0186954Y0182063D01*
X0186954Y0185254D01*
X0188069Y0184139D01*
X0191675Y0184139D01*
X0192954Y0182861D01*
X0194125Y0181689D01*
X0202580Y0181689D01*
X0201154Y0180263D01*
X0201154Y0177115D01*
X0203380Y0174889D01*
X0205925Y0174889D01*
X0217954Y0162861D01*
X0219125Y0161689D01*
X0219269Y0161689D01*
X0219332Y0161537D01*
X0220401Y0160468D01*
X0221798Y0159889D01*
X0228109Y0159889D01*
X0229506Y0160468D01*
X0230575Y0161537D01*
X0231154Y0162933D01*
X0231154Y0164445D01*
X0230575Y0165842D01*
X0229506Y0166911D01*
X0228109Y0167489D01*
X0221798Y0167489D01*
X0220401Y0166911D01*
X0219981Y0166490D01*
X0208754Y0177718D01*
X0208754Y0180263D01*
X0207328Y0181689D01*
X0214269Y0181689D01*
X0214332Y0181537D01*
X0215401Y0180468D01*
X0216798Y0179889D01*
X0223109Y0179889D01*
X0224506Y0180468D01*
X0225575Y0181537D01*
X0226154Y0182933D01*
X0226154Y0184445D01*
X0225575Y0185842D01*
X0224506Y0186911D01*
X0223109Y0187489D01*
X0216798Y0187489D01*
X0215401Y0186911D01*
X0214332Y0185842D01*
X0214269Y0185689D01*
X0195782Y0185689D01*
X0194504Y0186968D01*
X0194504Y0190574D01*
X0193388Y0191689D01*
X0214269Y0191689D01*
X0214332Y0191537D01*
X0215401Y0190468D01*
X0216798Y0189889D01*
X0223109Y0189889D01*
X0224506Y0190468D01*
X0225575Y0191537D01*
X0226154Y0192933D01*
X0226154Y0194445D01*
X0225575Y0195842D01*
X0224506Y0196911D01*
X0223109Y0197489D01*
X0216798Y0197489D01*
X0215401Y0196911D01*
X0214332Y0195842D01*
X0214269Y0195689D01*
X0193388Y0195689D01*
X0193811Y0196112D01*
X0194504Y0197784D01*
X0194504Y0199594D01*
X0193811Y0201266D01*
X0192531Y0202546D01*
X0190859Y0203239D01*
X0189048Y0203239D01*
X0187376Y0202546D01*
X0186096Y0201266D01*
X0185857Y0200689D01*
X0164388Y0200689D01*
X0161838Y0203239D01*
X0158069Y0203239D01*
X0155519Y0200689D01*
X0135782Y0200689D01*
X0135255Y0201216D01*
X0135575Y0201537D01*
X0136154Y0202933D01*
X0136154Y0204445D01*
X0135575Y0205842D01*
X0135033Y0206384D01*
X0214875Y0206384D01*
X0214332Y0205842D01*
X0213754Y0204445D01*
X0213754Y0202933D01*
X0214332Y0201537D01*
X0215401Y0200468D01*
X0216798Y0199889D01*
X0223109Y0199889D01*
X0224506Y0200468D01*
X0225575Y0201537D01*
X0226154Y0202933D01*
X0226154Y0204445D01*
X0225575Y0205842D01*
X0225033Y0206384D01*
X0244320Y0206384D01*
X0243961Y0205890D01*
X0243661Y0205301D01*
X0243457Y0204673D01*
X0243354Y0204020D01*
X0243354Y0203689D01*
X0243354Y0203359D01*
X0243457Y0202706D01*
X0243661Y0202077D01*
X0243961Y0201488D01*
X0244350Y0200953D01*
X0244817Y0200486D01*
X0245352Y0200097D01*
X0245941Y0199797D01*
X0246570Y0199593D01*
X0247223Y0199489D01*
X0249953Y0199489D01*
X0249953Y0203689D01*
X0243354Y0203689D01*
X0249953Y0203689D01*
X0249953Y0203689D01*
X0249954Y0203689D01*
X0249954Y0203689D01*
X0256554Y0203689D01*
X0256554Y0203359D01*
X0256450Y0202706D01*
X0256246Y0202077D01*
X0255946Y0201488D01*
X0255557Y0200953D01*
X0255090Y0200486D01*
X0254555Y0200097D01*
X0253966Y0199797D01*
X0253337Y0199593D01*
X0252684Y0199489D01*
X0249954Y0199489D01*
X0249954Y0203689D01*
X0256554Y0203689D01*
X0256554Y0204020D01*
X0256450Y0204673D01*
X0256246Y0205301D01*
X0255946Y0205890D01*
X0255587Y0206384D01*
X0314954Y0206384D01*
X0316157Y0206289D01*
X0318447Y0205545D01*
X0320395Y0204130D01*
X0321810Y0202183D01*
X0322554Y0199893D01*
X0322649Y0198689D01*
X0322649Y0028689D01*
X0322554Y0027485D01*
X0321810Y0025196D01*
X0320395Y0023248D01*
X0318447Y0021833D01*
X0316157Y0021089D01*
X0314954Y0020994D01*
X0260587Y0020994D01*
X0260946Y0021488D01*
X0261246Y0022077D01*
X0261450Y0022706D01*
X0261554Y0023359D01*
X0261554Y0023689D01*
X0254954Y0023689D01*
X0254954Y0023689D01*
X0261554Y0023689D01*
X0261554Y0024020D01*
X0261450Y0024673D01*
X0261246Y0025301D01*
X0260946Y0025890D01*
X0260557Y0026425D01*
X0260090Y0026893D01*
X0259555Y0027281D01*
X0258966Y0027581D01*
X0258337Y0027786D01*
X0257684Y0027889D01*
X0254954Y0027889D01*
X0254954Y0023689D01*
X0254953Y0023689D01*
X0248354Y0023689D01*
X0248354Y0023359D01*
X0248457Y0022706D01*
X0248661Y0022077D01*
X0248961Y0021488D01*
X0249320Y0020994D01*
X0225033Y0020994D01*
X0225575Y0021537D01*
X0226154Y0022933D01*
X0226154Y0024445D01*
X0225575Y0025842D01*
X0224506Y0026911D01*
X0223109Y0027489D01*
X0216798Y0027489D01*
X0215401Y0026911D01*
X0214332Y0025842D01*
X0213754Y0024445D01*
X0213754Y0022933D01*
X0214332Y0021537D01*
X0214875Y0020994D01*
X0140033Y0020994D01*
X0140575Y0021537D01*
X0141154Y0022933D01*
X0141154Y0024445D01*
X0140575Y0025842D01*
X0140255Y0026162D01*
X0140782Y0026689D01*
X0155519Y0026689D01*
X0158069Y0024139D01*
X0161838Y0024139D01*
X0164388Y0026689D01*
X0190857Y0026689D01*
X0191096Y0026112D01*
X0192376Y0024832D01*
X0194048Y0024139D01*
X0195859Y0024139D01*
X0197531Y0024832D01*
X0198811Y0026112D01*
X0199504Y0027784D01*
X0199504Y0029594D01*
X0198811Y0031266D01*
X0198388Y0031689D01*
X0214269Y0031689D01*
X0214332Y0031537D01*
X0215401Y0030468D01*
X0216798Y0029889D01*
X0223109Y0029889D01*
X0224506Y0030468D01*
X0225575Y0031537D01*
X0226154Y0032933D01*
X0226154Y0034445D01*
X0225575Y0035842D01*
X0224506Y0036911D01*
X0223109Y0037489D01*
X0216798Y0037489D01*
X0215401Y0036911D01*
X0214332Y0035842D01*
X0214269Y0035689D01*
X0198388Y0035689D01*
X0199504Y0036804D01*
X0199504Y0040411D01*
X0200782Y0041689D01*
X0214269Y0041689D01*
X0214332Y0041537D01*
X0215401Y0040468D01*
X0216798Y0039889D01*
X0223109Y0039889D01*
X0224506Y0040468D01*
X0225575Y0041537D01*
X0226154Y0042933D01*
X0226154Y0044445D01*
X0225575Y0045842D01*
X0224506Y0046911D01*
X0223109Y0047489D01*
X0216798Y0047489D01*
X0215401Y0046911D01*
X0214332Y0045842D01*
X0214269Y0045689D01*
X0207328Y0045689D01*
X0208754Y0047115D01*
X0208754Y0049661D01*
X0220782Y0061689D01*
X0224269Y0061689D01*
X0224332Y0061537D01*
X0225401Y0060468D01*
X0226798Y0059889D01*
X0233109Y0059889D01*
X0234506Y0060468D01*
X0235575Y0061537D01*
X0236154Y0062933D01*
X0236154Y0064445D01*
X0235575Y0065842D01*
X0234506Y0066911D01*
X0233109Y0067489D01*
X0226798Y0067489D01*
X0225401Y0066911D01*
X0224332Y0065842D01*
X0224269Y0065689D01*
X0219125Y0065689D01*
X0217954Y0064518D01*
X0205925Y0052489D01*
X0203380Y0052489D01*
X0201154Y0050263D01*
X0201154Y0047115D01*
X0202580Y0045689D01*
X0199125Y0045689D01*
X0197954Y0044518D01*
X0196675Y0043239D01*
X0193069Y0043239D01*
X0190404Y0040574D01*
X0190404Y0036804D01*
X0191519Y0035689D01*
X0186954Y0035689D01*
X0186954Y0045315D01*
X0188754Y0047115D01*
X0188754Y0050263D01*
X0186528Y0052489D01*
X0183380Y0052489D01*
X0181154Y0050263D01*
X0181154Y0047115D01*
X0182954Y0045315D01*
X0182954Y0032861D01*
X0184125Y0031689D01*
X0191519Y0031689D01*
X0191096Y0031266D01*
X0190857Y0030689D01*
X0166954Y0030689D01*
X0166954Y0045315D01*
X0168754Y0047115D01*
X0168754Y0050263D01*
X0166528Y0052489D01*
X0163380Y0052489D01*
X0161154Y0050263D01*
X0161154Y0047115D01*
X0162954Y0045315D01*
X0162954Y0042124D01*
X0162531Y0042546D01*
X0160859Y0043239D01*
X0159048Y0043239D01*
X0157376Y0042546D01*
X0156096Y0041266D01*
X0155857Y0040689D01*
X0155782Y0040689D01*
X0148754Y0047718D01*
X0148754Y0050263D01*
X0146954Y0052063D01*
X0146954Y0074518D01*
X0146838Y0074634D01*
X0149154Y0076949D01*
X0149154Y0078689D01*
X0144954Y0078689D01*
X0144954Y0078689D01*
X0149154Y0078689D01*
X0149154Y0080429D01*
X0146693Y0082889D01*
X0144954Y0082889D01*
X0144954Y0078689D01*
X0144953Y0078689D01*
X0140754Y0078689D01*
X0140754Y0076949D01*
X0142014Y0075689D01*
X0132328Y0075689D01*
X0133754Y0077115D01*
X0133754Y0080263D01*
X0131528Y0082489D01*
X0128380Y0082489D01*
X0126154Y0080263D01*
X0126154Y0077818D01*
X0124454Y0079518D01*
X0123282Y0080689D01*
X0113328Y0080689D01*
X0111954Y0082063D01*
X0111954Y0101689D01*
X0125782Y0101689D01*
X0128982Y0104889D01*
X0131528Y0104889D01*
X0133754Y0107115D01*
X0133754Y0110263D01*
X0131528Y0112489D01*
X0128380Y0112489D01*
X0126154Y0110263D01*
X0126154Y0107718D01*
X0124125Y0105689D01*
X0112328Y0105689D01*
X0113754Y0107115D01*
X0113754Y0110263D01*
X0111528Y0112489D01*
X0108380Y0112489D01*
X0106154Y0110263D01*
X0106154Y0107115D01*
X0108352Y0104916D01*
X0107954Y0104518D01*
X0107954Y0082063D01*
X0106154Y0080263D01*
X0106154Y0077115D01*
X0108380Y0074889D01*
X0111528Y0074889D01*
X0113328Y0076689D01*
X0115180Y0076689D01*
X0114332Y0075842D01*
X0113754Y0074445D01*
X0113754Y0072933D01*
X0114332Y0071537D01*
X0115401Y0070468D01*
X0116798Y0069889D01*
X0120925Y0069889D01*
X0123478Y0067337D01*
X0123109Y0067489D01*
X0116798Y0067489D01*
X0115401Y0066911D01*
X0114332Y0065842D01*
X0113754Y0064445D01*
X0113754Y0062933D01*
X0114332Y0061537D01*
X0115401Y0060468D01*
X0116798Y0059889D01*
X0123109Y0059889D01*
X0124506Y0060468D01*
X0125575Y0061537D01*
X0126154Y0062933D01*
X0126154Y0064445D01*
X0126001Y0064813D01*
X0132954Y0057861D01*
X0132954Y0047489D01*
X0131798Y0047489D01*
X0130401Y0046911D01*
X0129332Y0045842D01*
X0128754Y0044445D01*
X0128754Y0042933D01*
X0129332Y0041537D01*
X0130401Y0040468D01*
X0131798Y0039889D01*
X0138109Y0039889D01*
X0139506Y0040468D01*
X0140575Y0041537D01*
X0141154Y0042933D01*
X0141154Y0044445D01*
X0140575Y0045842D01*
X0139506Y0046911D01*
X0138109Y0047489D01*
X0136954Y0047489D01*
X0136954Y0059518D01*
X0135782Y0060689D01*
X0125255Y0071216D01*
X0125575Y0071537D01*
X0125927Y0072387D01*
X0126625Y0071689D01*
X0142954Y0071689D01*
X0142954Y0052063D01*
X0141154Y0050263D01*
X0141154Y0047115D01*
X0143380Y0044889D01*
X0145925Y0044889D01*
X0152954Y0037861D01*
X0154125Y0036689D01*
X0155857Y0036689D01*
X0156096Y0036112D01*
X0157376Y0034832D01*
X0159048Y0034139D01*
X0160859Y0034139D01*
X0162531Y0034832D01*
X0162954Y0035254D01*
X0162954Y0032124D01*
X0161838Y0033239D01*
X0158069Y0033239D01*
X0155519Y0030689D01*
X0139728Y0030689D01*
X0140575Y0031537D01*
X0141154Y0032933D01*
X0141154Y0034445D01*
X0140575Y0035842D01*
X0139506Y0036911D01*
X0138109Y0037489D01*
X0131798Y0037489D01*
X0130401Y0036911D01*
X0129332Y0035842D01*
X0128754Y0034445D01*
X0128754Y0032933D01*
X0129332Y0031537D01*
X0130401Y0030468D01*
X0131798Y0029889D01*
X0138109Y0029889D01*
X0138478Y0030042D01*
X0137954Y0029518D01*
X0135925Y0027489D01*
X0131798Y0027489D01*
X0130401Y0026911D01*
X0129332Y0025842D01*
X0128754Y0024445D01*
X0128754Y0022933D01*
X0129332Y0021537D01*
X0129875Y0020994D01*
X0092633Y0020994D01*
X0093754Y0022115D01*
X0093754Y0024661D01*
X0100650Y0031558D01*
X0103069Y0029139D01*
X0106838Y0029139D01*
X0109504Y0031804D01*
X0109504Y0035574D01*
X0106838Y0038239D01*
X0103069Y0038239D01*
X0100519Y0035689D01*
X0099782Y0035689D01*
X0103471Y0039378D01*
X0104048Y0039139D01*
X0105859Y0039139D01*
X0107531Y0039832D01*
X0108811Y0041112D01*
X0109504Y0042784D01*
X0109504Y0044594D01*
X0108811Y0046266D01*
X0107531Y0047546D01*
X0105859Y0048239D01*
X0104048Y0048239D01*
X0102376Y0047546D01*
X0101096Y0046266D01*
X0100404Y0044594D01*
X0100404Y0042784D01*
X0100643Y0042207D01*
X0094125Y0035689D01*
X0093328Y0035689D01*
X0091528Y0037489D01*
X0088380Y0037489D01*
X0086580Y0035689D01*
X0085782Y0035689D01*
X0075255Y0046216D01*
X0075575Y0046537D01*
X0076154Y0047933D01*
X0076154Y0049445D01*
X0075575Y0050842D01*
X0074506Y0051911D01*
X0073109Y0052489D01*
X0066798Y0052489D01*
X0065401Y0051911D01*
X0064332Y0050842D01*
X0063754Y0049445D01*
X0063754Y0047933D01*
X0064332Y0046537D01*
X0065401Y0045468D01*
X0066798Y0044889D01*
X0070925Y0044889D01*
X0082954Y0032861D01*
X0084125Y0031689D01*
X0086580Y0031689D01*
X0088380Y0029889D01*
X0091528Y0029889D01*
X0093328Y0031689D01*
X0095125Y0031689D01*
X0090925Y0027489D01*
X0088380Y0027489D01*
X0086154Y0025263D01*
X0086154Y0022115D01*
X0087275Y0020994D01*
X0063198Y0020994D01*
X0064154Y0021949D01*
X0064154Y0023689D01*
X0059954Y0023689D01*
X0059954Y0023689D01*
X0064154Y0023689D01*
X0064154Y0025429D01*
X0061693Y0027889D01*
X0059954Y0027889D01*
X0059954Y0023689D01*
X0059953Y0023689D01*
X0055754Y0023689D01*
X0055754Y0021949D01*
X0056709Y0020994D01*
X0024954Y0020994D01*
X0023750Y0021089D01*
X0021460Y0021833D01*
X0021925Y0021682D02*
X0056021Y0021682D01*
X0055754Y0023280D02*
X0019489Y0023280D01*
X0018328Y0024879D02*
X0047824Y0024879D01*
X0048214Y0024489D02*
X0045754Y0026949D01*
X0045754Y0028689D01*
X0049953Y0028689D01*
X0049953Y0028689D01*
X0045754Y0028689D01*
X0045754Y0030429D01*
X0048214Y0032889D01*
X0049953Y0032889D01*
X0049953Y0028689D01*
X0049954Y0028689D01*
X0049954Y0028689D01*
X0054154Y0028689D01*
X0054154Y0026949D01*
X0051693Y0024489D01*
X0049954Y0024489D01*
X0049954Y0028689D01*
X0054154Y0028689D01*
X0054154Y0030429D01*
X0051693Y0032889D01*
X0049954Y0032889D01*
X0049954Y0028689D01*
X0049953Y0028689D01*
X0049953Y0024489D01*
X0048214Y0024489D01*
X0049953Y0024879D02*
X0049954Y0024879D01*
X0049953Y0026477D02*
X0049954Y0026477D01*
X0049953Y0028076D02*
X0049954Y0028076D01*
X0049953Y0029674D02*
X0049954Y0029674D01*
X0049953Y0031273D02*
X0049954Y0031273D01*
X0049953Y0032871D02*
X0049954Y0032871D01*
X0051711Y0032871D02*
X0055754Y0032871D01*
X0055754Y0033689D02*
X0055754Y0031949D01*
X0058214Y0029489D01*
X0059953Y0029489D01*
X0059953Y0033689D01*
X0055754Y0033689D01*
X0059953Y0033689D01*
X0059953Y0033689D01*
X0059954Y0033689D01*
X0059954Y0033689D01*
X0064154Y0033689D01*
X0064154Y0031949D01*
X0061693Y0029489D01*
X0059954Y0029489D01*
X0059954Y0033689D01*
X0064154Y0033689D01*
X0064154Y0035429D01*
X0061693Y0037889D01*
X0059954Y0037889D01*
X0059954Y0033689D01*
X0059953Y0033689D01*
X0059953Y0037889D01*
X0058214Y0037889D01*
X0055754Y0035429D01*
X0055754Y0033689D01*
X0055754Y0034470D02*
X0038754Y0034470D01*
X0038754Y0035440D02*
X0037414Y0038674D01*
X0034938Y0041149D01*
X0031704Y0042489D01*
X0028203Y0042489D01*
X0024969Y0041149D01*
X0022493Y0038674D01*
X0021154Y0035440D01*
X0021154Y0031939D01*
X0022493Y0028704D01*
X0024969Y0026229D01*
X0028203Y0024889D01*
X0031704Y0024889D01*
X0034938Y0026229D01*
X0037414Y0028704D01*
X0038754Y0031939D01*
X0038754Y0035440D01*
X0038493Y0036068D02*
X0056393Y0036068D01*
X0057992Y0037667D02*
X0037831Y0037667D01*
X0036822Y0039265D02*
X0076549Y0039265D01*
X0078147Y0037667D02*
X0061916Y0037667D01*
X0059954Y0037667D02*
X0059953Y0037667D01*
X0059953Y0036068D02*
X0059954Y0036068D01*
X0059953Y0034470D02*
X0059954Y0034470D01*
X0059953Y0032871D02*
X0059954Y0032871D01*
X0059953Y0031273D02*
X0059954Y0031273D01*
X0059953Y0029674D02*
X0059954Y0029674D01*
X0059953Y0027889D02*
X0058214Y0027889D01*
X0055754Y0025429D01*
X0055754Y0023689D01*
X0059953Y0023689D01*
X0059953Y0023689D01*
X0059953Y0027889D01*
X0059953Y0026477D02*
X0059954Y0026477D01*
X0059953Y0024879D02*
X0059954Y0024879D01*
X0063105Y0026477D02*
X0087368Y0026477D01*
X0086154Y0024879D02*
X0064154Y0024879D01*
X0064154Y0023280D02*
X0086154Y0023280D01*
X0086587Y0021682D02*
X0063886Y0021682D01*
X0056802Y0026477D02*
X0053681Y0026477D01*
X0054154Y0028076D02*
X0091512Y0028076D01*
X0093110Y0029674D02*
X0061878Y0029674D01*
X0063477Y0031273D02*
X0086996Y0031273D01*
X0082943Y0032871D02*
X0064154Y0032871D01*
X0064154Y0034470D02*
X0081344Y0034470D01*
X0079746Y0036068D02*
X0063514Y0036068D01*
X0058029Y0029674D02*
X0054154Y0029674D01*
X0053310Y0031273D02*
X0056430Y0031273D01*
X0055754Y0024879D02*
X0052083Y0024879D01*
X0046226Y0026477D02*
X0035187Y0026477D01*
X0036785Y0028076D02*
X0045754Y0028076D01*
X0045754Y0029674D02*
X0037816Y0029674D01*
X0038478Y0031273D02*
X0046597Y0031273D01*
X0048196Y0032871D02*
X0038754Y0032871D01*
X0035224Y0040864D02*
X0074950Y0040864D01*
X0073352Y0042462D02*
X0031769Y0042462D01*
X0028138Y0042462D02*
X0017259Y0042462D01*
X0017259Y0040864D02*
X0024683Y0040864D01*
X0023085Y0039265D02*
X0017259Y0039265D01*
X0017259Y0037667D02*
X0022076Y0037667D01*
X0021414Y0036068D02*
X0017259Y0036068D01*
X0017259Y0034470D02*
X0021154Y0034470D01*
X0021154Y0032871D02*
X0017259Y0032871D01*
X0017259Y0031273D02*
X0021429Y0031273D01*
X0022091Y0029674D02*
X0017259Y0029674D01*
X0017307Y0028076D02*
X0023122Y0028076D01*
X0024720Y0026477D02*
X0017681Y0026477D01*
X0017259Y0044061D02*
X0071753Y0044061D01*
X0075812Y0045659D02*
X0100845Y0045659D01*
X0100404Y0044061D02*
X0077410Y0044061D01*
X0079009Y0042462D02*
X0100537Y0042462D01*
X0099300Y0040864D02*
X0080607Y0040864D01*
X0082206Y0039265D02*
X0097701Y0039265D01*
X0096103Y0037667D02*
X0083804Y0037667D01*
X0085403Y0036068D02*
X0086959Y0036068D01*
X0092948Y0036068D02*
X0094504Y0036068D01*
X0100161Y0036068D02*
X0100898Y0036068D01*
X0101760Y0037667D02*
X0102497Y0037667D01*
X0103358Y0039265D02*
X0103744Y0039265D01*
X0106163Y0039265D02*
X0151549Y0039265D01*
X0153147Y0037667D02*
X0107411Y0037667D01*
X0109009Y0036068D02*
X0129559Y0036068D01*
X0128764Y0034470D02*
X0109504Y0034470D01*
X0109504Y0032871D02*
X0128779Y0032871D01*
X0129596Y0031273D02*
X0108972Y0031273D01*
X0107373Y0029674D02*
X0138110Y0029674D01*
X0136512Y0028076D02*
X0097169Y0028076D01*
X0098767Y0029674D02*
X0102534Y0029674D01*
X0100935Y0031273D02*
X0100366Y0031273D01*
X0094709Y0031273D02*
X0092911Y0031273D01*
X0095570Y0026477D02*
X0129968Y0026477D01*
X0128933Y0024879D02*
X0093972Y0024879D01*
X0093754Y0023280D02*
X0128754Y0023280D01*
X0129272Y0021682D02*
X0093320Y0021682D01*
X0108563Y0040864D02*
X0130005Y0040864D01*
X0128949Y0042462D02*
X0109370Y0042462D01*
X0109504Y0044061D02*
X0128754Y0044061D01*
X0129257Y0045659D02*
X0109062Y0045659D01*
X0107819Y0047258D02*
X0131239Y0047258D01*
X0132954Y0048856D02*
X0076154Y0048856D01*
X0075874Y0047258D02*
X0102088Y0047258D01*
X0114118Y0052053D02*
X0074161Y0052053D01*
X0075735Y0050455D02*
X0115432Y0050455D01*
X0115401Y0050468D02*
X0116798Y0049889D01*
X0123109Y0049889D01*
X0124506Y0050468D01*
X0125575Y0051537D01*
X0126154Y0052933D01*
X0126154Y0054445D01*
X0125575Y0055842D01*
X0124506Y0056911D01*
X0123109Y0057489D01*
X0116798Y0057489D01*
X0115401Y0056911D01*
X0114332Y0055842D01*
X0113754Y0054445D01*
X0113754Y0052933D01*
X0114332Y0051537D01*
X0115401Y0050468D01*
X0113754Y0053652D02*
X0017259Y0053652D01*
X0017259Y0055250D02*
X0048018Y0055250D01*
X0048380Y0054889D02*
X0051528Y0054889D01*
X0053754Y0057115D01*
X0053754Y0060263D01*
X0051528Y0062489D01*
X0048982Y0062489D01*
X0046954Y0064518D01*
X0045782Y0065689D01*
X0044388Y0065689D01*
X0041838Y0068239D01*
X0038069Y0068239D01*
X0035404Y0065574D01*
X0035404Y0061804D01*
X0038069Y0059139D01*
X0041838Y0059139D01*
X0044257Y0061558D01*
X0046154Y0059661D01*
X0046154Y0057115D01*
X0048380Y0054889D01*
X0046420Y0056849D02*
X0017259Y0056849D01*
X0017259Y0058447D02*
X0046154Y0058447D01*
X0045768Y0060046D02*
X0042745Y0060046D01*
X0037162Y0060046D02*
X0017259Y0060046D01*
X0017259Y0061644D02*
X0035564Y0061644D01*
X0035404Y0063243D02*
X0017259Y0063243D01*
X0017259Y0064841D02*
X0035404Y0064841D01*
X0036270Y0066440D02*
X0017259Y0066440D01*
X0017259Y0068039D02*
X0037868Y0068039D01*
X0037846Y0069637D02*
X0017259Y0069637D01*
X0017259Y0071236D02*
X0036045Y0071236D01*
X0035404Y0072834D02*
X0017259Y0072834D01*
X0017259Y0074433D02*
X0035404Y0074433D01*
X0035999Y0076031D02*
X0017259Y0076031D01*
X0017259Y0077630D02*
X0037577Y0077630D01*
X0042381Y0079228D02*
X0017259Y0079228D01*
X0017259Y0080827D02*
X0043980Y0080827D01*
X0045578Y0082425D02*
X0017259Y0082425D01*
X0017259Y0084024D02*
X0047177Y0084024D01*
X0048775Y0085622D02*
X0017259Y0085622D01*
X0017259Y0087221D02*
X0050374Y0087221D01*
X0049115Y0088819D02*
X0051972Y0088819D01*
X0050419Y0090418D02*
X0053571Y0090418D01*
X0055169Y0092016D02*
X0051081Y0092016D01*
X0051098Y0093615D02*
X0056768Y0093615D01*
X0057754Y0095213D02*
X0050751Y0095213D01*
X0049917Y0096812D02*
X0057754Y0096812D01*
X0057754Y0098410D02*
X0047962Y0098410D01*
X0049674Y0100009D02*
X0057754Y0100009D01*
X0057754Y0101607D02*
X0050650Y0101607D01*
X0051098Y0103206D02*
X0057754Y0103206D01*
X0057754Y0104804D02*
X0051098Y0104804D01*
X0050519Y0106403D02*
X0057754Y0106403D01*
X0057754Y0108001D02*
X0049357Y0108001D01*
X0049001Y0109600D02*
X0057754Y0109600D01*
X0057754Y0111198D02*
X0050085Y0111198D01*
X0050521Y0112797D02*
X0057754Y0112797D01*
X0057754Y0114395D02*
X0050498Y0114395D01*
X0049836Y0115994D02*
X0057754Y0115994D01*
X0057754Y0117592D02*
X0048400Y0117592D01*
X0049959Y0119191D02*
X0057754Y0119191D01*
X0058943Y0120789D02*
X0050768Y0120789D01*
X0051098Y0122388D02*
X0060541Y0122388D01*
X0062140Y0123986D02*
X0051063Y0123986D01*
X0050401Y0125585D02*
X0063738Y0125585D01*
X0065337Y0127183D02*
X0049073Y0127183D01*
X0048920Y0128782D02*
X0066935Y0128782D01*
X0068534Y0130380D02*
X0050338Y0130380D01*
X0054901Y0141570D02*
X0290905Y0141570D01*
X0292261Y0143169D02*
X0292964Y0143169D01*
X0296944Y0143169D02*
X0297954Y0143169D01*
X0297961Y0144767D02*
X0298203Y0144767D01*
X0299295Y0146366D02*
X0299802Y0146366D01*
X0299854Y0147964D02*
X0300054Y0147964D01*
X0300054Y0149563D02*
X0299854Y0149563D01*
X0299233Y0151161D02*
X0300674Y0151161D01*
X0302094Y0152760D02*
X0297813Y0152760D01*
X0292094Y0152760D02*
X0272813Y0152760D01*
X0274233Y0151161D02*
X0290674Y0151161D01*
X0290054Y0149563D02*
X0274854Y0149563D01*
X0274854Y0147964D02*
X0290054Y0147964D01*
X0289802Y0146366D02*
X0274295Y0146366D01*
X0265612Y0146366D02*
X0208004Y0146366D01*
X0208754Y0147964D02*
X0265054Y0147964D01*
X0265054Y0149563D02*
X0208754Y0149563D01*
X0207856Y0151161D02*
X0219708Y0151161D01*
X0219332Y0151537D02*
X0220401Y0150468D01*
X0221798Y0149889D01*
X0228109Y0149889D01*
X0229506Y0150468D01*
X0230575Y0151537D01*
X0231154Y0152933D01*
X0231154Y0154445D01*
X0230575Y0155842D01*
X0229506Y0156911D01*
X0228109Y0157489D01*
X0221798Y0157489D01*
X0220401Y0156911D01*
X0219332Y0155842D01*
X0218754Y0154445D01*
X0218754Y0152933D01*
X0219332Y0151537D01*
X0218825Y0152760D02*
X0186823Y0152760D01*
X0184954Y0152760D02*
X0184953Y0152760D01*
X0184953Y0152889D02*
X0183214Y0152889D01*
X0180754Y0150429D01*
X0180754Y0148689D01*
X0184953Y0148689D01*
X0184953Y0148689D01*
X0184953Y0152889D01*
X0184953Y0151161D02*
X0184954Y0151161D01*
X0184953Y0149563D02*
X0184954Y0149563D01*
X0188421Y0151161D02*
X0202052Y0151161D01*
X0201154Y0149563D02*
X0189154Y0149563D01*
X0189154Y0147964D02*
X0201154Y0147964D01*
X0201903Y0146366D02*
X0188570Y0146366D01*
X0181337Y0146366D02*
X0168570Y0146366D01*
X0169154Y0147964D02*
X0180754Y0147964D01*
X0180754Y0149563D02*
X0169154Y0149563D01*
X0168421Y0151161D02*
X0181486Y0151161D01*
X0183084Y0152760D02*
X0166823Y0152760D01*
X0164954Y0152760D02*
X0164953Y0152760D01*
X0164953Y0152889D02*
X0163214Y0152889D01*
X0160754Y0150429D01*
X0160754Y0148689D01*
X0164953Y0148689D01*
X0164953Y0148689D01*
X0164953Y0152889D01*
X0164953Y0151161D02*
X0164954Y0151161D01*
X0164953Y0149563D02*
X0164954Y0149563D01*
X0161486Y0151161D02*
X0148421Y0151161D01*
X0149154Y0149563D02*
X0160754Y0149563D01*
X0160754Y0147964D02*
X0149154Y0147964D01*
X0148570Y0146366D02*
X0161337Y0146366D01*
X0163084Y0152760D02*
X0146823Y0152760D01*
X0144954Y0152760D02*
X0144953Y0152760D01*
X0144953Y0152889D02*
X0143214Y0152889D01*
X0140754Y0150429D01*
X0140754Y0148689D01*
X0144953Y0148689D01*
X0144953Y0148689D01*
X0144953Y0152889D01*
X0144953Y0151161D02*
X0144954Y0151161D01*
X0144953Y0149563D02*
X0144954Y0149563D01*
X0141486Y0151161D02*
X0132856Y0151161D01*
X0133754Y0149563D02*
X0140754Y0149563D01*
X0140754Y0147964D02*
X0133754Y0147964D01*
X0133004Y0146366D02*
X0141337Y0146366D01*
X0143084Y0152760D02*
X0131954Y0152760D01*
X0131954Y0154358D02*
X0218754Y0154358D01*
X0219447Y0155957D02*
X0131954Y0155957D01*
X0131954Y0157555D02*
X0322649Y0157555D01*
X0322649Y0155957D02*
X0255460Y0155957D01*
X0255575Y0155842D02*
X0254506Y0156911D01*
X0253109Y0157489D01*
X0246798Y0157489D01*
X0245401Y0156911D01*
X0244332Y0155842D01*
X0243754Y0154445D01*
X0243754Y0152933D01*
X0244332Y0151537D01*
X0245401Y0150468D01*
X0246798Y0149889D01*
X0253109Y0149889D01*
X0254506Y0150468D01*
X0255575Y0151537D01*
X0256154Y0152933D01*
X0256154Y0154445D01*
X0255575Y0155842D01*
X0256154Y0154358D02*
X0322649Y0154358D01*
X0322649Y0152760D02*
X0307813Y0152760D01*
X0309233Y0151161D02*
X0322649Y0151161D01*
X0322649Y0149563D02*
X0309854Y0149563D01*
X0309854Y0147964D02*
X0322649Y0147964D01*
X0322649Y0146366D02*
X0309295Y0146366D01*
X0307961Y0144767D02*
X0322649Y0144767D01*
X0322649Y0143169D02*
X0306944Y0143169D01*
X0309002Y0141570D02*
X0322649Y0141570D01*
X0322649Y0139972D02*
X0309726Y0139972D01*
X0309854Y0138373D02*
X0322649Y0138373D01*
X0322649Y0136775D02*
X0309979Y0136775D01*
X0311578Y0135176D02*
X0322649Y0135176D01*
X0322649Y0133577D02*
X0312154Y0133577D01*
X0312154Y0131979D02*
X0322649Y0131979D01*
X0322649Y0130380D02*
X0312154Y0130380D01*
X0312154Y0128782D02*
X0322649Y0128782D01*
X0322649Y0127183D02*
X0312154Y0127183D01*
X0312154Y0125585D02*
X0322649Y0125585D01*
X0322649Y0123986D02*
X0312154Y0123986D01*
X0311764Y0122388D02*
X0322649Y0122388D01*
X0322649Y0120789D02*
X0310165Y0120789D01*
X0308567Y0119191D02*
X0322649Y0119191D01*
X0322649Y0117592D02*
X0306968Y0117592D01*
X0304954Y0118689D02*
X0254954Y0118689D01*
X0244954Y0128689D01*
X0069954Y0128689D01*
X0059954Y0118689D01*
X0059954Y0093689D01*
X0039954Y0073689D01*
X0042061Y0069637D02*
X0063833Y0069637D01*
X0063754Y0069445D02*
X0063754Y0067933D01*
X0064332Y0066537D01*
X0065401Y0065468D01*
X0066798Y0064889D01*
X0070925Y0064889D01*
X0072954Y0062861D01*
X0073478Y0062337D01*
X0073109Y0062489D01*
X0066798Y0062489D01*
X0065401Y0061911D01*
X0064332Y0060842D01*
X0063754Y0059445D01*
X0063754Y0057933D01*
X0064332Y0056537D01*
X0065401Y0055468D01*
X0066798Y0054889D01*
X0073109Y0054889D01*
X0074506Y0055468D01*
X0075575Y0056537D01*
X0076154Y0057933D01*
X0076154Y0059445D01*
X0075575Y0060842D01*
X0074728Y0061689D01*
X0080857Y0061689D01*
X0081096Y0061112D01*
X0082376Y0059832D01*
X0084048Y0059139D01*
X0085859Y0059139D01*
X0087531Y0059832D01*
X0088811Y0061112D01*
X0089504Y0062784D01*
X0089504Y0064594D01*
X0088811Y0066266D01*
X0087531Y0067546D01*
X0085859Y0068239D01*
X0084048Y0068239D01*
X0082376Y0067546D01*
X0081096Y0066266D01*
X0080857Y0065689D01*
X0075782Y0065689D01*
X0075255Y0066216D01*
X0075575Y0066537D01*
X0076154Y0067933D01*
X0076154Y0069445D01*
X0075575Y0070842D01*
X0074506Y0071911D01*
X0073109Y0072489D01*
X0066798Y0072489D01*
X0065401Y0071911D01*
X0064332Y0070842D01*
X0063754Y0069445D01*
X0063754Y0068039D02*
X0042039Y0068039D01*
X0043637Y0066440D02*
X0064429Y0066440D01*
X0064726Y0071236D02*
X0043862Y0071236D01*
X0044504Y0072834D02*
X0113795Y0072834D01*
X0113754Y0074433D02*
X0044504Y0074433D01*
X0045407Y0076031D02*
X0067238Y0076031D01*
X0066154Y0077115D02*
X0068380Y0074889D01*
X0071528Y0074889D01*
X0073754Y0077115D01*
X0073754Y0080263D01*
X0071528Y0082489D01*
X0068380Y0082489D01*
X0066154Y0080263D01*
X0066154Y0077115D01*
X0066154Y0077630D02*
X0047005Y0077630D01*
X0048604Y0079228D02*
X0066154Y0079228D01*
X0066717Y0080827D02*
X0050202Y0080827D01*
X0051801Y0082425D02*
X0068316Y0082425D01*
X0071592Y0082425D02*
X0088316Y0082425D01*
X0088380Y0082489D02*
X0086154Y0080263D01*
X0086154Y0077115D01*
X0088380Y0074889D01*
X0091528Y0074889D01*
X0093754Y0077115D01*
X0093754Y0080263D01*
X0091528Y0082489D01*
X0088380Y0082489D01*
X0086717Y0080827D02*
X0073190Y0080827D01*
X0073754Y0079228D02*
X0086154Y0079228D01*
X0086154Y0077630D02*
X0073754Y0077630D01*
X0072669Y0076031D02*
X0087238Y0076031D01*
X0092669Y0076031D02*
X0107238Y0076031D01*
X0106154Y0077630D02*
X0093754Y0077630D01*
X0093754Y0079228D02*
X0106154Y0079228D01*
X0106717Y0080827D02*
X0093190Y0080827D01*
X0091592Y0082425D02*
X0107954Y0082425D01*
X0107954Y0084024D02*
X0053399Y0084024D01*
X0054998Y0085622D02*
X0107954Y0085622D01*
X0107954Y0087221D02*
X0056596Y0087221D01*
X0058195Y0088819D02*
X0107954Y0088819D01*
X0107954Y0090418D02*
X0059793Y0090418D01*
X0061392Y0092016D02*
X0107954Y0092016D01*
X0107954Y0093615D02*
X0062154Y0093615D01*
X0062154Y0095213D02*
X0107954Y0095213D01*
X0107954Y0096812D02*
X0062154Y0096812D01*
X0062154Y0098410D02*
X0107954Y0098410D01*
X0107954Y0100009D02*
X0062154Y0100009D01*
X0062154Y0101607D02*
X0107954Y0101607D01*
X0107954Y0103206D02*
X0062154Y0103206D01*
X0062154Y0104804D02*
X0108240Y0104804D01*
X0106866Y0106403D02*
X0093041Y0106403D01*
X0093754Y0107115D02*
X0091528Y0104889D01*
X0088380Y0104889D01*
X0086154Y0107115D01*
X0086154Y0110263D01*
X0088380Y0112489D01*
X0091528Y0112489D01*
X0093754Y0110263D01*
X0093754Y0107115D01*
X0093754Y0108001D02*
X0106154Y0108001D01*
X0106154Y0109600D02*
X0093754Y0109600D01*
X0092818Y0111198D02*
X0107089Y0111198D01*
X0107275Y0115994D02*
X0092632Y0115994D01*
X0091528Y0114889D02*
X0093754Y0117115D01*
X0093754Y0120263D01*
X0091528Y0122489D01*
X0088380Y0122489D01*
X0086154Y0120263D01*
X0086154Y0117115D01*
X0088380Y0114889D01*
X0091528Y0114889D01*
X0093754Y0117592D02*
X0106154Y0117592D01*
X0106154Y0119191D02*
X0093754Y0119191D01*
X0093227Y0120789D02*
X0106680Y0120789D01*
X0108278Y0122388D02*
X0091629Y0122388D01*
X0088278Y0122388D02*
X0071629Y0122388D01*
X0071528Y0122489D02*
X0068380Y0122489D01*
X0066154Y0120263D01*
X0066154Y0117115D01*
X0068380Y0114889D01*
X0071528Y0114889D01*
X0073754Y0117115D01*
X0073754Y0120263D01*
X0071528Y0122489D01*
X0073227Y0120789D02*
X0086680Y0120789D01*
X0086154Y0119191D02*
X0073754Y0119191D01*
X0073754Y0117592D02*
X0086154Y0117592D01*
X0087275Y0115994D02*
X0072632Y0115994D01*
X0071528Y0112489D02*
X0068380Y0112489D01*
X0066154Y0110263D01*
X0066154Y0107115D01*
X0068380Y0104889D01*
X0071528Y0104889D01*
X0073754Y0107115D01*
X0073754Y0110263D01*
X0071528Y0112489D01*
X0072818Y0111198D02*
X0087089Y0111198D01*
X0086154Y0109600D02*
X0073754Y0109600D01*
X0073754Y0108001D02*
X0086154Y0108001D01*
X0086866Y0106403D02*
X0073041Y0106403D01*
X0066866Y0106403D02*
X0062154Y0106403D01*
X0062154Y0108001D02*
X0066154Y0108001D01*
X0066154Y0109600D02*
X0062154Y0109600D01*
X0062154Y0111198D02*
X0067089Y0111198D01*
X0062154Y0112797D02*
X0139854Y0112797D01*
X0139854Y0114395D02*
X0062154Y0114395D01*
X0062154Y0115994D02*
X0067275Y0115994D01*
X0066154Y0117592D02*
X0062154Y0117592D01*
X0063567Y0119191D02*
X0066154Y0119191D01*
X0066680Y0120789D02*
X0065165Y0120789D01*
X0066764Y0122388D02*
X0068278Y0122388D01*
X0068362Y0123986D02*
X0112140Y0123986D01*
X0113738Y0125585D02*
X0069961Y0125585D01*
X0055146Y0143169D02*
X0053303Y0143169D01*
X0053547Y0144767D02*
X0051704Y0144767D01*
X0051949Y0146366D02*
X0050106Y0146366D01*
X0050350Y0147964D02*
X0048507Y0147964D01*
X0048752Y0149563D02*
X0046908Y0149563D01*
X0047153Y0151161D02*
X0045310Y0151161D01*
X0045555Y0152760D02*
X0044493Y0152760D01*
X0048014Y0155957D02*
X0059912Y0155957D01*
X0060401Y0155468D02*
X0061798Y0154889D01*
X0068109Y0154889D01*
X0069506Y0155468D01*
X0070575Y0156537D01*
X0071154Y0157933D01*
X0071154Y0159445D01*
X0070575Y0160842D01*
X0070255Y0161162D01*
X0070782Y0161689D01*
X0085857Y0161689D01*
X0086096Y0161112D01*
X0087376Y0159832D01*
X0089048Y0159139D01*
X0090859Y0159139D01*
X0092531Y0159832D01*
X0093811Y0161112D01*
X0094504Y0162784D01*
X0094504Y0164594D01*
X0093811Y0166266D01*
X0092531Y0167546D01*
X0090859Y0168239D01*
X0089048Y0168239D01*
X0087376Y0167546D01*
X0086096Y0166266D01*
X0085857Y0165689D01*
X0069728Y0165689D01*
X0070575Y0166537D01*
X0071154Y0167933D01*
X0071154Y0169445D01*
X0070575Y0170842D01*
X0069506Y0171911D01*
X0068109Y0172489D01*
X0061798Y0172489D01*
X0060401Y0171911D01*
X0059332Y0170842D01*
X0058754Y0169445D01*
X0058754Y0167933D01*
X0059332Y0166537D01*
X0060401Y0165468D01*
X0061798Y0164889D01*
X0068109Y0164889D01*
X0068478Y0165042D01*
X0067954Y0164518D01*
X0065925Y0162489D01*
X0061798Y0162489D01*
X0060401Y0161911D01*
X0059332Y0160842D01*
X0058754Y0159445D01*
X0058754Y0157933D01*
X0059332Y0156537D01*
X0060401Y0155468D01*
X0058910Y0157555D02*
X0046416Y0157555D01*
X0044817Y0159154D02*
X0058754Y0159154D01*
X0059295Y0160752D02*
X0043451Y0160752D01*
X0044504Y0162351D02*
X0061463Y0162351D01*
X0067385Y0163949D02*
X0044504Y0163949D01*
X0044504Y0165548D02*
X0047721Y0165548D01*
X0048380Y0164889D02*
X0051528Y0164889D01*
X0053754Y0167115D01*
X0053754Y0170263D01*
X0051528Y0172489D01*
X0048380Y0172489D01*
X0046154Y0170263D01*
X0046154Y0167115D01*
X0048380Y0164889D01*
X0046154Y0167146D02*
X0042931Y0167146D01*
X0046154Y0168745D02*
X0017259Y0168745D01*
X0017259Y0170343D02*
X0046234Y0170343D01*
X0047832Y0171942D02*
X0017259Y0171942D01*
X0017259Y0173540D02*
X0113754Y0173540D01*
X0114041Y0175139D02*
X0068712Y0175139D01*
X0068109Y0174889D02*
X0069506Y0175468D01*
X0070575Y0176537D01*
X0071154Y0177933D01*
X0071154Y0179445D01*
X0070575Y0180842D01*
X0070255Y0181162D01*
X0075782Y0186689D01*
X0086580Y0186689D01*
X0088380Y0184889D01*
X0091528Y0184889D01*
X0093754Y0187115D01*
X0093754Y0190263D01*
X0091528Y0192489D01*
X0088380Y0192489D01*
X0086580Y0190689D01*
X0074125Y0190689D01*
X0072954Y0189518D01*
X0065925Y0182489D01*
X0061798Y0182489D01*
X0060401Y0181911D01*
X0059332Y0180842D01*
X0058754Y0179445D01*
X0058754Y0177933D01*
X0059332Y0176537D01*
X0060401Y0175468D01*
X0061798Y0174889D01*
X0068109Y0174889D01*
X0070658Y0176737D02*
X0115228Y0176737D01*
X0117954Y0178336D02*
X0071154Y0178336D01*
X0070951Y0179934D02*
X0117954Y0179934D01*
X0117954Y0181533D02*
X0070626Y0181533D01*
X0072224Y0183131D02*
X0117954Y0183131D01*
X0117954Y0184730D02*
X0107285Y0184730D01*
X0107531Y0184832D02*
X0108811Y0186112D01*
X0109504Y0187784D01*
X0109504Y0189594D01*
X0108811Y0191266D01*
X0107531Y0192546D01*
X0105859Y0193239D01*
X0104048Y0193239D01*
X0102376Y0192546D01*
X0101096Y0191266D01*
X0100404Y0189594D01*
X0100404Y0187784D01*
X0101096Y0186112D01*
X0102376Y0184832D01*
X0104048Y0184139D01*
X0105859Y0184139D01*
X0107531Y0184832D01*
X0108901Y0186328D02*
X0117954Y0186328D01*
X0117954Y0187927D02*
X0109504Y0187927D01*
X0109504Y0189525D02*
X0117954Y0189525D01*
X0117954Y0191124D02*
X0108870Y0191124D01*
X0107106Y0192722D02*
X0117954Y0192722D01*
X0117954Y0194321D02*
X0107020Y0194321D01*
X0106838Y0194139D02*
X0109504Y0196804D01*
X0109504Y0200574D01*
X0106838Y0203239D01*
X0103069Y0203239D01*
X0100404Y0200574D01*
X0100404Y0196804D01*
X0103069Y0194139D01*
X0106838Y0194139D01*
X0108618Y0195919D02*
X0124410Y0195919D01*
X0124745Y0191124D02*
X0121954Y0191124D01*
X0121954Y0189525D02*
X0155404Y0189525D01*
X0155404Y0187927D02*
X0121954Y0187927D01*
X0121954Y0186328D02*
X0124819Y0186328D01*
X0124332Y0185842D02*
X0123754Y0184445D01*
X0123754Y0182933D01*
X0124332Y0181537D01*
X0125401Y0180468D01*
X0126798Y0179889D01*
X0133109Y0179889D01*
X0134506Y0180468D01*
X0135575Y0181537D01*
X0136154Y0182933D01*
X0136154Y0184445D01*
X0135575Y0185842D01*
X0134506Y0186911D01*
X0133109Y0187489D01*
X0126798Y0187489D01*
X0125401Y0186911D01*
X0124332Y0185842D01*
X0123872Y0184730D02*
X0121954Y0184730D01*
X0121954Y0183131D02*
X0123754Y0183131D01*
X0124336Y0181533D02*
X0121954Y0181533D01*
X0121954Y0179934D02*
X0126689Y0179934D01*
X0124679Y0176737D02*
X0140173Y0176737D01*
X0141154Y0178336D02*
X0121954Y0178336D01*
X0125866Y0175139D02*
X0138575Y0175139D01*
X0136976Y0173540D02*
X0126154Y0173540D01*
X0125743Y0171942D02*
X0135378Y0171942D01*
X0137838Y0168745D02*
X0212070Y0168745D01*
X0213668Y0167146D02*
X0136239Y0167146D01*
X0139436Y0170343D02*
X0210471Y0170343D01*
X0208872Y0171942D02*
X0141035Y0171942D01*
X0142633Y0173540D02*
X0207274Y0173540D01*
X0203130Y0175139D02*
X0186777Y0175139D01*
X0188376Y0176737D02*
X0201531Y0176737D01*
X0201154Y0178336D02*
X0188754Y0178336D01*
X0188754Y0179934D02*
X0201154Y0179934D01*
X0202423Y0181533D02*
X0187484Y0181533D01*
X0186954Y0183131D02*
X0192683Y0183131D01*
X0187478Y0184730D02*
X0186954Y0184730D01*
X0182954Y0184730D02*
X0166954Y0184730D01*
X0166954Y0186328D02*
X0182954Y0186328D01*
X0182954Y0187927D02*
X0166954Y0187927D01*
X0166954Y0189525D02*
X0182954Y0189525D01*
X0182954Y0191124D02*
X0166954Y0191124D01*
X0166954Y0192722D02*
X0182954Y0192722D01*
X0182954Y0194321D02*
X0166954Y0194321D01*
X0166954Y0195919D02*
X0186289Y0195919D01*
X0185868Y0200715D02*
X0164362Y0200715D01*
X0162764Y0202313D02*
X0187143Y0202313D01*
X0192764Y0202313D02*
X0214010Y0202313D01*
X0213754Y0203912D02*
X0136154Y0203912D01*
X0135897Y0202313D02*
X0157143Y0202313D01*
X0155545Y0200715D02*
X0135756Y0200715D01*
X0133296Y0197518D02*
X0109504Y0197518D01*
X0109504Y0199116D02*
X0131698Y0199116D01*
X0135497Y0195919D02*
X0156289Y0195919D01*
X0157887Y0194321D02*
X0136154Y0194321D01*
X0136066Y0192722D02*
X0157801Y0192722D01*
X0156037Y0191124D02*
X0135162Y0191124D01*
X0135088Y0186328D02*
X0156007Y0186328D01*
X0157622Y0184730D02*
X0136036Y0184730D01*
X0136154Y0183131D02*
X0162954Y0183131D01*
X0162954Y0184730D02*
X0162285Y0184730D01*
X0162423Y0181533D02*
X0147484Y0181533D01*
X0148754Y0179934D02*
X0161154Y0179934D01*
X0161154Y0178336D02*
X0148754Y0178336D01*
X0148376Y0176737D02*
X0161531Y0176737D01*
X0163130Y0175139D02*
X0146777Y0175139D01*
X0141154Y0179934D02*
X0133218Y0179934D01*
X0135571Y0181533D02*
X0142423Y0181533D01*
X0162106Y0192722D02*
X0162954Y0192722D01*
X0162954Y0194321D02*
X0162020Y0194321D01*
X0166954Y0183131D02*
X0182954Y0183131D01*
X0182423Y0181533D02*
X0167484Y0181533D01*
X0168754Y0179934D02*
X0181154Y0179934D01*
X0181154Y0178336D02*
X0168754Y0178336D01*
X0168376Y0176737D02*
X0181531Y0176737D01*
X0183130Y0175139D02*
X0166777Y0175139D01*
X0195143Y0186328D02*
X0214819Y0186328D01*
X0214745Y0191124D02*
X0193953Y0191124D01*
X0194504Y0189525D02*
X0302153Y0189525D01*
X0302493Y0188704D02*
X0304969Y0186229D01*
X0308203Y0184889D01*
X0311704Y0184889D01*
X0314938Y0186229D01*
X0317414Y0188704D01*
X0318754Y0191939D01*
X0318754Y0195440D01*
X0317414Y0198674D01*
X0314938Y0201149D01*
X0311704Y0202489D01*
X0308203Y0202489D01*
X0304969Y0201149D01*
X0302493Y0198674D01*
X0301154Y0195440D01*
X0301154Y0191939D01*
X0302493Y0188704D01*
X0303271Y0187927D02*
X0287150Y0187927D01*
X0286838Y0188239D02*
X0283069Y0188239D01*
X0280404Y0185574D01*
X0280404Y0181804D01*
X0283069Y0179139D01*
X0286838Y0179139D01*
X0289504Y0181804D01*
X0289504Y0185574D01*
X0286838Y0188239D01*
X0288749Y0186328D02*
X0304869Y0186328D01*
X0301491Y0191124D02*
X0255162Y0191124D01*
X0255575Y0191537D02*
X0256154Y0192933D01*
X0256154Y0194445D01*
X0255575Y0195842D01*
X0254506Y0196911D01*
X0253109Y0197489D01*
X0246798Y0197489D01*
X0245401Y0196911D01*
X0244332Y0195842D01*
X0243754Y0194445D01*
X0243754Y0192933D01*
X0244332Y0191537D01*
X0245401Y0190468D01*
X0246798Y0189889D01*
X0253109Y0189889D01*
X0254506Y0190468D01*
X0255575Y0191537D01*
X0256066Y0192722D02*
X0301154Y0192722D01*
X0301154Y0194321D02*
X0256154Y0194321D01*
X0255497Y0195919D02*
X0301352Y0195919D01*
X0302014Y0197518D02*
X0194393Y0197518D01*
X0194504Y0199116D02*
X0302936Y0199116D01*
X0304534Y0200715D02*
X0255319Y0200715D01*
X0256323Y0202313D02*
X0307779Y0202313D01*
X0312128Y0202313D02*
X0321715Y0202313D01*
X0322287Y0200715D02*
X0315373Y0200715D01*
X0316971Y0199116D02*
X0322615Y0199116D01*
X0322649Y0197518D02*
X0317893Y0197518D01*
X0318555Y0195919D02*
X0322649Y0195919D01*
X0322649Y0194321D02*
X0318754Y0194321D01*
X0318754Y0192722D02*
X0322649Y0192722D01*
X0322649Y0191124D02*
X0318416Y0191124D01*
X0317754Y0189525D02*
X0322649Y0189525D01*
X0322649Y0187927D02*
X0316636Y0187927D01*
X0315038Y0186328D02*
X0322649Y0186328D01*
X0322649Y0184730D02*
X0289504Y0184730D01*
X0289504Y0183131D02*
X0322649Y0183131D01*
X0322649Y0181533D02*
X0289232Y0181533D01*
X0287633Y0179934D02*
X0322649Y0179934D01*
X0322649Y0178336D02*
X0208754Y0178336D01*
X0208754Y0179934D02*
X0216689Y0179934D01*
X0214336Y0181533D02*
X0207484Y0181533D01*
X0209734Y0176737D02*
X0220228Y0176737D01*
X0220401Y0176911D02*
X0219332Y0175842D01*
X0218754Y0174445D01*
X0218754Y0172933D01*
X0219332Y0171537D01*
X0220401Y0170468D01*
X0221798Y0169889D01*
X0228109Y0169889D01*
X0229506Y0170468D01*
X0230575Y0171537D01*
X0231154Y0172933D01*
X0231154Y0174445D01*
X0230575Y0175842D01*
X0229506Y0176911D01*
X0228109Y0177489D01*
X0221798Y0177489D01*
X0220401Y0176911D01*
X0219041Y0175139D02*
X0211332Y0175139D01*
X0212931Y0173540D02*
X0218754Y0173540D01*
X0219164Y0171942D02*
X0214529Y0171942D01*
X0216128Y0170343D02*
X0220701Y0170343D01*
X0217726Y0168745D02*
X0322649Y0168745D01*
X0322649Y0170343D02*
X0254206Y0170343D01*
X0254506Y0170468D02*
X0255575Y0171537D01*
X0256154Y0172933D01*
X0256154Y0174445D01*
X0255575Y0175842D01*
X0254506Y0176911D01*
X0253109Y0177489D01*
X0246798Y0177489D01*
X0245401Y0176911D01*
X0244332Y0175842D01*
X0243754Y0174445D01*
X0243754Y0172933D01*
X0244332Y0171537D01*
X0245401Y0170468D01*
X0246798Y0169889D01*
X0253109Y0169889D01*
X0254506Y0170468D01*
X0255743Y0171942D02*
X0322649Y0171942D01*
X0322649Y0173540D02*
X0256154Y0173540D01*
X0255866Y0175139D02*
X0322649Y0175139D01*
X0322649Y0176737D02*
X0254679Y0176737D01*
X0253218Y0179934D02*
X0272274Y0179934D01*
X0272376Y0179832D02*
X0274048Y0179139D01*
X0275859Y0179139D01*
X0277531Y0179832D01*
X0278811Y0181112D01*
X0279504Y0182784D01*
X0279504Y0184594D01*
X0278811Y0186266D01*
X0277531Y0187546D01*
X0275859Y0188239D01*
X0274048Y0188239D01*
X0272376Y0187546D01*
X0271096Y0186266D01*
X0270404Y0184594D01*
X0270404Y0182784D01*
X0271096Y0181112D01*
X0272376Y0179832D01*
X0270922Y0181533D02*
X0255571Y0181533D01*
X0255575Y0181537D02*
X0256154Y0182933D01*
X0256154Y0184445D01*
X0255575Y0185842D01*
X0254506Y0186911D01*
X0253109Y0187489D01*
X0246798Y0187489D01*
X0245401Y0186911D01*
X0244332Y0185842D01*
X0243754Y0184445D01*
X0243754Y0182933D01*
X0244332Y0181537D01*
X0245401Y0180468D01*
X0246798Y0179889D01*
X0253109Y0179889D01*
X0254506Y0180468D01*
X0255575Y0181537D01*
X0256154Y0183131D02*
X0270404Y0183131D01*
X0270460Y0184730D02*
X0256036Y0184730D01*
X0255088Y0186328D02*
X0271158Y0186328D01*
X0273295Y0187927D02*
X0194504Y0187927D01*
X0193618Y0195919D02*
X0214410Y0195919D01*
X0215154Y0200715D02*
X0194039Y0200715D01*
X0214195Y0205510D02*
X0135712Y0205510D01*
X0124195Y0205510D02*
X0021412Y0205510D01*
X0019354Y0203912D02*
X0123754Y0203912D01*
X0124010Y0202313D02*
X0107764Y0202313D01*
X0109362Y0200715D02*
X0125154Y0200715D01*
X0102143Y0202313D02*
X0091703Y0202313D01*
X0091528Y0202489D02*
X0088380Y0202489D01*
X0086154Y0200263D01*
X0086154Y0197115D01*
X0088380Y0194889D01*
X0091528Y0194889D01*
X0093754Y0197115D01*
X0093754Y0200263D01*
X0091528Y0202489D01*
X0093302Y0200715D02*
X0100545Y0200715D01*
X0100404Y0199116D02*
X0093754Y0199116D01*
X0093754Y0197518D02*
X0100404Y0197518D01*
X0101289Y0195919D02*
X0092558Y0195919D01*
X0092893Y0191124D02*
X0101037Y0191124D01*
X0100404Y0189525D02*
X0093754Y0189525D01*
X0093754Y0187927D02*
X0100404Y0187927D01*
X0101007Y0186328D02*
X0092967Y0186328D01*
X0086940Y0186328D02*
X0075421Y0186328D01*
X0073823Y0184730D02*
X0102622Y0184730D01*
X0102801Y0192722D02*
X0061860Y0192722D01*
X0061693Y0192889D02*
X0059954Y0192889D01*
X0059954Y0188689D01*
X0059954Y0188689D01*
X0064154Y0188689D01*
X0064154Y0186949D01*
X0061693Y0184489D01*
X0059954Y0184489D01*
X0059954Y0188689D01*
X0064154Y0188689D01*
X0064154Y0190429D01*
X0061693Y0192889D01*
X0061693Y0194489D02*
X0059954Y0194489D01*
X0059954Y0198689D01*
X0059954Y0198689D01*
X0064154Y0198689D01*
X0064154Y0196949D01*
X0061693Y0194489D01*
X0059953Y0194489D02*
X0059953Y0198689D01*
X0055754Y0198689D01*
X0055754Y0196949D01*
X0058214Y0194489D01*
X0059953Y0194489D01*
X0059953Y0195919D02*
X0059954Y0195919D01*
X0059953Y0197518D02*
X0059954Y0197518D01*
X0059953Y0198689D02*
X0059954Y0198689D01*
X0064154Y0198689D01*
X0064154Y0200429D01*
X0061693Y0202889D01*
X0059954Y0202889D01*
X0059954Y0198689D01*
X0059953Y0198689D01*
X0059953Y0198689D01*
X0055754Y0198689D01*
X0055754Y0200429D01*
X0058214Y0202889D01*
X0059953Y0202889D01*
X0059953Y0198689D01*
X0059953Y0199116D02*
X0059954Y0199116D01*
X0059953Y0200715D02*
X0059954Y0200715D01*
X0059953Y0202313D02*
X0059954Y0202313D01*
X0062269Y0202313D02*
X0088204Y0202313D01*
X0086605Y0200715D02*
X0063867Y0200715D01*
X0064154Y0199116D02*
X0086154Y0199116D01*
X0086154Y0197518D02*
X0064154Y0197518D01*
X0063124Y0195919D02*
X0087349Y0195919D01*
X0087014Y0191124D02*
X0063458Y0191124D01*
X0064154Y0189525D02*
X0072961Y0189525D01*
X0071363Y0187927D02*
X0064154Y0187927D01*
X0063532Y0186328D02*
X0069764Y0186328D01*
X0068166Y0184730D02*
X0061934Y0184730D01*
X0059954Y0184730D02*
X0059953Y0184730D01*
X0059953Y0184489D02*
X0059953Y0188689D01*
X0055754Y0188689D01*
X0055754Y0186949D01*
X0058214Y0184489D01*
X0059953Y0184489D01*
X0059953Y0186328D02*
X0059954Y0186328D01*
X0059953Y0187927D02*
X0059954Y0187927D01*
X0059953Y0188689D02*
X0059954Y0188689D01*
X0059953Y0188689D01*
X0059953Y0188689D01*
X0055754Y0188689D01*
X0055754Y0190429D01*
X0058214Y0192889D01*
X0059953Y0192889D01*
X0059953Y0188689D01*
X0059953Y0189525D02*
X0059954Y0189525D01*
X0059953Y0191124D02*
X0059954Y0191124D01*
X0059953Y0192722D02*
X0059954Y0192722D01*
X0058047Y0192722D02*
X0038754Y0192722D01*
X0038754Y0191939D02*
X0037414Y0188704D01*
X0034938Y0186229D01*
X0031704Y0184889D01*
X0028203Y0184889D01*
X0024969Y0186229D01*
X0022493Y0188704D01*
X0021154Y0191939D01*
X0021154Y0195440D01*
X0022493Y0198674D01*
X0024969Y0201149D01*
X0028203Y0202489D01*
X0031704Y0202489D01*
X0034938Y0201149D01*
X0037414Y0198674D01*
X0038754Y0195440D01*
X0038754Y0191939D01*
X0038416Y0191124D02*
X0056449Y0191124D01*
X0055754Y0189525D02*
X0037754Y0189525D01*
X0036636Y0187927D02*
X0055754Y0187927D01*
X0056375Y0186328D02*
X0035038Y0186328D01*
X0038754Y0194321D02*
X0102887Y0194321D01*
X0108779Y0170343D02*
X0070781Y0170343D01*
X0071154Y0168745D02*
X0107954Y0168745D01*
X0107954Y0167146D02*
X0102931Y0167146D01*
X0101838Y0168239D02*
X0104504Y0165574D01*
X0104504Y0161804D01*
X0101838Y0159139D01*
X0098069Y0159139D01*
X0095404Y0161804D01*
X0095404Y0165574D01*
X0098069Y0168239D01*
X0101838Y0168239D01*
X0104504Y0165548D02*
X0107954Y0165548D01*
X0107954Y0163949D02*
X0104504Y0163949D01*
X0104504Y0162351D02*
X0107954Y0162351D01*
X0107954Y0160752D02*
X0103451Y0160752D01*
X0101853Y0159154D02*
X0107954Y0159154D01*
X0107954Y0157555D02*
X0070997Y0157555D01*
X0071154Y0159154D02*
X0089013Y0159154D01*
X0090894Y0159154D02*
X0098054Y0159154D01*
X0096456Y0160752D02*
X0093451Y0160752D01*
X0094324Y0162351D02*
X0095404Y0162351D01*
X0095404Y0163949D02*
X0094504Y0163949D01*
X0094109Y0165548D02*
X0095404Y0165548D01*
X0096976Y0167146D02*
X0092931Y0167146D01*
X0086976Y0167146D02*
X0070828Y0167146D01*
X0069431Y0171942D02*
X0114164Y0171942D01*
X0130923Y0165548D02*
X0215267Y0165548D01*
X0216865Y0163949D02*
X0131954Y0163949D01*
X0131954Y0162351D02*
X0218464Y0162351D01*
X0220116Y0160752D02*
X0131954Y0160752D01*
X0131954Y0159154D02*
X0322649Y0159154D01*
X0322649Y0160752D02*
X0254791Y0160752D01*
X0254506Y0160468D02*
X0255575Y0161537D01*
X0256154Y0162933D01*
X0256154Y0164445D01*
X0255575Y0165842D01*
X0254506Y0166911D01*
X0253109Y0167489D01*
X0246798Y0167489D01*
X0245401Y0166911D01*
X0244332Y0165842D01*
X0243754Y0164445D01*
X0243754Y0162933D01*
X0244332Y0161537D01*
X0245401Y0160468D01*
X0246798Y0159889D01*
X0253109Y0159889D01*
X0254506Y0160468D01*
X0255912Y0162351D02*
X0322649Y0162351D01*
X0322649Y0163949D02*
X0256154Y0163949D01*
X0255697Y0165548D02*
X0322649Y0165548D01*
X0322649Y0167146D02*
X0253937Y0167146D01*
X0245970Y0167146D02*
X0228937Y0167146D01*
X0230697Y0165548D02*
X0244210Y0165548D01*
X0243754Y0163949D02*
X0231154Y0163949D01*
X0230912Y0162351D02*
X0243995Y0162351D01*
X0245116Y0160752D02*
X0229791Y0160752D01*
X0230460Y0155957D02*
X0244447Y0155957D01*
X0243754Y0154358D02*
X0231154Y0154358D01*
X0231082Y0152760D02*
X0243825Y0152760D01*
X0244708Y0151161D02*
X0230200Y0151161D01*
X0220970Y0167146D02*
X0219325Y0167146D01*
X0229206Y0170343D02*
X0245701Y0170343D01*
X0244164Y0171942D02*
X0230743Y0171942D01*
X0231154Y0173540D02*
X0243754Y0173540D01*
X0244041Y0175139D02*
X0230866Y0175139D01*
X0229679Y0176737D02*
X0245228Y0176737D01*
X0246689Y0179934D02*
X0223218Y0179934D01*
X0225571Y0181533D02*
X0244336Y0181533D01*
X0243754Y0183131D02*
X0226154Y0183131D01*
X0226036Y0184730D02*
X0243872Y0184730D01*
X0244819Y0186328D02*
X0225088Y0186328D01*
X0225162Y0191124D02*
X0244745Y0191124D01*
X0243841Y0192722D02*
X0226066Y0192722D01*
X0226154Y0194321D02*
X0243754Y0194321D01*
X0244410Y0195919D02*
X0225497Y0195919D01*
X0224753Y0200715D02*
X0244588Y0200715D01*
X0243584Y0202313D02*
X0225897Y0202313D01*
X0226154Y0203912D02*
X0243354Y0203912D01*
X0243768Y0205510D02*
X0225712Y0205510D01*
X0249953Y0202313D02*
X0249954Y0202313D01*
X0249953Y0200715D02*
X0249954Y0200715D01*
X0256554Y0203912D02*
X0320553Y0203912D01*
X0318495Y0205510D02*
X0256139Y0205510D01*
X0276612Y0187927D02*
X0282757Y0187927D01*
X0281158Y0186328D02*
X0278749Y0186328D01*
X0279447Y0184730D02*
X0280404Y0184730D01*
X0280404Y0183131D02*
X0279504Y0183131D01*
X0278985Y0181533D02*
X0280675Y0181533D01*
X0282274Y0179934D02*
X0277633Y0179934D01*
X0267094Y0152760D02*
X0256082Y0152760D01*
X0255200Y0151161D02*
X0265674Y0151161D01*
X0265350Y0130380D02*
X0246373Y0130380D01*
X0247972Y0128782D02*
X0265054Y0128782D01*
X0265273Y0127183D02*
X0249570Y0127183D01*
X0251169Y0125585D02*
X0266128Y0125585D01*
X0268503Y0123986D02*
X0252768Y0123986D01*
X0254366Y0122388D02*
X0305541Y0122388D01*
X0305154Y0123986D02*
X0304754Y0123986D01*
X0304754Y0125585D02*
X0305154Y0125585D01*
X0305154Y0127183D02*
X0304754Y0127183D01*
X0304753Y0128782D02*
X0295154Y0128782D01*
X0295154Y0127183D02*
X0294754Y0127183D01*
X0294754Y0125585D02*
X0295154Y0125585D01*
X0295154Y0123986D02*
X0294754Y0123986D01*
X0292509Y0123986D02*
X0286404Y0123986D01*
X0288779Y0125585D02*
X0290658Y0125585D01*
X0292454Y0128689D02*
X0284954Y0128689D01*
X0280054Y0128782D02*
X0274854Y0128782D01*
X0274634Y0127183D02*
X0280273Y0127183D01*
X0281128Y0125585D02*
X0273779Y0125585D01*
X0271404Y0123986D02*
X0283503Y0123986D01*
X0280350Y0130380D02*
X0274557Y0130380D01*
X0252939Y0117592D02*
X0205872Y0117592D01*
X0205834Y0117630D02*
X0204126Y0118337D01*
X0195781Y0118337D01*
X0194073Y0117630D01*
X0192765Y0116322D01*
X0192057Y0114614D01*
X0192057Y0112765D01*
X0192765Y0111056D01*
X0194073Y0109749D01*
X0195781Y0109041D01*
X0204126Y0109041D01*
X0205834Y0109749D01*
X0207142Y0111056D01*
X0207850Y0112765D01*
X0207850Y0114614D01*
X0207142Y0116322D01*
X0205834Y0117630D01*
X0207278Y0115994D02*
X0322649Y0115994D01*
X0322649Y0114395D02*
X0297235Y0114395D01*
X0297941Y0114103D02*
X0295798Y0114991D01*
X0293479Y0114991D01*
X0291337Y0114103D01*
X0289697Y0112464D01*
X0288809Y0110321D01*
X0288809Y0108002D01*
X0289697Y0105860D01*
X0291337Y0104220D01*
X0292238Y0103847D01*
X0291337Y0103473D01*
X0289697Y0101834D01*
X0288809Y0099691D01*
X0288809Y0097372D01*
X0289697Y0095230D01*
X0291337Y0093590D01*
X0291606Y0093478D01*
X0290186Y0092058D01*
X0289386Y0090128D01*
X0289386Y0088038D01*
X0290186Y0086107D01*
X0291606Y0084687D01*
X0291337Y0084576D01*
X0289697Y0082936D01*
X0288809Y0080794D01*
X0288809Y0078475D01*
X0289697Y0076332D01*
X0291337Y0074692D01*
X0292238Y0074319D01*
X0291337Y0073946D01*
X0289697Y0072306D01*
X0288809Y0070164D01*
X0288809Y0067845D01*
X0289697Y0065702D01*
X0291337Y0064062D01*
X0293479Y0063175D01*
X0295798Y0063175D01*
X0297941Y0064062D01*
X0299580Y0065702D01*
X0300468Y0067845D01*
X0300468Y0070164D01*
X0299580Y0072306D01*
X0297941Y0073946D01*
X0297039Y0074319D01*
X0297941Y0074692D01*
X0299580Y0076332D01*
X0300468Y0078475D01*
X0300468Y0080794D01*
X0299580Y0082936D01*
X0297941Y0084576D01*
X0297671Y0084687D01*
X0299092Y0086107D01*
X0299891Y0088038D01*
X0299891Y0090128D01*
X0299092Y0092058D01*
X0297671Y0093478D01*
X0297941Y0093590D01*
X0299580Y0095230D01*
X0300468Y0097372D01*
X0300468Y0099691D01*
X0299580Y0101834D01*
X0297941Y0103473D01*
X0297039Y0103847D01*
X0297941Y0104220D01*
X0299580Y0105860D01*
X0300468Y0108002D01*
X0300468Y0110321D01*
X0299580Y0112464D01*
X0297941Y0114103D01*
X0299247Y0112797D02*
X0310924Y0112797D01*
X0311348Y0113221D02*
X0309871Y0111743D01*
X0309071Y0109813D01*
X0309071Y0107723D01*
X0309871Y0105792D01*
X0311348Y0104315D01*
X0313279Y0103515D01*
X0315368Y0103515D01*
X0317299Y0104315D01*
X0318777Y0105792D01*
X0319576Y0107723D01*
X0319576Y0109813D01*
X0318777Y0111743D01*
X0317299Y0113221D01*
X0315368Y0114021D01*
X0313279Y0114021D01*
X0311348Y0113221D01*
X0309645Y0111198D02*
X0300104Y0111198D01*
X0300468Y0109600D02*
X0309071Y0109600D01*
X0309071Y0108001D02*
X0300467Y0108001D01*
X0299805Y0106403D02*
X0309618Y0106403D01*
X0310859Y0104804D02*
X0298525Y0104804D01*
X0298208Y0103206D02*
X0322649Y0103206D01*
X0322649Y0104804D02*
X0317789Y0104804D01*
X0319030Y0106403D02*
X0322649Y0106403D01*
X0322649Y0108001D02*
X0319576Y0108001D01*
X0319576Y0109600D02*
X0322649Y0109600D01*
X0322649Y0111198D02*
X0319002Y0111198D01*
X0317723Y0112797D02*
X0322649Y0112797D01*
X0322649Y0101607D02*
X0299674Y0101607D01*
X0300336Y0100009D02*
X0322649Y0100009D01*
X0322649Y0098410D02*
X0300468Y0098410D01*
X0300236Y0096812D02*
X0322649Y0096812D01*
X0322649Y0095213D02*
X0317293Y0095213D01*
X0317338Y0095195D02*
X0316514Y0095536D01*
X0315653Y0095766D01*
X0315000Y0095852D01*
X0315000Y0089759D01*
X0321093Y0089759D01*
X0321007Y0090412D01*
X0320777Y0091273D01*
X0320435Y0092097D01*
X0319990Y0092869D01*
X0319447Y0093576D01*
X0318817Y0094206D01*
X0318110Y0094749D01*
X0317338Y0095195D01*
X0315000Y0095213D02*
X0313647Y0095213D01*
X0313647Y0095852D02*
X0312994Y0095766D01*
X0312133Y0095536D01*
X0311310Y0095195D01*
X0310538Y0094749D01*
X0309830Y0094206D01*
X0309200Y0093576D01*
X0308657Y0092869D01*
X0308212Y0092097D01*
X0307871Y0091273D01*
X0307640Y0090412D01*
X0307554Y0089759D01*
X0313647Y0089759D01*
X0313647Y0088406D01*
X0315000Y0088406D01*
X0315000Y0082313D01*
X0315653Y0082399D01*
X0316514Y0082630D01*
X0317338Y0082971D01*
X0318110Y0083417D01*
X0318817Y0083959D01*
X0319447Y0084590D01*
X0319990Y0085297D01*
X0320435Y0086069D01*
X0320777Y0086892D01*
X0321007Y0087753D01*
X0321093Y0088406D01*
X0315000Y0088406D01*
X0315000Y0089759D01*
X0313647Y0089759D01*
X0313647Y0095852D01*
X0313647Y0093615D02*
X0315000Y0093615D01*
X0315000Y0092016D02*
X0313647Y0092016D01*
X0313647Y0090418D02*
X0315000Y0090418D01*
X0315000Y0088819D02*
X0322649Y0088819D01*
X0322649Y0087221D02*
X0320865Y0087221D01*
X0320178Y0085622D02*
X0322649Y0085622D01*
X0322649Y0084024D02*
X0318881Y0084024D01*
X0315750Y0082425D02*
X0322649Y0082425D01*
X0322649Y0080827D02*
X0300454Y0080827D01*
X0300468Y0079228D02*
X0322649Y0079228D01*
X0322649Y0077630D02*
X0300118Y0077630D01*
X0299279Y0076031D02*
X0322649Y0076031D01*
X0322649Y0074433D02*
X0315895Y0074433D01*
X0315368Y0074651D02*
X0313279Y0074651D01*
X0311348Y0073851D01*
X0309871Y0072373D01*
X0309071Y0070443D01*
X0309071Y0068353D01*
X0309871Y0066422D01*
X0311348Y0064945D01*
X0313279Y0064145D01*
X0315368Y0064145D01*
X0317299Y0064945D01*
X0318777Y0066422D01*
X0319576Y0068353D01*
X0319576Y0070443D01*
X0318777Y0072373D01*
X0317299Y0073851D01*
X0315368Y0074651D01*
X0312753Y0074433D02*
X0297313Y0074433D01*
X0299052Y0072834D02*
X0310331Y0072834D01*
X0309399Y0071236D02*
X0300024Y0071236D01*
X0300468Y0069637D02*
X0309071Y0069637D01*
X0309201Y0068039D02*
X0300468Y0068039D01*
X0299886Y0066440D02*
X0309863Y0066440D01*
X0311597Y0064841D02*
X0298720Y0064841D01*
X0295962Y0063243D02*
X0322649Y0063243D01*
X0322649Y0064841D02*
X0317050Y0064841D01*
X0318784Y0066440D02*
X0322649Y0066440D01*
X0322649Y0068039D02*
X0319446Y0068039D01*
X0319576Y0069637D02*
X0322649Y0069637D01*
X0322649Y0071236D02*
X0319248Y0071236D01*
X0318316Y0072834D02*
X0322649Y0072834D01*
X0315000Y0082425D02*
X0313647Y0082425D01*
X0313647Y0082313D02*
X0313647Y0088406D01*
X0307554Y0088406D01*
X0307640Y0087753D01*
X0307871Y0086892D01*
X0308212Y0086069D01*
X0308657Y0085297D01*
X0309200Y0084590D01*
X0309830Y0083959D01*
X0310538Y0083417D01*
X0311310Y0082971D01*
X0312133Y0082630D01*
X0312994Y0082399D01*
X0313647Y0082313D01*
X0312897Y0082425D02*
X0299792Y0082425D01*
X0298493Y0084024D02*
X0309766Y0084024D01*
X0308470Y0085622D02*
X0298606Y0085622D01*
X0299553Y0087221D02*
X0307783Y0087221D01*
X0307641Y0090418D02*
X0299771Y0090418D01*
X0299891Y0088819D02*
X0313647Y0088819D01*
X0313647Y0087221D02*
X0315000Y0087221D01*
X0315000Y0085622D02*
X0313647Y0085622D01*
X0313647Y0084024D02*
X0315000Y0084024D01*
X0321006Y0090418D02*
X0322649Y0090418D01*
X0322649Y0092016D02*
X0320469Y0092016D01*
X0319408Y0093615D02*
X0322649Y0093615D01*
X0311354Y0095213D02*
X0299564Y0095213D01*
X0297965Y0093615D02*
X0309239Y0093615D01*
X0308178Y0092016D02*
X0299109Y0092016D01*
X0291312Y0093615D02*
X0262990Y0093615D01*
X0262865Y0093489D02*
X0263265Y0093889D01*
X0265254Y0093889D01*
X0265254Y0094067D01*
X0265135Y0094813D01*
X0264903Y0095528D01*
X0272154Y0102778D01*
X0272154Y0104297D01*
X0272729Y0104535D01*
X0274108Y0105914D01*
X0274854Y0107714D01*
X0274854Y0109664D01*
X0274108Y0111465D01*
X0272729Y0112843D01*
X0270928Y0113589D01*
X0268979Y0113589D01*
X0267178Y0112843D01*
X0265800Y0111465D01*
X0265054Y0109664D01*
X0265054Y0107714D01*
X0265800Y0105914D01*
X0267178Y0104535D01*
X0267539Y0104386D01*
X0261531Y0098378D01*
X0260831Y0098489D01*
X0257654Y0098489D01*
X0257654Y0093889D01*
X0257254Y0093889D01*
X0257254Y0098489D01*
X0254076Y0098489D01*
X0253330Y0098371D01*
X0252611Y0098137D01*
X0251938Y0097794D01*
X0251327Y0097350D01*
X0250792Y0096816D01*
X0250348Y0096205D01*
X0250005Y0095532D01*
X0249772Y0094813D01*
X0249654Y0094067D01*
X0249654Y0093889D01*
X0257253Y0093889D01*
X0257253Y0093489D01*
X0249654Y0093489D01*
X0249654Y0093311D01*
X0249772Y0092565D01*
X0250005Y0091847D01*
X0250348Y0091173D01*
X0250792Y0090562D01*
X0251327Y0090028D01*
X0251938Y0089584D01*
X0252611Y0089241D01*
X0253330Y0089007D01*
X0254076Y0088889D01*
X0257254Y0088889D01*
X0257254Y0093489D01*
X0257654Y0093489D01*
X0257654Y0088889D01*
X0260831Y0088889D01*
X0261578Y0089007D01*
X0262296Y0089241D01*
X0262969Y0089584D01*
X0263581Y0090028D01*
X0264115Y0090562D01*
X0264559Y0091173D01*
X0264902Y0091847D01*
X0265135Y0092565D01*
X0265254Y0093311D01*
X0265254Y0093489D01*
X0262865Y0093489D01*
X0264957Y0092016D02*
X0290168Y0092016D01*
X0289506Y0090418D02*
X0263970Y0090418D01*
X0259954Y0093689D02*
X0269954Y0103689D01*
X0269954Y0108689D01*
X0274310Y0106403D02*
X0289472Y0106403D01*
X0288810Y0108001D02*
X0274854Y0108001D01*
X0274854Y0109600D02*
X0288809Y0109600D01*
X0289173Y0111198D02*
X0274218Y0111198D01*
X0272775Y0112797D02*
X0290030Y0112797D01*
X0292042Y0114395D02*
X0207850Y0114395D01*
X0207850Y0112797D02*
X0267132Y0112797D01*
X0265689Y0111198D02*
X0207201Y0111198D01*
X0205475Y0109600D02*
X0212753Y0109600D01*
X0214042Y0110889D02*
X0209042Y0105889D01*
X0207321Y0105889D01*
X0207142Y0106322D01*
X0205834Y0107630D01*
X0204126Y0108337D01*
X0195781Y0108337D01*
X0194073Y0107630D01*
X0192765Y0106322D01*
X0192586Y0105889D01*
X0187321Y0105889D01*
X0187142Y0106322D01*
X0185834Y0107630D01*
X0184126Y0108337D01*
X0175781Y0108337D01*
X0174073Y0107630D01*
X0172765Y0106322D01*
X0172057Y0104614D01*
X0172057Y0102765D01*
X0172765Y0101056D01*
X0174073Y0099749D01*
X0175781Y0099041D01*
X0184126Y0099041D01*
X0185834Y0099749D01*
X0187142Y0101056D01*
X0187321Y0101489D01*
X0192586Y0101489D01*
X0192765Y0101056D01*
X0194073Y0099749D01*
X0195781Y0099041D01*
X0204126Y0099041D01*
X0205834Y0099749D01*
X0207142Y0101056D01*
X0207321Y0101489D01*
X0210865Y0101489D01*
X0212154Y0102778D01*
X0215865Y0106489D01*
X0221031Y0106489D01*
X0220723Y0106182D01*
X0220054Y0104564D01*
X0220054Y0102814D01*
X0220723Y0101197D01*
X0221961Y0099959D01*
X0223578Y0099289D01*
X0231329Y0099289D01*
X0232946Y0099959D01*
X0234184Y0101197D01*
X0234854Y0102814D01*
X0234854Y0104564D01*
X0234184Y0106182D01*
X0233876Y0106489D01*
X0251031Y0106489D01*
X0250723Y0106182D01*
X0250054Y0104564D01*
X0250054Y0102814D01*
X0250723Y0101197D01*
X0251961Y0099959D01*
X0253578Y0099289D01*
X0261329Y0099289D01*
X0262946Y0099959D01*
X0264184Y0101197D01*
X0264854Y0102814D01*
X0264854Y0104564D01*
X0264184Y0106182D01*
X0262946Y0107419D01*
X0261329Y0108089D01*
X0256165Y0108089D01*
X0254654Y0109600D01*
X0265054Y0109600D01*
X0265054Y0108001D02*
X0261541Y0108001D01*
X0263962Y0106403D02*
X0265597Y0106403D01*
X0264754Y0104804D02*
X0266909Y0104804D01*
X0266359Y0103206D02*
X0264854Y0103206D01*
X0264760Y0101607D02*
X0264354Y0101607D01*
X0263162Y0100009D02*
X0262996Y0100009D01*
X0261563Y0098410D02*
X0261329Y0098410D01*
X0257654Y0098410D02*
X0257254Y0098410D01*
X0257254Y0096812D02*
X0257654Y0096812D01*
X0257654Y0095213D02*
X0257254Y0095213D01*
X0257253Y0093615D02*
X0227654Y0093615D01*
X0227654Y0093489D02*
X0227654Y0093889D01*
X0235254Y0093889D01*
X0235254Y0094067D01*
X0235135Y0094813D01*
X0234902Y0095532D01*
X0234559Y0096205D01*
X0234115Y0096816D01*
X0233581Y0097350D01*
X0232969Y0097794D01*
X0232296Y0098137D01*
X0231578Y0098371D01*
X0230831Y0098489D01*
X0227654Y0098489D01*
X0227654Y0093889D01*
X0227254Y0093889D01*
X0227254Y0098489D01*
X0224076Y0098489D01*
X0223330Y0098371D01*
X0222611Y0098137D01*
X0221938Y0097794D01*
X0221327Y0097350D01*
X0220792Y0096816D01*
X0220348Y0096205D01*
X0220005Y0095532D01*
X0219772Y0094813D01*
X0219654Y0094067D01*
X0219654Y0093889D01*
X0227253Y0093889D01*
X0227253Y0093489D01*
X0219654Y0093489D01*
X0219654Y0093311D01*
X0219772Y0092565D01*
X0220005Y0091847D01*
X0220348Y0091173D01*
X0220792Y0090562D01*
X0221327Y0090028D01*
X0221938Y0089584D01*
X0222611Y0089241D01*
X0223330Y0089007D01*
X0224076Y0088889D01*
X0227254Y0088889D01*
X0227254Y0093489D01*
X0227654Y0093489D01*
X0235254Y0093489D01*
X0235254Y0093311D01*
X0235135Y0092565D01*
X0234902Y0091847D01*
X0234559Y0091173D01*
X0234115Y0090562D01*
X0233581Y0090028D01*
X0232969Y0089584D01*
X0232296Y0089241D01*
X0231578Y0089007D01*
X0230831Y0088889D01*
X0227654Y0088889D01*
X0227654Y0093489D01*
X0227253Y0093615D02*
X0207850Y0093615D01*
X0207850Y0092765D02*
X0207850Y0094614D01*
X0207142Y0096322D01*
X0205834Y0097630D01*
X0204126Y0098337D01*
X0195781Y0098337D01*
X0194073Y0097630D01*
X0192765Y0096322D01*
X0192057Y0094614D01*
X0192057Y0092765D01*
X0192765Y0091056D01*
X0194073Y0089749D01*
X0195781Y0089041D01*
X0204126Y0089041D01*
X0205834Y0089749D01*
X0207142Y0091056D01*
X0207850Y0092765D01*
X0207540Y0092016D02*
X0219950Y0092016D01*
X0220937Y0090418D02*
X0206503Y0090418D01*
X0207601Y0095213D02*
X0219902Y0095213D01*
X0220789Y0096812D02*
X0206652Y0096812D01*
X0206094Y0100009D02*
X0221911Y0100009D01*
X0220553Y0101607D02*
X0210983Y0101607D01*
X0212581Y0103206D02*
X0220054Y0103206D01*
X0220153Y0104804D02*
X0214180Y0104804D01*
X0215778Y0106403D02*
X0220945Y0106403D01*
X0214954Y0108689D02*
X0209954Y0103689D01*
X0199954Y0103689D01*
X0179954Y0103689D01*
X0184937Y0108001D02*
X0194970Y0108001D01*
X0194432Y0109600D02*
X0185475Y0109600D01*
X0187201Y0111198D02*
X0192706Y0111198D01*
X0192057Y0112797D02*
X0187850Y0112797D01*
X0187850Y0114395D02*
X0192057Y0114395D01*
X0192629Y0115994D02*
X0187278Y0115994D01*
X0185872Y0117592D02*
X0194035Y0117592D01*
X0204937Y0108001D02*
X0211154Y0108001D01*
X0209556Y0106403D02*
X0207061Y0106403D01*
X0214042Y0110889D02*
X0253365Y0110889D01*
X0254654Y0109600D01*
X0252454Y0108689D02*
X0214954Y0108689D01*
X0223578Y0098410D02*
X0146505Y0098410D01*
X0146241Y0098325D02*
X0147065Y0098592D01*
X0147836Y0098985D01*
X0148537Y0099494D01*
X0149149Y0100106D01*
X0149658Y0100806D01*
X0150051Y0101578D01*
X0150318Y0102401D01*
X0150454Y0103256D01*
X0150454Y0103689D01*
X0144954Y0103689D01*
X0144954Y0103689D01*
X0150454Y0103689D01*
X0150454Y0104122D01*
X0150318Y0104977D01*
X0150051Y0105800D01*
X0149658Y0106572D01*
X0149149Y0107272D01*
X0148537Y0107884D01*
X0147836Y0108393D01*
X0147452Y0108589D01*
X0149233Y0108589D01*
X0150054Y0109409D01*
X0150054Y0117969D01*
X0149233Y0118789D01*
X0140674Y0118789D01*
X0139854Y0117969D01*
X0139854Y0109409D01*
X0140674Y0108589D01*
X0142456Y0108589D01*
X0142071Y0108393D01*
X0141371Y0107884D01*
X0140758Y0107272D01*
X0140250Y0106572D01*
X0139856Y0105800D01*
X0139589Y0104977D01*
X0139454Y0104122D01*
X0139454Y0103689D01*
X0139454Y0103256D01*
X0139589Y0102401D01*
X0139856Y0101578D01*
X0140250Y0100806D01*
X0140758Y0100106D01*
X0141371Y0099494D01*
X0142071Y0098985D01*
X0142842Y0098592D01*
X0143666Y0098325D01*
X0144521Y0098189D01*
X0144953Y0098189D01*
X0144953Y0103689D01*
X0139454Y0103689D01*
X0144953Y0103689D01*
X0144953Y0103689D01*
X0144954Y0103689D01*
X0144954Y0098189D01*
X0145386Y0098189D01*
X0146241Y0098325D01*
X0144954Y0098410D02*
X0144953Y0098410D01*
X0143402Y0098410D02*
X0111954Y0098410D01*
X0111954Y0096812D02*
X0157702Y0096812D01*
X0158380Y0097489D02*
X0156154Y0095263D01*
X0156154Y0092115D01*
X0158380Y0089889D01*
X0161528Y0089889D01*
X0163754Y0092115D01*
X0163754Y0095263D01*
X0161528Y0097489D01*
X0158380Y0097489D01*
X0156154Y0095213D02*
X0111954Y0095213D01*
X0111954Y0093615D02*
X0156154Y0093615D01*
X0156252Y0092016D02*
X0111954Y0092016D01*
X0111954Y0090418D02*
X0157851Y0090418D01*
X0162056Y0090418D02*
X0173404Y0090418D01*
X0172765Y0091056D02*
X0174073Y0089749D01*
X0175781Y0089041D01*
X0184126Y0089041D01*
X0185834Y0089749D01*
X0187142Y0091056D01*
X0187850Y0092765D01*
X0187850Y0094614D01*
X0187142Y0096322D01*
X0185834Y0097630D01*
X0184126Y0098337D01*
X0175781Y0098337D01*
X0174073Y0097630D01*
X0172765Y0096322D01*
X0172057Y0094614D01*
X0172057Y0092765D01*
X0172765Y0091056D01*
X0172367Y0092016D02*
X0163655Y0092016D01*
X0163754Y0093615D02*
X0172057Y0093615D01*
X0172306Y0095213D02*
X0163754Y0095213D01*
X0162205Y0096812D02*
X0173255Y0096812D01*
X0173813Y0100009D02*
X0149051Y0100009D01*
X0150060Y0101607D02*
X0172537Y0101607D01*
X0172057Y0103206D02*
X0150446Y0103206D01*
X0150345Y0104804D02*
X0172136Y0104804D01*
X0172846Y0106403D02*
X0149744Y0106403D01*
X0148375Y0108001D02*
X0174970Y0108001D01*
X0174432Y0109600D02*
X0150054Y0109600D01*
X0150054Y0111198D02*
X0172706Y0111198D01*
X0169954Y0113689D02*
X0159954Y0123689D01*
X0114954Y0123689D01*
X0109954Y0118689D01*
X0113754Y0119191D02*
X0126154Y0119191D01*
X0126154Y0117592D02*
X0113754Y0117592D01*
X0112632Y0115994D02*
X0127275Y0115994D01*
X0127089Y0111198D02*
X0112818Y0111198D01*
X0113754Y0109600D02*
X0126154Y0109600D01*
X0126154Y0108001D02*
X0113754Y0108001D01*
X0113041Y0106403D02*
X0124839Y0106403D01*
X0127299Y0103206D02*
X0139462Y0103206D01*
X0139562Y0104804D02*
X0128897Y0104804D01*
X0133041Y0106403D02*
X0140163Y0106403D01*
X0141532Y0108001D02*
X0133754Y0108001D01*
X0133754Y0109600D02*
X0139854Y0109600D01*
X0139854Y0111198D02*
X0132818Y0111198D01*
X0132632Y0115994D02*
X0139854Y0115994D01*
X0139854Y0117592D02*
X0133754Y0117592D01*
X0133754Y0119191D02*
X0161341Y0119191D01*
X0162939Y0117592D02*
X0150054Y0117592D01*
X0150054Y0115994D02*
X0164538Y0115994D01*
X0166136Y0114395D02*
X0150054Y0114395D01*
X0150054Y0112797D02*
X0167735Y0112797D01*
X0169954Y0113689D02*
X0179954Y0113689D01*
X0174035Y0117592D02*
X0169162Y0117592D01*
X0170760Y0115994D02*
X0172629Y0115994D01*
X0167563Y0119191D02*
X0251341Y0119191D01*
X0249742Y0120789D02*
X0165965Y0120789D01*
X0164366Y0122388D02*
X0248143Y0122388D01*
X0246545Y0123986D02*
X0163754Y0123986D01*
X0163432Y0125585D02*
X0244946Y0125585D01*
X0252454Y0108689D02*
X0257454Y0103689D01*
X0253578Y0098410D02*
X0231329Y0098410D01*
X0232996Y0100009D02*
X0251911Y0100009D01*
X0250553Y0101607D02*
X0234354Y0101607D01*
X0234854Y0103206D02*
X0250054Y0103206D01*
X0250153Y0104804D02*
X0234754Y0104804D01*
X0233962Y0106403D02*
X0250945Y0106403D01*
X0250789Y0096812D02*
X0234118Y0096812D01*
X0235005Y0095213D02*
X0249902Y0095213D01*
X0249950Y0092016D02*
X0234957Y0092016D01*
X0233970Y0090418D02*
X0250937Y0090418D01*
X0257254Y0090418D02*
X0257654Y0090418D01*
X0257654Y0092016D02*
X0257254Y0092016D01*
X0265005Y0095213D02*
X0289713Y0095213D01*
X0289042Y0096812D02*
X0266187Y0096812D01*
X0267786Y0098410D02*
X0288809Y0098410D01*
X0288941Y0100009D02*
X0269384Y0100009D01*
X0270983Y0101607D02*
X0289603Y0101607D01*
X0291069Y0103206D02*
X0272154Y0103206D01*
X0272998Y0104804D02*
X0290752Y0104804D01*
X0289386Y0088819D02*
X0111954Y0088819D01*
X0111954Y0087221D02*
X0289724Y0087221D01*
X0290671Y0085622D02*
X0111954Y0085622D01*
X0111954Y0084024D02*
X0290785Y0084024D01*
X0289485Y0082425D02*
X0206592Y0082425D01*
X0206528Y0082489D02*
X0208328Y0080689D01*
X0255782Y0080689D01*
X0256954Y0079518D01*
X0258982Y0077489D01*
X0263109Y0077489D01*
X0264506Y0076911D01*
X0265575Y0075842D01*
X0266154Y0074445D01*
X0266154Y0072933D01*
X0265575Y0071537D01*
X0264506Y0070468D01*
X0263109Y0069889D01*
X0256798Y0069889D01*
X0255401Y0070468D01*
X0254332Y0071537D01*
X0253754Y0072933D01*
X0253754Y0074445D01*
X0254332Y0075842D01*
X0254652Y0076162D01*
X0254125Y0076689D01*
X0234728Y0076689D01*
X0235575Y0075842D01*
X0236154Y0074445D01*
X0236154Y0072933D01*
X0235575Y0071537D01*
X0234506Y0070468D01*
X0233109Y0069889D01*
X0226798Y0069889D01*
X0225401Y0070468D01*
X0224332Y0071537D01*
X0223754Y0072933D01*
X0223754Y0074445D01*
X0224332Y0075842D01*
X0225180Y0076689D01*
X0208328Y0076689D01*
X0206528Y0074889D01*
X0203380Y0074889D01*
X0201154Y0077115D01*
X0201154Y0080263D01*
X0203380Y0082489D01*
X0206528Y0082489D01*
X0208190Y0080827D02*
X0288823Y0080827D01*
X0288809Y0079228D02*
X0257243Y0079228D01*
X0258841Y0077630D02*
X0289159Y0077630D01*
X0289998Y0076031D02*
X0265386Y0076031D01*
X0266154Y0074433D02*
X0291964Y0074433D01*
X0290225Y0072834D02*
X0266112Y0072834D01*
X0265274Y0071236D02*
X0289253Y0071236D01*
X0288809Y0069637D02*
X0146954Y0069637D01*
X0146954Y0068039D02*
X0288809Y0068039D01*
X0289391Y0066440D02*
X0264977Y0066440D01*
X0264506Y0066911D02*
X0263109Y0067489D01*
X0256798Y0067489D01*
X0255401Y0066911D01*
X0254332Y0065842D01*
X0253754Y0064445D01*
X0253754Y0062933D01*
X0254332Y0061537D01*
X0255401Y0060468D01*
X0256798Y0059889D01*
X0263109Y0059889D01*
X0264506Y0060468D01*
X0265575Y0061537D01*
X0266154Y0062933D01*
X0266154Y0064445D01*
X0265575Y0065842D01*
X0264506Y0066911D01*
X0265989Y0064841D02*
X0290558Y0064841D01*
X0293315Y0063243D02*
X0266154Y0063243D01*
X0265620Y0061644D02*
X0322649Y0061644D01*
X0322649Y0060046D02*
X0263488Y0060046D01*
X0263109Y0057489D02*
X0256798Y0057489D01*
X0255401Y0056911D01*
X0254332Y0055842D01*
X0253754Y0054445D01*
X0253754Y0052933D01*
X0254332Y0051537D01*
X0255401Y0050468D01*
X0256798Y0049889D01*
X0263109Y0049889D01*
X0264506Y0050468D01*
X0265575Y0051537D01*
X0265638Y0051689D01*
X0269125Y0051689D01*
X0275643Y0045172D01*
X0275404Y0044594D01*
X0275404Y0042784D01*
X0276096Y0041112D01*
X0277376Y0039832D01*
X0279048Y0039139D01*
X0280859Y0039139D01*
X0282531Y0039832D01*
X0283811Y0041112D01*
X0284504Y0042784D01*
X0284504Y0044594D01*
X0283811Y0046266D01*
X0282531Y0047546D01*
X0280859Y0048239D01*
X0279048Y0048239D01*
X0278471Y0048000D01*
X0271954Y0054518D01*
X0270782Y0055689D01*
X0265638Y0055689D01*
X0265575Y0055842D01*
X0264506Y0056911D01*
X0263109Y0057489D01*
X0264568Y0056849D02*
X0322649Y0056849D01*
X0322649Y0058447D02*
X0217540Y0058447D01*
X0215942Y0056849D02*
X0225339Y0056849D01*
X0225401Y0056911D02*
X0224332Y0055842D01*
X0223754Y0054445D01*
X0223754Y0052933D01*
X0224332Y0051537D01*
X0225401Y0050468D01*
X0226798Y0049889D01*
X0233109Y0049889D01*
X0234506Y0050468D01*
X0235575Y0051537D01*
X0236154Y0052933D01*
X0236154Y0054445D01*
X0235575Y0055842D01*
X0234506Y0056911D01*
X0233109Y0057489D01*
X0226798Y0057489D01*
X0225401Y0056911D01*
X0224087Y0055250D02*
X0214343Y0055250D01*
X0212745Y0053652D02*
X0223754Y0053652D01*
X0224118Y0052053D02*
X0211146Y0052053D01*
X0209548Y0050455D02*
X0225432Y0050455D01*
X0223668Y0047258D02*
X0251239Y0047258D01*
X0251798Y0047489D02*
X0250401Y0046911D01*
X0249332Y0045842D01*
X0248754Y0044445D01*
X0248754Y0042933D01*
X0249332Y0041537D01*
X0250401Y0040468D01*
X0251798Y0039889D01*
X0258109Y0039889D01*
X0259506Y0040468D01*
X0260575Y0041537D01*
X0261154Y0042933D01*
X0261154Y0044445D01*
X0260575Y0045842D01*
X0259506Y0046911D01*
X0258109Y0047489D01*
X0251798Y0047489D01*
X0249257Y0045659D02*
X0225651Y0045659D01*
X0226154Y0044061D02*
X0248754Y0044061D01*
X0248949Y0042462D02*
X0225958Y0042462D01*
X0224902Y0040864D02*
X0250005Y0040864D01*
X0251798Y0037489D02*
X0250401Y0036911D01*
X0249332Y0035842D01*
X0248754Y0034445D01*
X0248754Y0032933D01*
X0249332Y0031537D01*
X0250401Y0030468D01*
X0251798Y0029889D01*
X0258109Y0029889D01*
X0259506Y0030468D01*
X0260575Y0031537D01*
X0261154Y0032933D01*
X0261154Y0034445D01*
X0260575Y0035842D01*
X0259506Y0036911D01*
X0258109Y0037489D01*
X0251798Y0037489D01*
X0249559Y0036068D02*
X0225348Y0036068D01*
X0226143Y0034470D02*
X0248764Y0034470D01*
X0248779Y0032871D02*
X0226128Y0032871D01*
X0225311Y0031273D02*
X0249596Y0031273D01*
X0250941Y0027581D02*
X0250352Y0027281D01*
X0249817Y0026893D01*
X0249350Y0026425D01*
X0248961Y0025890D01*
X0248661Y0025301D01*
X0248457Y0024673D01*
X0248354Y0024020D01*
X0248354Y0023689D01*
X0254953Y0023689D01*
X0254953Y0023689D01*
X0254953Y0027889D01*
X0252223Y0027889D01*
X0251570Y0027786D01*
X0250941Y0027581D01*
X0249402Y0026477D02*
X0224939Y0026477D01*
X0225974Y0024879D02*
X0248524Y0024879D01*
X0248366Y0023280D02*
X0226154Y0023280D01*
X0225635Y0021682D02*
X0248863Y0021682D01*
X0254953Y0024879D02*
X0254954Y0024879D01*
X0254953Y0026477D02*
X0254954Y0026477D01*
X0260505Y0026477D02*
X0304720Y0026477D01*
X0304969Y0026229D02*
X0308203Y0024889D01*
X0311704Y0024889D01*
X0314938Y0026229D01*
X0317414Y0028704D01*
X0318754Y0031939D01*
X0318754Y0035440D01*
X0317414Y0038674D01*
X0314938Y0041149D01*
X0311704Y0042489D01*
X0308203Y0042489D01*
X0304969Y0041149D01*
X0302493Y0038674D01*
X0301154Y0035440D01*
X0301154Y0031939D01*
X0302493Y0028704D01*
X0304969Y0026229D01*
X0303122Y0028076D02*
X0199504Y0028076D01*
X0199470Y0029674D02*
X0302091Y0029674D01*
X0301429Y0031273D02*
X0260311Y0031273D01*
X0261128Y0032871D02*
X0301154Y0032871D01*
X0301154Y0034470D02*
X0261143Y0034470D01*
X0260348Y0036068D02*
X0301414Y0036068D01*
X0302076Y0037667D02*
X0199504Y0037667D01*
X0199504Y0039265D02*
X0278744Y0039265D01*
X0281163Y0039265D02*
X0287943Y0039265D01*
X0288069Y0039139D02*
X0291838Y0039139D01*
X0294504Y0041804D01*
X0294504Y0045574D01*
X0291838Y0048239D01*
X0288069Y0048239D01*
X0285404Y0045574D01*
X0285404Y0041804D01*
X0288069Y0039139D01*
X0286344Y0040864D02*
X0283563Y0040864D01*
X0284370Y0042462D02*
X0285404Y0042462D01*
X0285404Y0044061D02*
X0284504Y0044061D01*
X0284062Y0045659D02*
X0285489Y0045659D01*
X0287088Y0047258D02*
X0282819Y0047258D01*
X0277615Y0048856D02*
X0322649Y0048856D01*
X0322649Y0047258D02*
X0292819Y0047258D01*
X0294418Y0045659D02*
X0322649Y0045659D01*
X0322649Y0044061D02*
X0294504Y0044061D01*
X0294504Y0042462D02*
X0308138Y0042462D01*
X0311769Y0042462D02*
X0322649Y0042462D01*
X0322649Y0040864D02*
X0315224Y0040864D01*
X0316822Y0039265D02*
X0322649Y0039265D01*
X0322649Y0037667D02*
X0317831Y0037667D01*
X0318493Y0036068D02*
X0322649Y0036068D01*
X0322649Y0034470D02*
X0318754Y0034470D01*
X0318754Y0032871D02*
X0322649Y0032871D01*
X0322649Y0031273D02*
X0318478Y0031273D01*
X0317816Y0029674D02*
X0322649Y0029674D01*
X0322600Y0028076D02*
X0316785Y0028076D01*
X0315187Y0026477D02*
X0322226Y0026477D01*
X0321580Y0024879D02*
X0261383Y0024879D01*
X0261541Y0023280D02*
X0320418Y0023280D01*
X0317982Y0021682D02*
X0261044Y0021682D01*
X0259902Y0040864D02*
X0276344Y0040864D01*
X0275537Y0042462D02*
X0260958Y0042462D01*
X0261154Y0044061D02*
X0275404Y0044061D01*
X0275155Y0045659D02*
X0260651Y0045659D01*
X0258668Y0047258D02*
X0273556Y0047258D01*
X0271958Y0048856D02*
X0208754Y0048856D01*
X0208754Y0047258D02*
X0216239Y0047258D01*
X0215005Y0040864D02*
X0199957Y0040864D01*
X0197497Y0044061D02*
X0186954Y0044061D01*
X0186954Y0042462D02*
X0192292Y0042462D01*
X0190694Y0040864D02*
X0186954Y0040864D01*
X0186954Y0039265D02*
X0190404Y0039265D01*
X0190404Y0037667D02*
X0186954Y0037667D01*
X0186954Y0036068D02*
X0191140Y0036068D01*
X0198767Y0036068D02*
X0214559Y0036068D01*
X0214596Y0031273D02*
X0198805Y0031273D01*
X0198962Y0026477D02*
X0214968Y0026477D01*
X0213933Y0024879D02*
X0197578Y0024879D01*
X0192329Y0024879D02*
X0162578Y0024879D01*
X0164176Y0026477D02*
X0190945Y0026477D01*
X0191103Y0031273D02*
X0166954Y0031273D01*
X0166954Y0032871D02*
X0182954Y0032871D01*
X0182954Y0034470D02*
X0166954Y0034470D01*
X0166954Y0036068D02*
X0182954Y0036068D01*
X0182954Y0037667D02*
X0166954Y0037667D01*
X0166954Y0039265D02*
X0182954Y0039265D01*
X0182954Y0040864D02*
X0166954Y0040864D01*
X0166954Y0042462D02*
X0182954Y0042462D01*
X0182954Y0044061D02*
X0166954Y0044061D01*
X0167298Y0045659D02*
X0182609Y0045659D01*
X0181154Y0047258D02*
X0168754Y0047258D01*
X0168754Y0048856D02*
X0181154Y0048856D01*
X0181345Y0050455D02*
X0168562Y0050455D01*
X0166963Y0052053D02*
X0182944Y0052053D01*
X0186963Y0052053D02*
X0202944Y0052053D01*
X0201345Y0050455D02*
X0188562Y0050455D01*
X0188754Y0048856D02*
X0201154Y0048856D01*
X0201154Y0047258D02*
X0188754Y0047258D01*
X0187298Y0045659D02*
X0199095Y0045659D01*
X0207088Y0053652D02*
X0146954Y0053652D01*
X0146954Y0055250D02*
X0208686Y0055250D01*
X0210285Y0056849D02*
X0146954Y0056849D01*
X0146954Y0058447D02*
X0211883Y0058447D01*
X0213482Y0060046D02*
X0146954Y0060046D01*
X0146954Y0061644D02*
X0215080Y0061644D01*
X0216679Y0063243D02*
X0146954Y0063243D01*
X0146954Y0064841D02*
X0218277Y0064841D01*
X0220737Y0061644D02*
X0224287Y0061644D01*
X0226419Y0060046D02*
X0219139Y0060046D01*
X0224930Y0066440D02*
X0146954Y0066440D01*
X0142954Y0066440D02*
X0130031Y0066440D01*
X0128433Y0068039D02*
X0142954Y0068039D01*
X0142954Y0069637D02*
X0126834Y0069637D01*
X0125274Y0071236D02*
X0142954Y0071236D01*
X0146954Y0071236D02*
X0224633Y0071236D01*
X0223795Y0072834D02*
X0146954Y0072834D01*
X0146954Y0074433D02*
X0223754Y0074433D01*
X0224521Y0076031D02*
X0207669Y0076031D01*
X0202238Y0076031D02*
X0188235Y0076031D01*
X0189154Y0076949D02*
X0189154Y0078689D01*
X0184954Y0078689D01*
X0184954Y0078689D01*
X0189154Y0078689D01*
X0189154Y0080429D01*
X0186693Y0082889D01*
X0184954Y0082889D01*
X0184954Y0078689D01*
X0184954Y0074489D01*
X0186693Y0074489D01*
X0189154Y0076949D01*
X0189154Y0077630D02*
X0201154Y0077630D01*
X0201154Y0079228D02*
X0189154Y0079228D01*
X0188756Y0080827D02*
X0201717Y0080827D01*
X0203316Y0082425D02*
X0187157Y0082425D01*
X0184954Y0082425D02*
X0184953Y0082425D01*
X0184953Y0082889D02*
X0183214Y0082889D01*
X0180754Y0080429D01*
X0180754Y0078689D01*
X0180754Y0076949D01*
X0183214Y0074489D01*
X0184953Y0074489D01*
X0184953Y0078689D01*
X0180754Y0078689D01*
X0184953Y0078689D01*
X0184953Y0078689D01*
X0184954Y0078689D01*
X0184953Y0078689D01*
X0184953Y0082889D01*
X0184953Y0080827D02*
X0184954Y0080827D01*
X0184953Y0079228D02*
X0184954Y0079228D01*
X0184953Y0077630D02*
X0184954Y0077630D01*
X0184953Y0076031D02*
X0184954Y0076031D01*
X0181672Y0076031D02*
X0168235Y0076031D01*
X0169154Y0076949D02*
X0169154Y0078689D01*
X0164954Y0078689D01*
X0164954Y0078689D01*
X0169154Y0078689D01*
X0169154Y0080429D01*
X0166693Y0082889D01*
X0164954Y0082889D01*
X0164954Y0078689D01*
X0164954Y0074489D01*
X0166693Y0074489D01*
X0169154Y0076949D01*
X0169154Y0077630D02*
X0180754Y0077630D01*
X0180754Y0079228D02*
X0169154Y0079228D01*
X0168756Y0080827D02*
X0181151Y0080827D01*
X0182750Y0082425D02*
X0167157Y0082425D01*
X0164954Y0082425D02*
X0164953Y0082425D01*
X0164953Y0082889D02*
X0164953Y0078689D01*
X0160754Y0078689D01*
X0160754Y0076949D01*
X0163214Y0074489D01*
X0164953Y0074489D01*
X0164953Y0078689D01*
X0164953Y0078689D01*
X0160754Y0078689D01*
X0160754Y0080429D01*
X0163214Y0082889D01*
X0164953Y0082889D01*
X0164953Y0080827D02*
X0164954Y0080827D01*
X0164953Y0079228D02*
X0164954Y0079228D01*
X0164954Y0078689D02*
X0164953Y0078689D01*
X0164954Y0078689D01*
X0164953Y0077630D02*
X0164954Y0077630D01*
X0164953Y0076031D02*
X0164954Y0076031D01*
X0161672Y0076031D02*
X0148235Y0076031D01*
X0149154Y0077630D02*
X0160754Y0077630D01*
X0160754Y0079228D02*
X0149154Y0079228D01*
X0148756Y0080827D02*
X0161151Y0080827D01*
X0162750Y0082425D02*
X0147157Y0082425D01*
X0144954Y0082425D02*
X0144953Y0082425D01*
X0144953Y0082889D02*
X0144953Y0078689D01*
X0144953Y0078689D01*
X0140754Y0078689D01*
X0140754Y0080429D01*
X0143214Y0082889D01*
X0144953Y0082889D01*
X0144953Y0080827D02*
X0144954Y0080827D01*
X0144953Y0079228D02*
X0144954Y0079228D01*
X0142750Y0082425D02*
X0131592Y0082425D01*
X0133190Y0080827D02*
X0141151Y0080827D01*
X0140754Y0079228D02*
X0133754Y0079228D01*
X0133754Y0077630D02*
X0140754Y0077630D01*
X0141672Y0076031D02*
X0132669Y0076031D01*
X0126154Y0079228D02*
X0124743Y0079228D01*
X0126717Y0080827D02*
X0113190Y0080827D01*
X0111954Y0082425D02*
X0128316Y0082425D01*
X0114521Y0076031D02*
X0112669Y0076031D01*
X0114633Y0071236D02*
X0075181Y0071236D01*
X0076074Y0069637D02*
X0121177Y0069637D01*
X0122776Y0068039D02*
X0097039Y0068039D01*
X0096838Y0068239D02*
X0093069Y0068239D01*
X0090404Y0065574D01*
X0090404Y0061804D01*
X0093069Y0059139D01*
X0096838Y0059139D01*
X0099504Y0061804D01*
X0099504Y0065574D01*
X0096838Y0068239D01*
X0098637Y0066440D02*
X0114930Y0066440D01*
X0113918Y0064841D02*
X0099504Y0064841D01*
X0099504Y0063243D02*
X0113754Y0063243D01*
X0114287Y0061644D02*
X0099344Y0061644D01*
X0097745Y0060046D02*
X0116419Y0060046D01*
X0115339Y0056849D02*
X0075704Y0056849D01*
X0076154Y0058447D02*
X0132367Y0058447D01*
X0132954Y0056849D02*
X0124568Y0056849D01*
X0125820Y0055250D02*
X0132954Y0055250D01*
X0132954Y0053652D02*
X0126154Y0053652D01*
X0125789Y0052053D02*
X0132954Y0052053D01*
X0132954Y0050455D02*
X0124475Y0050455D01*
X0114087Y0055250D02*
X0073982Y0055250D01*
X0075905Y0060046D02*
X0082162Y0060046D01*
X0080876Y0061644D02*
X0074772Y0061644D01*
X0072571Y0063243D02*
X0048228Y0063243D01*
X0046630Y0064841D02*
X0070973Y0064841D01*
X0075478Y0066440D02*
X0081270Y0066440D01*
X0083564Y0068039D02*
X0076154Y0068039D01*
X0086343Y0068039D02*
X0092868Y0068039D01*
X0091270Y0066440D02*
X0088637Y0066440D01*
X0089401Y0064841D02*
X0090404Y0064841D01*
X0090404Y0063243D02*
X0089504Y0063243D01*
X0089031Y0061644D02*
X0090564Y0061644D01*
X0092162Y0060046D02*
X0087745Y0060046D01*
X0065925Y0055250D02*
X0051889Y0055250D01*
X0053487Y0056849D02*
X0064203Y0056849D01*
X0063754Y0058447D02*
X0053754Y0058447D01*
X0053754Y0060046D02*
X0064002Y0060046D01*
X0065135Y0061644D02*
X0052372Y0061644D01*
X0065746Y0052053D02*
X0017259Y0052053D01*
X0017259Y0050455D02*
X0064172Y0050455D01*
X0063754Y0048856D02*
X0017259Y0048856D01*
X0017259Y0047258D02*
X0064033Y0047258D01*
X0065209Y0045659D02*
X0017259Y0045659D01*
X0017259Y0088819D02*
X0023424Y0088819D01*
X0022608Y0089157D02*
X0024539Y0088358D01*
X0026628Y0088358D01*
X0028559Y0089157D01*
X0030037Y0090635D01*
X0030836Y0092566D01*
X0030836Y0094655D01*
X0030037Y0096586D01*
X0028559Y0098063D01*
X0026628Y0098863D01*
X0024539Y0098863D01*
X0022608Y0098063D01*
X0021130Y0096586D01*
X0020331Y0094655D01*
X0020331Y0092566D01*
X0021130Y0090635D01*
X0022608Y0089157D01*
X0021348Y0090418D02*
X0017259Y0090418D01*
X0017259Y0092016D02*
X0020558Y0092016D01*
X0020331Y0093615D02*
X0017259Y0093615D01*
X0017259Y0095213D02*
X0020562Y0095213D01*
X0021356Y0096812D02*
X0017259Y0096812D01*
X0017259Y0098410D02*
X0023445Y0098410D01*
X0017259Y0100009D02*
X0032954Y0100009D01*
X0032954Y0101607D02*
X0017259Y0101607D01*
X0017259Y0103206D02*
X0032954Y0103206D01*
X0032954Y0104804D02*
X0017259Y0104804D01*
X0017259Y0106403D02*
X0032954Y0106403D01*
X0032954Y0108001D02*
X0029854Y0108001D01*
X0030077Y0108172D02*
X0030707Y0108802D01*
X0031250Y0109509D01*
X0031695Y0110281D01*
X0032036Y0111105D01*
X0032267Y0111966D01*
X0032353Y0112619D01*
X0026260Y0112619D01*
X0026260Y0113972D01*
X0024907Y0113972D01*
X0024907Y0120065D01*
X0024254Y0119979D01*
X0023393Y0119748D01*
X0022569Y0119407D01*
X0021797Y0118962D01*
X0021090Y0118419D01*
X0020460Y0117789D01*
X0019917Y0117081D01*
X0019472Y0116309D01*
X0019131Y0115486D01*
X0018900Y0114625D01*
X0018814Y0113972D01*
X0024907Y0113972D01*
X0024907Y0112619D01*
X0018814Y0112619D01*
X0018900Y0111966D01*
X0019131Y0111105D01*
X0019472Y0110281D01*
X0019917Y0109509D01*
X0020460Y0108802D01*
X0021090Y0108172D01*
X0021797Y0107629D01*
X0022569Y0107184D01*
X0023393Y0106842D01*
X0024254Y0106612D01*
X0024907Y0106526D01*
X0024907Y0112619D01*
X0026260Y0112619D01*
X0026260Y0106526D01*
X0026913Y0106612D01*
X0027774Y0106842D01*
X0028597Y0107184D01*
X0029369Y0107629D01*
X0030077Y0108172D01*
X0031302Y0109600D02*
X0032954Y0109600D01*
X0032954Y0111198D02*
X0032061Y0111198D01*
X0032954Y0112797D02*
X0026260Y0112797D01*
X0026260Y0113972D02*
X0032353Y0113972D01*
X0032267Y0114625D01*
X0032036Y0115486D01*
X0031695Y0116309D01*
X0031250Y0117081D01*
X0030707Y0117789D01*
X0030077Y0118419D01*
X0029369Y0118962D01*
X0028597Y0119407D01*
X0027774Y0119748D01*
X0026913Y0119979D01*
X0026260Y0120065D01*
X0026260Y0113972D01*
X0026260Y0114395D02*
X0024907Y0114395D01*
X0024907Y0112797D02*
X0017259Y0112797D01*
X0017259Y0114395D02*
X0018870Y0114395D01*
X0019341Y0115994D02*
X0017259Y0115994D01*
X0017259Y0117592D02*
X0020309Y0117592D01*
X0022195Y0119191D02*
X0017259Y0119191D01*
X0017259Y0120789D02*
X0032954Y0120789D01*
X0032954Y0119191D02*
X0028972Y0119191D01*
X0030858Y0117592D02*
X0032954Y0117592D01*
X0032954Y0115994D02*
X0031826Y0115994D01*
X0032297Y0114395D02*
X0032954Y0114395D01*
X0026260Y0115994D02*
X0024907Y0115994D01*
X0024907Y0117592D02*
X0026260Y0117592D01*
X0026260Y0119191D02*
X0024907Y0119191D01*
X0017259Y0122388D02*
X0032954Y0122388D01*
X0032954Y0123986D02*
X0017259Y0123986D01*
X0017259Y0125585D02*
X0032954Y0125585D01*
X0032954Y0127183D02*
X0017259Y0127183D01*
X0017259Y0128782D02*
X0022353Y0128782D01*
X0022608Y0128527D02*
X0024539Y0127728D01*
X0026628Y0127728D01*
X0028559Y0128527D01*
X0030037Y0130005D01*
X0030836Y0131936D01*
X0030836Y0134025D01*
X0030037Y0135956D01*
X0028559Y0137434D01*
X0026628Y0138233D01*
X0024539Y0138233D01*
X0022608Y0137434D01*
X0021130Y0135956D01*
X0020331Y0134025D01*
X0020331Y0131936D01*
X0021130Y0130005D01*
X0022608Y0128527D01*
X0020975Y0130380D02*
X0017259Y0130380D01*
X0017259Y0131979D02*
X0020331Y0131979D01*
X0020331Y0133577D02*
X0017259Y0133577D01*
X0017259Y0135176D02*
X0020807Y0135176D01*
X0021949Y0136775D02*
X0017259Y0136775D01*
X0017259Y0138373D02*
X0032954Y0138373D01*
X0032954Y0136775D02*
X0029218Y0136775D01*
X0030360Y0135176D02*
X0032954Y0135176D01*
X0032954Y0133577D02*
X0030836Y0133577D01*
X0030836Y0131979D02*
X0032954Y0131979D01*
X0032954Y0130380D02*
X0030192Y0130380D01*
X0028813Y0128782D02*
X0032954Y0128782D01*
X0032954Y0139972D02*
X0017259Y0139972D01*
X0017259Y0141570D02*
X0032954Y0141570D01*
X0032954Y0143169D02*
X0017259Y0143169D01*
X0017259Y0144767D02*
X0032954Y0144767D01*
X0032954Y0146366D02*
X0017259Y0146366D01*
X0017259Y0147964D02*
X0032954Y0147964D01*
X0032954Y0149563D02*
X0017259Y0149563D01*
X0017259Y0151161D02*
X0032954Y0151161D01*
X0032954Y0152760D02*
X0017259Y0152760D01*
X0017259Y0154358D02*
X0032954Y0154358D01*
X0032954Y0155957D02*
X0017259Y0155957D01*
X0017259Y0157555D02*
X0033491Y0157555D01*
X0035090Y0159154D02*
X0017259Y0159154D01*
X0017259Y0160752D02*
X0036456Y0160752D01*
X0035404Y0162351D02*
X0017259Y0162351D01*
X0017259Y0163949D02*
X0035404Y0163949D01*
X0035404Y0165548D02*
X0017259Y0165548D01*
X0017259Y0167146D02*
X0036976Y0167146D01*
X0052186Y0165548D02*
X0060321Y0165548D01*
X0059080Y0167146D02*
X0053754Y0167146D01*
X0053754Y0168745D02*
X0058754Y0168745D01*
X0059126Y0170343D02*
X0053673Y0170343D01*
X0052075Y0171942D02*
X0060476Y0171942D01*
X0061195Y0175139D02*
X0017259Y0175139D01*
X0017259Y0176737D02*
X0059249Y0176737D01*
X0058754Y0178336D02*
X0017259Y0178336D01*
X0017259Y0179934D02*
X0058956Y0179934D01*
X0060023Y0181533D02*
X0017259Y0181533D01*
X0017259Y0183131D02*
X0066567Y0183131D01*
X0057973Y0184730D02*
X0017259Y0184730D01*
X0017259Y0186328D02*
X0024869Y0186328D01*
X0023271Y0187927D02*
X0017259Y0187927D01*
X0017259Y0189525D02*
X0022153Y0189525D01*
X0021491Y0191124D02*
X0017259Y0191124D01*
X0017259Y0192722D02*
X0021154Y0192722D01*
X0021154Y0194321D02*
X0017259Y0194321D01*
X0017259Y0195919D02*
X0021352Y0195919D01*
X0022014Y0197518D02*
X0017259Y0197518D01*
X0017292Y0199116D02*
X0022936Y0199116D01*
X0024534Y0200715D02*
X0017620Y0200715D01*
X0018192Y0202313D02*
X0027779Y0202313D01*
X0032128Y0202313D02*
X0047638Y0202313D01*
X0048214Y0202889D02*
X0045754Y0200429D01*
X0045754Y0198689D01*
X0045754Y0196949D01*
X0048214Y0194489D01*
X0049953Y0194489D01*
X0049953Y0198689D01*
X0045754Y0198689D01*
X0049953Y0198689D01*
X0049953Y0198689D01*
X0049954Y0198689D01*
X0049954Y0198689D01*
X0054154Y0198689D01*
X0054154Y0196949D01*
X0051693Y0194489D01*
X0049954Y0194489D01*
X0049954Y0198689D01*
X0054154Y0198689D01*
X0054154Y0200429D01*
X0051693Y0202889D01*
X0049954Y0202889D01*
X0049954Y0198689D01*
X0049953Y0198689D01*
X0049953Y0202889D01*
X0048214Y0202889D01*
X0049953Y0202313D02*
X0049954Y0202313D01*
X0049953Y0200715D02*
X0049954Y0200715D01*
X0049953Y0199116D02*
X0049954Y0199116D01*
X0049953Y0197518D02*
X0049954Y0197518D01*
X0049953Y0195919D02*
X0049954Y0195919D01*
X0053124Y0195919D02*
X0056784Y0195919D01*
X0055754Y0197518D02*
X0054154Y0197518D01*
X0054154Y0199116D02*
X0055754Y0199116D01*
X0056040Y0200715D02*
X0053867Y0200715D01*
X0052269Y0202313D02*
X0057638Y0202313D01*
X0046040Y0200715D02*
X0035373Y0200715D01*
X0036971Y0199116D02*
X0045754Y0199116D01*
X0045754Y0197518D02*
X0037893Y0197518D01*
X0038555Y0195919D02*
X0046784Y0195919D01*
X0070612Y0160752D02*
X0086456Y0160752D01*
X0087052Y0151161D02*
X0072856Y0151161D01*
X0073754Y0149563D02*
X0086154Y0149563D01*
X0086154Y0147964D02*
X0073754Y0147964D01*
X0073004Y0146366D02*
X0086903Y0146366D01*
X0093004Y0146366D02*
X0106903Y0146366D01*
X0106154Y0147964D02*
X0093754Y0147964D01*
X0093754Y0149563D02*
X0106154Y0149563D01*
X0107052Y0151161D02*
X0092856Y0151161D01*
X0107954Y0152760D02*
X0051211Y0152760D01*
X0049613Y0154358D02*
X0107954Y0154358D01*
X0107954Y0155957D02*
X0069995Y0155957D01*
X0067052Y0151161D02*
X0052810Y0151161D01*
X0054408Y0149563D02*
X0066154Y0149563D01*
X0066154Y0147964D02*
X0056007Y0147964D01*
X0057606Y0146366D02*
X0066903Y0146366D01*
X0115165Y0120789D02*
X0126680Y0120789D01*
X0133227Y0120789D02*
X0157479Y0120789D01*
X0144954Y0103206D02*
X0144953Y0103206D01*
X0144953Y0101607D02*
X0144954Y0101607D01*
X0144953Y0100009D02*
X0144954Y0100009D01*
X0140856Y0100009D02*
X0111954Y0100009D01*
X0111954Y0101607D02*
X0139847Y0101607D01*
X0186094Y0100009D02*
X0193813Y0100009D01*
X0193255Y0096812D02*
X0186652Y0096812D01*
X0187601Y0095213D02*
X0192306Y0095213D01*
X0192057Y0093615D02*
X0187850Y0093615D01*
X0187540Y0092016D02*
X0192367Y0092016D01*
X0193404Y0090418D02*
X0186503Y0090418D01*
X0187061Y0106403D02*
X0192846Y0106403D01*
X0227254Y0098410D02*
X0227654Y0098410D01*
X0227654Y0096812D02*
X0227254Y0096812D01*
X0227254Y0095213D02*
X0227654Y0095213D01*
X0227654Y0092016D02*
X0227254Y0092016D01*
X0227254Y0090418D02*
X0227654Y0090418D01*
X0235386Y0076031D02*
X0254521Y0076031D01*
X0253754Y0074433D02*
X0236154Y0074433D01*
X0236112Y0072834D02*
X0253795Y0072834D01*
X0254633Y0071236D02*
X0235274Y0071236D01*
X0234977Y0066440D02*
X0254930Y0066440D01*
X0253918Y0064841D02*
X0235989Y0064841D01*
X0236154Y0063243D02*
X0253754Y0063243D01*
X0254287Y0061644D02*
X0235620Y0061644D01*
X0233488Y0060046D02*
X0256419Y0060046D01*
X0255339Y0056849D02*
X0234568Y0056849D01*
X0235820Y0055250D02*
X0254087Y0055250D01*
X0253754Y0053652D02*
X0236154Y0053652D01*
X0235789Y0052053D02*
X0254118Y0052053D01*
X0255432Y0050455D02*
X0234475Y0050455D01*
X0264475Y0050455D02*
X0270359Y0050455D01*
X0274418Y0052053D02*
X0322649Y0052053D01*
X0322649Y0050455D02*
X0276016Y0050455D01*
X0272819Y0053652D02*
X0322649Y0053652D01*
X0322649Y0055250D02*
X0271221Y0055250D01*
X0291964Y0039265D02*
X0303085Y0039265D01*
X0304683Y0040864D02*
X0293563Y0040864D01*
X0214272Y0021682D02*
X0140635Y0021682D01*
X0141154Y0023280D02*
X0213754Y0023280D01*
X0162954Y0032871D02*
X0162206Y0032871D01*
X0161657Y0034470D02*
X0162954Y0034470D01*
X0158250Y0034470D02*
X0141143Y0034470D01*
X0141128Y0032871D02*
X0157701Y0032871D01*
X0156103Y0031273D02*
X0140311Y0031273D01*
X0140570Y0026477D02*
X0155731Y0026477D01*
X0157329Y0024879D02*
X0140974Y0024879D01*
X0140348Y0036068D02*
X0156140Y0036068D01*
X0155929Y0040864D02*
X0155607Y0040864D01*
X0154009Y0042462D02*
X0157292Y0042462D01*
X0152410Y0044061D02*
X0162954Y0044061D01*
X0162954Y0042462D02*
X0162615Y0042462D01*
X0162609Y0045659D02*
X0150812Y0045659D01*
X0149213Y0047258D02*
X0161154Y0047258D01*
X0161154Y0048856D02*
X0148754Y0048856D01*
X0148562Y0050455D02*
X0161345Y0050455D01*
X0162944Y0052053D02*
X0146963Y0052053D01*
X0142944Y0052053D02*
X0136954Y0052053D01*
X0136954Y0050455D02*
X0141345Y0050455D01*
X0141154Y0048856D02*
X0136954Y0048856D01*
X0138668Y0047258D02*
X0141154Y0047258D01*
X0140651Y0045659D02*
X0142609Y0045659D01*
X0141154Y0044061D02*
X0146753Y0044061D01*
X0148352Y0042462D02*
X0140958Y0042462D01*
X0139902Y0040864D02*
X0149950Y0040864D01*
X0142954Y0053652D02*
X0136954Y0053652D01*
X0136954Y0055250D02*
X0142954Y0055250D01*
X0142954Y0056849D02*
X0136954Y0056849D01*
X0136954Y0058447D02*
X0142954Y0058447D01*
X0142954Y0060046D02*
X0136425Y0060046D01*
X0134827Y0061644D02*
X0142954Y0061644D01*
X0142954Y0063243D02*
X0133228Y0063243D01*
X0131630Y0064841D02*
X0142954Y0064841D01*
X0130768Y0060046D02*
X0123488Y0060046D01*
X0125620Y0061644D02*
X0129170Y0061644D01*
X0127571Y0063243D02*
X0126154Y0063243D01*
X0041422Y0088819D02*
X0027743Y0088819D01*
X0029819Y0090418D02*
X0040118Y0090418D01*
X0033798Y0092016D02*
X0030609Y0092016D01*
X0030836Y0093615D02*
X0032954Y0093615D01*
X0032954Y0095213D02*
X0030605Y0095213D01*
X0029811Y0096812D02*
X0032954Y0096812D01*
X0032954Y0098410D02*
X0027722Y0098410D01*
X0026260Y0108001D02*
X0024907Y0108001D01*
X0024907Y0109600D02*
X0026260Y0109600D01*
X0026260Y0111198D02*
X0024907Y0111198D01*
X0021313Y0108001D02*
X0017259Y0108001D01*
X0017259Y0109600D02*
X0019865Y0109600D01*
X0019105Y0111198D02*
X0017259Y0111198D01*
X0297398Y0123986D02*
X0302509Y0123986D01*
X0300658Y0125585D02*
X0299249Y0125585D01*
X0304954Y0118689D02*
X0309954Y0123689D01*
X0309954Y0133689D01*
X0304954Y0138689D01*
X0302964Y0143169D02*
X0302261Y0143169D01*
D22*
X0299954Y0143689D02*
X0299954Y0133689D01*
X0047454Y0133689D01*
X0045269Y0133374D01*
X0054954Y0138689D02*
X0294954Y0138689D01*
X0299954Y0143689D02*
X0304954Y0148689D01*
X0294954Y0148689D02*
X0289954Y0143689D01*
X0057454Y0143689D01*
X0042454Y0158689D01*
X0037454Y0158689D01*
X0034954Y0156189D01*
X0034954Y0093689D01*
X0044954Y0093689D01*
X0045269Y0093217D01*
X0069954Y0068689D02*
X0074954Y0063689D01*
X0084954Y0063689D01*
X0069954Y0048689D02*
X0084954Y0033689D01*
X0089954Y0033689D01*
X0094954Y0033689D01*
X0104954Y0043689D01*
X0104954Y0033689D02*
X0099954Y0033689D01*
X0089954Y0023689D01*
X0134954Y0023689D02*
X0139954Y0028689D01*
X0159954Y0028689D01*
X0164954Y0028689D01*
X0194954Y0028689D01*
X0184954Y0033689D02*
X0219954Y0033689D01*
X0219954Y0043689D02*
X0199954Y0043689D01*
X0194954Y0038689D01*
X0184954Y0033689D02*
X0184954Y0048689D01*
X0204954Y0048689D02*
X0219954Y0063689D01*
X0229954Y0063689D01*
X0204954Y0078689D02*
X0254954Y0078689D01*
X0259954Y0073689D01*
X0259954Y0053689D02*
X0269954Y0053689D01*
X0279954Y0043689D01*
X0164954Y0048689D02*
X0164954Y0028689D01*
X0159954Y0038689D02*
X0154954Y0038689D01*
X0144954Y0048689D01*
X0144954Y0073689D01*
X0127454Y0073689D01*
X0122454Y0078689D01*
X0109954Y0078689D01*
X0109954Y0103689D01*
X0124954Y0103689D01*
X0129954Y0108689D01*
X0119954Y0073689D02*
X0134954Y0058689D01*
X0134954Y0043689D01*
X0049954Y0058689D02*
X0044954Y0063689D01*
X0039954Y0063689D01*
X0054954Y0138689D02*
X0039954Y0153689D01*
X0064954Y0158689D02*
X0069954Y0163689D01*
X0089954Y0163689D01*
X0109954Y0168689D02*
X0134954Y0168689D01*
X0144954Y0178689D01*
X0164954Y0178689D02*
X0164954Y0198689D01*
X0189954Y0198689D01*
X0184954Y0193689D02*
X0219954Y0193689D01*
X0219954Y0183689D02*
X0194954Y0183689D01*
X0189954Y0188689D01*
X0184954Y0193689D02*
X0184954Y0178689D01*
X0204954Y0178689D02*
X0219954Y0163689D01*
X0224954Y0163689D01*
X0164954Y0198689D02*
X0159954Y0198689D01*
X0134954Y0198689D01*
X0129954Y0203689D01*
X0129954Y0193689D02*
X0119954Y0193689D01*
X0119954Y0173689D01*
X0109954Y0168689D02*
X0109954Y0148689D01*
X0129954Y0148689D02*
X0129954Y0163689D01*
X0119954Y0163689D01*
X0089954Y0188689D02*
X0074954Y0188689D01*
X0064954Y0178689D01*
M02*
