%
M48
M72
T01C0.0320
T02C0.0394
T03C0.0400
T04C0.0433
T05C0.0591
T06C0.1300
%
T01
X4995Y2869
X5995Y3369
X5995Y2369
X8995Y2369
X8995Y3369
X10495Y3369
X10495Y4369
X11995Y5369
X11995Y6369
X11995Y7369
X10995Y7869
X8995Y7869
X6995Y7869
X6995Y6869
X6995Y5869
X8495Y6369
X9495Y6369
X6995Y4869
X4995Y5869
X3995Y6369
X3995Y7369
X6995Y10869
X6995Y11869
X8995Y11869
X8995Y10869
X10995Y10869
X10995Y11869
X12995Y11869
X14495Y11369
X14495Y10369
X12995Y10869
X15995Y12369
X16495Y14869
X14495Y14869
X12995Y14869
X11995Y15369
X10995Y14869
X8995Y14869
X6995Y14869
X6495Y15869
X6495Y16869
X6495Y17869
X5995Y18869
X5995Y19869
X4995Y19869
X8995Y19869
X8995Y18869
X10495Y18869
X10495Y19869
X12995Y20369
X12995Y19369
X12995Y18369
X14495Y17869
X15995Y18869
X15995Y19869
X18995Y19869
X18995Y18869
X18495Y17869
X16495Y17869
X20495Y17869
X21995Y18369
X21995Y19369
X21995Y20369
X24995Y20369
X24995Y19369
X24995Y18369
X24995Y17369
X24995Y16369
X24995Y15369
X22495Y15369
X22495Y16369
X22495Y17369
X20495Y14869
X18495Y14869
X11995Y16369
X11995Y17369
X9995Y16369
X8995Y16369
X4995Y16869
X3995Y16369
X3995Y15369
X12995Y7869
X14495Y7869
X16495Y7869
X15995Y9369
X18495Y7869
X20495Y7869
X22995Y7369
X22995Y6369
X22995Y5369
X21995Y4369
X21995Y3369
X21995Y2369
X19495Y2869
X19495Y3869
X18495Y4869
X16495Y4869
X15995Y3869
X15995Y2869
X13495Y3369
X13495Y4369
X14495Y4869
X13495Y2369
X20495Y4869
X25495Y4369
X25495Y3369
X25495Y2369
X27995Y4369
X28995Y4369
X25995Y5369
X25995Y6369
X25995Y7369
X27495Y18369
X28495Y18369
T02
X28495Y12869
X26995Y10869
T03
X25745Y10369
X25745Y9369
X22745Y9369
X22745Y10369
X26995Y12869
X29495Y12869
X30495Y12869
X30495Y13869
X29495Y13869
X29495Y14869
X30495Y14869
X26995Y14869
T04
X19995Y11369
X19995Y10369
X19995Y9369
X17995Y9369
X17995Y10369
X17995Y11369
T05
X29464Y10916
X29464Y9853
X29464Y8908
X29464Y7963
X29464Y6900
X31432Y6940
X31432Y8908
X31432Y10877
X4527Y11330
X4527Y12274
X4527Y13337
X2558Y13298
X2558Y11330
X4527Y10385
X4527Y9322
X2558Y9361
T06
X2995Y3369
X2995Y19369
X30995Y19369
X30995Y3369
M30
